<?xml version="1.0" encoding="UTF-8"?>
<svg xmlns="http://www.w3.org/2000/svg" xmlns:xlink="http://www.w3.org/1999/xlink" width="128pt" height="85pt" viewBox="0 0 128 85" version="1.1">
<g id="surface1">
<path style=" stroke:none;fill-rule:nonzero;fill:rgb(0%,0%,0%);fill-opacity:1;" d="M 16.78125 84.667969 C 13.53125 83.722656 11.023438 81.644531 9.972656 79.019531 C 9.550781 77.96875 9.4375 77.851562 8.695312 77.714844 C 3.113281 76.652344 -0.859375 69.640625 0.3125 62.921875 C 0.980469 59.074219 1.113281 57.804688 1.179688 54.632812 C 1.277344 49.648438 1.945312 47.339844 3.453125 46.753906 C 4.03125 46.527344 7.042969 46.519531 7.761719 46.742188 C 10.648438 47.636719 11.167969 47.71875 12.398438 47.476562 C 15.292969 46.902344 15.941406 46.714844 16.414062 46.3125 C 16.78125 46 18.277344 45.3125 18.589844 45.3125 C 18.722656 45.3125 19.339844 45.160156 19.953125 44.980469 C 21.382812 44.554688 23.394531 44.753906 25.082031 45.488281 C 25.667969 45.746094 26.238281 45.953125 26.347656 45.953125 C 26.453125 45.953125 26.789062 46.105469 27.089844 46.292969 C 27.71875 46.683594 28.140625 46.582031 29.195312 45.777344 C 29.523438 45.527344 30.109375 45.085938 30.496094 44.792969 C 30.886719 44.503906 31.320312 44.160156 31.464844 44.027344 C 31.734375 43.773438 33.082031 42.730469 34.046875 42.019531 C 35.21875 41.15625 36.289062 40.496094 37.542969 39.867188 C 38.257812 39.507812 38.886719 39.140625 38.941406 39.050781 C 39 38.957031 39.144531 38.882812 39.265625 38.882812 C 39.484375 38.882812 42.53125 37.425781 45.03125 36.121094 C 46.160156 35.53125 47.84375 34.433594 49.546875 33.175781 C 50.074219 32.78125 50.78125 32.269531 51.113281 32.035156 C 51.664062 31.644531 51.914062 31.171875 51.570312 31.171875 C 51.292969 31.171875 48.996094 29.195312 49.089844 29.039062 C 49.152344 28.941406 49.757812 28.921875 50.691406 28.992188 C 52.371094 29.113281 52.601562 28.960938 51.714844 28.304688 C 51.273438 27.980469 51.058594 27.480469 51.351562 27.472656 C 52.308594 27.449219 54.726562 27.082031 55.40625 26.855469 C 55.894531 26.691406 57.375 26.359375 58.699219 26.113281 C 61.710938 25.554688 61.664062 25.566406 61.332031 25.378906 C 60.292969 24.796875 53.300781 25.617188 49.5 26.769531 C 47.394531 27.410156 42.90625 26.886719 42.027344 25.90625 C 41.726562 25.566406 41.207031 25.324219 40.425781 25.15625 C 40.183594 25.101562 39.710938 24.820312 39.382812 24.527344 C 38.433594 23.691406 37.246094 22.957031 36.457031 22.722656 C 36.054688 22.601562 35.488281 22.304688 35.195312 22.058594 C 34.90625 21.8125 34.351562 21.429688 33.964844 21.210938 C 32.566406 20.410156 31.542969 19.617188 30.800781 18.75 C 30.34375 18.21875 29.628906 17.636719 28.996094 17.285156 C 28.417969 16.957031 27.757812 16.433594 27.511719 16.101562 C 27.273438 15.777344 26.921875 15.363281 26.734375 15.1875 C 24.953125 13.519531 24.238281 12.167969 25.296875 12.460938 C 27.085938 12.964844 32.324219 13.191406 32.730469 12.785156 C 33.292969 12.21875 26.261719 11.039062 24.574219 11.414062 C 23.410156 11.671875 22.597656 11.675781 22.515625 11.421875 C 22.476562 11.3125 22.222656 11.027344 21.949219 10.792969 C 20.417969 9.480469 18.71875 7.5 17.628906 5.769531 C 17.460938 5.503906 17.160156 5.308594 16.820312 5.242188 C 16.28125 5.140625 15.816406 4.730469 15.144531 3.757812 C 14.792969 3.253906 13.171875 0.203125 13.171875 0.046875 C 13.171875 -0.0351562 14.226562 0.0390625 16.863281 0.304688 C 18.304688 0.449219 23.554688 1.71875 24.242188 2.085938 C 24.414062 2.179688 25.265625 2.496094 26.132812 2.792969 C 26.996094 3.085938 28.5 3.730469 29.472656 4.226562 C 30.441406 4.71875 31.707031 5.296875 32.28125 5.515625 C 33.648438 6.035156 37.242188 7.769531 39.269531 8.890625 C 39.445312 8.988281 40.382812 9.492188 41.355469 10.007812 C 42.328125 10.527344 43.289062 11.105469 43.488281 11.296875 C 43.839844 11.625 44.324219 11.917969 48.046875 14.046875 C 48.960938 14.570312 50.25 15.320312 50.910156 15.714844 C 51.574219 16.109375 52.332031 16.554688 52.597656 16.710938 C 54.835938 18.007812 56.65625 19.140625 57.738281 19.921875 C 58.839844 20.710938 61.070312 22.191406 62.699219 23.210938 C 63.308594 23.589844 64.429688 23.480469 65.847656 22.894531 C 67.449219 22.234375 69.972656 22.355469 72.050781 23.191406 C 72.855469 23.519531 73.582031 23.785156 73.660156 23.785156 C 73.742188 23.785156 74.347656 24.058594 75.007812 24.394531 C 75.667969 24.734375 76.710938 25.210938 77.332031 25.457031 C 77.949219 25.703125 78.527344 25.960938 78.617188 26.035156 C 78.929688 26.292969 81.308594 27.167969 83.238281 27.738281 C 84.316406 28.054688 85.269531 28.378906 85.351562 28.460938 C 85.4375 28.539062 85.710938 28.605469 85.964844 28.605469 C 86.425781 28.605469 87.457031 28.875 88.8125 29.347656 C 89.933594 29.738281 91.011719 30.03125 92.589844 30.378906 C 93.382812 30.554688 94.179688 30.761719 94.355469 30.835938 C 94.53125 30.910156 94.945312 31.085938 95.269531 31.226562 C 95.917969 31.507812 98.703125 33.585938 100.378906 35.035156 C 100.953125 35.535156 101.675781 36.113281 101.984375 36.328125 C 102.292969 36.539062 102.691406 36.84375 102.867188 37.007812 C 103.042969 37.171875 103.621094 37.628906 104.152344 38.019531 C 105.375 38.921875 105.738281 39.222656 108.539062 41.644531 C 111.191406 43.933594 112.589844 45.035156 113.386719 45.464844 C 114.40625 46.019531 116.054688 47.738281 116.347656 48.558594 C 116.550781 49.128906 116.726562 49.347656 117.085938 49.472656 C 117.347656 49.5625 117.796875 49.808594 118.082031 50.015625 C 118.371094 50.222656 118.792969 50.488281 119.023438 50.601562 C 119.25 50.714844 119.738281 51.078125 120.101562 51.414062 C 120.925781 52.167969 122.328125 53.230469 122.863281 53.503906 C 124.414062 54.304688 124.59375 55.40625 123.355469 56.566406 L 122.566406 57.308594 L 124.039062 58.984375 C 125.589844 60.753906 125.816406 60.964844 127.109375 61.871094 C 128.777344 63.042969 128.03125 63.390625 126.109375 62.335938 C 124.035156 61.195312 122.035156 60.796875 119.84375 61.082031 C 118.414062 61.265625 118.042969 61.15625 118.042969 60.554688 C 118.042969 59.765625 115.007812 57.429688 111.378906 55.421875 C 110.847656 55.128906 110.199219 54.730469 109.933594 54.539062 C 109.667969 54.34375 109.015625 53.949219 108.488281 53.660156 C 107.957031 53.375 106.875 52.777344 106.078125 52.332031 C 101.546875 49.8125 101.050781 49.628906 100.679688 50.332031 C 100.324219 51.003906 97.894531 53.367188 97.125 53.785156 C 96.707031 54.015625 96.363281 54.257812 96.363281 54.324219 C 96.363281 54.394531 96.222656 54.492188 96.054688 54.546875 C 95.234375 54.808594 94.921875 55.246094 95.15625 55.808594 C 95.578125 56.820312 95.667969 62.003906 95.277344 63.015625 C 94.9375 63.90625 94.601562 65.328125 94.273438 67.246094 C 93.839844 69.804688 92.625 70.367188 90.871094 68.816406 C 90.46875 68.460938 90.257812 68.613281 89.957031 69.488281 C 89.292969 71.402344 86.808594 71.578125 85.566406 69.800781 C 84.417969 68.152344 84.054688 65.113281 84.769531 63.148438 C 84.945312 62.660156 85.316406 61.648438 85.589844 60.898438 C 86.976562 57.113281 86.492188 56.25 83.515625 57.203125 C 82.960938 57.378906 82.296875 57.523438 82.035156 57.523438 C 81.328125 57.523438 79.390625 58.339844 76.367188 59.90625 C 75.078125 60.574219 73.929688 61.042969 72.59375 61.445312 C 71.824219 61.675781 70.980469 62.054688 70.664062 62.3125 C 70.355469 62.5625 69.816406 62.933594 69.460938 63.144531 C 69.109375 63.351562 68.636719 63.683594 68.417969 63.882812 C 67.910156 64.339844 64.933594 65.878906 64.558594 65.878906 C 64.40625 65.878906 63.855469 66.164062 63.335938 66.507812 C 62.820312 66.855469 62.070312 67.261719 61.671875 67.417969 C 61.273438 67.574219 60.757812 67.832031 60.523438 67.996094 C 60.289062 68.15625 59.996094 68.289062 59.871094 68.289062 C 59.75 68.289062 59.582031 68.355469 59.496094 68.4375 C 59.414062 68.519531 58.585938 68.871094 57.65625 69.21875 C 56.730469 69.566406 55.574219 70.050781 55.085938 70.296875 C 54.042969 70.828125 50.816406 71.902344 49.789062 72.058594 C 49.390625 72.121094 48.492188 72.28125 47.796875 72.417969 C 45.867188 72.796875 39.632812 72.621094 37.757812 72.136719 C 36.203125 71.738281 35.921875 71.78125 34.1875 72.707031 C 33.019531 73.328125 32.199219 74.171875 30.878906 76.117188 C 26.894531 81.980469 26.214844 82.738281 24 83.796875 C 21.722656 84.886719 18.765625 85.242188 16.785156 84.667969 Z M 21.039062 84.125 C 23.492188 83.742188 26.660156 82.042969 26.660156 81.109375 C 26.660156 80.992188 27.078125 80.429688 27.59375 79.855469 C 28.105469 79.285156 29.09375 77.945312 29.792969 76.886719 C 31.308594 74.578125 32.96875 72.527344 33.4375 72.375 C 34.980469 71.886719 35.273438 71.179688 33.9375 71.179688 C 32.523438 71.179688 26.820312 77.34375 26.820312 78.875 C 26.820312 79.140625 25.535156 80.703125 24.972656 81.121094 C 19.898438 84.902344 14.367188 84.015625 12.375 79.105469 L 11.933594 78.011719 L 10.519531 78.011719 L 10.558594 78.628906 C 10.710938 81.207031 16.105469 84.859375 19.113281 84.425781 C 19.332031 84.390625 20.199219 84.257812 21.039062 84.128906 Z M 20.859375 79.6875 C 22.15625 77.265625 23.453125 72.851562 22.957031 72.542969 C 22.636719 72.347656 22.179688 72.972656 22.082031 73.730469 C 21.851562 75.582031 19.703125 80.777344 18.671875 81.976562 C 18.542969 82.128906 18.488281 82.332031 18.550781 82.433594 C 18.726562 82.71875 20.125 81.0625 20.859375 79.6875 Z M 20.964844 81.988281 C 22.398438 80.480469 24.410156 75.109375 24.410156 72.789062 C 24.410156 71.28125 23.875 71.574219 23.6875 73.191406 C 23.558594 74.328125 22.296875 78.203125 21.746094 79.164062 C 21.53125 79.535156 21.359375 79.910156 21.359375 80.003906 C 21.359375 80.214844 20.296875 81.890625 20.078125 82.027344 C 19.828125 82.179688 19.882812 82.589844 20.152344 82.589844 C 20.285156 82.589844 20.648438 82.320312 20.964844 81.988281 Z M 18.207031 81.496094 C 18.429688 81.167969 18.6875 80.699219 18.78125 80.449219 C 18.875 80.199219 19.164062 79.6875 19.425781 79.308594 C 20.082031 78.351562 21.359375 75.042969 21.359375 74.296875 C 21.359375 73.273438 20.738281 73.742188 20.261719 75.117188 C 19.546875 77.191406 19.238281 78.015625 19.113281 78.171875 C 19.039062 78.257812 18.828125 78.761719 18.644531 79.289062 C 18.460938 79.816406 18.054688 80.632812 17.742188 81.101562 C 17.1875 81.9375 17.125 82.34375 17.578125 82.167969 C 17.699219 82.121094 17.984375 81.816406 18.207031 81.492188 Z M 16.542969 81.816406 C 16.542969 81.742188 16.828125 81.300781 17.179688 80.832031 C 17.527344 80.359375 17.933594 79.605469 18.082031 79.15625 C 18.226562 78.703125 18.480469 78.078125 18.636719 77.769531 C 19.195312 76.6875 19.496094 75.5 19.25 75.347656 C 18.957031 75.164062 18.585938 75.589844 18.328125 76.402344 C 17.847656 77.921875 17.078125 79.683594 16.507812 80.566406 C 15.820312 81.636719 15.753906 81.949219 16.21875 81.949219 C 16.398438 81.949219 16.542969 81.890625 16.542969 81.816406 Z M 15.441406 81.023438 C 16.253906 80.046875 17.503906 77.476562 17.503906 76.789062 C 17.503906 76.046875 16.976562 76.605469 16.453125 77.902344 C 16.15625 78.636719 15.65625 79.625 15.34375 80.097656 C 14.625 81.1875 14.699219 81.914062 15.441406 81.023438 Z M 24.585938 80.132812 C 25.714844 79.171875 26.921875 75.789062 27.382812 72.308594 C 27.5625 70.945312 27.566406 70.578125 27.402344 70.414062 C 27.148438 70.15625 26.664062 70.324219 26.648438 70.675781 C 26.640625 70.820312 26.617188 71.34375 26.597656 71.832031 C 26.519531 73.574219 25.582031 76.8125 24.472656 79.15625 C 23.757812 80.667969 23.777344 80.824219 24.585938 80.132812 Z M 15.003906 79.488281 C 15.714844 78.554688 16.214844 77.128906 15.828125 77.128906 C 15.691406 77.128906 15.578125 77.210938 15.578125 77.320312 C 15.578125 77.421875 15.441406 77.660156 15.273438 77.839844 C 14.804688 78.347656 14.105469 79.6875 14.214844 79.863281 C 14.382812 80.132812 14.585938 80.039062 15.003906 79.488281 Z M 23.664062 79.417969 C 24.824219 77.574219 26.277344 72.53125 25.917969 71.597656 C 25.785156 71.246094 25.214844 71.269531 25.210938 71.625 C 25.179688 73.183594 24.136719 77.34375 23.375 78.9375 C 23.03125 79.65625 22.976562 80.019531 23.214844 80.019531 C 23.25 80.019531 23.453125 79.75 23.664062 79.417969 Z M 14.070312 78.292969 C 14.347656 77.925781 14.347656 77.769531 14.070312 77.769531 C 13.945312 77.769531 13.800781 77.882812 13.75 78.023438 C 13.527344 78.601562 13.714844 78.761719 14.070312 78.292969 Z M 13.972656 76.957031 C 16.933594 75.96875 18.292969 75.289062 19.585938 74.136719 C 20.503906 73.320312 22.824219 71.800781 24.390625 70.996094 C 25.308594 70.523438 26.355469 69.980469 26.722656 69.789062 C 27.085938 69.59375 27.761719 69.316406 28.226562 69.171875 C 29.25 68.84375 29.398438 68.648438 28.894531 68.273438 C 28.679688 68.113281 28.363281 67.855469 28.1875 67.695312 C 27.265625 66.863281 25.324219 66.007812 23.816406 65.765625 C 23.324219 65.6875 23.277344 65.726562 22.859375 66.585938 C 22.617188 67.082031 22.316406 67.484375 22.191406 67.484375 C 21.960938 67.484375 21.96875 67.410156 22.296875 66.441406 C 23.117188 64.039062 23.183594 59.644531 22.421875 58.40625 C 22.3125 58.230469 22.101562 57.753906 21.949219 57.347656 C 21.796875 56.941406 21.492188 56.441406 21.273438 56.234375 C 21.054688 56.027344 20.878906 55.746094 20.878906 55.609375 C 20.878906 55.46875 20.722656 54.957031 20.539062 54.472656 C 19.265625 51.152344 20.867188 48.207031 24.167969 47.800781 C 25.238281 47.671875 26.339844 47.265625 26.339844 47 C 26.339844 46.097656 21.875 45.046875 20.160156 45.546875 C 19.6875 45.683594 19.164062 45.792969 18.992188 45.792969 C 16.542969 45.792969 14 50.054688 14.835938 52.757812 C 14.964844 53.175781 14.945312 53.207031 14.609375 53.160156 C 14.34375 53.121094 14.191406 52.941406 14.066406 52.515625 C 13.828125 51.707031 12.785156 50.511719 12.128906 50.296875 C 11.609375 50.125 11.320312 49.785156 11.519531 49.585938 C 11.769531 49.335938 12.421875 49.542969 12.988281 50.050781 C 13.675781 50.671875 13.972656 50.761719 13.964844 50.332031 C 13.957031 49.785156 12.6875 48.683594 12.070312 48.683594 C 11.890625 48.683594 11.699219 48.617188 11.648438 48.535156 C 11.5625 48.394531 11.265625 48.300781 8.589844 47.570312 C 2.910156 46.023438 1.742188 47.421875 1.546875 55.996094 C 1.484375 58.699219 1.347656 60.015625 0.855469 62.664062 C 0.0390625 67.054688 1.015625 70.964844 3.625 73.75 C 3.996094 74.148438 4.472656 74.671875 4.679688 74.910156 C 5.085938 75.378906 6.945312 76.480469 7.328125 76.480469 C 7.453125 76.480469 7.738281 76.601562 7.957031 76.746094 C 8.800781 77.296875 12.554688 77.429688 13.972656 76.957031 Z M 11.242188 74.40625 C 9.636719 73.917969 8.511719 72.511719 8.511719 71 C 8.511719 70.746094 8.375 70.414062 8.207031 70.257812 C 8.039062 70.105469 7.660156 69.75 7.363281 69.472656 C 6.753906 68.902344 5.613281 66.792969 5.617188 66.242188 C 5.621094 65.660156 6.058594 65.820312 6.277344 66.484375 C 6.386719 66.8125 6.597656 67.265625 6.746094 67.488281 C 6.894531 67.707031 7.214844 68.191406 7.457031 68.558594 C 7.972656 69.347656 8.214844 69.472656 8.753906 69.222656 C 9.300781 68.976562 9.257812 68.726562 8.574219 68.207031 C 7.640625 67.492188 6.644531 64.996094 7.296875 64.996094 C 7.378906 64.996094 7.601562 65.394531 7.792969 65.882812 C 8.441406 67.558594 9.277344 68.351562 10.019531 67.996094 C 12.542969 66.78125 14.429688 67.183594 15.734375 69.207031 L 16.171875 69.886719 L 15.898438 71.34375 C 15.402344 73.992188 13.65625 75.140625 11.242188 74.40625 Z M 11 72.890625 C 11.003906 72.730469 11.210938 72.429688 11.464844 72.226562 C 11.832031 71.933594 11.90625 71.777344 11.824219 71.449219 C 11.738281 71.109375 11.820312 70.957031 12.285156 70.589844 C 12.59375 70.339844 12.847656 70.019531 12.847656 69.875 C 12.847656 69.730469 13.019531 69.566406 13.230469 69.515625 C 13.441406 69.460938 13.652344 69.269531 13.699219 69.085938 C 13.773438 68.800781 13.839844 68.777344 14.121094 68.925781 C 14.71875 69.246094 15.207031 70.996094 14.773438 71.261719 C 14.6875 71.316406 14.613281 71.519531 14.609375 71.714844 C 14.609375 71.90625 14.464844 72.246094 14.292969 72.46875 C 13.699219 73.222656 14.085938 73.621094 14.71875 72.910156 C 15.492188 72.046875 15.496094 70.058594 14.734375 68.984375 C 12.839844 66.320312 7.960938 69.113281 9.410156 72.03125 C 9.902344 73.03125 11 73.621094 11 72.890625 Z M 13.140625 71.957031 C 13.074219 71.320312 12.761719 71.191406 12.621094 71.746094 C 12.5 72.230469 12.605469 72.46875 12.949219 72.46875 C 13.121094 72.46875 13.175781 72.328125 13.140625 71.957031 Z M 13.101562 53.402344 C 12.855469 53.09375 12.480469 52.765625 12.265625 52.667969 C 11.84375 52.472656 11.832031 52.171875 12.246094 52.09375 C 12.515625 52.042969 13.972656 53.332031 13.972656 53.625 C 13.972656 54.03125 13.511719 53.914062 13.101562 53.402344 Z M 28.101562 75.238281 C 28.582031 74.011719 28.933594 70.273438 28.585938 70.058594 C 28.210938 69.828125 28.160156 69.984375 28.042969 71.617188 C 27.984375 72.484375 27.800781 73.820312 27.640625 74.59375 C 27.476562 75.363281 27.382812 76.03125 27.429688 76.078125 C 27.628906 76.277344 27.757812 76.113281 28.101562 75.238281 Z M 29.800781 72.386719 C 29.859375 71.988281 29.851562 71.320312 29.785156 70.902344 L 29.660156 70.136719 L 29.539062 70.699219 C 29.226562 72.101562 29.1875 73.109375 29.445312 73.109375 C 29.613281 73.109375 29.726562 72.882812 29.800781 72.386719 Z M 40.992188 71.894531 C 41.042969 71.84375 40.5625 71.285156 39.929688 70.648438 C 38.503906 69.222656 37.984375 68.519531 38.246094 68.359375 C 38.355469 68.289062 38.570312 68.429688 38.769531 68.707031 C 39.847656 70.191406 41.875 71.761719 42.9375 71.933594 C 43.867188 72.082031 43.679688 71.726562 41.996094 70.136719 C 40.726562 68.933594 40.148438 68.128906 40.554688 68.128906 C 40.601562 68.128906 41.277344 68.761719 42.050781 69.535156 C 43.527344 71.007812 44.800781 71.800781 45.792969 71.867188 C 46.585938 71.921875 46.554688 71.652344 45.699219 71.050781 C 43.785156 69.707031 42.183594 67.808594 42.960938 67.808594 C 43.089844 67.808594 43.199219 67.871094 43.199219 67.949219 C 43.199219 68.230469 45.480469 70.304688 46.140625 70.625 C 46.511719 70.808594 47.113281 71.125 47.476562 71.328125 C 48.007812 71.628906 48.234375 71.671875 48.59375 71.554688 C 49.296875 71.316406 49.222656 71.097656 48.273438 70.632812 C 47.128906 70.070312 44.648438 67.488281 45.257812 67.488281 C 45.328125 67.488281 45.886719 67.976562 46.503906 68.570312 C 48.179688 70.195312 50.671875 71.332031 51.53125 70.871094 C 52.09375 70.570312 51.90625 70.382812 50.230469 69.546875 C 49.421875 69.144531 47.21875 66.972656 47.539062 66.894531 C 47.667969 66.863281 48.238281 67.277344 48.800781 67.8125 C 49.894531 68.855469 51.945312 69.960938 53.128906 70.152344 C 53.960938 70.285156 54.152344 69.984375 53.46875 69.613281 C 51.3125 68.433594 49.398438 66.898438 49.496094 66.421875 C 49.550781 66.15625 49.613281 66.179688 50.03125 66.621094 C 51.222656 67.867188 53.753906 69.226562 55.015625 69.292969 C 56.140625 69.351562 56.054688 69.003906 54.78125 68.34375 C 52.914062 67.371094 50.96875 65.558594 51.792969 65.558594 C 51.925781 65.558594 52.035156 65.625 52.035156 65.710938 C 52.035156 66.261719 55.410156 68.175781 56.734375 68.371094 C 57.882812 68.546875 58.890625 68.148438 58.015625 67.867188 C 56.625 67.421875 53.480469 65.460938 53.480469 65.035156 C 53.480469 64.746094 54.097656 64.953125 54.503906 65.375 C 55.507812 66.425781 59.28125 67.851562 59.769531 67.363281 C 59.914062 67.21875 59.882812 67.152344 59.648438 67.078125 C 58.5 66.707031 56.046875 65.023438 56.046875 64.605469 C 56.046875 64.316406 56.460938 64.410156 56.785156 64.769531 C 56.953125 64.957031 57.382812 65.257812 57.734375 65.4375 C 58.089844 65.617188 58.542969 65.890625 58.742188 66.046875 C 59.183594 66.390625 61.1875 66.757812 61.796875 66.605469 C 62.285156 66.484375 61.925781 66.039062 61.339844 66.039062 C 60.792969 66.039062 57.976562 64.417969 57.976562 64.101562 C 57.976562 63.828125 58.292969 63.945312 59.566406 64.6875 C 60.652344 65.316406 61.007812 65.4375 62.09375 65.546875 C 63.824219 65.722656 64.148438 65.402344 62.714844 64.929688 C 62.359375 64.816406 61.644531 64.511719 61.121094 64.257812 C 60.601562 64 60.085938 63.792969 59.976562 63.792969 C 59.785156 63.792969 59.582031 63.449219 59.582031 63.136719 C 59.582031 62.863281 60.050781 62.984375 60.792969 63.457031 C 61.925781 64.179688 64.902344 64.960938 65.378906 64.664062 C 65.636719 64.507812 65.226562 64.28125 64.679688 64.277344 C 64.171875 64.273438 61.347656 62.90625 61.347656 62.664062 C 61.347656 62.398438 61.742188 62.484375 62.976562 63.011719 C 63.6875 63.316406 64.535156 63.546875 65.101562 63.589844 C 66.316406 63.679688 66.261719 63.402344 64.980469 62.96875 C 63.867188 62.589844 63.277344 62.230469 63.277344 61.925781 C 63.277344 61.640625 63.59375 61.648438 63.980469 61.941406 C 64.445312 62.292969 66.636719 62.742188 66.847656 62.53125 C 66.976562 62.402344 66.960938 62.335938 66.796875 62.28125 C 66.671875 62.242188 66.183594 62.085938 65.714844 61.9375 C 64.878906 61.675781 64.539062 61.339844 64.820312 61.058594 C 64.902344 60.976562 65.4375 61.078125 66.085938 61.300781 C 67.269531 61.707031 68.09375 61.808594 68.09375 61.542969 C 68.09375 61.457031 67.894531 61.335938 67.652344 61.277344 C 67.164062 61.15625 65.523438 59.980469 65.523438 59.75 C 65.523438 59.441406 66.039062 59.425781 66.375 59.726562 C 66.828125 60.128906 68.488281 60.898438 68.90625 60.898438 C 69.382812 60.898438 69.484375 60.441406 69.078125 60.15625 C 68.519531 59.761719 68.050781 58.722656 68.332031 58.492188 C 68.515625 58.339844 68.636719 58.429688 68.96875 58.957031 C 69.410156 59.652344 70.804688 60.574219 71.425781 60.574219 C 71.800781 60.578125 71.910156 60.351562 71.625 60.171875 C 71.222656 59.925781 69.859375 58.121094 69.859375 57.839844 C 69.859375 57.421875 70.285156 57.4375 70.511719 57.859375 C 71.132812 59.023438 72.238281 59.839844 73.4375 60.019531 C 74.433594 60.167969 74.425781 59.9375 73.40625 59.203125 C 72.5 58.554688 71.714844 57.363281 71.867188 56.878906 C 72.035156 56.355469 72.328125 56.527344 72.722656 57.371094 C 73.207031 58.398438 74.214844 59.132812 75.148438 59.132812 C 75.859375 59.132812 76.03125 58.875 75.425781 58.722656 C 74.820312 58.570312 73.871094 57.3125 73.832031 56.605469 C 73.785156 55.859375 74.1875 55.757812 74.378906 56.464844 C 74.632812 57.417969 75.835938 58.328125 76.839844 58.328125 C 77.609375 58.328125 77.554688 58.117188 76.625 57.507812 C 75.773438 56.949219 75 55.910156 75 55.324219 C 75 54.734375 75.375 54.894531 75.730469 55.636719 C 76.128906 56.464844 77.535156 57.488281 78.371094 57.558594 C 79.164062 57.625 79.207031 57.355469 78.46875 56.96875 C 77.78125 56.609375 76.710938 55.128906 76.800781 54.664062 C 76.894531 54.171875 77.292969 54.378906 77.515625 55.035156 C 77.878906 56.109375 79.085938 56.882812 80.398438 56.882812 C 81.265625 56.882812 81.3125 56.617188 80.539062 56.117188 C 79.429688 55.398438 79.824219 55.070312 81.035156 55.703125 C 82.335938 56.386719 82.664062 55.988281 81.953125 54.578125 C 81.488281 53.65625 81.855469 53.597656 82.730469 54.460938 C 83.242188 54.96875 83.773438 55.328125 84.136719 55.414062 C 86.128906 55.898438 86.578125 55.964844 86.746094 55.796875 C 86.871094 55.675781 86.8125 55.570312 86.539062 55.429688 C 86.089844 55.199219 85.117188 54.304688 85.117188 54.117188 C 85.117188 53.855469 85.71875 54 86.015625 54.335938 C 86.449219 54.824219 88.09375 55.539062 89.113281 55.675781 C 90.222656 55.824219 90.171875 55.59375 88.890625 54.714844 C 87.230469 53.574219 87.625 53.238281 89.351562 54.320312 C 90.617188 55.117188 92.980469 55.59375 92.601562 54.976562 C 92.546875 54.890625 92.269531 54.765625 91.980469 54.703125 C 91.695312 54.640625 91.171875 54.371094 90.820312 54.097656 C 90.464844 53.828125 90.144531 53.582031 90.105469 53.554688 C 89.6875 53.238281 90.503906 53.257812 91.074219 53.574219 C 91.902344 54.035156 93.164062 54.355469 93.367188 54.15625 C 93.445312 54.078125 93.300781 53.910156 93.035156 53.773438 C 91.871094 53.171875 91.960938 52.691406 93.164062 53.082031 C 94.121094 53.390625 96.097656 53.449219 96.003906 53.164062 C 95.914062 52.890625 94.597656 52.402344 93.921875 52.390625 C 92.347656 52.367188 91.183594 49.203125 91.933594 46.980469 C 92.132812 46.398438 83.753906 45.777344 82.527344 46.285156 C 82.230469 46.410156 81.84375 46.488281 81.664062 46.46875 C 81.488281 46.445312 80.042969 46.851562 78.453125 47.371094 L 75.5625 48.316406 L 73.632812 48.273438 C 71.195312 48.21875 69.386719 48.078125 67.453125 47.789062 C 64.917969 47.414062 62.527344 47.617188 61.429688 48.296875 C 61.101562 48.5 59.203125 48.523438 59.007812 48.324219 C 58.949219 48.265625 59.089844 47.992188 59.320312 47.71875 C 59.621094 47.363281 59.742188 47.03125 59.742188 46.585938 C 59.742188 45.9375 59.488281 45.734375 59.3125 46.238281 C 59.03125 47.03125 58.296875 47.363281 58.296875 46.695312 C 58.296875 46.441406 58.183594 46.285156 57.957031 46.222656 C 57.695312 46.15625 57.644531 46.0625 57.738281 45.84375 C 57.804688 45.683594 57.871094 45.335938 57.878906 45.070312 C 57.90625 44.273438 58.359375 44.457031 58.472656 45.3125 C 58.527344 45.710938 58.582031 45.878906 58.59375 45.683594 C 58.683594 44.375 60.847656 45.160156 61.351562 46.679688 C 61.453125 46.988281 61.617188 47.25 61.722656 47.257812 C 63.394531 47.421875 63.59375 45.792969 62.050781 44.554688 C 61.699219 44.273438 61.503906 44.003906 61.574219 43.890625 C 61.746094 43.613281 61.886719 43.65625 62.554688 44.1875 C 63.292969 44.773438 63.535156 44.78125 65.140625 44.257812 C 68.109375 43.289062 68.421875 42.640625 66.328125 41.804688 C 63.871094 40.828125 63.527344 40.636719 62.554688 39.695312 C 62.023438 39.183594 61.460938 38.695312 61.300781 38.613281 C 61.140625 38.53125 60.347656 37.835938 59.535156 37.066406 C 57.167969 34.828125 55.691406 33.582031 55.402344 33.582031 C 55.253906 33.582031 54.851562 33.378906 54.507812 33.132812 C 53.113281 32.136719 52.035156 31.691406 52.035156 32.109375 C 52.035156 32.242188 50.429688 33.324219 49.625 33.738281 C 49.40625 33.851562 49.007812 34.140625 48.742188 34.382812 C 47.894531 35.152344 45.960938 36.234375 41.515625 38.421875 C 36.953125 40.664062 35.183594 41.683594 33.726562 42.898438 C 33.242188 43.304688 32.691406 43.742188 32.503906 43.871094 C 32.316406 44 31.742188 44.433594 31.234375 44.832031 C 30.722656 45.226562 29.714844 45.988281 28.992188 46.519531 C 27.203125 47.832031 25.886719 49.335938 25.050781 51.019531 C 24.644531 51.847656 24.308594 52.34375 24.222656 52.257812 C 24.03125 52.066406 24.457031 50.828125 25.0625 49.796875 C 25.917969 48.347656 25.394531 48.25 24.308594 49.652344 C 22.894531 51.472656 21.726562 56.820312 22.699219 57.011719 C 22.933594 57.058594 22.976562 57.003906 22.890625 56.742188 C 22.773438 56.371094 23.101562 55.617188 23.265625 55.882812 C 23.320312 55.972656 23.367188 58.007812 23.367188 60.402344 C 23.367188 64.621094 23.378906 64.761719 23.6875 64.847656 C 23.867188 64.898438 24.25 65.050781 24.539062 65.179688 C 24.832031 65.3125 25.535156 65.589844 26.097656 65.792969 C 26.660156 65.996094 27.335938 66.316406 27.597656 66.503906 C 27.859375 66.691406 28.117188 66.84375 28.167969 66.84375 C 28.222656 66.84375 28.847656 67.296875 29.558594 67.847656 C 32.164062 69.871094 32.710938 69.972656 31.949219 68.300781 C 31.640625 67.621094 31.632812 67.164062 31.921875 67.164062 C 32 67.164062 32.21875 67.546875 32.410156 68.015625 C 32.808594 68.972656 33.941406 70.304688 34.488281 70.460938 C 34.914062 70.578125 34.992188 70.214844 34.605469 69.894531 C 34.335938 69.671875 33.726562 68.375 33.726562 68.027344 C 33.726562 67.585938 34.007812 67.824219 34.453125 68.648438 C 35.296875 70.199219 37.3125 71.835938 37.789062 71.359375 C 37.96875 71.175781 37.945312 71.136719 36.722656 69.707031 C 35.976562 68.832031 35.820312 68.3125 36.253906 68.167969 C 36.363281 68.132812 36.53125 68.304688 36.621094 68.546875 C 37.25 70.195312 40.328125 72.554688 40.992188 71.894531 Z M 80.308594 51.4375 C 80.058594 50.832031 80.144531 50.054688 80.460938 50.054688 C 80.628906 50.054688 80.703125 50.226562 80.710938 50.617188 C 80.714844 50.925781 80.773438 51.339844 80.839844 51.539062 C 81.03125 52.097656 80.542969 52 80.308594 51.4375 Z M 87.746094 70.09375 C 87.917969 69.816406 87.230469 68.210938 86.941406 68.210938 C 86.589844 68.210938 86.226562 68.871094 86.28125 69.410156 C 86.339844 69.960938 87.496094 70.5 87.746094 70.09375 Z M 89.3125 69.253906 C 89.503906 68.898438 90.257812 67.167969 90.257812 67.078125 C 90.257812 67.035156 90.4375 66.710938 90.660156 66.363281 C 91.328125 65.300781 90.898438 64.433594 89.703125 64.433594 C 88.160156 64.433594 87.195312 68.097656 88.417969 69.316406 C 88.730469 69.632812 89.121094 69.605469 89.3125 69.253906 Z M 93.269531 68.8125 C 94.226562 67.855469 93.867188 64.113281 92.820312 64.113281 C 92.371094 64.113281 92.269531 64.488281 92.582031 64.96875 C 92.871094 65.410156 92.703125 65.644531 92.207031 65.484375 C 91.28125 65.191406 90.585938 68.128906 91.5 68.453125 C 91.742188 68.542969 92.125 68.71875 92.34375 68.847656 C 92.859375 69.152344 92.929688 69.148438 93.269531 68.8125 Z M 86.59375 67.652344 C 87.03125 67.390625 87.222656 67.082031 87.65625 65.925781 C 88.425781 63.863281 89.277344 63.289062 90.578125 63.953125 C 91.59375 64.472656 91.960938 64.328125 91.890625 63.4375 C 91.863281 63.089844 91.941406 62.972656 92.242188 62.898438 C 93.019531 62.703125 94.222656 59.257812 94.296875 57.007812 C 94.347656 55.507812 94.332031 55.484375 93.269531 55.804688 C 92.46875 56.046875 91.855469 56.175781 89.734375 56.546875 C 88.683594 56.734375 87.765625 57.285156 87.425781 57.941406 C 87.03125 58.699219 87.265625 58.878906 88.007812 58.390625 C 88.363281 58.152344 88.699219 58.003906 88.753906 58.054688 C 88.945312 58.246094 88.65625 58.640625 88.035156 59.035156 C 87.492188 59.375 86.722656 60.316406 86.722656 60.636719 C 86.722656 60.855469 87.171875 60.71875 87.445312 60.417969 C 87.710938 60.125 88.328125 59.964844 88.328125 60.191406 C 88.328125 60.242188 87.933594 60.660156 87.445312 61.121094 C 86.429688 62.082031 86.363281 62.304688 87.070312 62.375 L 87.578125 62.425781 L 86.726562 63.066406 C 85.578125 63.933594 84.617188 65.746094 85.726562 64.949219 C 86.691406 64.253906 87.289062 64.335938 86.464844 65.046875 C 85.46875 65.910156 84.980469 67.191406 85.894531 66.539062 C 86.796875 65.898438 87.058594 66.289062 86.242188 67.058594 C 85.410156 67.84375 85.636719 68.222656 86.59375 67.652344 Z M 94.375 63.875 C 94.492188 63.5625 93.921875 62.585938 93.621094 62.585938 C 93.285156 62.585938 93.246094 63.226562 93.558594 63.703125 C 93.859375 64.160156 94.234375 64.238281 94.375 63.875 Z M 94.789062 61.851562 C 94.746094 61.316406 94.5 61.019531 94.191406 61.117188 C 93.914062 61.203125 93.921875 61.667969 94.207031 62.101562 C 94.5625 62.648438 94.847656 62.527344 94.789062 61.851562 Z M 94.992188 59.800781 C 94.992188 59.277344 94.679688 59.304688 94.621094 59.832031 C 94.582031 60.15625 94.628906 60.269531 94.78125 60.21875 C 94.898438 60.179688 94.992188 59.992188 94.992188 59.800781 Z M 121.886719 60.003906 C 122.074219 59.8125 121.835938 59.507812 121.050781 58.921875 C 120.03125 58.160156 120.539062 57.703125 121.613281 58.414062 C 122.425781 58.953125 122.558594 58.804688 121.945312 58.046875 C 121.515625 57.511719 121.34375 57.429688 120.351562 57.269531 C 118.851562 57.023438 118.332031 56.769531 116.121094 55.1875 C 115.078125 54.441406 114.175781 53.828125 114.117188 53.828125 C 114.058594 53.828125 113.597656 53.550781 113.09375 53.214844 C 111.609375 52.21875 110.398438 51.578125 109.992188 51.578125 C 108.386719 51.570312 104.144531 49.511719 101.945312 47.671875 C 101.078125 46.945312 100.628906 46.945312 100.863281 47.671875 C 100.941406 47.921875 101.046875 48.316406 101.089844 48.546875 C 101.15625 48.886719 101.410156 49.082031 102.378906 49.542969 C 103.042969 49.859375 103.890625 50.324219 104.269531 50.578125 C 104.644531 50.832031 105.667969 51.417969 106.542969 51.882812 C 107.421875 52.347656 108.367188 52.902344 108.648438 53.117188 C 108.929688 53.332031 109.203125 53.507812 109.253906 53.507812 C 109.308594 53.507812 109.664062 53.714844 110.042969 53.972656 C 110.421875 54.226562 110.984375 54.550781 111.296875 54.695312 C 113.246094 55.589844 117.417969 58.484375 118.285156 59.546875 L 118.894531 60.292969 L 120.316406 60.222656 C 121.097656 60.1875 121.804688 60.089844 121.886719 60.003906 Z M 122.878906 55.980469 C 123.308594 55.589844 123.273438 55.210938 122.816406 55.332031 C 122.621094 55.386719 122.300781 55.429688 122.105469 55.433594 C 121.65625 55.433594 121.238281 55.855469 121.363281 56.179688 C 121.488281 56.503906 122.4375 56.375 122.878906 55.980469 Z M 120.851562 55.691406 C 120.851562 55.503906 120.628906 55.257812 120.289062 55.074219 C 119.507812 54.640625 118.84375 53.984375 118.84375 53.636719 C 118.84375 53.183594 119.304688 53.292969 119.976562 53.898438 C 120.847656 54.683594 122.214844 55 122.214844 54.414062 C 122.214844 54.3125 121.703125 53.796875 121.074219 53.265625 C 120.445312 52.734375 119.632812 52.039062 119.269531 51.71875 C 117.4375 50.109375 116.238281 49.753906 115.230469 50.527344 C 114.828125 50.832031 114.070312 51.203125 113.542969 51.351562 C 112.417969 51.667969 112.355469 51.863281 113.191406 52.441406 C 113.875 52.914062 114.1875 52.976562 114.1875 52.632812 C 114.1875 52.265625 114.503906 52.167969 114.804688 52.441406 C 114.957031 52.578125 115.292969 52.675781 115.546875 52.65625 C 116.011719 52.625 116.253906 52.894531 116.507812 53.730469 C 116.597656 54.015625 116.621094 54.015625 116.902344 53.761719 C 117.234375 53.460938 117.71875 53.75 117.71875 54.25 C 117.71875 54.378906 117.828125 54.699219 117.964844 54.960938 C 118.222656 55.457031 118.683594 55.609375 118.683594 55.195312 C 118.683594 54.734375 119.289062 54.945312 119.632812 55.527344 C 120.019531 56.183594 120.851562 56.292969 120.851562 55.691406 Z M 21.988281 53.664062 C 23.132812 50.132812 23.152344 50.019531 22.628906 50.300781 C 22.085938 50.589844 21.484375 52.140625 21.394531 53.488281 C 21.296875 54.925781 21.554688 55 21.988281 53.660156 Z M 96.03125 51.25 C 98.378906 50.34375 99.214844 48.640625 98.21875 46.785156 C 98.09375 46.546875 97.953125 46.238281 97.910156 46.09375 C 97.808594 45.769531 96.878906 45.582031 96.078125 45.722656 C 94.769531 45.957031 93.796875 46.265625 93.496094 46.542969 C 93.324219 46.707031 92.992188 46.996094 92.761719 47.1875 C 92.019531 47.804688 92.238281 50.476562 93.105469 51.457031 C 93.488281 51.886719 94.578125 51.808594 96.03125 51.25 Z M 99.253906 50.851562 C 100.128906 50.398438 100.675781 48.449219 100.195312 47.511719 C 99.929688 46.992188 99.222656 46.273438 98.980469 46.273438 C 98.730469 46.273438 98.695312 46.691406 98.929688 46.835938 C 99.015625 46.890625 99.089844 47.144531 99.089844 47.398438 C 99.089844 47.652344 99.164062 48.058594 99.257812 48.300781 C 99.445312 48.792969 99.292969 49.300781 98.65625 50.328125 C 98.121094 51.195312 98.296875 51.347656 99.253906 50.851562 Z M 113.734375 50.425781 C 114.664062 50.003906 114.753906 49.648438 113.929688 49.648438 C 112.371094 49.648438 109.703125 46.539062 110.363281 45.484375 C 110.476562 45.300781 110.617188 45.152344 110.671875 45.152344 C 111.402344 45.152344 110.035156 43.546875 107.632812 41.585938 C 107.164062 41.207031 106.476562 40.648438 106.105469 40.351562 C 105.734375 40.054688 104.394531 38.96875 103.128906 37.941406 C 101.863281 36.914062 100.707031 36 100.558594 35.910156 C 100.316406 35.769531 98.621094 34.429688 97.949219 33.851562 C 97.011719 33.042969 93.9375 31.332031 93.421875 31.332031 C 93.28125 31.332031 92.996094 31.265625 92.792969 31.183594 C 92.589844 31.101562 91.519531 30.804688 90.417969 30.523438 C 89.3125 30.246094 88.121094 29.914062 87.765625 29.789062 C 87.1875 29.582031 86.785156 29.484375 85.199219 29.15625 C 84.933594 29.101562 84.570312 28.996094 84.394531 28.921875 C 84.21875 28.847656 83.53125 28.605469 82.867188 28.382812 C 81.140625 27.804688 79.742188 27.261719 78.453125 26.671875 C 77.832031 26.386719 77.183594 26.097656 77.007812 26.023438 C 76.828125 25.953125 76 25.570312 75.160156 25.171875 C 74.320312 24.773438 73.417969 24.398438 73.152344 24.335938 C 72.886719 24.273438 72.496094 24.113281 72.28125 23.980469 C 70.960938 23.152344 67.863281 22.933594 66.042969 23.535156 C 64.203125 24.148438 64.1875 24.128906 67.613281 25.898438 C 68.890625 26.5625 70.519531 27.511719 71.226562 28.007812 C 72.871094 29.160156 74.707031 30.246094 76.488281 31.117188 C 77.261719 31.496094 78.324219 32.097656 78.847656 32.453125 C 79.371094 32.808594 79.832031 33.097656 79.867188 33.097656 C 79.90625 33.097656 80.613281 33.484375 81.441406 33.953125 C 82.269531 34.421875 83.078125 34.851562 83.234375 34.910156 C 83.390625 34.972656 83.9375 35.304688 84.449219 35.652344 C 84.964844 36.003906 86.066406 36.660156 86.898438 37.117188 C 87.730469 37.570312 88.90625 38.238281 89.511719 38.597656 L 90.617188 39.253906 L 91.617188 39.070312 C 92.929688 38.824219 93.144531 38.835938 93.144531 39.128906 C 93.144531 39.273438 92.945312 39.414062 92.660156 39.46875 C 92.09375 39.582031 91.988281 39.699219 92.179688 40.003906 C 92.296875 40.191406 92.488281 40.183594 93.4375 39.957031 C 95 39.578125 95.726562 39.875 94.347656 40.328125 C 93.824219 40.503906 93.613281 40.847656 93.917969 41.035156 C 93.988281 41.078125 94.421875 41.003906 94.875 40.871094 C 96.453125 40.410156 96.757812 40.566406 97.070312 41.984375 C 97.195312 42.550781 97.585938 42.710938 97.882812 42.316406 C 98.09375 42.035156 98.113281 42.046875 98.214844 42.535156 C 98.371094 43.289062 98.691406 43.5 99.101562 43.128906 C 99.441406 42.820312 99.722656 42.988281 99.726562 43.511719 C 99.738281 44.480469 100.492188 45.742188 100.949219 45.566406 C 101.199219 45.472656 101.199219 45.265625 100.941406 44.648438 C 100.832031 44.386719 101.214844 43.867188 101.511719 43.867188 C 101.738281 43.867188 101.996094 44.636719 102.070312 45.550781 C 102.144531 46.386719 102.589844 47.054688 102.9375 46.839844 C 103.039062 46.777344 103.101562 46.480469 103.078125 46.183594 C 102.980469 45.042969 103.671875 45.058594 103.816406 46.199219 C 104.03125 47.867188 104.546875 48.441406 104.546875 47.007812 C 104.546875 45.667969 105.183594 45.882812 105.316406 47.269531 C 105.460938 48.769531 106.414062 49.613281 106.503906 48.324219 C 106.566406 47.488281 107.042969 47.261719 107.207031 47.992188 C 107.621094 49.816406 107.839844 50.097656 107.839844 48.792969 C 107.839844 47.90625 108.242188 47.886719 108.527344 48.757812 C 108.871094 49.808594 109.394531 50.164062 109.605469 49.488281 C 109.761719 48.996094 110.082031 49.105469 110.550781 49.808594 C 110.78125 50.160156 111.136719 50.484375 111.332031 50.523438 C 111.53125 50.566406 111.839844 50.632812 112.015625 50.667969 C 112.675781 50.808594 112.976562 50.765625 113.730469 50.425781 Z M 14.410156 48.730469 C 14.441406 48.636719 14.25 48.449219 13.980469 48.3125 C 13.355469 48.003906 13.121094 48.289062 13.648438 48.71875 C 14.03125 49.027344 14.308594 49.035156 14.410156 48.730469 Z M 114.679688 48.679688 C 115.503906 48.238281 114.871094 47.289062 112.789062 45.832031 C 111.546875 44.964844 110.535156 45.636719 111.34375 46.792969 C 112.539062 48.5 113.742188 49.179688 114.679688 48.679688 Z M 70.691406 47.398438 C 70.753906 47.21875 69.921875 45.957031 69.738281 45.957031 C 69.410156 45.953125 69.507812 46.449219 69.953125 47.03125 C 70.320312 47.511719 70.601562 47.652344 70.691406 47.398438 Z M 60.707031 47.089844 C 60.707031 46.917969 60.632812 46.730469 60.542969 46.675781 C 60.457031 46.621094 60.382812 46.648438 60.382812 46.734375 C 60.382812 46.820312 60.339844 47.007812 60.285156 47.144531 C 60.222656 47.3125 60.277344 47.398438 60.445312 47.398438 C 60.59375 47.398438 60.707031 47.269531 60.707031 47.089844 Z M 69.105469 47.300781 C 69.234375 47.167969 68.847656 46.425781 68.464844 46.078125 C 68.167969 45.8125 68.160156 45.824219 68.222656 46.402344 C 68.296875 47.105469 68.792969 47.609375 69.105469 47.300781 Z M 73.136719 46.769531 C 72.96875 46.632812 72.636719 46.28125 72.398438 45.992188 C 71.757812 45.21875 71.726562 45.601562 72.359375 46.476562 C 72.757812 47.023438 72.980469 47.203125 73.175781 47.128906 C 73.417969 47.035156 73.414062 47 73.136719 46.769531 Z M 66.808594 46.730469 C 66.808594 46.539062 66.925781 46.253906 67.066406 46.097656 C 67.351562 45.78125 67.753906 44.746094 67.765625 44.296875 C 67.78125 43.621094 67.058594 44.066406 66.867188 44.847656 C 66.765625 45.257812 66.5625 45.851562 66.410156 46.167969 C 66.125 46.765625 66.183594 47.078125 66.578125 47.078125 C 66.707031 47.078125 66.808594 46.925781 66.808594 46.730469 Z M 74.125 46.242188 C 73.796875 45.972656 73.351562 45.464844 73.128906 45.113281 C 72.839844 44.65625 72.675781 44.519531 72.550781 44.644531 C 72.351562 44.84375 73.128906 46.089844 73.546875 46.242188 C 73.683594 46.292969 73.96875 46.519531 74.183594 46.742188 C 74.457031 47.035156 74.59375 47.09375 74.644531 46.941406 C 74.683594 46.824219 74.449219 46.507812 74.125 46.242188 Z M 65.410156 46.335938 C 66.359375 45.414062 66.433594 44.535156 65.539062 44.847656 C 65.195312 44.96875 64.988281 45.21875 64.738281 45.820312 C 64.226562 47.058594 64.472656 47.246094 65.410156 46.335938 Z M 71.628906 46.730469 C 71.628906 46.484375 70.847656 45.472656 70.65625 45.472656 C 70.390625 45.472656 70.488281 45.824219 70.914062 46.378906 C 71.328125 46.925781 71.628906 47.070312 71.628906 46.730469 Z M 78.613281 45.953125 C 78.558594 45.867188 78.441406 45.792969 78.351562 45.792969 C 78.261719 45.792969 77.957031 45.558594 77.671875 45.269531 C 76.347656 43.933594 75.640625 43.433594 75.640625 43.832031 C 75.640625 44.046875 77.339844 45.589844 77.707031 45.707031 C 77.898438 45.765625 78.050781 45.882812 78.050781 45.964844 C 78.050781 46.046875 78.199219 46.113281 78.382812 46.113281 C 78.5625 46.113281 78.667969 46.042969 78.613281 45.953125 Z M 80.460938 45.722656 C 80.460938 45.597656 80.328125 45.453125 80.167969 45.402344 C 80.007812 45.351562 79.324219 44.761719 78.644531 44.09375 C 77.898438 43.351562 77.308594 42.898438 77.144531 42.929688 C 76.222656 43.105469 77.296875 44.269531 79.742188 45.742188 C 80.175781 46.007812 80.460938 46 80.460938 45.722656 Z M 74.835938 45.671875 C 74.824219 45.390625 73.5625 44.113281 73.558594 44.382812 C 73.554688 44.53125 73.777344 44.914062 74.054688 45.226562 C 74.523438 45.757812 74.84375 45.945312 74.835938 45.671875 Z M 76.441406 45.671875 C 76.4375 45.605469 76.039062 45.160156 75.554688 44.679688 C 74.378906 43.523438 74.019531 43.773438 75.160156 44.957031 C 75.871094 45.695312 76.453125 46.019531 76.441406 45.671875 Z M 68.957031 44.769531 C 69.253906 44.144531 69.304688 43.132812 69.046875 42.976562 C 68.722656 42.773438 68.257812 43.398438 68.28125 44.007812 C 68.292969 44.328125 68.246094 44.828125 68.179688 45.125 C 68.019531 45.84375 68.566406 45.59375 68.957031 44.769531 Z M 82.386719 45.429688 C 82.386719 45.320312 82.1875 45.140625 81.945312 45.03125 C 81.703125 44.925781 80.960938 44.328125 80.300781 43.710938 C 79.058594 42.546875 78.753906 42.394531 78.585938 42.835938 C 78.484375 43.101562 80.039062 44.8125 80.390625 44.824219 C 80.480469 44.828125 80.804688 45.007812 81.101562 45.230469 C 81.679688 45.65625 82.386719 45.765625 82.386719 45.429688 Z M 88.328125 45.320312 C 88.328125 45.25 88.121094 45.101562 87.863281 44.996094 C 87.609375 44.890625 87.261719 44.675781 87.089844 44.515625 C 86.550781 44.011719 86.082031 43.816406 86.082031 44.09375 C 86.082031 44.3125 87.269531 45.253906 87.84375 45.492188 C 88.113281 45.601562 88.328125 45.527344 88.328125 45.320312 Z M 90.148438 45.523438 C 90.273438 45.402344 89.800781 44.828125 89.574219 44.828125 C 89.355469 44.828125 88.621094 44.25 87.28125 43.019531 C 86.140625 41.976562 85.726562 41.757812 85.519531 42.09375 C 85.382812 42.316406 86.65625 43.542969 87.605469 44.097656 C 88.046875 44.355469 88.734375 44.804688 89.132812 45.09375 C 89.902344 45.660156 89.980469 45.691406 90.148438 45.523438 Z M 91.234375 44.910156 C 91.246094 44.820312 91.082031 44.640625 90.871094 44.507812 C 90.660156 44.375 90.273438 44.070312 90.011719 43.828125 C 88.382812 42.332031 87.367188 41.71875 87.367188 42.230469 C 87.367188 42.574219 89.582031 44.347656 90.007812 44.347656 C 90.082031 44.347656 90.3125 44.53125 90.523438 44.761719 C 90.898438 45.164062 91.203125 45.230469 91.238281 44.910156 Z M 97.992188 44.976562 C 98.308594 44.804688 97.585938 43.894531 97.113281 43.871094 C 97.042969 43.867188 96.464844 43.515625 95.828125 43.085938 C 94.410156 42.136719 91.472656 40.304688 90.816406 39.96875 C 88.304688 38.671875 87.40625 38.179688 87.191406 37.984375 C 87.050781 37.859375 86.902344 37.757812 86.855469 37.757812 C 86.71875 37.757812 84.296875 36.347656 84.019531 36.105469 C 83.664062 35.792969 82.199219 35.027344 81.957031 35.027344 C 81.851562 35.027344 81.5625 34.859375 81.3125 34.652344 C 80.757812 34.195312 79.695312 33.59375 77.09375 32.269531 C 75.996094 31.707031 74.933594 31.089844 74.734375 30.890625 C 74.53125 30.6875 74.265625 30.570312 74.128906 30.625 C 73.992188 30.675781 73.671875 30.566406 73.410156 30.382812 C 73.152344 30.195312 72.894531 30.046875 72.835938 30.046875 C 72.777344 30.046875 72.160156 29.613281 71.457031 29.085938 C 70.757812 28.558594 69.945312 28.007812 69.660156 27.859375 C 69.371094 27.710938 68.917969 27.425781 68.652344 27.226562 C 68.386719 27.027344 67.375 26.480469 66.402344 26.011719 C 65.433594 25.542969 64.058594 24.8125 63.351562 24.386719 C 61.746094 23.421875 61.867188 23.496094 60.753906 22.757812 C 55.335938 19.164062 52.808594 17.511719 52.734375 17.511719 C 52.679688 17.511719 52.320312 17.296875 51.925781 17.03125 C 51.53125 16.765625 51.167969 16.546875 51.117188 16.546875 C 51.0625 16.546875 50.46875 16.234375 49.796875 15.847656 C 47.757812 14.679688 47 14.257812 46.328125 13.929688 C 45.976562 13.753906 45.277344 13.332031 44.773438 12.992188 C 42.792969 11.648438 40.25 10.195312 37.414062 8.789062 C 35.78125 7.980469 34.410156 7.269531 34.363281 7.214844 C 34.226562 7.039062 33.265625 6.585938 33.03125 6.585938 C 32.90625 6.585938 31.410156 5.933594 29.703125 5.132812 C 27.996094 4.335938 26.496094 3.71875 26.371094 3.769531 C 26.027344 3.902344 26.21875 4.21875 26.746094 4.382812 C 27.386719 4.582031 37.273438 9.164062 37.578125 9.402344 C 37.710938 9.507812 38.324219 9.871094 38.941406 10.210938 C 39.898438 10.734375 40.601562 11.160156 42.96875 12.644531 C 43.136719 12.753906 43.855469 13.140625 44.5625 13.507812 C 45.269531 13.878906 46.027344 14.304688 46.25 14.457031 C 46.46875 14.613281 47.011719 14.925781 47.453125 15.148438 C 48.375 15.621094 48.710938 15.863281 49.847656 16.878906 C 51.792969 18.621094 52.828125 19.273438 54.296875 19.679688 C 54.886719 19.847656 55.617188 20.246094 56.417969 20.851562 C 57.089844 21.355469 58.816406 22.421875 60.25 23.214844 C 61.6875 24.011719 62.976562 24.769531 63.113281 24.902344 C 63.414062 25.191406 67.445312 27.84375 68.8125 28.652344 C 69.683594 29.164062 70.695312 29.742188 74.273438 31.757812 C 74.894531 32.105469 75.941406 32.753906 76.601562 33.203125 C 77.265625 33.648438 78.132812 34.179688 78.53125 34.382812 C 78.929688 34.585938 79.667969 35.03125 80.175781 35.375 C 80.683594 35.71875 81.40625 36.144531 81.78125 36.324219 C 82.15625 36.5 82.863281 36.925781 83.347656 37.269531 C 83.832031 37.609375 84.277344 37.859375 84.34375 37.820312 C 84.40625 37.777344 84.613281 37.898438 84.800781 38.085938 C 84.988281 38.277344 85.40625 38.550781 85.730469 38.699219 C 86.054688 38.847656 86.75 39.246094 87.273438 39.585938 C 87.796875 39.925781 88.410156 40.285156 88.636719 40.382812 C 88.863281 40.484375 89.90625 41.125 90.949219 41.8125 C 91.996094 42.5 92.921875 43.0625 93.007812 43.0625 C 93.183594 43.0625 94.988281 44.246094 95.472656 44.679688 C 95.652344 44.835938 96.121094 44.996094 96.519531 45.03125 C 96.914062 45.066406 97.335938 45.105469 97.453125 45.121094 C 97.566406 45.136719 97.8125 45.070312 97.992188 44.972656 Z M 85.597656 44.75 C 85.597656 44.617188 85.328125 44.335938 84.996094 44.125 C 84.664062 43.910156 84.035156 43.367188 83.597656 42.917969 C 82.8125 42.109375 82.21875 41.878906 81.964844 42.285156 C 81.828125 42.511719 82.8125 43.425781 84.195312 44.347656 C 85.210938 45.027344 85.597656 45.136719 85.597656 44.75 Z M 70.4375 44.09375 C 70.691406 43.484375 70.582031 43.023438 70.199219 43.09375 C 70.019531 43.128906 69.914062 43.378906 69.851562 43.910156 C 69.722656 45.019531 70.011719 45.109375 70.4375 44.09375 Z M 82.304688 43.628906 C 81.054688 42.460938 80.136719 42.039062 80.136719 42.628906 C 80.136719 43.171875 82.449219 44.785156 83.269531 44.8125 C 83.5 44.820312 83.222656 44.480469 82.304688 43.628906 Z M 92.503906 44.464844 C 92.503906 44.351562 92.308594 44.117188 92.070312 43.941406 C 91.832031 43.765625 91.40625 43.425781 91.125 43.179688 C 90.648438 42.773438 90.09375 42.59375 90.09375 42.855469 C 90.09375 43.019531 91.097656 44.027344 91.265625 44.027344 C 91.34375 44.027344 91.59375 44.171875 91.816406 44.347656 C 92.289062 44.71875 92.503906 44.753906 92.503906 44.464844 Z M 71.6875 43.773438 C 71.839844 43.375 71.804688 43.222656 71.5625 43.222656 C 71.3125 43.222656 71.09375 43.65625 71.234375 43.878906 C 71.371094 44.105469 71.582031 44.054688 71.691406 43.773438 Z M 85.777344 43.585938 C 85.425781 42.945312 84.175781 41.894531 83.894531 42 C 83.554688 42.132812 84.9375 43.644531 85.503906 43.753906 C 85.6875 43.792969 85.859375 43.832031 85.886719 43.84375 C 85.910156 43.855469 85.863281 43.738281 85.777344 43.585938 Z M 77.730469 42.042969 C 78.65625 41.90625 79.921875 41.679688 80.539062 41.539062 C 82.773438 41.039062 83.785156 40.9375 85.636719 41.011719 C 87.511719 41.085938 87.933594 40.972656 87.085938 40.625 C 86.839844 40.523438 86.351562 40.3125 86 40.148438 C 84.515625 39.476562 82.421875 39.609375 79.335938 40.578125 C 78.078125 40.972656 75.53125 41.300781 73.828125 41.285156 C 72.804688 41.277344 72.039062 41.152344 68.605469 40.425781 C 66.597656 40.003906 65.289062 39.898438 65.136719 40.148438 C 65.007812 40.355469 65.535156 40.769531 66.085938 40.902344 C 66.351562 40.964844 66.640625 41.066406 66.726562 41.128906 C 68.386719 42.277344 73.375 42.691406 77.730469 42.042969 Z M 76.695312 40.238281 C 77.585938 40.121094 78.632812 39.921875 79.023438 39.796875 C 80.273438 39.398438 81.621094 39.164062 83.265625 39.0625 L 84.871094 38.964844 L 83.859375 38.363281 C 82.746094 37.703125 82.921875 37.703125 80.621094 38.335938 C 79.089844 38.753906 73.351562 38.757812 70.261719 38.339844 C 67.335938 37.945312 63.3125 38.140625 62.746094 38.707031 C 62.515625 38.9375 63.5625 39.875 63.917969 39.75 C 65.726562 39.101562 67.503906 39.082031 69.378906 39.695312 C 71.910156 40.519531 73.574219 40.644531 76.695312 40.238281 Z M 79.089844 37.582031 C 80.777344 37.25 81.132812 37.085938 80.820312 36.773438 C 80.683594 36.632812 80.386719 36.640625 79.625 36.804688 C 77.855469 37.179688 72.261719 36.976562 70.101562 36.457031 C 67.617188 35.855469 61.039062 36.335938 60.910156 37.125 C 60.789062 37.84375 61.589844 37.992188 63.738281 37.648438 C 66.003906 37.289062 69.34375 37.359375 72.1875 37.832031 C 73.988281 38.128906 76.832031 38.027344 79.089844 37.582031 Z M 61.828125 35.933594 C 64.230469 35.464844 66.15625 35.300781 67.746094 35.429688 C 68.597656 35.496094 69.550781 35.574219 69.859375 35.597656 C 70.167969 35.625 71.179688 35.75 72.109375 35.882812 C 75.070312 36.300781 79.015625 36.238281 79.015625 35.769531 C 79.015625 35.324219 78.019531 35.078125 76.507812 35.152344 C 75.417969 35.207031 74.660156 35.144531 73.535156 34.898438 C 70.175781 34.175781 66.976562 34.054688 64.320312 34.558594 C 63.789062 34.660156 62.417969 34.863281 61.269531 35.007812 C 59.574219 35.222656 59.175781 35.320312 59.132812 35.542969 C 59.066406 35.871094 59.847656 36.335938 60.304688 36.238281 C 60.480469 36.199219 61.167969 36.0625 61.828125 35.933594 Z M 62.230469 34.0625 C 63.203125 33.972656 64.757812 33.78125 65.683594 33.640625 C 67.742188 33.320312 70.472656 33.417969 72.832031 33.898438 C 74.53125 34.242188 75.886719 34.320312 76.03125 34.082031 C 76.257812 33.71875 75.039062 33.121094 73.699219 32.941406 C 72.957031 32.839844 71.945312 32.65625 71.449219 32.53125 C 69.808594 32.113281 66.597656 32.195312 64.558594 32.707031 C 62.167969 33.3125 60.210938 33.726562 59.359375 33.816406 C 58.300781 33.921875 58.082031 34.007812 58.234375 34.257812 C 58.304688 34.367188 58.722656 34.390625 59.402344 34.328125 C 59.988281 34.273438 61.257812 34.152344 62.230469 34.0625 Z M 61.667969 32.625 C 62.507812 32.433594 63.84375 32.121094 64.640625 31.933594 C 65.832031 31.648438 66.585938 31.585938 68.929688 31.578125 C 71.820312 31.574219 72.171875 31.476562 70.78125 31.058594 C 69.199219 30.585938 65.503906 30.933594 59.339844 32.132812 C 58.898438 32.21875 58.152344 32.363281 57.6875 32.453125 C 57.21875 32.542969 56.621094 32.617188 56.359375 32.617188 C 55.898438 32.617188 55.769531 32.761719 56.007812 33.011719 C 56.234375 33.246094 60.101562 32.984375 61.667969 32.625 Z M 58.214844 31.550781 C 58.921875 31.421875 59.933594 31.246094 60.464844 31.167969 C 62.691406 30.835938 63.390625 30.714844 63.996094 30.554688 C 64.515625 30.417969 67.871094 30.054688 68.695312 30.050781 C 69.136719 30.046875 68.855469 29.765625 68.214844 29.566406 C 67.796875 29.4375 66.84375 29.367188 65.773438 29.386719 C 64.046875 29.414062 63.339844 29.550781 60.597656 30.382812 C 59.554688 30.703125 57.132812 31.125 55.445312 31.28125 C 54.769531 31.347656 54.441406 31.445312 54.441406 31.589844 C 54.441406 31.796875 56.125 31.992188 56.691406 31.851562 C 56.824219 31.816406 57.507812 31.683594 58.214844 31.550781 Z M 56.207031 30.433594 C 57.136719 30.289062 58.203125 30.035156 58.582031 29.871094 C 59.257812 29.570312 61.066406 29.210938 63.433594 28.90625 C 64.097656 28.824219 65.03125 28.699219 65.511719 28.636719 C 67.480469 28.375 66.160156 27.5625 63.835938 27.605469 C 62.3125 27.636719 59.300781 28.3125 56.851562 29.175781 C 55.910156 29.507812 55.210938 29.621094 53.640625 29.703125 C 52.027344 29.785156 51.632812 29.851562 51.632812 30.042969 C 51.632812 30.714844 53.402344 30.863281 56.207031 30.433594 Z M 56.378906 28.503906 C 56.859375 28.363281 57.324219 28.1875 57.414062 28.117188 C 57.5 28.046875 57.933594 27.914062 58.375 27.824219 C 60.1875 27.460938 62.789062 26.742188 62.789062 26.609375 C 62.792969 26.433594 59.703125 26.601562 59.011719 26.8125 C 58.75 26.890625 58.03125 27.042969 57.414062 27.148438 C 56.792969 27.253906 55.964844 27.441406 55.566406 27.5625 C 55.167969 27.6875 54.640625 27.828125 54.390625 27.878906 C 53.78125 28.003906 53.921875 28.3125 54.695312 28.546875 C 55.515625 28.796875 55.382812 28.796875 56.378906 28.503906 Z M 49.171875 26.027344 C 49.992188 25.847656 51.210938 25.585938 51.871094 25.445312 C 52.535156 25.304688 53.617188 25.042969 54.28125 24.867188 C 55.695312 24.488281 57.261719 24.285156 58.9375 24.273438 L 60.140625 24.261719 L 58.539062 23.359375 C 57.660156 22.863281 56.539062 22.191406 56.050781 21.863281 C 55.5625 21.535156 54.621094 20.972656 53.957031 20.613281 L 52.753906 19.960938 L 50.90625 20.101562 C 48.859375 20.261719 47.066406 20.480469 45.847656 20.71875 C 43.449219 21.191406 38.78125 21.398438 36.292969 21.144531 L 34.925781 21.003906 L 35.304688 21.417969 C 36.570312 22.796875 44.667969 23.03125 49.425781 21.828125 C 51.34375 21.34375 54.351562 21.441406 55.394531 22.019531 C 56.285156 22.515625 56.367188 22.75 55.691406 22.890625 C 55.167969 23.003906 54.800781 23.042969 52.898438 23.191406 C 52.363281 23.234375 51.640625 23.410156 51.292969 23.585938 C 50.285156 24.097656 46.183594 25.027344 44.402344 25.144531 C 42.460938 25.273438 41.816406 25.761719 43.308594 25.976562 C 46.1875 26.398438 47.421875 26.40625 49.167969 26.027344 Z M 45.367188 24.414062 C 47.507812 24.164062 49.523438 23.660156 50.886719 23.027344 C 51.378906 22.800781 52.125 22.609375 52.621094 22.582031 C 53.476562 22.535156 53.785156 22.425781 53.597656 22.242188 C 53.410156 22.054688 50.605469 22.175781 49.683594 22.410156 C 48.050781 22.824219 45.304688 23.140625 43.292969 23.140625 C 39.425781 23.140625 38.722656 23.324219 39.675781 24.078125 C 40.519531 24.742188 41.882812 24.824219 45.367188 24.414062 Z M 40.421875 20.734375 C 40.84375 20.648438 41.695312 20.546875 42.316406 20.503906 C 44.515625 20.351562 45.699219 20.210938 46.492188 19.996094 C 46.933594 19.875 48.179688 19.691406 49.261719 19.589844 C 51.023438 19.417969 51.230469 19.367188 51.230469 19.089844 C 51.230469 18.398438 50.421875 18.296875 46.042969 18.433594 C 39.914062 18.625 33.648438 18.5 32.199219 18.15625 C 31.324219 17.949219 31.152344 17.960938 31.152344 18.21875 C 31.152344 18.453125 32.480469 19.75 32.757812 19.785156 C 32.847656 19.796875 33.117188 19.820312 33.363281 19.839844 C 33.605469 19.859375 34.238281 20 34.765625 20.152344 C 35.296875 20.304688 36.5625 20.523438 37.578125 20.636719 C 38.59375 20.753906 39.476562 20.859375 39.539062 20.867188 C 39.597656 20.878906 39.996094 20.820312 40.421875 20.734375 Z M 41.941406 18.003906 C 42.890625 17.878906 45.105469 17.773438 48.699219 17.683594 C 49.070312 17.671875 49.058594 17.257812 48.679688 16.933594 C 48.152344 16.480469 46.566406 16.035156 45.855469 16.136719 C 41.851562 16.71875 34.515625 16.960938 30.933594 16.625 C 29.347656 16.476562 29.589844 16.851562 31.371094 17.308594 C 32.46875 17.589844 33.589844 17.703125 36.574219 17.839844 C 38.664062 17.933594 40.410156 18.042969 40.449219 18.085938 C 40.546875 18.183594 40.589844 18.179688 41.941406 18.003906 Z M 42.316406 15.921875 C 46.25 15.523438 46.253906 15.390625 42.394531 13.65625 C 41.558594 13.28125 40.574219 12.835938 40.210938 12.664062 C 39.445312 12.308594 36.9375 11.605469 33.996094 10.917969 C 29.972656 9.980469 22.160156 9.40625 22.160156 10.046875 C 22.160156 10.691406 23.695312 11.109375 24.859375 10.773438 C 25.789062 10.507812 29.199219 11.011719 33.480469 12.046875 C 34.1875 12.214844 35.121094 12.414062 35.554688 12.484375 C 36.707031 12.671875 36.660156 12.953125 35.457031 13.070312 C 34.898438 13.125 33.867188 13.242188 33.160156 13.332031 C 31.5 13.539062 29.347656 13.574219 27.578125 13.421875 C 25.878906 13.273438 25.703125 13.546875 26.855469 14.546875 C 27.828125 15.390625 28.6875 15.714844 30.300781 15.839844 C 31.078125 15.902344 31.859375 16.011719 32.035156 16.082031 C 32.503906 16.269531 40.054688 16.152344 42.316406 15.921875 Z M 38.21875 11.09375 C 38.21875 10.746094 34.746094 9.589844 33.109375 9.390625 C 32.609375 9.328125 32.058594 9.207031 31.890625 9.121094 C 31.722656 9.03125 31.144531 8.902344 30.605469 8.828125 C 30.066406 8.753906 29.121094 8.613281 28.503906 8.519531 C 27.570312 8.375 23.234375 8.265625 21.234375 8.335938 C 20.699219 8.355469 20.519531 8.695312 20.914062 8.949219 C 21.023438 9.019531 22.5625 9.121094 24.328125 9.175781 C 27.519531 9.269531 30.496094 9.515625 32.035156 9.804688 C 33.664062 10.113281 36.390625 10.765625 37.015625 10.996094 C 37.765625 11.273438 38.21875 11.3125 38.21875 11.09375 Z M 34.253906 8.734375 C 35.382812 7.605469 22.296875 5.929688 19.859375 6.894531 C 18.539062 7.414062 19.6875 7.636719 23.957031 7.691406 C 26.863281 7.730469 31.726562 8.191406 32.175781 8.472656 C 32.328125 8.570312 32.984375 8.695312 33.976562 8.816406 C 34.074219 8.828125 34.195312 8.792969 34.253906 8.734375 Z M 30 6.257812 C 29.664062 5.253906 21.046875 4.167969 18.613281 4.824219 C 17.878906 5.023438 17.878906 5.015625 18.328125 5.746094 L 18.675781 6.304688 L 20.296875 6.175781 C 22.15625 6.03125 26.277344 6.078125 27.699219 6.261719 C 29.183594 6.453125 30.0625 6.449219 30 6.257812 Z M 22.480469 4.109375 C 23.320312 4.113281 24.222656 4.148438 24.488281 4.1875 C 24.835938 4.238281 24.96875 4.191406 24.96875 4.023438 C 24.96875 3.25 16.96875 2.507812 16.066406 3.199219 C 15.683594 3.496094 15.679688 3.507812 15.960938 3.9375 L 16.246094 4.371094 L 18.601562 4.234375 C 19.894531 4.160156 21.640625 4.101562 22.480469 4.109375 Z M 22.640625 2.417969 C 22.640625 2.070312 18.988281 1.246094 16.476562 1.03125 C 15.78125 0.972656 15.023438 0.824219 14.792969 0.707031 C 13.988281 0.289062 13.960938 0.867188 14.738281 1.886719 C 15 2.226562 15.144531 2.246094 18.132812 2.328125 C 19.847656 2.375 21.289062 2.449219 21.332031 2.492188 C 21.480469 2.640625 22.640625 2.574219 22.640625 2.417969 Z M 22.640625 2.417969 "/>
</g>
</svg>
