<?xml version="1.0" standalone="no"?>
<!DOCTYPE svg PUBLIC "-//W3C//DTD SVG 20010904//EN"
 "http://www.w3.org/TR/2001/REC-SVG-20010904/DTD/svg10.dtd">
<svg version="1.0" xmlns="http://www.w3.org/2000/svg"
 width="1280.000000pt" height="1088.000000pt" viewBox="0 0 1280.000000 1088.000000"
 preserveAspectRatio="xMidYMid meet">
<metadata>
Created by potrace 1.15, written by Peter Selinger 2001-2017
</metadata>
<g transform="translate(0.000000,1088.000000) scale(0.100000,-0.100000)"
fill="#000000" stroke="none">
<path d="M4965 10870 c-320 -29 -757 -231 -1075 -498 -475 -398 -765 -920
-831 -1494 l-13 -108 -70 0 c-797 0 -1514 -487 -1805 -1223 -39 -99 -75 -230
-102 -370 l-23 -118 -99 -51 c-190 -97 -344 -214 -509 -385 -168 -175 -275
-349 -343 -557 -91 -279 -118 -613 -70 -879 38 -214 150 -479 272 -642 83
-111 292 -322 395 -398 353 -262 718 -352 1232 -304 151 15 128 36 187 -168
280 -971 1050 -1633 2054 -1766 214 -28 579 -9 800 43 152 35 388 124 573 217
53 26 129 62 168 80 l71 33 119 -80 c316 -211 558 -320 904 -411 243 -63 370
-81 680 -96 363 -18 853 69 1205 215 374 155 693 368 975 650 314 314 541 671
694 1093 67 186 107 349 161 663 l6 32 227 -5 c177 -4 254 -2 352 11 424 57
787 235 1095 541 545 538 737 1292 510 1993 -44 133 -153 357 -235 479 -278
416 -740 740 -1210 847 -198 46 -624 46 -860 1 l-35 -6 -52 105 c-115 231
-242 405 -429 586 -245 238 -539 414 -866 518 -223 72 -482 100 -755 82 -244
-16 -352 -37 -562 -105 -76 -25 -142 -45 -147 -45 -11 0 -16 10 -118 220 -182
376 -442 683 -783 923 -240 169 -575 318 -814 363 -99 19 -709 28 -874 14z"/>
<path d="M2115 2586 c-288 -66 -507 -270 -597 -556 -19 -62 -23 -96 -23 -200
1 -149 16 -215 81 -345 97 -197 286 -355 496 -413 99 -27 301 -24 398 6 225
71 395 213 495 417 60 122 79 217 72 365 -4 87 -11 134 -32 195 -81 245 -271
434 -513 513 -96 30 -283 40 -377 18z"/>
<path d="M1008 1387 c-78 -27 -166 -84 -209 -136 -48 -58 -96 -164 -109 -242
-43 -255 108 -489 356 -553 209 -54 435 42 540 230 51 91 67 161 62 269 -10
205 -134 370 -328 435 -85 29 -222 27 -312 -3z"/>
<path d="M328 646 c-154 -63 -245 -213 -218 -357 21 -108 94 -205 194 -256 42
-22 65 -27 131 -27 96 -1 153 22 231 96 77 73 99 124 99 233 0 78 -4 97 -27
140 -14 28 -50 73 -80 101 -96 91 -216 117 -330 70z"/>
</g>
</svg>
