<?xml version="1.0" standalone="no"?>
<!DOCTYPE svg PUBLIC "-//W3C//DTD SVG 20010904//EN"
 "http://www.w3.org/TR/2001/REC-SVG-20010904/DTD/svg10.dtd">
<svg version="1.0" xmlns="http://www.w3.org/2000/svg"
 width="1280.000000pt" height="882.000000pt" viewBox="0 0 1280.000000 882.000000"
 preserveAspectRatio="xMidYMid meet">
<metadata>
Created by potrace 1.15, written by Peter Selinger 2001-2017
</metadata>
<g transform="translate(0.000000,882.000000) scale(0.100000,-0.100000)"
fill="#000000" stroke="none">
<path d="M7392 8758 c-27 -35 -109 -144 -183 -243 -355 -478 -512 -619 -705
-632 -223 -15 -336 68 -559 411 -45 69 -60 85 -67 73 -4 -9 -29 -119 -53 -244
-25 -125 -55 -257 -67 -293 -72 -222 -163 -277 -316 -189 -109 62 -297 276
-418 473 -32 53 -61 92 -64 88 -4 -4 -12 -38 -19 -77 -8 -38 -28 -135 -46
-215 -68 -298 -130 -423 -253 -507 l-54 -38 -138 -3 c-155 -5 -282 9 -379 41
-66 21 -197 86 -466 228 -198 106 -244 124 -261 107 -12 -12 -12 -26 1 -96 9
-45 29 -126 46 -180 43 -137 59 -230 59 -336 0 -167 -41 -238 -177 -307 l-67
-34 -230 -3 c-265 -4 -375 5 -634 54 -242 45 -381 66 -393 59 -5 -4 2 -27 15
-53 13 -26 26 -60 30 -76 9 -38 54 -107 186 -285 154 -209 173 -257 130 -342
-61 -119 -197 -207 -400 -259 -148 -38 -700 -113 -1065 -145 -99 -9 -184 -20
-189 -25 -14 -14 1 -39 31 -52 35 -15 93 -68 93 -85 0 -9 -15 -13 -47 -13
l-48 -1 82 -52 c45 -28 181 -112 302 -186 334 -204 371 -238 371 -341 0 -170
-195 -359 -556 -535 -176 -87 -518 -237 -726 -320 -82 -32 -148 -62 -148 -65
0 -4 27 -13 60 -19 86 -17 160 -40 160 -51 0 -5 -32 -26 -70 -46 -39 -21 -70
-41 -70 -46 0 -15 -6 -14 368 -64 391 -52 791 -142 914 -205 21 -11 45 -31 54
-44 21 -32 20 -98 -1 -149 -34 -80 -183 -213 -475 -423 -85 -61 -168 -125
-184 -142 l-30 -31 85 0 c89 0 129 -7 129 -21 0 -5 -38 -39 -85 -76 -47 -37
-85 -71 -85 -76 0 -13 162 -3 345 22 215 29 505 44 646 33 92 -8 127 -15 172
-37 69 -32 81 -52 74 -117 -14 -111 -123 -256 -461 -607 -124 -129 -224 -236
-222 -238 1 -2 36 8 77 22 126 43 168 54 174 45 3 -5 -40 -57 -96 -115 -56
-58 -98 -105 -94 -105 8 0 331 111 530 181 l110 39 261 7 c204 5 269 3 294 -7
140 -58 24 -337 -301 -720 -42 -49 -67 -86 -60 -88 7 -2 60 19 118 47 58 28
107 50 109 48 7 -7 -59 -108 -115 -174 -58 -70 -77 -99 -47 -74 22 18 549 271
555 266 14 -15 -172 -228 -291 -331 -48 -42 -168 -138 -265 -213 -97 -75 -177
-140 -178 -146 0 -15 150 -62 261 -82 79 -14 158 -17 389 -18 304 0 403 9 575
54 199 51 529 204 840 389 105 63 189 107 194 102 5 -5 11 -155 15 -334 l6
-325 33 -34 c27 -28 34 -45 39 -91 3 -31 9 -56 12 -55 3 0 101 116 218 257
365 443 572 664 657 703 135 61 211 -14 286 -280 36 -127 65 -201 78 -201 5 0
34 37 63 82 65 99 198 237 256 267 96 48 270 48 370 0 66 -32 144 -114 264
-279 132 -183 202 -258 222 -241 8 6 38 85 66 174 82 256 129 383 191 514 91
191 135 247 230 292 50 23 66 26 170 26 94 -1 126 -5 175 -23 94 -35 200 -104
378 -247 l164 -132 6 166 c9 236 37 328 117 393 111 88 420 72 700 -37 154
-60 503 -236 675 -341 212 -129 263 -157 275 -149 29 18 -8 154 -120 441 -43
110 -84 227 -91 260 -8 36 -13 129 -14 244 0 207 3 218 74 289 115 115 433
146 853 82 194 -29 308 -39 308 -25 0 3 -16 34 -35 68 -19 35 -35 72 -35 83 0
11 -36 75 -80 142 -101 154 -125 202 -141 277 -10 52 -10 66 5 111 51 154 288
299 621 382 197 49 361 73 840 126 359 40 514 61 553 76 l27 11 -30 24 c-16
13 -59 39 -95 58 l-65 35 53 7 c52 7 53 7 35 25 -10 9 -148 86 -308 169 -392
206 -478 255 -601 347 -133 98 -183 175 -187 284 l-2 58 60 62 c131 133 259
225 445 317 96 48 239 114 318 146 78 32 145 62 147 67 7 11 -35 32 -122 60
-40 13 -73 26 -73 29 0 13 59 49 100 60 27 7 39 15 33 21 -5 5 -75 23 -154 39
-79 17 -270 61 -424 99 -522 130 -597 157 -706 259 -65 59 -99 120 -99 175 0
63 45 183 91 245 24 31 113 129 199 217 283 292 360 374 360 383 0 5 -27 5
-66 0 -36 -5 -78 -8 -93 -6 -25 3 -23 6 49 82 l75 79 -150 -6 c-82 -3 -217
-15 -300 -27 -122 -17 -198 -21 -406 -21 -287 1 -378 10 -448 46 -96 48 -126
111 -119 244 9 144 66 290 213 541 73 124 135 244 135 259 0 5 -27 3 -61 -5
-34 -8 -64 -12 -66 -10 -5 5 49 117 73 150 23 33 18 49 -13 41 -50 -12 -247
-93 -474 -196 -625 -283 -723 -313 -1009 -313 -173 -1 -202 7 -264 74 l-46 49
0 78 c0 72 12 212 26 308 5 35 3 41 -18 50 -19 8 -24 20 -30 74 -4 35 -9 66
-12 69 -8 7 -46 -20 -177 -124 -254 -202 -377 -274 -539 -315 -204 -52 -348
13 -434 195 -44 91 -61 177 -81 406 -18 210 -20 219 -50 280 -12 25 -26 60
-30 78 -3 17 -10 32 -15 32 -5 0 -30 -28 -58 -62z m-8 -275 c3 -21 11 -78 16
-127 33 -277 115 -481 245 -612 90 -91 137 -109 269 -101 154 8 295 72 524
235 135 97 152 106 162 96 4 -5 15 -65 24 -134 26 -202 52 -283 114 -352 67
-74 100 -82 312 -83 200 0 262 8 428 56 136 39 288 99 562 224 124 56 235 105
248 109 20 7 15 -8 -49 -136 -128 -256 -182 -473 -159 -638 14 -98 41 -153
110 -220 104 -103 216 -140 485 -160 175 -13 337 -6 450 20 116 26 175 34 175
22 0 -5 -45 -60 -101 -122 -138 -153 -212 -256 -263 -364 -53 -110 -66 -162
-66 -260 0 -184 101 -319 340 -451 209 -115 427 -189 609 -206 135 -12 194
-25 188 -42 -2 -6 -90 -58 -196 -114 -230 -122 -317 -179 -391 -253 -92 -93
-127 -194 -117 -343 7 -102 31 -142 166 -277 94 -94 130 -121 321 -242 118
-74 261 -161 318 -193 56 -32 102 -62 102 -66 0 -12 -29 -17 -135 -24 -357
-23 -1050 -177 -1250 -278 -114 -57 -216 -136 -265 -203 -39 -55 -74 -187 -68
-260 3 -39 23 -91 76 -201 97 -203 95 -189 21 -197 -98 -10 -699 -7 -699 3 0
6 46 65 103 133 195 234 339 454 460 701 133 270 204 488 241 742 123 824
-113 1569 -698 2205 -471 511 -1204 933 -1966 1129 -393 102 -602 120 -1475
130 -476 6 -677 11 -692 19 -26 14 -25 27 17 207 34 142 45 175 62 175 7 0 71
-58 143 -130 157 -155 203 -181 332 -188 234 -12 377 91 690 498 143 186 248
310 263 310 5 0 11 -17 14 -37z m-2253 -655 c103 -120 221 -280 212 -289 -4
-4 -51 -21 -103 -38 -200 -64 -320 -86 -320 -60 0 18 40 207 66 314 31 128 43
157 62 153 9 -2 46 -38 83 -80z m-1345 -424 c101 -47 255 -114 341 -150 87
-36 159 -67 161 -69 5 -5 -98 -64 -313 -180 -248 -134 -396 -208 -402 -201 -3
3 0 25 6 50 15 62 14 249 -4 446 -19 214 -19 203 6 195 12 -4 104 -45 205 -91z
m3254 70 c670 -57 1242 -214 1795 -493 352 -178 590 -346 836 -591 323 -321
517 -655 628 -1083 37 -144 43 -230 38 -589 -4 -325 -5 -349 -29 -448 -138
-566 -454 -1072 -933 -1488 -653 -568 -1617 -989 -2674 -1168 -227 -38 -402
-47 -861 -41 -380 4 -430 7 -589 31 -151 22 -255 33 -502 50 l-57 4 -58 -60
c-208 -212 -514 -485 -684 -609 -384 -280 -839 -473 -1235 -524 -124 -16 -237
-20 -248 -9 -11 11 31 61 211 253 451 480 592 733 712 1276 l39 180 -27 28
c-15 16 -106 88 -202 160 -568 424 -921 974 -1016 1587 -27 173 -25 529 4 709
98 607 379 1101 897 1578 440 406 1103 765 1820 987 216 66 430 120 686 170
548 109 938 133 1449 90z m-4588 -778 c228 -34 284 -38 621 -45 l298 -6 -157
-140 c-610 -543 -980 -1105 -1123 -1705 -79 -335 -80 -708 -2 -1085 39 -188
84 -313 197 -544 l94 -194 203 -206 c257 -262 578 -602 628 -664 32 -40 39
-57 39 -94 0 -58 -35 -228 -61 -298 -30 -79 -104 -155 -216 -221 -111 -66
-302 -158 -310 -151 -3 3 25 70 62 148 95 204 118 276 113 365 -3 58 -8 79
-29 108 -65 91 -160 126 -361 133 -155 6 -230 -2 -462 -53 -87 -19 -161 -32
-164 -29 -5 5 18 34 138 175 152 180 213 298 226 437 10 111 -31 248 -94 316
-49 52 -94 58 -485 66 -196 4 -360 11 -365 15 -4 5 9 20 28 35 151 115 335
313 386 418 42 86 42 122 0 207 -71 145 -231 259 -426 305 -47 11 -193 36
-325 56 -292 44 -337 53 -332 68 2 7 143 82 313 167 403 202 536 287 648 411
82 91 122 213 114 347 -4 85 -24 117 -150 243 -104 105 -190 175 -326 267
l-102 70 77 7 c182 16 797 121 943 161 198 54 335 144 382 251 26 59 34 160
19 234 -15 72 -58 156 -164 317 -101 155 -114 143 125 108z m7102 -4458 c3
-29 10 -130 16 -225 10 -186 5 -165 127 -505 21 -58 35 -109 31 -113 -8 -8
-867 389 -888 411 -18 19 -19 19 210 165 91 58 237 153 325 212 88 58 163 106
167 107 4 0 9 -24 12 -52z m-1490 -774 c3 -9 6 -39 6 -67 l0 -51 -40 39 c-37
36 -50 72 -33 88 13 13 61 7 67 -9z m-2987 -133 c73 -23 134 -45 137 -49 3 -5
-50 -69 -116 -143 -67 -74 -201 -233 -299 -354 -237 -292 -236 -291 -246 -282
-4 5 -10 121 -11 259 l-4 251 144 144 c157 159 232 224 251 218 7 -2 71 -22
144 -44z m782 -112 c41 -5 77 -11 79 -14 14 -14 -179 -217 -217 -230 -52 -16
-101 83 -101 202 l0 65 83 -7 c45 -3 115 -10 156 -16z m1091 -28 c0 -22 -114
-359 -135 -402 l-16 -30 -27 20 c-38 27 -94 89 -196 212 -48 59 -109 125 -136
148 -28 23 -50 46 -50 51 0 16 32 18 298 19 249 1 262 0 262 -18z"/>
</g>
</svg>
