<?xml version="1.0" standalone="no"?>
<!DOCTYPE svg PUBLIC "-//W3C//DTD SVG 20010904//EN"
 "http://www.w3.org/TR/2001/REC-SVG-20010904/DTD/svg10.dtd">
<svg version="1.0" xmlns="http://www.w3.org/2000/svg"
 width="1280.000000pt" height="1280.000000pt" viewBox="0 0 1280.000000 1280.000000"
 preserveAspectRatio="xMidYMid meet">
<metadata>
Created by potrace 1.15, written by Peter Selinger 2001-2017
</metadata>
<g transform="translate(0.000000,1280.000000) scale(0.100000,-0.100000)"
fill="#000000" stroke="none">
<path d="M8625 10450 c-4 -6 -15 -8 -26 -5 -17 6 -19 3 -14 -22 4 -15 8 -33
10 -40 2 -7 0 -15 -5 -18 -16 -10 -9 -95 9 -105 13 -8 12 -9 -6 -10 -20 0 -23
-6 -24 -37 -1 -21 -1 -44 0 -50 2 -17 -40 -16 -64 1 -27 18 -113 35 -151 29
-25 -4 -33 -11 -38 -34 -3 -16 -12 -29 -20 -29 -10 0 -17 -19 -23 -67 -4 -38
-7 -74 -6 -80 0 -7 -3 -13 -8 -13 -5 0 -9 -7 -9 -15 0 -8 -4 -15 -10 -15 -5 0
-10 -8 -10 -18 0 -10 -4 -22 -9 -27 -18 -19 -17 -50 2 -67 18 -16 18 -18 3
-24 -9 -3 -16 -15 -16 -25 0 -10 -5 -19 -11 -19 -7 0 -9 -12 -7 -32 4 -23 0
-36 -11 -45 -13 -9 -14 -14 -3 -24 6 -7 12 -21 12 -31 0 -9 7 -21 15 -25 13
-8 13 -11 0 -28 -14 -20 -14 -19 -15 3 0 13 -4 20 -10 17 -5 -3 -10 -20 -9
-38 0 -18 -4 -61 -10 -97 -5 -36 -12 -111 -16 -167 -5 -88 -4 -103 9 -103 23
0 26 -13 9 -35 -16 -20 -16 -20 -9 0 l6 20 -15 -20 c-12 -15 -15 -36 -12 -80
2 -33 0 -69 -6 -79 -17 -35 -18 -195 0 -225 14 -24 14 -24 -1 -7 -9 11 -19 16
-23 13 -3 -4 -3 -7 2 -7 4 0 2 -7 -6 -16 -9 -11 -9 -18 -2 -22 12 -8 16 -89 4
-96 -10 -7 -13 -83 -3 -90 5 -3 8 -15 6 -28 -1 -13 -3 -35 -3 -49 -1 -14 -7
-33 -14 -43 -12 -16 -16 -17 -48 -3 -27 11 -37 12 -46 2 -8 -9 -24 -10 -52 -5
-22 4 -45 4 -52 -1 -7 -4 -23 -2 -35 3 -17 8 -27 8 -37 0 -7 -6 -18 -7 -26 -3
-9 6 -10 11 -2 15 25 16 8 27 -38 25 -28 -2 -56 3 -65 10 -8 7 -23 11 -33 9
-11 -2 -18 3 -18 14 0 30 -15 32 -44 4 -18 -17 -31 -24 -35 -17 -4 6 -5 11 -1
11 3 0 1 9 -5 21 -7 11 -14 18 -17 15 -3 -3 0 -12 7 -21 16 -19 0 -20 -26 0
-10 8 -31 15 -46 15 -16 0 -28 5 -28 11 0 6 7 9 15 5 13 -4 14 -2 5 14 -11 21
-70 29 -70 10 0 -15 -16 -12 -60 9 -24 11 -40 15 -43 8 -2 -6 -10 -6 -24 2
-26 13 -93 15 -93 2 0 -5 -17 -1 -37 9 -49 24 -128 36 -137 21 -5 -8 -12 -6
-22 4 -22 21 -34 19 -35 -7 -1 -17 -3 -18 -6 -6 -7 29 -32 32 -190 25 -30 -1
-59 -9 -70 -18 -10 -9 -24 -14 -30 -12 -7 3 -13 -1 -13 -7 0 -9 -3 -10 -13 -1
-8 6 -16 10 -18 8 -2 -1 2 3 9 10 16 14 1 26 -22 17 -9 -3 -24 0 -33 7 -13 11
-15 11 -9 1 7 -11 4 -11 -13 0 -18 11 -23 11 -30 0 -8 -13 -13 -14 -89 -9 -24
1 -46 -1 -48 -5 -3 -5 -27 -8 -55 -8 -35 0 -54 -5 -69 -20 -12 -12 -26 -17
-37 -13 -12 5 -15 2 -10 -10 5 -14 3 -15 -12 -5 -15 9 -26 8 -54 -5 -44 -21
-47 -21 -47 3 0 24 -6 25 -27 5 -14 -14 -17 -14 -34 1 -18 16 -19 16 -19 -4 0
-14 -6 -22 -17 -23 -10 0 -31 -2 -48 -3 -16 -1 -41 1 -55 4 -17 5 -29 2 -37
-9 -11 -15 -12 -14 -13 0 0 15 -5 16 -42 6 -24 -5 -47 -17 -51 -24 -7 -11 -12
-12 -23 -2 -21 17 -48 -18 -28 -38 18 -18 37 -16 30 3 -5 12 -2 15 10 10 8 -3
17 -6 18 -6 2 0 1 -12 -2 -26 -3 -18 -7 -22 -13 -13 -4 8 -12 10 -16 5 -4 -4
1 -14 11 -22 11 -7 17 -16 15 -18 -8 -8 -54 20 -52 31 1 6 -4 14 -12 17 -17 6
-21 -19 -5 -29 6 -3 10 -12 10 -18 0 -7 -7 -3 -15 7 -12 16 -17 17 -30 6 -12
-10 -15 -10 -15 4 0 9 -3 16 -8 16 -17 0 -52 -32 -52 -48 0 -10 -7 -27 -15
-40 -13 -18 -19 -20 -34 -10 -11 6 -17 17 -14 23 2 7 -6 15 -17 18 -12 3 -19
3 -16 0 3 -3 1 -14 -4 -24 -8 -14 -18 -16 -45 -12 -30 5 -36 2 -44 -18 -8 -21
-10 -22 -16 -7 -4 10 -11 15 -16 12 -5 -3 -5 -13 1 -25 11 -20 4 -24 -25 -13
-13 5 -14 8 -3 15 15 10 -31 13 -56 3 -12 -5 -13 -9 -3 -25 10 -17 9 -22 -7
-31 -10 -5 -25 -19 -34 -29 -12 -14 -18 -15 -24 -6 -5 8 -8 5 -8 -9 0 -31 -10
-35 -33 -13 -23 21 -37 24 -37 9 0 -5 4 -10 8 -10 5 0 9 -7 9 -15 0 -18 -23
-20 -31 -2 -5 9 -7 9 -12 -1 -3 -6 -10 -9 -16 -6 -15 9 -66 -45 -79 -83 -10
-32 -12 -33 -26 -16 -8 10 -12 12 -8 6 4 -8 -1 -13 -13 -13 -11 0 -22 -9 -25
-20 -3 -11 -11 -19 -18 -18 -8 2 -15 -7 -17 -20 -4 -25 -39 -43 -72 -37 -14 3
-24 -3 -31 -18 -6 -13 -29 -31 -52 -41 -23 -10 -51 -26 -62 -37 -11 -10 -34
-30 -52 -44 -18 -14 -30 -32 -27 -39 3 -7 -2 -16 -10 -19 -10 -4 -13 -1 -9 9
9 23 -14 16 -31 -11 -9 -14 -23 -25 -31 -25 -8 0 -15 -4 -15 -8 0 -5 -11 -14
-25 -20 -14 -6 -25 -17 -25 -24 0 -7 -18 -28 -40 -47 -23 -21 -36 -38 -29 -41
12 -8 2 -60 -12 -60 -5 0 -9 15 -10 33 0 26 -2 28 -8 12 -5 -11 -6 -25 -4 -31
2 -6 -7 -22 -21 -35 -14 -13 -26 -30 -26 -37 0 -7 -4 -10 -10 -7 -14 9 -50
-13 -50 -30 0 -8 -5 -15 -11 -15 -17 0 -48 -43 -49 -68 0 -13 -4 -20 -10 -17
-12 8 -40 -18 -40 -37 0 -8 -13 -27 -30 -43 -16 -16 -30 -35 -30 -42 0 -8 -7
-16 -15 -19 -8 -4 -15 -14 -15 -24 0 -10 -7 -23 -15 -30 -19 -16 -20 -34 -1
-27 10 4 13 1 9 -9 -3 -8 -8 -13 -10 -10 -3 3 -11 0 -18 -7 -10 -9 -9 -14 4
-23 13 -10 11 -11 -12 -7 -17 3 -27 1 -27 -7 0 -6 -7 -18 -15 -26 -8 -9 -15
-28 -15 -44 0 -16 -6 -33 -13 -37 -18 -12 -67 -107 -67 -131 0 -11 -6 -25 -14
-31 -9 -7 -13 -24 -11 -42 3 -20 0 -29 -10 -29 -16 0 -39 -72 -31 -98 3 -9 -1
-30 -9 -46 -8 -15 -15 -41 -15 -56 0 -15 -7 -30 -15 -34 -12 -4 -13 -11 -5
-31 6 -16 6 -24 0 -20 -5 3 -12 -11 -16 -32 -3 -21 -10 -55 -14 -75 -5 -22 -4
-40 3 -47 7 -7 7 -14 -1 -24 -6 -7 -9 -22 -6 -34 3 -11 -1 -27 -11 -36 -11
-12 -16 -34 -16 -69 1 -127 -1 -148 -14 -148 -21 0 -34 -44 -19 -65 12 -16 11
-20 -6 -32 -23 -17 -26 -48 -5 -57 18 -7 10 -32 -21 -66 -22 -24 -22 -26 -7
-57 12 -26 13 -36 3 -48 -6 -8 -9 -19 -5 -24 3 -6 2 -26 -4 -45 -8 -32 -7 -35
12 -38 18 -2 22 -10 22 -42 0 -25 -6 -43 -17 -51 -10 -6 -15 -15 -11 -18 3 -4
1 -7 -5 -7 -7 0 -12 -7 -12 -15 0 -8 -5 -24 -12 -34 -9 -15 -9 -23 1 -35 7 -8
16 -14 20 -13 3 1 17 -8 30 -20 l24 -22 -43 4 c-24 3 -40 2 -36 -2 3 -3 -1
-15 -11 -25 -15 -17 -15 -19 0 -36 14 -15 15 -25 6 -53 -17 -57 -30 -189 -18
-189 16 0 -7 -62 -33 -91 l-31 -34 24 -5 c22 -5 24 -11 24 -62 0 -31 3 -59 7
-63 3 -4 4 -28 1 -53 -3 -26 -4 -56 -3 -67 1 -11 1 -27 0 -35 -1 -8 -3 -60 -4
-115 -3 -87 -1 -103 16 -125 20 -25 20 -25 -1 -28 -17 -3 -20 -8 -15 -35 3
-18 6 -42 8 -55 4 -33 24 -51 36 -32 5 8 12 11 15 8 4 -4 4 -12 -1 -19 -4 -7
-9 -28 -10 -46 -1 -24 2 -33 14 -33 12 0 13 -3 5 -11 -6 -6 -9 -17 -6 -25 2
-7 -2 -23 -11 -35 -11 -17 -13 -26 -4 -36 6 -8 8 -33 5 -63 -5 -40 -3 -50 8
-50 18 0 20 -16 2 -23 -7 -3 -14 -21 -15 -41 -3 -37 3 -41 55 -39 7 1 10 -3 7
-8 -3 -5 -11 -9 -19 -9 -7 0 -16 -7 -19 -16 -8 -22 -8 -26 4 -19 14 9 59 -36
53 -52 -3 -7 0 -13 6 -13 17 0 13 -40 -5 -47 -11 -4 -14 -13 -9 -30 4 -16 2
-22 -5 -18 -5 3 -10 0 -10 -9 0 -8 5 -16 11 -18 7 -2 12 -30 12 -71 -1 -58 3
-70 21 -83 11 -8 20 -18 20 -22 -3 -16 11 -39 43 -70 37 -37 41 -44 16 -35
-11 5 -14 3 -8 -6 5 -10 2 -11 -14 -6 -22 7 -30 -8 -10 -20 6 -4 8 -13 5 -20
-3 -8 2 -19 10 -26 8 -7 13 -18 10 -25 -3 -8 3 -18 13 -23 15 -8 20 -5 30 15
6 14 8 30 5 36 -4 6 3 5 16 -2 16 -9 19 -15 11 -23 -16 -16 -13 -47 5 -47 9 0
14 -5 12 -12 -3 -7 -38 -18 -78 -24 -41 -7 -76 -18 -78 -23 -2 -6 -8 -9 -12
-6 -9 6 -136 -51 -144 -64 -3 -4 -34 -7 -68 -5 -35 1 -54 0 -43 -3 10 -3 28
-11 40 -18 44 -28 160 -49 286 -51 70 -1 136 -5 148 -9 26 -8 16 -29 -10 -22
-11 3 -19 1 -19 -4 0 -8 139 -79 155 -79 3 0 22 -7 43 -16 20 -9 66 -19 102
-21 35 -3 69 -10 75 -17 24 -28 45 -38 58 -29 6 6 26 13 42 17 21 5 26 4 15
-3 -8 -6 -11 -13 -7 -17 4 -4 16 2 27 14 18 19 50 21 50 3 0 -3 14 -6 30 -7
27 -1 30 2 30 27 0 33 8 36 36 14 10 -8 26 -15 34 -15 9 0 22 -9 30 -20 14
-20 37 -29 25 -11 -13 22 19 22 36 0 15 -19 21 -21 28 -10 5 8 16 11 30 6 13
-4 29 -1 39 7 15 12 16 11 3 -4 -11 -14 -11 -21 -1 -33 10 -12 45 -14 58 -4 1
1 5 2 10 3 4 1 15 6 26 12 16 10 16 14 5 33 -8 11 -20 19 -27 16 -9 -3 -10 0
-4 12 11 19 70 26 90 10 9 -7 20 -6 37 3 14 7 28 10 32 7 3 -4 14 0 23 8 10 9
58 22 107 30 50 8 98 17 106 21 13 5 16 -2 15 -38 0 -23 -4 -51 -10 -61 -5
-11 -5 -24 1 -35 6 -9 11 -11 11 -4 0 15 30 16 30 1 0 -5 6 -7 13 -3 7 5 6 1
-3 -10 -13 -16 -12 -21 12 -41 18 -16 44 -24 94 -28 37 -4 70 -10 73 -14 3 -5
11 -8 16 -8 6 -1 30 -4 53 -9 39 -7 45 -6 60 15 22 32 21 44 -3 44 -15 0 -20
7 -20 28 0 17 -8 34 -19 43 -18 13 -23 30 -31 121 l-4 41 42 5 c56 8 109 17
127 24 8 3 42 8 75 10 33 3 65 8 70 13 6 4 32 11 58 14 27 4 57 16 68 27 10
10 33 19 50 19 17 0 39 5 50 10 14 8 19 7 19 -1 0 -10 13 -10 60 2 19 5 62 48
56 57 -2 4 16 8 40 9 24 1 44 -1 44 -5 0 -10 41 -9 56 0 5 4 41 0 78 -9 37 -8
70 -12 74 -8 8 7 -13 42 -21 35 -3 -3 -17 6 -30 19 -14 12 -30 20 -36 16 -6
-3 -15 5 -20 19 -8 19 -15 23 -31 19 -13 -3 -25 0 -30 7 -8 13 -19 14 -169 25
-46 3 -88 8 -92 11 -5 3 -9 -3 -9 -13 0 -15 -2 -15 -9 -4 -6 10 -29 15 -66 16
-31 0 -59 6 -63 12 -5 8 -35 12 -85 11 -43 -1 -80 2 -84 6 -3 3 -15 -1 -25
-11 -17 -15 -19 -15 -36 3 -25 27 -25 62 -1 69 18 6 19 14 15 105 -3 58 -1
102 4 105 6 4 10 15 10 25 0 10 12 28 28 39 23 18 24 20 7 21 -15 0 -16 3 -7
12 9 9 15 9 24 0 16 -16 28 -15 28 3 0 9 10 20 23 25 13 5 16 9 7 10 -13 0
-13 1 0 10 8 5 10 10 4 10 -6 0 -17 14 -24 30 -7 17 -18 30 -25 30 -8 0 -21 7
-30 16 -9 9 -26 14 -40 12 -30 -6 -73 28 -77 62 -2 19 1 25 14 24 14 -1 16 4
12 22 -5 19 -2 24 13 24 11 0 28 -9 38 -20 22 -24 41 -26 49 -4 9 22 8 24 -10
24 -8 0 -12 5 -9 10 9 14 -8 13 -23 -2 -6 -6 -15 -8 -19 -3 -5 4 -2 10 5 12
13 5 7 23 -9 23 -6 0 -7 -4 -4 -10 11 -18 -22 -10 -40 10 -17 19 -17 20 32 14
39 -4 53 -2 64 12 13 16 12 17 -9 12 -14 -4 -25 -2 -28 5 -5 14 -53 16 -72 4
-8 -6 -17 2 -26 25 -16 38 -7 58 28 58 24 1 59 24 49 33 -3 4 -2 7 4 7 6 0 8
12 6 28 -3 15 -1 22 4 16 4 -5 17 -10 29 -10 20 0 20 1 5 37 -9 21 -20 35 -24
32 -5 -3 -11 4 -14 16 -6 23 -23 27 -41 9 -9 -9 -12 -5 -12 20 0 25 -4 32 -20
32 -18 0 -18 2 4 26 50 56 56 65 56 84 0 11 -5 20 -12 20 -6 0 -3 6 7 14 11 8
25 11 33 9 20 -8 81 28 75 44 -3 7 0 13 7 13 6 0 8 5 5 10 -3 6 -15 10 -25 10
-13 0 -17 5 -14 14 3 8 1 17 -4 20 -14 9 9 66 26 66 8 0 12 6 9 14 -4 10 4 18
24 25 16 5 29 15 29 21 0 6 11 15 25 22 13 6 22 15 19 19 -2 4 5 13 16 19 32
17 25 49 -15 66 -19 8 -35 18 -35 22 0 16 28 47 36 40 9 -10 34 10 34 28 0 8
-3 13 -7 13 -36 -6 -51 3 -57 34 l-7 32 -19 -23 c-10 -12 -21 -18 -24 -13 -4
5 -1 11 6 13 6 2 8 10 4 16 -4 7 -12 10 -17 7 -12 -8 -12 -45 1 -46 6 -1 15
-2 22 -3 6 0 12 -11 13 -24 l2 -22 -22 20 -22 21 -6 -22 c-4 -15 -11 -20 -21
-16 -9 4 -27 2 -39 -2 -13 -5 -29 -6 -37 -1 -15 9 -5 30 15 30 7 0 15 7 19 15
3 8 11 12 18 10 9 -4 14 4 16 22 2 27 42 69 52 54 10 -13 63 5 55 19 -3 5 8
17 25 27 17 9 28 23 26 30 -3 8 2 13 14 13 10 0 29 15 41 33 13 17 27 34 31
37 8 6 12 33 10 64 -1 12 -7 16 -17 12 -10 -3 -17 3 -21 19 -7 29 -13 31 -29
8 -12 -16 -14 -16 -29 0 -19 19 -31 23 -21 7 9 -14 -4 -12 -19 3 -14 13 -24
49 -31 106 -3 26 2 35 33 58 70 52 132 105 132 113 0 5 -15 10 -32 12 -20 2
-32 8 -31 16 2 6 -2 12 -7 12 -6 0 -10 4 -10 9 0 5 8 7 19 4 22 -6 38 35 16
43 -20 8 -2 53 41 102 19 22 34 44 34 50 0 5 9 17 20 27 11 10 20 23 20 28 0
5 17 24 37 41 20 17 44 39 52 49 9 9 23 17 33 17 10 0 18 6 18 14 0 8 9 18 20
21 13 4 20 15 20 31 0 13 4 24 10 24 5 0 24 13 42 29 24 20 42 28 66 26 21 -1
32 3 32 11 0 8 15 20 34 28 18 8 37 19 41 26 4 6 19 16 33 21 24 9 25 11 10
20 -30 16 -21 26 42 45 33 11 60 22 60 25 0 4 -11 10 -25 13 -51 13 -24 44 36
42 19 -1 25 2 21 13 -4 11 1 13 26 8 24 -5 30 -3 26 7 -3 8 -15 16 -26 19 -23
7 -19 33 5 29 18 -3 35 58 22 78 -5 9 -2 9 11 3 14 -7 23 -5 36 8 9 9 14 20
11 22 -7 8 31 26 53 25 10 -1 29 2 42 6 13 4 22 3 22 -3 0 -6 11 -18 26 -27
19 -13 28 -14 37 -5 6 6 23 11 38 11 22 0 27 4 25 24 -1 20 -4 22 -19 14 -24
-12 -55 -2 -40 13 6 6 22 17 35 23 12 7 22 20 22 29 -1 13 5 15 27 10 19 -3
29 -1 29 6 0 7 -4 10 -9 7 -5 -4 -7 3 -4 14 3 11 10 20 15 20 5 0 6 -5 3 -10
-4 -6 7 -13 24 -16 17 -4 31 -10 31 -15 0 -5 14 -9 30 -9 31 0 41 16 15 26 -8
4 -15 15 -15 25 0 10 7 19 15 19 8 0 15 -4 15 -10 0 -5 5 -10 11 -10 5 0 7 5
4 10 -3 6 -1 10 4 10 6 0 11 -6 11 -14 0 -21 19 -30 34 -17 8 6 27 11 42 11
53 0 130 15 117 23 -7 5 -17 6 -22 3 -5 -3 -11 4 -14 15 -3 12 -10 18 -16 15
-5 -3 -21 -1 -35 6 l-26 11 22 24 c12 13 27 23 35 23 7 0 13 5 13 11 0 5 5 7
12 3 7 -4 8 -3 4 4 -4 7 -3 12 3 12 5 0 14 -6 18 -13 4 -7 29 -18 54 -23 36
-8 50 -7 67 4 14 9 27 11 35 5 6 -5 34 -8 60 -7 37 2 55 8 76 28 18 17 33 24
48 20 16 -4 27 2 44 25 12 17 31 31 40 31 10 0 19 5 21 12 6 17 68 -10 68 -29
0 -12 3 -13 14 -4 16 14 106 12 106 -2 0 -6 -7 -19 -17 -29 -15 -17 -15 -18 0
-18 10 0 17 5 17 11 0 12 111 6 132 -7 6 -4 8 -3 5 3 -4 6 0 14 9 17 11 4 18
-1 21 -14 4 -14 14 -20 32 -20 31 0 45 -9 54 -32 4 -12 17 -18 35 -18 16 0 40
-9 53 -21 13 -11 25 -16 27 -10 2 6 10 11 19 11 10 0 12 -6 8 -19 -5 -16 1
-20 35 -26 49 -8 53 -25 5 -25 -40 0 -53 -17 -36 -48 21 -40 -16 -73 -38 -35
-5 10 -13 14 -18 9 -4 -5 -2 -11 5 -13 6 -3 12 -9 12 -14 0 -6 -4 -8 -9 -5
-14 9 -53 -73 -46 -95 4 -11 2 -25 -3 -32 -14 -18 -22 -97 -10 -97 13 0 0 -52
-15 -62 -9 -6 -9 -10 2 -17 9 -6 10 -11 2 -15 -6 -4 -11 -18 -11 -32 0 -13 -4
-24 -9 -24 -5 0 -4 -11 2 -24 7 -14 14 -24 17 -24 18 1 18 -5 3 -29 -23 -34
-25 -46 -24 -121 1 -42 7 -71 18 -89 10 -15 13 -24 7 -20 -8 4 -11 -14 -9 -63
2 -66 14 -113 16 -59 1 81 2 85 26 96 16 8 25 8 30 1 3 -6 1 -8 -5 -4 -6 3
-13 2 -16 -3 -3 -5 1 -12 10 -15 15 -6 15 -8 2 -24 -8 -9 -15 -27 -16 -40 -1
-30 -19 -52 -36 -46 -10 4 -13 -9 -13 -53 0 -67 4 -83 22 -83 15 0 15 -61 0
-72 -6 -5 -5 -8 3 -8 9 0 11 -7 7 -20 -4 -12 2 -31 17 -50 23 -31 21 -36 -13
-52 -9 -5 13 -218 22 -218 5 0 9 -7 9 -15 0 -8 7 -15 15 -15 8 0 15 -7 15 -15
0 -8 9 -19 19 -25 13 -6 17 -17 14 -30 -4 -15 0 -20 13 -20 18 -1 18 -2 -1
-18 -11 -9 -22 -33 -23 -52 -2 -19 -4 -37 -5 -40 0 -3 5 -18 11 -33 7 -16 12
-35 12 -43 0 -8 4 -14 9 -14 5 0 8 -15 7 -32 0 -21 3 -32 11 -31 9 2 10 -4 5
-20 -10 -28 17 -85 38 -79 13 3 13 2 0 -7 -8 -5 -11 -13 -7 -17 4 -4 3 -12 -3
-18 -6 -8 -2 -12 13 -13 12 -1 24 2 28 8 3 5 6 -11 7 -36 1 -25 -2 -45 -8 -45
-5 0 -7 -7 -4 -15 4 -8 10 -15 16 -15 5 0 7 4 4 8 -7 11 31 8 41 -3 5 -4 2 -5
-5 -1 -7 4 -15 1 -18 -9 -8 -20 10 -42 20 -26 9 14 26 14 26 0 0 -5 -6 -7 -12
-3 -7 4 -4 -2 6 -15 11 -12 23 -18 28 -13 6 6 25 4 46 -3 27 -10 41 -10 50 -2
10 8 12 7 10 -4 -2 -8 -7 -17 -12 -20 -10 -8 1 -29 15 -29 5 0 9 7 9 15 0 8 5
15 10 15 15 0 12 -15 -10 -43 -11 -14 -17 -28 -13 -30 5 -3 41 -8 81 -12 39
-4 74 -11 77 -15 3 -4 20 -8 37 -9 18 0 43 -2 55 -5 13 -3 30 2 39 11 8 9 25
16 37 17 18 1 23 8 25 40 3 31 -3 46 -27 76 -17 21 -36 57 -43 80 -7 23 -19
45 -25 47 -7 3 -13 13 -13 24 0 10 -8 24 -19 31 -10 7 -18 22 -17 33 2 27 27
99 36 105 9 6 74 110 107 171 38 70 53 89 67 83 8 -3 17 -1 21 5 8 13 25 14
25 2 0 -5 -9 -11 -20 -14 -23 -6 -27 -37 -5 -37 8 0 15 -6 15 -14 0 -8 7 -16
15 -20 8 -3 15 -2 15 3 0 4 7 8 15 8 8 0 15 -9 15 -21 0 -18 1 -19 16 -5 14
15 13 22 -10 77 -13 35 -20 64 -15 67 14 9 11 92 -3 99 -10 5 -10 7 -1 12 7 3
10 11 7 18 -3 7 7 18 21 26 19 10 25 21 25 46 0 44 16 84 34 84 17 0 28 37 12
44 -6 3 -2 4 9 1 15 -4 24 3 35 28 8 17 13 35 12 40 -1 4 5 7 13 7 8 0 15 3
16 8 0 4 2 17 3 30 2 16 -2 21 -11 18 -7 -3 -13 -1 -13 5 0 6 11 8 28 4 26 -5
32 -1 62 47 43 67 62 108 50 108 -22 0 -8 22 19 31 25 9 28 14 24 45 -2 23 0
33 7 29 6 -3 8 -11 5 -16 -4 -5 -1 -9 5 -9 6 0 16 14 21 30 6 16 17 30 25 30
8 0 21 18 30 40 9 22 19 40 23 40 3 0 23 16 43 34 25 23 36 40 32 50 -3 9 -1
16 5 16 6 0 11 7 11 15 0 10 10 15 30 15 28 0 29 2 18 20 -11 17 -10 22 1 29
11 7 11 10 -1 17 -22 13 -31 44 -13 44 8 0 14 -3 14 -7 -4 -23 4 -23 26 1 13
14 31 26 39 26 9 0 21 9 28 20 7 11 18 20 24 20 15 0 38 55 29 69 -3 6 -1 11
5 11 6 0 8 5 5 11 -14 22 6 80 31 91 13 6 24 17 24 23 0 7 11 24 26 40 27 29
25 47 -3 24 -12 -10 -10 -4 6 19 12 17 29 32 38 32 9 0 13 6 9 15 -3 9 0 15 8
15 20 0 42 29 86 117 22 45 46 83 53 86 9 3 9 8 -2 20 -12 15 -11 17 8 17 12
0 21 6 21 15 0 8 5 15 10 15 6 0 10 5 10 11 0 6 -9 9 -19 6 -14 -3 -18 -1 -14
9 3 8 18 14 33 14 16 0 32 5 35 10 4 6 11 8 16 5 14 -10 22 21 10 43 -8 16 -6
23 11 38 21 19 118 208 118 231 0 22 20 24 86 8 36 -10 68 -14 71 -11 3 3 11
2 17 -3 6 -4 19 -11 29 -14 14 -5 17 0 17 28 0 28 -4 35 -19 35 -10 0 -24 7
-31 15 -7 8 -18 15 -24 14 -41 -5 -49 1 -42 32 6 29 5 30 -27 27 -30 -3 -32
-1 -35 30 -2 24 -8 32 -20 30 -12 -2 -18 5 -20 25 -2 15 1 27 6 27 5 0 17 11
26 25 13 19 14 29 4 49 -7 17 -8 30 -1 38 5 7 8 19 7 26 -1 6 -2 17 -3 22 0 6
-7 10 -15 10 -24 0 -28 18 -10 45 14 22 15 29 4 50 -7 14 -18 25 -24 26 -6 0
-20 2 -31 4 -28 6 -65 -5 -62 -17 1 -6 -3 -12 -10 -15 -6 -2 -16 12 -23 31 -7
21 -18 36 -27 36 -9 0 -28 12 -42 28 -14 15 -33 28 -41 30 -8 2 -19 10 -23 18
-11 20 -54 17 -79 -5 -23 -22 -56 -18 -37 5 6 8 15 11 19 9 5 -3 7 7 6 22 -2
15 -9 29 -17 31 -33 10 -89 39 -164 86 -44 27 -93 56 -109 65 -17 9 -39 24
-50 33 -11 10 -28 20 -38 24 -10 3 -18 9 -18 13 0 11 -97 111 -108 111 -5 0
-14 11 -20 24 -9 20 -8 26 6 31 14 6 12 9 -12 17 -21 8 -25 13 -15 19 11 7 10
9 -3 9 -10 0 -25 11 -34 25 -9 14 -22 25 -28 24 -29 -5 -106 55 -106 83 0 7
-19 33 -43 58 -52 55 -82 100 -66 100 8 0 8 4 -1 15 -6 8 -10 31 -8 52 2 26
-1 37 -9 35 -7 -1 -13 2 -13 8 0 5 -8 10 -18 10 -21 0 -59 37 -62 60 -4 27 0
41 9 35 17 -10 21 12 7 39 -10 21 -15 23 -19 11 -4 -8 -11 -15 -17 -15 -6 0
-8 5 -4 12 5 7 2 9 -8 5 -12 -4 -14 -1 -11 14 3 10 0 19 -6 19 -6 0 -11 7 -11
15 0 8 -4 15 -8 15 -5 0 -17 6 -28 14 -19 15 -19 15 1 30 16 13 17 17 6 25 -7
5 -11 17 -7 27 7 25 -8 49 -25 39 -8 -5 -11 -5 -7 0 9 10 -10 47 -21 40 -5 -2
-11 5 -14 17 -7 24 3 41 10 21 11 -30 19 -9 16 35 -3 29 -12 55 -25 69 -27 29
-19 46 34 71 24 12 59 35 78 51 32 27 33 30 13 31 -12 0 -25 5 -28 10 -4 6
-15 8 -26 5 -20 -7 -49 14 -49 35 0 10 39 8 90 -6 20 -5 44 11 36 24 -3 5 -17
10 -32 10 -14 0 -29 4 -33 9 -3 5 -29 9 -57 9 -30 0 -59 7 -73 16 -23 16 -23
16 -2 23 12 3 21 11 21 16 0 5 10 9 23 9 12 0 39 11 60 23 36 22 38 25 23 40
-9 8 -16 20 -16 26 0 6 -6 11 -14 11 -8 0 -23 11 -34 25 -11 13 -22 22 -24 19
-3 -2 -26 -5 -52 -6 -32 0 -49 -6 -55 -17 -5 -9 -13 -12 -17 -8 -5 5 -2 12 5
16 17 11 6 31 -17 31 -15 0 -15 2 -2 10 12 8 13 12 2 19 -11 6 -9 10 7 14 27
7 18 35 -15 48 -13 4 -24 14 -24 20 0 6 7 9 15 5 8 -3 15 -2 16 2 0 4 2 26 5
50 3 27 0 49 -7 59 -10 12 -10 16 0 23 9 5 10 10 2 14 -8 5 -6 18 4 43 8 19
15 46 15 59 0 19 8 25 43 35 62 16 94 31 80 36 -7 3 -13 15 -13 28 0 14 -7 25
-20 28 -13 3 -18 11 -14 20 3 9 -2 20 -15 26 -28 15 -41 14 -41 -5 0 -12 -5
-14 -17 -9 -10 4 -34 11 -53 14 -30 5 -35 11 -43 45 -7 29 -17 41 -42 52 -64
26 -106 -13 -67 -65 14 -19 17 -32 11 -50 -5 -12 -7 -26 -4 -31 3 -4 -2 -10
-10 -14 -21 -8 -19 -26 3 -26 14 0 14 -2 3 -9 -20 -13 -24 -80 -6 -88 22 -8 8
-22 -15 -16 -33 9 -43 42 -45 153 -4 198 -4 200 -19 200 -8 0 -18 -5 -21 -10z
m93 -372 c-2 -6 -10 -14 -16 -16 -7 -2 -10 2 -6 12 7 18 28 22 22 4z m-158 -2
c0 -2 -7 -7 -16 -10 -8 -3 -12 -2 -9 4 6 10 25 14 25 6z m20 -58 c0 -6 -7 -5
-15 2 -8 7 -15 17 -15 22 0 6 7 5 15 -2 8 -7 15 -17 15 -22z m-15 -46 c-3 -3
-11 0 -18 7 -9 10 -8 11 6 5 10 -3 15 -9 12 -12z m5 -307 c10 -12 10 -15 -4
-15 -9 0 -16 7 -16 15 0 8 2 15 4 15 2 0 9 -7 16 -15z m-10 -24 c3 -1 -2 -5
-10 -10 -15 -10 -30 -6 -30 9 0 4 8 7 18 5 9 -2 19 -4 22 -4z m444 -157 c3 -8
2 -12 -4 -9 -6 3 -10 10 -10 16 0 14 7 11 14 -7z m-475 -171 c2 -2 -3 -3 -11
-3 -9 0 -19 7 -22 16 -6 15 -4 15 11 3 10 -7 20 -15 22 -16z m501 -3 c0 -5 -4
-10 -10 -10 -5 0 -10 5 -10 10 0 6 5 10 10 10 6 0 10 -4 10 -10z m-890 -650
c0 -5 -2 -10 -4 -10 -3 0 -8 5 -11 10 -3 6 -1 10 4 10 6 0 11 -4 11 -10z
m-1607 -71 c4 -16 3 -18 -9 -8 -7 6 -11 15 -8 20 8 13 11 11 17 -12z m1737 11
c0 -5 -2 -10 -4 -10 -3 0 -8 5 -11 10 -3 6 -1 10 4 10 6 0 11 -4 11 -10z m405
-10 c3 -5 2 -10 -4 -10 -5 0 -13 5 -16 10 -3 6 -2 10 4 10 5 0 13 -4 16 -10z
m-2381 -9 c3 -5 -3 -11 -15 -14 -16 -4 -18 -3 -8 9 13 16 16 17 23 5z m1949
-30 c-4 -16 -9 -17 -39 -8 -19 6 -34 14 -34 19 0 11 18 10 25 -2 10 -16 35
-12 35 6 0 8 4 13 9 10 5 -3 7 -14 4 -25z m507 10 c0 -5 -7 -11 -14 -14 -10
-4 -13 -1 -9 9 6 15 23 19 23 5z m-1410 -22 c0 -5 8 -9 17 -9 12 0 14 -3 7
-10 -7 -7 -19 -8 -37 -1 -32 12 -35 26 -7 28 11 1 20 -2 20 -8z m-80 -9 c8 -5
11 -10 5 -10 -5 0 -17 5 -25 10 -8 5 -10 10 -5 10 6 0 17 -5 25 -10z m-415
-14 c12 -11 10 -13 -10 -13 -16 0 -22 4 -18 13 3 8 7 14 10 14 2 0 11 -6 18
-14z m125 -1 c0 -8 -2 -15 -4 -15 -2 0 -6 7 -10 15 -3 8 -1 15 4 15 6 0 10 -7
10 -15z m1264 -5 c8 -9 6 -11 -10 -8 -11 1 -27 -2 -35 -9 -11 -9 -18 -8 -33 2
-10 8 -15 18 -12 23 7 12 76 6 90 -8z m-2440 -5 c-4 -8 -10 -15 -14 -15 -4 0
-10 7 -14 15 -4 10 1 15 14 15 13 0 18 -5 14 -15z m456 -5 c0 -5 -8 -10 -17
-10 -15 0 -16 2 -3 10 19 12 20 12 20 0z m2470 -20 c0 -5 -7 -10 -15 -10 -8 0
-15 5 -15 10 0 6 7 10 15 10 8 0 15 -4 15 -10z m-196 -35 c4 -10 -1 -15 -16
-15 -17 0 -18 2 -8 15 7 8 14 15 15 15 2 0 5 -7 9 -15z m-1701 -9 c3 -8 0 -17
-7 -19 -10 -4 -12 1 -9 14 6 23 9 24 16 5z m492 4 c-3 -5 -11 -10 -16 -10 -6
0 -7 5 -4 10 3 6 11 10 16 10 6 0 7 -4 4 -10z m-1685 -46 c0 -2 -9 -4 -21 -4
-11 0 -18 4 -14 10 5 8 35 3 35 -6z m1103 -13 c-3 -10 0 -22 6 -25 6 -4 11 -2
11 5 0 6 8 9 19 6 15 -4 18 -1 13 12 -5 13 -3 14 10 3 10 -8 14 -21 10 -34 -3
-15 -1 -19 9 -16 8 3 24 1 36 -3 13 -5 25 -4 28 1 4 6 -2 10 -12 11 -11 0 -13
3 -5 6 10 4 10 8 2 18 -9 11 -6 13 17 11 15 -2 34 -4 41 -5 7 0 10 -6 7 -11
-5 -7 -11 -8 -19 -1 -8 7 -12 4 -13 -10 -2 -25 16 -33 50 -20 26 10 33 5 28
-22 -1 -5 3 -6 9 -2 6 3 7 11 4 17 -4 6 1 8 16 3 19 -6 22 -4 17 9 -6 15 -4
15 18 -1 30 -22 31 -30 4 -38 -11 -4 -28 -23 -37 -44 -12 -24 -24 -36 -37 -36
-11 0 -28 -6 -37 -14 -20 -17 -88 -26 -88 -11 0 6 7 13 15 16 8 4 15 10 15 15
0 5 -11 3 -24 -6 -16 -11 -22 -23 -20 -41 3 -30 14 -45 14 -20 0 10 6 16 13
14 25 -9 11 -33 -23 -39 -27 -4 -31 -7 -17 -13 22 -10 22 -18 -3 -33 -16 -11
-18 -10 -13 4 4 11 2 14 -8 11 -8 -3 -13 -12 -11 -20 1 -9 -5 -18 -13 -22 -10
-4 -14 -2 -9 6 5 8 -1 9 -22 4 -27 -7 -37 -16 -46 -41 -1 -5 -21 -19 -43 -30
-49 -24 -63 -36 -57 -53 2 -6 -1 -12 -8 -12 -6 0 -9 4 -5 9 3 6 -3 15 -14 21
-11 6 -19 16 -16 23 11 37 15 68 7 63 -16 -10 -54 25 -49 45 3 11 0 19 -6 19
-7 0 -5 5 3 10 19 12 8 13 -23 1 -22 -8 -26 -7 -29 13 -3 15 2 27 13 34 18 11
19 20 5 60 -6 19 -10 21 -22 11 -8 -7 -14 -7 -14 -1 0 5 -10 12 -23 16 -20 5
-22 11 -19 41 4 29 7 34 26 30 11 -2 37 -6 57 -10 23 -3 46 -17 65 -38 27 -31
130 -87 160 -87 43 0 -22 77 -99 118 l-52 27 33 3 c22 2 32 9 32 20 1 14 4 13
19 -6 16 -18 24 -21 45 -12 29 11 32 20 14 39 -11 11 -10 13 2 9 8 -3 16 -14
18 -26 2 -12 7 -22 11 -22 4 0 6 14 3 30 -2 17 0 30 6 30 6 0 8 -8 5 -19z
m227 -11 c0 -11 -4 -20 -9 -20 -5 0 -11 9 -14 20 -3 13 0 20 9 20 8 0 14 -9
14 -20z m115 10 c3 -5 -1 -10 -10 -10 -9 0 -13 5 -10 10 3 6 8 10 10 10 2 0 7
-4 10 -10z m1665 -20 c0 -5 -7 -10 -16 -10 -8 0 -12 5 -9 10 3 6 10 10 16 10
5 0 9 -4 9 -10z m-1200 -24 c0 -3 -4 -8 -10 -11 -5 -3 -10 -1 -10 4 0 6 5 11
10 11 6 0 10 -2 10 -4z m-1170 -15 c0 -14 -20 -24 -47 -26 -27 -1 -26 17 1 21
10 1 20 5 24 8 9 9 22 7 22 -3z m1015 -1 c3 -5 1 -10 -4 -10 -6 0 -11 5 -11
10 0 6 2 10 4 10 3 0 8 -4 11 -10z m98 -21 c-6 -30 11 -46 30 -30 19 15 57 10
54 -8 -1 -11 11 -19 36 -25 20 -5 37 -12 37 -16 0 -3 -20 -19 -44 -34 -25 -16
-53 -37 -62 -47 -25 -27 -44 -24 -44 9 -1 39 -32 76 -67 77 -17 0 -27 5 -25
13 2 14 -14 16 -23 2 -3 -5 -1 -10 4 -10 6 0 11 -7 11 -15 0 -8 -4 -15 -10
-15 -5 0 -10 6 -10 14 0 24 -50 16 -62 -10 -15 -33 -30 -30 -22 4 7 24 6 26
-9 13 -11 -9 -17 -10 -17 -2 0 6 -7 11 -16 11 -13 0 -14 3 -5 14 10 11 6 16
-16 24 -15 6 -22 11 -14 11 11 1 10 5 -5 16 -18 15 -18 16 11 11 85 -15 149
-15 171 -1 28 18 41 3 18 -19 -12 -13 -13 -20 -5 -30 16 -19 64 -28 57 -10 -3
7 -1 16 4 19 16 10 11 28 -5 22 -8 -4 -17 -2 -20 3 -4 6 -1 10 4 10 6 0 11 5
11 11 0 5 -5 7 -12 3 -6 -4 -8 -3 -5 3 4 6 18 10 31 9 21 -1 24 -5 19 -27z
m-1206 11 c8 0 4 -10 -9 -25 -12 -14 -27 -25 -34 -25 -7 0 -15 -4 -18 -9 -3
-4 7 -6 22 -5 15 2 21 1 15 -2 -7 -3 -13 -13 -13 -21 0 -9 -6 -13 -14 -10 -7
3 -18 1 -24 -5 -13 -13 -32 -2 -32 21 0 9 -5 22 -11 28 -6 6 -8 16 -4 22 10
18 68 40 90 36 11 -3 26 -5 32 -5z m1293 -10 c0 -5 -4 -10 -10 -10 -5 0 -10 5
-10 10 0 6 5 10 10 10 6 0 10 -4 10 -10z m-1475 -31 c21 -20 10 -48 -16 -42
-10 3 -19 11 -19 18 0 7 -9 15 -20 18 -11 3 -20 10 -20 15 0 15 58 8 75 -9z
m2725 -3 c0 -6 5 -4 10 4 7 12 10 12 10 1 0 -7 6 -11 14 -8 8 3 16 -2 19 -14
6 -22 -3 -25 -21 -7 -9 9 -12 8 -13 -7 0 -11 -3 -14 -6 -7 -2 6 -11 12 -19 12
-9 0 -12 5 -9 10 3 6 2 10 -3 10 -6 0 -12 6 -15 14 -4 10 0 12 14 9 10 -3 19
-10 19 -17z m510 14 c0 -5 -5 -10 -11 -10 -5 0 -7 5 -4 10 3 6 8 10 11 10 2 0
4 -4 4 -10z m-3327 -24 c3 -8 -1 -17 -9 -20 -8 -3 -14 -12 -14 -21 0 -8 -7
-15 -16 -15 -14 0 -14 -2 -3 -16 11 -13 10 -18 -8 -32 -11 -10 -24 -27 -28
-40 -9 -29 -26 -24 -44 14 -8 16 -18 32 -24 35 -13 9 0 29 19 29 17 0 18 22 2
38 -7 7 -10 12 -7 13 2 0 29 7 59 14 30 7 58 13 61 14 4 0 9 -5 12 -13z m137
-1 c0 -8 -2 -15 -4 -15 -2 0 -6 7 -10 15 -3 8 -1 15 4 15 6 0 10 -7 10 -15z
m191 -28 c-13 -13 -26 -3 -16 12 3 6 11 8 17 5 6 -4 6 -10 -1 -17z m74 3 c3
-5 2 -10 -4 -10 -5 0 -13 5 -16 10 -3 6 -2 10 4 10 5 0 13 -4 16 -10z m-372
-43 c-3 -4 -11 -3 -19 4 -7 6 -11 15 -8 20 3 5 11 3 18 -4 8 -6 12 -16 9 -20z
m237 23 c0 -5 -4 -10 -10 -10 -5 0 -10 5 -10 10 0 6 5 10 10 10 6 0 10 -4 10
-10z m945 0 c-4 -6 -1 -17 5 -25 6 -8 9 -23 5 -35 -6 -20 -7 -20 -25 2 -10 13
-15 27 -12 33 4 5 7 13 8 18 3 16 4 17 15 17 5 0 7 -5 4 -10z m499 2 c3 -5 -1
-9 -9 -9 -8 0 -12 4 -9 9 3 4 7 8 9 8 2 0 6 -4 9 -8z m-1960 -17 c-4 -8 -8
-15 -10 -15 -2 0 -4 7 -4 15 0 8 4 15 10 15 5 0 7 -7 4 -15z m3046 -44 c0 -5
-6 -14 -14 -20 -12 -10 -13 -8 -9 8 5 21 23 30 23 12z m-834 -35 c21 -8 34 1
27 19 -6 18 6 19 43 2 53 -23 86 -49 73 -58 -10 -6 -10 -11 -1 -22 12 -14 7
-27 -10 -27 -5 0 -6 5 -3 10 3 6 -1 10 -11 10 -14 0 -14 3 -4 16 11 12 11 15
-1 12 -8 -2 -17 -11 -21 -20 -5 -13 -17 -16 -52 -14 -26 1 -46 -2 -46 -6 0 -5
-4 -7 -9 -3 -10 6 -7 37 4 55 4 6 3 9 -2 8 -4 -2 -19 8 -32 21 -16 16 -18 22
-8 18 9 -3 20 -1 24 6 5 9 8 7 11 -5 2 -9 10 -19 18 -22z m224 24 c0 -5 -2
-10 -4 -10 -3 0 -8 5 -11 10 -3 6 -1 10 4 10 6 0 11 -4 11 -10z m-2563 -16 c3
-8 11 -13 18 -10 23 8 34 -8 19 -28 -12 -17 -14 -17 -20 -3 -3 9 -10 15 -15
12 -4 -3 -6 -12 -3 -19 3 -8 0 -17 -7 -22 -8 -5 -10 -3 -4 6 5 8 3 11 -6 8 -8
-2 -21 -20 -31 -39 -13 -27 -18 -31 -23 -17 -4 9 -13 14 -21 11 -11 -4 -12 -9
-3 -19 8 -9 8 -18 2 -26 -6 -7 -13 -28 -17 -47 -5 -28 -4 -32 8 -22 18 15 34
-5 17 -22 -8 -8 -14 -8 -23 1 -7 7 -21 12 -33 12 -12 0 -26 -5 -33 -12 -20
-20 -14 -3 8 22 11 13 26 20 35 16 9 -3 15 0 15 9 0 8 -3 15 -7 15 -5 0 -18 3
-30 6 -19 5 -23 2 -23 -15 0 -14 -5 -19 -15 -15 -17 7 -48 -14 -40 -26 3 -4
-4 -10 -15 -13 -11 -3 -20 -12 -20 -21 0 -9 -4 -16 -10 -16 -5 0 -10 6 -10 14
0 16 -34 31 -50 21 -5 -3 -10 -1 -10 4 0 6 -4 11 -10 11 -5 0 -10 -7 -10 -16
0 -8 -4 -12 -10 -9 -5 3 -10 1 -10 -4 0 -6 4 -11 9 -11 5 0 8 -18 7 -40 0 -26
-3 -34 -9 -25 -4 8 -15 15 -24 15 -9 0 -13 -3 -10 -6 3 -4 2 -15 -4 -26 -10
-19 -11 -19 -35 3 l-25 24 5 -28 c4 -22 1 -27 -16 -27 -15 0 -19 -5 -15 -20 5
-19 -3 -24 -29 -21 -19 2 -27 -32 -9 -41 25 -15 7 -28 -22 -17 -14 5 -27 8
-28 7 -1 -2 -8 -13 -14 -25 -6 -13 -17 -23 -24 -23 -14 0 -17 58 -4 78 5 6 5
17 2 22 -4 6 5 10 19 10 14 0 26 4 26 8 0 4 -16 8 -35 8 -27 0 -35 -4 -35 -19
0 -10 -4 -16 -9 -13 -13 8 2 69 18 74 8 3 11 0 8 -6 -4 -5 0 -15 8 -22 10 -8
15 -9 15 -1 0 7 8 8 24 1 25 -9 36 -5 36 14 0 6 -5 4 -10 -4 -8 -13 -10 -12
-10 4 0 11 -5 16 -14 13 -7 -3 -19 0 -25 6 -18 18 -13 27 12 19 26 -9 52 -8
87 3 14 5 31 8 37 7 8 -2 10 3 7 13 -5 11 2 17 25 21 23 5 30 11 26 22 -3 8 3
21 15 29 11 8 20 20 20 28 0 7 8 15 17 17 10 2 18 12 18 23 0 13 8 21 23 23
12 2 22 8 22 13 0 5 9 9 20 9 11 0 20 5 20 10 0 6 -5 10 -12 10 -15 0 0 15 15
15 7 0 11 8 11 17 -1 13 5 15 33 11 24 -4 33 -2 31 7 -2 7 3 15 11 18 9 3 11
0 6 -8 -9 -15 32 -4 55 15 38 31 108 43 117 19z m3119 -11 c-10 -10 -19 5 -10
18 6 11 8 11 12 0 2 -7 1 -15 -2 -18z m-1486 2 c0 -8 -4 -15 -10 -15 -5 0 -10
7 -10 15 0 8 5 15 10 15 6 0 10 -7 10 -15z m-1184 -22 c-10 -10 -19 5 -10 18
6 11 8 11 12 0 2 -7 1 -15 -2 -18z m366 -15 c-2 -10 -9 -18 -14 -18 -5 0 -7
-4 -4 -9 7 -11 -22 -23 -36 -15 -5 3 -1 12 9 20 17 13 17 13 -3 14 -21 0 -88
29 -82 35 2 2 23 0 48 -5 35 -6 47 -5 53 6 11 19 36 -4 29 -28z m641 16 c-15
-11 -16 -13 -2 -14 9 0 37 6 62 14 43 13 47 12 63 -6 18 -19 17 -19 -10 -8
-34 13 -48 4 -23 -14 18 -14 24 -32 7 -21 -6 3 -23 -3 -39 -14 -37 -26 -41
-26 -41 2 -1 20 -2 20 -11 4 -8 -13 -14 -15 -30 -7 -15 9 -17 15 -9 30 6 11 8
20 4 20 -4 0 1 9 11 20 10 11 22 17 27 14 5 -3 1 -12 -9 -20z m-1123 1 c0 -8
-7 -15 -16 -15 -14 0 -14 3 -4 15 7 8 14 15 16 15 2 0 4 -7 4 -15z m2820 1 c0
-3 -4 -8 -10 -11 -5 -3 -10 -1 -10 4 0 6 5 11 10 11 6 0 10 -2 10 -4z m-895
-16 c-3 -5 2 -11 12 -11 17 -1 17 -2 1 -6 -10 -2 -18 -12 -19 -21 -1 -10 -4
-7 -8 8 -4 15 -3 28 3 32 15 10 18 10 11 -2z m-600 -20 c-3 -5 -10 -10 -16
-10 -5 0 -9 5 -9 10 0 6 7 10 16 10 8 0 12 -4 9 -10z m146 -7 c9 -9 2 -12 -30
-11 -23 0 -44 4 -47 9 -3 5 -10 6 -16 3 -6 -4 -9 -3 -5 2 8 13 84 11 98 -3z
m-1821 -23 c0 -5 -5 -10 -11 -10 -5 0 -7 5 -4 10 3 6 8 10 11 10 2 0 4 -4 4
-10z m-305 -10 c-3 -5 -12 -10 -18 -10 -7 0 -6 4 3 10 19 12 23 12 15 0z
m2625 0 c0 -5 -4 -10 -10 -10 -5 0 -10 5 -10 10 0 6 5 10 10 10 6 0 10 -4 10
-10z m-1535 -90 c-12 -19 -22 -10 -17 16 4 22 6 24 14 10 5 -9 6 -21 3 -26z
m-1185 10 c6 -11 7 -20 2 -20 -6 0 -12 9 -15 20 -3 11 -3 20 -1 20 2 0 8 -9
14 -20z m810 9 c0 -5 5 -7 10 -4 6 3 10 2 10 -4 0 -7 -28 -8 -58 -2 -2 1 0 6
3 11 8 13 35 13 35 -1z m1785 -27 c-3 -3 -11 0 -18 7 -9 10 -8 11 6 5 10 -3
15 -9 12 -12z m-1796 -13 c-16 -10 -23 -4 -14 10 3 6 11 8 17 5 6 -4 5 -9 -3
-15z m3868 -31 c-5 -16 -2 -19 14 -15 10 3 17 1 14 -4 -6 -9 33 -22 56 -19 31
5 43 0 32 -11 -6 -6 -9 -18 -6 -25 3 -7 -2 -21 -11 -29 -15 -15 -17 -15 -22
-1 -10 25 -26 19 -18 -6 3 -13 3 -20 -1 -16 -5 4 -14 3 -21 -3 -9 -7 -19 -7
-33 1 -12 6 -21 8 -21 5 0 -3 -6 0 -14 7 -12 11 -12 15 1 31 15 16 14 17 -17
17 -26 0 -31 3 -22 12 8 8 9 15 1 25 -8 9 -8 13 -1 13 6 0 9 6 6 13 -2 7 7 19
21 27 14 7 25 18 25 24 0 6 5 3 11 -7 6 -10 9 -28 6 -39z m-1487 38 c0 -2 -7
-9 -15 -16 -12 -10 -15 -10 -15 4 0 9 7 16 15 16 8 0 15 -2 15 -4z m1409 -22
c-6 -8 -21 -14 -32 -14 -19 0 -19 1 -3 19 21 23 54 18 35 -5z m-2079 8 c0 -4
-9 -8 -19 -8 -11 0 -17 4 -15 8 3 4 12 8 20 8 8 0 14 -4 14 -8z m30 -23 c0
-23 4 -30 14 -26 10 4 13 1 10 -8 -6 -14 -34 -9 -34 6 0 5 -4 9 -10 9 -5 0
-10 -7 -10 -15 0 -9 -9 -15 -25 -15 -14 0 -25 -6 -25 -12 0 -7 -7 -4 -16 7 -8
11 -17 19 -19 18 -3 -2 -4 0 -3 5 1 4 8 6 14 4 6 -1 14 4 18 13 3 8 11 15 17
15 8 0 8 -4 -1 -15 -8 -9 -8 -15 -2 -15 6 0 17 7 26 15 8 8 19 15 25 15 6 0 8
7 5 15 -4 8 -1 15 5 15 6 0 11 -14 11 -31z m670 27 c0 -2 -7 -7 -16 -10 -8 -3
-12 -2 -9 4 6 10 25 14 25 6z m-118 -31 c-3 -15 1 -16 25 -11 18 4 23 3 15 -2
-10 -7 -7 -11 12 -14 17 -4 26 -1 26 8 0 7 4 15 9 19 6 3 9 -7 8 -22 -2 -33
-44 -49 -63 -24 -10 13 -16 13 -39 3 -31 -14 -48 -2 -38 25 5 12 7 12 14 1 6
-9 9 -4 9 15 0 19 4 27 13 24 6 -2 11 -12 9 -22z m-1652 -5 c0 -5 -4 -10 -10
-10 -5 0 -10 5 -10 10 0 6 5 10 10 10 6 0 10 -4 10 -10z m-1223 -20 c1 -11 -2
-20 -8 -20 -10 0 -12 23 -2 33 9 9 9 10 10 -13z m98 2 c-3 -3 -11 0 -18 7 -9
10 -8 11 6 5 10 -3 15 -9 12 -12z m1093 1 c-2 -9 -8 -18 -15 -20 -7 -3 -9 3
-6 16 6 25 26 28 21 4z m-261 -15 c-3 -8 -6 -5 -6 6 -1 11 2 17 5 13 3 -3 4
-12 1 -19z m586 -4 c-4 -10 0 -12 13 -8 17 6 16 5 -1 -9 -50 -37 -98 -19 -59
24 18 20 55 14 47 -7z m251 4 c-3 -5 -18 -8 -32 -7 -15 2 -33 0 -40 -5 -8 -5
-18 -4 -24 2 -11 11 36 27 52 17 5 -3 11 -1 15 4 3 6 12 8 20 5 8 -4 12 -10 9
-16z m1254 14 c9 -7 8 -13 -8 -27 -11 -10 -21 -15 -21 -12 -9 45 0 57 29 39z
m-528 -9 c-8 -3 -23 -10 -32 -15 -13 -6 -16 -5 -13 5 3 7 18 13 33 14 15 1 20
-1 12 -4z m-120 -12 c0 -12 -20 -25 -27 -18 -7 7 6 27 18 27 5 0 9 -4 9 -9z
m-1990 -30 c0 -17 -42 -35 -54 -24 -8 8 5 33 14 28 4 -3 11 2 14 11 7 19 26 9
26 -15z m1950 13 c0 -8 -4 -12 -10 -9 -5 3 -10 10 -10 16 0 5 5 9 10 9 6 0 10
-7 10 -16z m420 6 c0 -5 -5 -10 -11 -10 -5 0 -7 5 -4 10 3 6 8 10 11 10 2 0 4
-4 4 -10z m-2437 -21 c-4 -15 -8 -17 -14 -8 -6 11 4 28 18 29 0 0 -1 -9 -4
-21z m3440 6 c-3 -9 -8 -14 -10 -11 -3 3 -2 9 2 15 9 16 15 13 8 -4z m-3848
-5 c3 -5 -1 -10 -10 -10 -9 0 -13 5 -10 10 3 6 8 10 10 10 2 0 7 -4 10 -10z
m2960 -21 c-7 -10 -38 -12 -48 -2 -4 3 -2 12 4 19 13 16 54 0 44 -17z m-3676
-15 c-15 -18 -22 -13 -13 10 3 9 10 13 16 10 5 -3 4 -12 -3 -20z m2275 1 c17
-13 18 -15 3 -15 -9 0 -17 5 -17 11 0 6 -9 9 -20 6 -11 -3 -20 -1 -20 4 0 14
33 10 54 -6z m1326 5 c0 -5 -5 -10 -11 -10 -5 0 -7 5 -4 10 3 6 8 10 11 10 2
0 4 -4 4 -10z m1870 6 c0 -11 -19 -15 -25 -6 -3 5 1 10 9 10 9 0 16 -2 16 -4z
m100 -6 c0 -5 -5 -10 -11 -10 -5 0 -7 5 -4 10 3 6 8 10 11 10 2 0 4 -4 4 -10z
m-2480 -4 c0 -2 -8 -10 -17 -17 -16 -13 -17 -12 -4 4 13 16 21 21 21 13z m480
-10 c0 -3 -4 -8 -10 -11 -5 -3 -10 -1 -10 4 0 6 5 11 10 11 6 0 10 -2 10 -4z
m-75 -26 c3 -5 2 -10 -4 -10 -5 0 -13 5 -16 10 -3 6 -2 10 4 10 5 0 13 -4 16
-10z m-125 -4 c0 -3 -4 -8 -10 -11 -5 -3 -10 -1 -10 4 0 6 5 11 10 11 6 0 10
-2 10 -4z m179 1 c-2 -1 -12 -9 -21 -16 -15 -12 -18 -11 -18 3 0 10 8 16 22
16 12 0 19 -1 17 -3z m-2919 -16 c2 -1 -1 -6 -7 -12 -6 -6 -25 -8 -48 -3 -63
12 -16 25 55 15z m1400 -24 c0 -5 -4 -5 -10 -2 -5 3 -10 14 -10 23 0 15 2 15
10 2 5 -8 10 -19 10 -23z m1440 -6 c0 -6 -5 -11 -11 -11 -6 0 -9 -7 -5 -15 3
-8 1 -15 -4 -15 -5 0 -11 -8 -13 -17 -3 -10 -4 2 -2 27 2 25 4 51 4 58 1 10 4
10 16 -2 8 -8 15 -19 15 -25z m-2527 -7 c-6 -15 -39 -19 -47 -5 -8 12 -1 16
27 17 18 1 24 -2 20 -12z m-633 -4 c0 -5 -5 -10 -11 -10 -5 0 -7 5 -4 10 3 6
8 10 11 10 2 0 4 -4 4 -10z m1480 0 c0 -5 -4 -10 -10 -10 -5 0 -10 5 -10 10 0
6 5 10 10 10 6 0 10 -4 10 -10z m280 6 c0 -11 -19 -15 -25 -6 -3 5 1 10 9 10
9 0 16 -2 16 -4z m1313 -21 c8 4 18 2 21 -4 4 -5 -3 -12 -14 -16 -11 -3 -20
-11 -20 -16 0 -5 -6 -4 -14 3 -10 9 -11 15 -2 20 8 6 8 8 0 8 -7 0 -15 8 -18
17 -6 16 -6 16 12 0 11 -10 26 -15 35 -12z m1951 11 c-3 -8 -12 -12 -21 -9
-12 5 -12 7 -1 14 20 13 28 11 22 -5z m-3194 -15 c0 -5 -9 -11 -21 -14 -16 -4
-18 -3 -8 9 13 16 29 19 29 5z m715 -11 c-3 -5 -1 -10 6 -10 7 0 10 -3 6 -6
-9 -9 -28 6 -22 17 4 5 8 9 11 9 3 0 2 -4 -1 -10z m-2545 -10 c0 -5 -4 -10
-10 -10 -5 0 -10 5 -10 10 0 6 5 10 10 10 6 0 10 -4 10 -10z m2446 -15 c-1
-25 -7 -31 -19 -19 -6 6 9 44 17 44 2 0 3 -11 2 -25z m146 7 c-7 -2 -10 -8 -6
-13 3 -5 0 -9 -5 -9 -12 0 -15 23 -5 33 4 4 12 4 17 0 8 -5 7 -8 -1 -11z m108
-18 c0 -1 -11 -4 -25 -6 -23 -5 -27 4 -16 39 1 3 41 -30 41 -33z m2705 26 c3
-6 -1 -7 -9 -4 -18 7 -21 14 -7 14 6 0 13 -4 16 -10z m-5202 -6 c11 -11 -3
-24 -18 -18 -8 4 -12 10 -9 15 6 11 18 12 27 3z m1660 -10 c-3 -9 -13 -14 -24
-11 -11 3 -19 1 -19 -4 0 -5 -4 -9 -10 -9 -15 0 0 28 18 33 33 9 41 7 35 -9z
m2134 10 c-3 -3 -12 -4 -19 -1 -8 3 -5 6 6 6 11 1 17 -2 13 -5z m1238 -4 c3
-5 1 -10 -4 -10 -6 0 -11 5 -11 10 0 6 2 10 4 10 3 0 8 -4 11 -10z m-5291 -15
c-7 -16 -24 -21 -24 -6 0 8 7 13 27 20 1 1 0 -6 -3 -14z m186 8 c0 -17 -18
-35 -29 -29 -7 5 -9 1 -5 -8 8 -20 -3 -20 -22 -1 -13 13 -12 15 11 21 14 3 25
10 25 15 0 5 5 9 10 9 6 0 10 -3 10 -7z m3037 -8 c0 -8 -4 -12 -9 -9 -5 3 -6
10 -3 15 9 13 12 11 12 -6z m2223 5 c0 -5 -5 -10 -11 -10 -5 0 -7 5 -4 10 3 6
8 10 11 10 2 0 4 -4 4 -10z m-5237 -45 c-6 -17 12 -21 22 -5 3 6 14 10 23 10
15 -1 15 -2 -2 -15 -11 -8 -27 -15 -37 -15 -18 0 -33 26 -23 41 8 14 24 0 17
-16z m-673 -5 c0 -5 -4 -10 -9 -10 -6 0 -13 5 -16 10 -3 6 1 10 9 10 9 0 16
-4 16 -10z m384 -15 c-4 -8 -8 -15 -10 -15 -2 0 -4 7 -4 15 0 8 4 15 10 15 5
0 7 -7 4 -15z m186 5 c0 -5 -4 -10 -10 -10 -5 0 -10 5 -10 10 0 6 5 10 10 10
6 0 10 -4 10 -10z m739 -22 c8 -24 8 -34 0 -42 -9 -8 -10 -8 -5 1 3 6 2 14 -4
18 -6 4 -8 10 -5 15 3 5 1 11 -5 15 -12 8 -13 25 -1 25 5 0 14 -14 20 -32z
m4386 22 c3 -5 1 -10 -4 -10 -6 0 -11 5 -11 10 0 6 2 10 4 10 3 0 8 -4 11 -10z
m-3835 -30 c-8 -5 -16 -8 -17 -6 -2 2 -1 11 3 20 5 13 10 14 18 6 8 -8 7 -13
-4 -20z m155 21 c3 -5 1 -12 -5 -16 -5 -3 -10 1 -10 9 0 18 6 21 15 7z m-1530
-11 c-3 -5 -11 -10 -16 -10 -6 0 -7 5 -4 10 3 6 11 10 16 10 6 0 7 -4 4 -10z
m105 -5 c-7 -9 -15 -13 -19 -10 -3 3 1 10 9 15 21 14 24 12 10 -5z m148 -4 c3
-8 -1 -12 -9 -9 -7 2 -15 10 -17 17 -3 8 1 12 9 9 7 -2 15 -10 17 -17z m1532
-12 c0 -10 4 -19 9 -19 11 0 8 -26 -4 -37 -4 -4 -5 -2 -1 5 9 15 -6 16 -21 1
-6 -6 -17 -9 -23 -7 -9 3 -8 9 4 21 9 9 16 22 15 29 -3 26 1 39 11 33 6 -3 10
-15 10 -26z m1897 -5 c-9 -9 -27 6 -27 22 0 13 2 13 16 -1 9 -9 14 -18 11 -21z
m-3380 20 c-3 -3 -12 -4 -19 -1 -8 3 -5 6 6 6 11 1 17 -2 13 -5z m1328 -4 c3
-6 -1 -7 -9 -4 -18 7 -21 14 -7 14 6 0 13 -4 16 -10z m76 -7 c12 -16 12 -17
-2 -6 -9 7 -19 10 -22 6 -4 -3 -7 -1 -7 5 0 17 16 15 31 -5z m169 1 c0 -7 -11
-16 -25 -20 -14 -3 -25 -11 -26 -18 0 -6 -4 -2 -8 9 -4 10 -3 24 2 30 15 15
57 15 57 -1z m452 -5 c1 6 14 8 28 4 l25 -7 -25 -6 c-19 -5 -24 -12 -22 -31 1
-13 -1 -19 -5 -13 -13 19 -53 9 -76 -17 -27 -31 -64 -60 -53 -41 4 6 2 12 -3
12 -8 0 -7 7 1 19 7 11 15 18 19 15 4 -2 15 3 23 12 9 8 16 12 16 7 1 -19 20
24 20 45 0 21 1 22 24 7 14 -10 25 -12 28 -6z m-2487 1 c3 -5 1 -10 -4 -10 -6
0 -11 5 -11 10 0 6 2 10 4 10 3 0 8 -4 11 -10z m4452 -14 c-2 -6 -12 -12 -23
-13 -10 -2 -14 0 -7 3 7 3 9 12 6 20 -4 10 0 12 11 8 9 -4 15 -12 13 -18z
m-57 4 c0 -5 -2 -10 -4 -10 -3 0 -8 5 -11 10 -3 6 -1 10 4 10 6 0 11 -4 11
-10z m150 0 c0 -5 -4 -10 -10 -10 -5 0 -10 5 -10 10 0 6 5 10 10 10 6 0 10 -4
10 -10z m-1608 -12 c-9 -9 -15 -9 -24 0 -9 9 -7 12 12 12 19 0 21 -3 12 -12z
m-2802 -6 c0 -13 -46 -35 -62 -30 -8 3 -2 11 17 21 34 18 45 21 45 9z m2575
-2 c3 -5 12 -7 19 -4 18 7 16 -76 -3 -96 -12 -12 -16 -11 -31 8 -10 12 -16 31
-13 42 3 11 0 20 -6 20 -6 0 -11 9 -11 20 0 21 33 29 45 10z m2875 -5 c0 -8
-2 -15 -4 -15 -2 0 -6 7 -10 15 -3 8 -1 15 4 15 6 0 10 -7 10 -15z m-1535 -14
c-3 -6 -11 -11 -17 -11 -6 0 -6 6 2 15 14 17 26 13 15 -4z m471 4 c-3 -8 0
-15 6 -15 9 0 9 -3 0 -12 -14 -14 -17 -11 -26 20 -6 17 -3 22 9 22 11 0 15 -5
11 -15z m-3086 -5 c0 -5 -2 -10 -4 -10 -3 0 -8 5 -11 10 -3 6 -1 10 4 10 6 0
11 -4 11 -10z m1340 -5 c-7 -8 -16 -12 -21 -9 -13 8 -1 24 18 24 13 0 13 -3 3
-15z m185 -13 c27 -22 21 -38 -15 -38 -37 0 -50 16 -31 38 19 22 18 22 46 0z
m1895 7 c0 -5 -4 -7 -10 -4 -5 3 -10 1 -10 -6 0 -7 -3 -10 -6 -6 -8 7 4 27 17
27 5 0 9 -5 9 -11z m-476 -14 c-7 -16 -24 -21 -24 -6 0 8 7 13 27 20 1 1 0 -6
-3 -14z m-3059 -4 c3 -5 1 -12 -5 -16 -5 -3 -10 1 -10 9 0 18 6 21 15 7z m83
-18 c-14 -16 -24 -33 -21 -39 5 -14 -15 -31 -50 -39 -17 -5 -27 -3 -27 4 0 6
9 11 20 11 32 0 24 30 -7 31 -25 0 -26 1 -8 9 11 4 24 4 29 -1 12 -10 46 18
46 38 0 7 10 13 22 13 21 0 21 0 -4 -27z m521 7 c-8 -4 -33 -10 -57 -14 -36
-5 -41 -4 -31 7 7 7 28 13 46 12 18 0 33 3 33 8 0 4 5 5 11 1 8 -5 8 -9 -2
-14z m-1862 -12 c-3 -8 -6 -5 -6 6 -1 11 2 17 5 13 3 -3 4 -12 1 -19z m393 -7
c7 -14 6 -21 -2 -23 -16 -6 -41 19 -33 32 10 16 23 12 35 -9z m40 3 c0 -14 -3
-14 -15 -4 -8 7 -15 14 -15 16 0 2 7 4 15 4 8 0 15 -7 15 -16z m-680 -9 c0 -8
-4 -15 -10 -15 -5 0 -7 7 -4 15 4 8 8 15 10 15 2 0 4 -7 4 -15z m230 -14 c0
-4 -9 -16 -19 -25 -13 -12 -21 -14 -26 -6 -8 13 -8 12 20 29 19 12 19 12 -2 8
-22 -5 -30 3 -17 16 8 8 44 -10 44 -22z m80 8 c0 -14 -17 -10 -23 5 -4 10 -1
13 9 9 7 -3 14 -9 14 -14z m570 6 c0 -8 -4 -15 -10 -15 -5 0 -7 7 -4 15 4 8 8
15 10 15 2 0 4 -7 4 -15z m130 -5 c0 -5 -8 -10 -17 -10 -15 0 -16 2 -3 10 19
12 20 12 20 0z m1524 -21 c-3 -5 -10 -7 -15 -4 -5 4 -9 1 -9 -5 0 -7 6 -10 14
-7 17 7 41 -17 32 -32 -7 -11 -46 -2 -46 11 0 5 -9 4 -20 -2 -11 -6 -17 -16
-14 -25 4 -9 0 -15 -10 -15 -19 0 -22 -20 -3 -20 6 0 3 -6 -8 -12 -11 -6 -26
-20 -33 -30 -7 -10 -17 -16 -21 -13 -5 2 -19 -7 -32 -21 -12 -13 -28 -23 -34
-20 -17 6 -48 -21 -39 -35 4 -8 3 -10 -4 -5 -7 4 -12 2 -12 -4 0 -7 -15 -27
-32 -45 -18 -18 -46 -47 -61 -64 -16 -17 -33 -29 -38 -25 -16 10 -9 -9 9 -22
16 -13 16 -13 0 -14 -24 0 -33 4 -30 13 1 4 -2 7 -8 7 -5 0 -10 -4 -10 -9 0
-5 -3 -17 -6 -26 -5 -13 -1 -15 17 -12 13 2 18 2 12 0 -7 -3 -13 -9 -13 -14 0
-6 -7 -6 -19 1 -29 15 -34 13 -82 -30 -36 -33 -41 -42 -29 -50 13 -8 12 -11
-5 -24 -17 -13 -18 -17 -5 -25 21 -14 5 -24 -19 -12 -13 8 -18 17 -14 29 5 13
1 12 -16 -5 -26 -27 -26 -30 -3 -36 9 -2 3 -4 -14 -4 -33 0 -43 -6 -101 -60
-19 -18 -39 -33 -44 -33 -5 0 -9 -4 -9 -10 0 -21 -26 -9 -28 14 -2 23 55 86
78 86 5 0 10 5 10 10 0 6 7 10 15 10 8 0 15 7 15 15 0 9 12 20 26 25 23 9 110
90 97 90 -4 0 2 9 12 20 10 11 21 17 25 15 4 -3 15 6 24 20 9 14 13 26 9 26
-5 1 5 4 22 8 18 4 37 18 50 38 11 18 25 32 31 33 6 0 19 9 29 20 10 11 24 20
30 20 13 0 28 27 21 38 -2 4 5 16 16 27 16 17 18 17 12 2 -5 -13 -2 -16 10
-11 8 3 14 11 13 16 -1 6 14 22 33 35 19 13 51 40 72 59 20 18 40 34 44 34 4
0 19 13 33 28 14 16 35 34 46 40 21 11 39 6 29 -9z m-564 -15 c0 -8 -4 -12
-10 -9 -5 3 -10 10 -10 16 0 5 5 9 10 9 6 0 10 -7 10 -16z m3087 -20 c-3 -18
-1 -24 9 -20 16 6 17 1 8 -32 -5 -18 -9 -20 -21 -10 -11 9 -16 9 -23 -2 -6
-10 -10 -7 -15 13 -7 28 -19 35 -30 17 -3 -5 -12 -10 -18 -10 -7 0 -6 4 3 10
13 9 13 11 0 20 -13 9 -13 11 0 20 9 5 16 6 18 0 2 -5 18 -2 35 5 42 18 40 19
34 -11z m-4017 12 c0 -3 -4 -8 -10 -11 -5 -3 -10 -1 -10 4 0 6 5 11 10 11 6 0
10 -2 10 -4z m1840 0 c0 -3 -4 -8 -10 -11 -5 -3 -10 -1 -10 4 0 6 5 11 10 11
6 0 10 -2 10 -4z m-1000 -79 c0 -14 -6 -18 -27 -15 -19 2 -27 8 -24 18 2 8 4
22 4 30 1 45 46 13 47 -33z m2575 53 c3 -5 1 -10 -4 -10 -6 0 -11 5 -11 10 0
6 2 10 4 10 3 0 8 -4 11 -10z m684 1 c8 -5 9 -11 3 -15 -13 -8 -42 3 -42 15 0
11 21 11 39 0z m-2067 -13 c-16 -16 -15 -28 3 -28 8 0 15 -7 15 -15 0 -8 5
-15 10 -15 6 0 10 -4 10 -9 0 -8 -65 -35 -80 -34 -3 1 -16 -7 -30 -17 -14 -10
-49 -29 -78 -44 -29 -15 -62 -38 -74 -51 -11 -13 -34 -27 -49 -30 -31 -7 -54
-38 -43 -57 4 -7 3 -8 -5 -4 -6 4 -9 15 -7 24 3 10 2 23 -3 31 -7 11 -14 10
-40 -5 -17 -10 -31 -22 -31 -26 0 -4 -7 -5 -15 -2 -8 4 -17 -1 -21 -10 -6 -15
-34 -23 -34 -10 0 11 48 52 54 47 3 -3 8 2 12 11 4 10 13 15 24 11 14 -5 17
-2 13 13 -5 20 22 27 43 10 7 -5 23 2 43 21 17 16 31 27 31 24 0 -2 5 -1 12 3
8 5 6 11 -6 19 -14 11 -15 13 -1 19 8 3 15 1 15 -5 0 -6 5 -7 11 -4 5 4 9 17
8 28 -3 45 1 56 16 51 10 -4 13 -13 10 -24 -3 -10 -1 -21 4 -25 6 -3 8 0 5 8
-3 8 2 17 10 20 9 4 16 1 16 -6 0 -8 4 -7 10 3 5 9 5 19 -2 27 -7 9 -7 13 0
13 6 0 14 -4 17 -10 10 -16 34 -12 52 10 13 14 20 17 30 8 9 -7 13 -7 13 1 0
6 -11 13 -25 17 -37 9 -20 24 28 24 32 0 38 -3 29 -12z m880 -10 c-7 -7 -12
-8 -12 -2 0 14 12 26 19 19 2 -3 -1 -11 -7 -17z m-1018 -3 c-4 -8 -11 -15 -16
-15 -6 0 -5 6 2 15 7 8 14 15 16 15 2 0 1 -7 -2 -15z m1381 -5 c2 -4 16 -5 30
-3 13 3 23 9 20 13 -2 4 6 6 18 5 33 -4 34 -5 10 -15 -13 -5 -23 -18 -23 -29
0 -26 -15 -34 -30 -16 -16 19 -30 19 -30 1 0 -19 -17 -29 -31 -20 -8 4 -7 9 2
15 10 6 11 9 2 9 -7 0 -13 7 -13 15 0 8 6 15 13 16 10 0 10 2 0 6 -7 2 -13 8
-13 13 0 9 38 1 45 -10z m-3622 3 c-7 -2 -19 -2 -25 0 -7 3 -2 5 12 5 14 0 19
-2 13 -5z m729 0 c-6 -2 -9 -10 -6 -15 4 -7 2 -8 -5 -4 -13 9 -5 26 12 25 9 0
8 -2 -1 -6z m118 -3 c13 -8 13 -11 -1 -25 -15 -15 -17 -15 -21 9 -6 28 -1 31
22 16z m-1298 -22 c-7 -7 -12 -8 -12 -2 0 14 12 26 19 19 2 -3 -1 -11 -7 -17z
m398 11 c0 -10 -23 -17 -37 -11 -7 2 -11 7 -9 11 6 9 46 9 46 0z m4135 2 c3
-5 1 -12 -5 -16 -5 -3 -10 1 -10 9 0 18 6 21 15 7z m99 -23 c-4 -6 -10 -5 -15
3 -14 22 -10 33 6 19 8 -7 12 -17 9 -22z m727 13 c-9 -16 -8 -18 9 -14 11 3
20 0 20 -6 0 -15 -32 -51 -45 -51 -5 0 -4 4 2 8 9 6 7 12 -8 25 -16 14 -19 15
-17 3 3 -17 -15 -23 -20 -7 -4 11 45 61 60 61 5 0 4 -9 -1 -19z m-5037 -3 c-7
-11 -34 -10 -34 1 0 6 9 9 19 8 11 0 17 -5 15 -9z m1226 9 c0 -2 -9 -14 -19
-26 -14 -16 -21 -19 -27 -10 -4 7 1 18 11 26 18 12 35 17 35 10z m3484 -12
c-4 -8 -10 -12 -15 -9 -14 8 -10 24 6 24 9 0 12 -6 9 -15z m-4930 -19 c-3 -7
-17 -18 -30 -25 l-26 -11 24 28 c23 29 42 34 32 8z m2820 9 c3 -8 1 -15 -4
-15 -6 0 -10 7 -10 15 0 8 2 15 4 15 2 0 6 -7 10 -15z m1986 11 c0 -11 -19
-15 -25 -6 -3 5 1 10 9 10 9 0 16 -2 16 -4z m540 0 c0 -2 -8 -10 -17 -17 -16
-13 -17 -12 -4 4 13 16 21 21 21 13z m-2960 -16 c0 -5 -7 -10 -16 -10 -8 0
-12 5 -9 10 3 6 10 10 16 10 5 0 9 -4 9 -10z m-1245 -29 c-3 -12 -11 -18 -17
-15 -6 4 -5 10 3 15 8 5 10 9 6 9 -5 0 -5 5 -2 11 11 16 18 3 10 -20z m235 25
c0 -3 -4 -8 -10 -11 -5 -3 -10 -1 -10 4 0 6 5 11 10 11 6 0 10 -2 10 -4z
m3040 -11 c0 -8 -7 -15 -16 -15 -14 0 -14 3 -4 15 7 8 14 15 16 15 2 0 4 -7 4
-15z m-883 -32 c-8 -7 -37 9 -31 19 3 5 12 4 20 -3 8 -6 13 -14 11 -16z
m-4147 -5 c0 22 23 8 25 -16 1 -16 -4 -21 -19 -19 -12 1 -24 9 -27 17 -9 20 1
36 12 19 7 -12 9 -12 9 -1z m1805 -7 c3 -5 1 -12 -5 -16 -5 -3 -10 1 -10 9 0
18 6 21 15 7z m3425 -1 c0 -5 -2 -10 -4 -10 -3 0 -8 5 -11 10 -3 6 -1 10 4 10
6 0 11 -4 11 -10z m555 0 c3 -5 1 -10 -4 -10 -6 0 -11 5 -11 10 0 6 2 10 4 10
3 0 8 -4 11 -10z m-5354 -24 c-6 -7 -8 -16 -4 -19 3 -4 -1 -7 -9 -7 -9 0 -18
9 -21 19 -3 14 -1 18 9 14 8 -3 14 0 14 7 0 6 5 8 10 5 8 -5 8 -11 1 -19z
m2469 20 c0 -11 -19 -15 -25 -6 -3 5 1 10 9 10 9 0 16 -2 16 -4z m-2520 -24
c0 -4 -9 -8 -21 -9 -17 -2 -18 1 -9 12 12 14 30 12 30 -3z m3750 14 c0 -3 -4
-8 -10 -11 -5 -3 -10 -1 -10 4 0 6 5 11 10 11 6 0 10 -2 10 -4z m830 -12 c0
-8 -5 -12 -10 -9 -6 4 -8 11 -5 16 9 14 15 11 15 -7z m467 -12 c-10 -2 -15 -8
-12 -13 4 -5 2 -9 -3 -9 -10 0 -22 23 -22 41 0 5 12 3 27 -4 20 -9 23 -13 10
-15z m403 24 c0 -3 -4 -8 -10 -11 -5 -3 -10 -1 -10 4 0 6 5 11 10 11 6 0 10
-2 10 -4z m-1310 -34 c3 -3 -4 -2 -14 2 -16 5 -17 4 -6 -9 15 -19 0 -20 -25
-2 -26 20 -11 41 18 26 12 -7 24 -14 27 -17z m710 18 c0 -5 -4 -10 -10 -10 -5
0 -10 5 -10 10 0 6 5 10 10 10 6 0 10 -4 10 -10z m-4495 -10 c3 -6 -1 -7 -9
-4 -18 7 -21 14 -7 14 6 0 13 -4 16 -10z m2675 0 c0 -5 -4 -10 -10 -10 -5 0
-10 5 -10 10 0 6 5 10 10 10 6 0 10 -4 10 -10z m1582 -42 c-8 -10 -19 -15 -25
-11 -6 3 0 11 14 16 13 5 19 11 12 14 -7 2 -9 12 -6 20 6 14 7 14 14 -3 4 -12
1 -26 -9 -36z m-4151 24 c-7 -2 -18 1 -23 6 -8 8 -4 9 13 5 13 -4 18 -8 10
-11z m3337 -7 c-3 -3 -9 2 -12 12 -6 14 -5 15 5 6 7 -7 10 -15 7 -18z m982 5
c6 9 10 11 10 3 0 -7 -9 -17 -21 -23 -16 -9 -18 -14 -8 -26 15 -18 2 -18 -16
0 -12 12 -12 15 0 20 9 3 12 12 9 23 -5 15 -4 16 5 3 10 -13 12 -13 21 0z
m-1485 -10 c3 -5 -1 -10 -9 -10 -8 0 -18 5 -21 10 -3 6 1 10 9 10 8 0 18 -4
21 -10z m-2955 -10 c0 -5 -5 -10 -11 -10 -5 0 -7 5 -4 10 3 6 8 10 11 10 2 0
4 -4 4 -10z m2165 0 c3 -5 2 -10 -4 -10 -5 0 -13 5 -16 10 -3 6 -2 10 4 10 5
0 13 -4 16 -10z m1430 1 c3 -5 1 -12 -5 -16 -5 -3 -10 1 -10 9 0 18 6 21 15 7z
m526 -33 c-9 -4 -25 -7 -35 -7 -17 -1 -17 1 3 19 18 15 26 16 36 7 11 -10 10
-13 -4 -19z m-2671 18 c0 -3 -4 -8 -10 -11 -5 -3 -10 -1 -10 4 0 6 5 11 10 11
6 0 10 -2 10 -4z m427 -28 c-21 -14 -28 -9 -15 12 9 13 14 16 20 7 4 -6 2 -15
-5 -19z m160 26 c-3 -3 3 -21 14 -40 l19 -34 -25 0 c-18 0 -26 7 -31 25 -3 14
-14 30 -23 36 -13 8 -12 9 6 4 12 -3 24 -1 28 5 3 5 9 10 12 10 4 0 4 -3 0 -6z
m1069 -9 c13 -13 13 -15 1 -15 -8 0 -20 7 -27 15 -9 11 -10 15 -1 15 7 0 19
-7 27 -15z m1959 6 c3 -5 1 -12 -5 -16 -5 -3 -10 1 -10 9 0 18 6 21 15 7z
m-1335 -23 c0 -6 -6 -5 -15 2 -8 7 -15 14 -15 16 0 2 7 1 15 -2 8 -4 15 -11
15 -16z m-4620 2 c0 -5 -2 -10 -4 -10 -3 0 -8 5 -11 10 -3 6 -1 10 4 10 6 0
11 -4 11 -10z m2980 0 c0 -5 -2 -10 -4 -10 -3 0 -8 5 -11 10 -3 6 -1 10 4 10
6 0 11 -4 11 -10z m90 -10 c0 -10 -39 -24 -47 -17 -3 3 1 12 8 20 14 14 39 12
39 -3z m343 -1 c17 -15 18 -19 5 -14 -12 5 -18 2 -18 -6 0 -8 -6 -5 -15 7 -29
38 -9 48 28 13z m1987 17 c0 -3 -4 -8 -10 -11 -5 -3 -10 -1 -10 4 0 6 5 11 10
11 6 0 10 -2 10 -4z m-3310 -10 c0 -3 -4 -8 -10 -11 -5 -3 -10 -1 -10 4 0 6 5
11 10 11 6 0 10 -2 10 -4z m2904 -22 c5 -14 4 -15 -9 -4 -17 14 -19 20 -6 20
5 0 12 -7 15 -16z m-1744 -4 c0 -5 -4 -10 -10 -10 -5 0 -10 5 -10 10 0 6 5 10
10 10 6 0 10 -4 10 -10z m224 -6 c5 -12 2 -15 -10 -10 -8 3 -18 6 -20 6 -3 0
-2 5 1 10 9 15 22 12 29 -6z m1492 2 c8 -9 10 -17 5 -21 -6 -3 -15 4 -21 15
-12 23 -5 26 16 6z m8 -45 c3 -5 -1 -11 -9 -15 -9 -3 -12 -12 -8 -22 4 -11 -2
-9 -18 7 -15 15 -21 27 -14 32 7 6 6 10 -2 14 -7 2 -13 9 -13 14 0 10 55 -15
64 -30z m83 33 c-3 -3 -12 -4 -19 -1 -8 3 -5 6 6 6 11 1 17 -2 13 -5z m-3494
-59 c-25 -12 -57 -43 -66 -65 -3 -10 -6 -7 -6 8 -1 16 -5 21 -13 16 -10 -5
-10 -3 0 7 7 8 17 15 23 15 5 1 14 2 20 3 5 0 7 6 4 12 -4 5 6 21 22 35 l28
24 6 -22 c4 -18 0 -26 -18 -33z m3467 41 c0 -3 -4 -8 -10 -11 -5 -3 -10 -1
-10 4 0 6 5 11 10 11 6 0 10 -2 10 -4z m-5173 -12 c-3 -3 -12 -4 -19 -1 -8 3
-5 6 6 6 11 1 17 -2 13 -5z m1197 0 c24 -9 19 -19 -9 -19 -14 0 -25 6 -25 13
0 13 10 15 34 6z m296 -29 c0 -5 -5 -3 -10 5 -5 8 -10 20 -10 25 0 6 5 3 10
-5 5 -8 10 -19 10 -25z m1298 5 c-7 -10 -14 -18 -15 -16 -6 6 9 36 18 36 5 0
4 -9 -3 -20z m244 -12 c-6 -6 -14 -9 -17 -6 -3 3 -3 13 1 22 5 12 10 14 17 7
8 -8 8 -14 -1 -23z m-1897 2 c-3 -5 -11 -10 -16 -10 -6 0 -7 5 -4 10 3 6 11
10 16 10 6 0 7 -4 4 -10z m735 0 c0 -5 -2 -10 -4 -10 -3 0 -8 5 -11 10 -3 6
-1 10 4 10 6 0 11 -4 11 -10z m1375 -8 c-3 -3 -11 0 -18 7 -9 10 -8 11 6 5 10
-3 15 -9 12 -12z m-2260 -2 c-3 -5 -11 -10 -16 -10 -6 0 -7 5 -4 10 3 6 11 10
16 10 6 0 7 -4 4 -10z m1981 0 c9 0 13 -4 10 -9 -8 -12 -55 -20 -62 -10 -9 14
7 31 23 25 8 -3 21 -6 29 -6z m-71 -10 c3 -5 -3 -10 -15 -10 -12 0 -18 5 -15
10 3 6 10 10 15 10 5 0 12 -4 15 -10z m-1285 -40 c0 -5 -5 -10 -11 -10 -5 0
-7 5 -4 10 3 6 8 10 11 10 2 0 4 -4 4 -10z m3400 -10 c0 -6 11 -8 25 -4 27 7
36 -12 10 -22 -8 -4 -12 -10 -9 -15 3 -5 -2 -9 -10 -9 -9 0 -16 5 -16 11 0 5
-4 7 -10 4 -18 -11 -31 5 -20 26 11 20 30 26 30 9z m85 0 c3 -5 1 -10 -4 -10
-6 0 -11 5 -11 10 0 6 2 10 4 10 3 0 8 -4 11 -10z m-2430 -10 c3 -5 -1 -10 -9
-10 -9 0 -16 5 -16 10 0 6 4 10 9 10 6 0 13 -4 16 -10z m3265 -15 c0 -8 -4
-15 -9 -15 -5 0 -11 7 -15 15 -3 9 0 15 9 15 8 0 15 -7 15 -15z m-5410 -2 c-8
-3 -18 -11 -22 -17 -5 -7 -8 -4 -8 7 0 11 7 17 23 16 15 0 17 -2 7 -6z m1065
-64 c-3 -4 -13 -6 -23 -4 -9 2 -20 4 -24 4 -5 1 -8 5 -8 11 0 5 8 7 18 3 14
-5 15 -4 4 8 -10 11 -16 11 -32 1 -24 -15 -27 -4 -3 13 14 10 22 9 45 -8 15
-11 25 -24 23 -28z m-110 31 c3 -5 -1 -10 -10 -10 -9 0 -13 5 -10 10 3 6 8 10
10 10 2 0 7 -4 10 -10z m2775 0 c0 -5 -2 -10 -4 -10 -3 0 -8 5 -11 10 -3 6 -1
10 4 10 6 0 11 -4 11 -10z m913 3 c-7 -2 -19 -2 -25 0 -7 3 -2 5 12 5 14 0 19
-2 13 -5z m-4638 -13 c3 -5 -1 -10 -10 -10 -9 0 -13 5 -10 10 3 6 8 10 10 10
2 0 7 -4 10 -10z m2102 -18 c-10 -2 -17 -11 -17 -19 0 -9 -3 -14 -6 -10 -4 3
-3 18 0 32 6 23 9 25 23 13 15 -12 15 -13 0 -16z m748 19 c10 -17 -12 -21 -25
-6 -10 12 -10 15 3 15 9 0 18 -4 22 -9z m1627 -11 c10 0 18 -4 18 -8 0 -5 -14
-6 -31 -4 -20 3 -34 0 -40 -9 -4 -7 -11 -10 -15 -6 -11 11 29 46 41 36 5 -5
17 -9 27 -9z m-4377 0 c-3 -5 -11 -10 -16 -10 -6 0 -7 5 -4 10 3 6 11 10 16
10 6 0 7 -4 4 -10z m5182 2 c8 -5 9 -13 3 -22 -8 -13 -10 -13 -10 2 0 9 -6 19
-12 21 -7 3 -8 6 -3 6 6 0 15 -3 22 -7z m-2472 -12 c3 -5 1 -10 -4 -10 -6 0
-11 5 -11 10 0 6 2 10 4 10 3 0 8 -4 11 -10z m-2445 -62 c0 -13 0 -14 -29 32
l-23 35 26 -28 c14 -15 26 -33 26 -39z m1083 47 c-3 -9 -8 -14 -10 -11 -3 3
-2 9 2 15 9 16 15 13 8 -4z m-1316 -1 c-3 -3 -12 -4 -19 -1 -8 3 -5 6 6 6 11
1 17 -2 13 -5z m5023 -17 c8 -4 0 -5 -18 -4 -20 1 -36 -4 -42 -13 -6 -9 -10
-10 -10 -3 0 20 31 45 44 35 6 -5 18 -12 26 -15z m-4865 3 c-3 -5 -10 -10 -16
-10 -5 0 -9 5 -9 10 0 6 7 10 16 10 8 0 12 -4 9 -10z m405 -25 c0 -12 -19 -12
-23 0 -4 9 -1 12 9 8 7 -3 14 -7 14 -8z m1059 12 c-2 -1 -12 -9 -22 -16 -15
-12 -17 -12 -11 3 3 9 13 16 22 16 8 0 13 -1 11 -3z m50 -18 c-7 -4 -17 -5
-22 -2 -5 3 -3 9 4 14 7 4 17 5 22 2 5 -3 3 -9 -4 -14z m3406 11 c3 -5 1 -10
-4 -10 -6 0 -11 5 -11 10 0 6 2 10 4 10 3 0 8 -4 11 -10z m-4317 -21 c-10 -5
-18 -13 -18 -17 0 -11 54 -11 67 -1 12 10 63 2 63 -10 0 -4 -8 -7 -17 -8 -10
-1 -43 -3 -74 -6 l-57 -4 10 29 c6 16 17 28 26 28 15 -1 15 -2 0 -11z m1797 2
c3 -5 1 -12 -5 -16 -5 -3 -10 1 -10 9 0 18 6 21 15 7z m2585 -13 c0 -6 -6 -5
-15 2 -8 7 -15 14 -15 16 0 2 7 1 15 -2 8 -4 15 -11 15 -16z m-3982 -18 c1
-32 -12 -40 -22 -14 -4 11 8 39 20 44 1 0 1 -13 2 -30z m3862 -30 c-18 -11
-24 -6 -16 16 5 14 9 15 19 5 9 -9 9 -14 -3 -21z m-143 4 c-3 -3 -12 -4 -19
-1 -8 3 -5 6 6 6 11 1 17 -2 13 -5z m93 -15 c0 -5 -4 -9 -10 -9 -5 0 -10 7
-10 16 0 8 5 12 10 9 6 -3 10 -10 10 -16z m-3193 -4 c-4 -8 -2 -17 3 -20 5 -3
7 -12 3 -21 -3 -8 -8 -12 -11 -10 -3 3 -11 1 -19 -5 -17 -15 -17 -7 4 36 16
34 31 49 20 20z m2486 -6 c12 -13 24 -18 35 -14 9 3 13 2 8 -2 -4 -4 -17 -8
-29 -9 -12 -1 -31 -5 -41 -9 -13 -6 -17 -5 -12 3 3 6 2 13 -4 17 -5 3 -10 13
-10 21 0 21 33 17 53 -7z m882 11 c-3 -5 -10 -10 -16 -10 -5 0 -9 5 -9 10 0 6
7 10 16 10 8 0 12 -4 9 -10z m-5391 -25 c-4 -8 -11 -15 -16 -15 -6 0 -5 6 2
15 7 8 14 15 16 15 2 0 1 -7 -2 -15z m1086 -16 c0 -3 -9 -9 -20 -12 -19 -5
-27 3 -15 15 8 7 35 6 35 -3z m650 -4 c0 -8 -4 -15 -9 -15 -13 0 -22 16 -14
24 11 11 23 6 23 -9z m-2020 -20 c0 -8 -4 -15 -10 -15 -5 0 -10 7 -10 15 0 8
5 15 10 15 6 0 10 -7 10 -15z m1580 5 c0 -5 5 -9 11 -7 6 1 13 -6 14 -15 3
-17 2 -17 -21 0 -25 18 -31 32 -14 32 6 0 10 -4 10 -10z m4063 -5 c-3 -9 -8
-14 -10 -11 -3 3 -2 9 2 15 9 16 15 13 8 -4z m-4973 -30 c0 -8 -7 -15 -15 -15
-26 0 -18 20 13 29 1 1 2 -6 2 -14z m2030 -4 c0 -5 -9 -11 -20 -14 -22 -6 -28
8 -7 16 19 8 27 8 27 -2z m-2975 -11 c19 -8 19 -9 -2 -9 -12 -1 -25 -6 -28
-11 -7 -12 -25 -4 -25 11 0 6 5 7 10 4 6 -3 10 -1 10 4 0 13 7 13 35 1z m1854
-19 c-3 -6 -10 -7 -18 -2 -7 5 -10 14 -6 21 9 14 29 -2 24 -19z m-1151 10 c11
-7 11 -9 -2 -14 -9 -4 -23 -4 -32 0 -13 5 -13 7 -2 14 7 5 15 9 18 9 3 0 11
-4 18 -9z m570 -16 c-3 -3 -9 2 -12 12 -6 14 -5 15 5 6 7 -7 10 -15 7 -18z
m107 15 c-3 -5 -11 -10 -16 -10 -6 0 -7 5 -4 10 3 6 11 10 16 10 6 0 7 -4 4
-10z m-1095 -11 c0 -13 -39 -17 -49 -5 -8 10 -3 13 19 13 17 0 30 -4 30 -8z
m5180 -31 c0 -6 -6 -5 -15 2 -8 7 -15 14 -15 16 0 2 7 1 15 -2 8 -4 15 -11 15
-16z m-4009 -21 c-10 -9 -11 -8 -5 6 3 10 9 15 12 12 3 -3 0 -11 -7 -18z
m4304 9 c10 -10 11 -16 2 -25 -6 -6 -8 -11 -3 -11 4 0 1 -7 -8 -15 -8 -8 -19
-15 -24 -15 -11 0 -10 25 1 36 4 4 7 16 7 26 0 22 7 23 25 4z m-2968 -28 c-3
-8 -6 -5 -6 6 -1 11 2 17 5 13 3 -3 4 -12 1 -19z m-2251 1 c3 -6 1 -16 -5 -22
-9 -9 -14 -8 -21 3 -9 15 -4 30 10 30 5 0 12 -5 16 -11z m794 1 c13 -9 13 -10
0 -10 -8 0 -22 5 -30 10 -13 9 -13 10 0 10 8 0 22 -5 30 -10z m4260 -45 c-7
-9 -15 -13 -19 -10 -3 3 1 10 9 15 21 14 24 12 10 -5z m-2837 -9 c4 -10 1 -13
-9 -9 -15 6 -19 23 -5 23 5 0 11 -7 14 -14z m-2248 -16 c3 -5 2 -10 -4 -10 -5
0 -13 5 -16 10 -3 6 -2 10 4 10 5 0 13 -4 16 -10z m2202 -4 c-2 -6 -14 -10
-26 -9 -11 2 -21 -2 -21 -7 0 -6 -4 -10 -10 -10 -19 0 -10 21 12 29 30 11 49
10 45 -3z m25 -37 c-22 -22 -25 -17 -11 15 9 19 15 23 20 14 5 -7 1 -19 -9
-29z m-122 21 c0 -5 -2 -10 -4 -10 -3 0 -8 5 -11 10 -3 6 -1 10 4 10 6 0 11
-4 11 -10z m2630 6 c0 -2 -9 -6 -20 -9 -11 -3 -20 -1 -20 4 0 5 9 9 20 9 11 0
20 -2 20 -4z m-4190 -10 c0 -11 -19 -15 -25 -6 -3 5 1 10 9 10 9 0 16 -2 16
-4z m1275 -12 c13 -5 14 -8 3 -15 -19 -13 -28 -11 -28 6 0 17 2 18 25 9z
m-1325 -38 c0 -5 -7 -3 -15 4 -8 7 -12 17 -9 22 7 10 24 -9 24 -26z m1330 -11
c0 -3 -10 -15 -22 -27 -17 -17 -20 -18 -15 -4 4 10 7 22 7 27 0 5 7 9 15 9 8
0 15 -2 15 -5z m-1715 -15 c3 -6 -1 -7 -9 -4 -9 3 -16 1 -16 -5 0 -6 -4 -11
-10 -11 -5 0 -10 7 -10 15 0 17 35 21 45 5z m1135 6 c0 -11 -19 -15 -25 -6 -3
5 1 10 9 10 9 0 16 -2 16 -4z m-268 -38 c-6 -6 -15 -8 -19 -4 -4 4 -1 11 7 16
19 12 27 3 12 -12z m-1292 -20 c0 -5 10 -6 21 -3 15 5 20 3 17 -6 -8 -23 -32
-20 -51 6 -14 20 -15 24 -2 19 8 -3 15 -10 15 -16z m5930 12 c0 -5 -7 -10 -16
-10 -8 0 -12 5 -9 10 3 6 10 10 16 10 5 0 9 -4 9 -10z m-4689 -27 c13 -16 12
-17 -3 -4 -10 7 -18 15 -18 17 0 8 8 3 21 -13z m-597 -44 c-11 -18 -21 1 -16
28 5 27 5 27 14 4 4 -13 5 -27 2 -32z m641 41 c-3 -5 -12 -10 -18 -10 -7 0 -6
4 3 10 19 12 23 12 15 0z m645 6 c0 -3 -4 -8 -10 -11 -5 -3 -10 -1 -10 4 0 6
5 11 10 11 6 0 10 -2 10 -4z m-1865 -16 c-3 -5 -10 -10 -16 -10 -5 0 -9 5 -9
10 0 6 7 10 16 10 8 0 12 -4 9 -10z m1972 -7 c-14 -4 -18 -12 -15 -34 3 -18
-1 -30 -10 -34 -10 -4 -12 0 -8 12 6 16 6 16 -12 0 -10 -9 -25 -17 -33 -17
-10 1 -9 3 4 11 9 5 17 15 17 20 0 15 42 48 60 48 10 -1 8 -3 -3 -6z m2693
-23 c0 -5 -2 -10 -4 -10 -2 0 -12 -3 -20 -6 -12 -5 -15 -2 -10 10 7 17 34 22
34 6z m507 -27 c0 -10 -5 -21 -11 -25 -22 -15 -26 -8 -10 17 19 30 21 30 21 8z
m-3307 3 c0 -3 -4 -8 -10 -11 -5 -3 -10 -1 -10 4 0 6 5 11 10 11 6 0 10 -2 10
-4z m-962 -15 c10 -6 9 -11 -4 -22 -10 -8 -15 -9 -11 -2 4 7 0 16 -10 22 -14
8 -15 10 -3 11 8 0 21 -4 28 -9z m832 -16 c-7 -8 -16 -15 -21 -15 -5 0 -9 7
-9 15 0 9 9 15 21 15 18 0 19 -2 9 -15z m-2110 -11 c0 -8 -4 -12 -10 -9 -5 3
-10 10 -10 16 0 5 5 9 10 9 6 0 10 -7 10 -16z m5040 -14 c0 -5 -4 -10 -10 -10
-5 0 -10 5 -10 10 0 6 5 10 10 10 6 0 10 -4 10 -10z m30 -11 c0 -11 -4 -18
-10 -14 -5 3 -7 12 -3 20 7 21 13 19 13 -6z m-4673 -41 c-3 -7 -5 -2 -5 12 0
14 2 19 5 13 2 -7 2 -19 0 -25z m173 -9 c0 -5 -4 -9 -10 -9 -5 0 -10 7 -10 16
0 8 5 12 10 9 6 -3 10 -10 10 -16z m4630 -14 c0 -9 6 -12 18 -9 14 5 14 4 2
-4 -10 -8 -18 -8 -27 0 -15 12 -17 28 -3 28 6 0 10 -7 10 -15z m200 5 c0 -5
-2 -10 -4 -10 -3 0 -8 5 -11 10 -3 6 -1 10 4 10 6 0 11 -4 11 -10z m-4760 -10
c0 -5 -4 -10 -10 -10 -5 0 -10 5 -10 10 0 6 5 10 10 10 6 0 10 -4 10 -10z
m1510 -25 c0 -10 5 -13 12 -9 7 5 8 3 3 -6 -5 -8 -22 -11 -51 -7 -32 3 -44 1
-44 -9 0 -7 -7 -20 -16 -29 -15 -14 -17 -14 -28 0 -9 12 -18 13 -46 5 -43 -12
-72 8 -54 38 14 22 39 22 38 0 -1 -10 1 -18 5 -19 50 -9 71 -5 71 12 0 23 21
35 70 37 31 2 40 -1 40 -13z m3410 -2 c0 -7 5 -13 10 -13 6 0 10 -4 10 -10 0
-5 -3 -9 -7 -8 -5 1 -23 -6 -40 -15 -29 -16 -33 -16 -33 -2 0 9 7 15 17 13 27
-5 28 31 1 41 -21 9 -20 9 9 8 19 -1 33 -7 33 -14z m-5097 -19 c-4 -10 1 -20
11 -26 15 -8 12 -15 -24 -51 -33 -32 -43 -38 -50 -27 -5 9 -5 17 1 21 13 8 8
31 -11 47 -8 7 -10 11 -3 10 6 -2 19 6 27 17 13 16 15 17 10 3 -3 -10 -2 -18
4 -18 5 0 12 9 15 20 3 11 10 20 16 20 6 0 8 -7 4 -16z m367 -64 c-8 -5 -17
-7 -19 -4 -3 3 1 9 9 14 8 5 17 7 19 4 3 -3 -1 -9 -9 -14z m4744 5 c-4 -8 -11
-12 -16 -9 -6 4 -5 10 3 15 19 12 19 11 13 -6z m-3760 -27 c-11 -18 19 -28 37
-12 18 16 36 3 24 -17 -4 -5 3 -19 16 -30 12 -10 18 -19 12 -19 -5 0 -20 9
-33 20 -30 26 -46 25 -53 -1 -3 -12 -10 -18 -16 -14 -6 3 -9 10 -7 14 3 3 -11
6 -30 6 -27 -1 -31 1 -23 12 6 7 8 20 5 29 -5 14 -4 15 8 5 17 -14 46 -4 46
16 0 8 5 11 10 8 6 -4 7 -11 4 -17z m251 5 c0 -10 -5 -19 -10 -20 -9 -3 -10 2
-6 27 2 18 18 11 16 -7z m-2075 -14 c-7 -11 -14 -19 -16 -16 -7 7 7 37 17 37
6 0 5 -9 -1 -21z m5400 1 c-24 -15 -37 -11 -16 5 11 8 22 12 25 9 3 -3 -1 -9
-9 -14z m-5010 0 c0 -5 -5 -10 -11 -10 -5 0 -7 5 -4 10 3 6 8 10 11 10 2 0 4
-4 4 -10z m647 4 c-3 -3 -12 -4 -19 -1 -8 3 -5 6 6 6 11 1 17 -2 13 -5z m973
-14 c0 -5 -4 -10 -10 -10 -5 0 -10 5 -10 10 0 6 5 10 10 10 6 0 10 -4 10 -10z
m-998 -22 c-7 -7 -12 -8 -12 -2 0 14 12 26 19 19 2 -3 -1 -11 -7 -17z m-246
-20 l19 -23 -25 20 c-14 11 -27 21 -29 22 -2 2 0 3 6 3 5 0 18 -10 29 -22z
m4294 -17 c0 -11 -4 -23 -10 -26 -6 -3 -7 1 -4 10 5 12 2 14 -12 8 -17 -6 -17
-5 -5 10 18 23 31 21 31 -2z m130 4 c0 -8 -2 -15 -4 -15 -2 0 -6 7 -10 15 -3
8 -1 15 4 15 6 0 10 -7 10 -15z m-4790 -27 c0 -17 -3 -19 -9 -9 -5 7 -15 17
-22 22 -10 6 -8 9 9 9 16 0 22 -6 22 -22z m536 -37 c-8 -12 -36 -3 -36 11 0 6
8 4 17 -3 15 -12 16 -12 9 6 -5 15 -4 17 5 8 6 -6 8 -16 5 -22z m964 8 c0 -11
-4 -17 -10 -14 -5 3 -10 13 -10 21 0 8 5 14 10 14 6 0 10 -9 10 -21z m-37 1
c6 0 3 -6 -8 -13 -11 -9 -15 -19 -10 -28 4 -8 -2 -4 -15 7 -23 23 -19 50 7 40
8 -3 20 -6 26 -6z m-1173 -4 c0 -3 -4 -8 -10 -11 -5 -3 -10 -1 -10 4 0 6 5 11
10 11 6 0 10 -2 10 -4z m686 -43 c-10 -10 -19 5 -10 18 6 11 8 11 12 0 2 -7 1
-15 -2 -18z m-103 -7 c7 4 1 -3 -11 -16 -13 -12 -22 -30 -20 -39 6 -22 -28
-55 -36 -36 -3 8 -1 17 4 20 6 4 6 14 -1 26 -9 17 -7 20 8 17 11 -2 18 3 18
12 0 8 5 22 10 30 8 13 10 13 13 -3 2 -10 9 -14 15 -11z m4157 4 c0 -13 -6
-20 -17 -19 -11 0 -13 3 -5 6 6 2 12 11 12 19 0 8 2 14 5 14 3 0 5 -9 5 -20z
m-4884 -17 c-10 -10 -19 5 -10 18 6 11 8 11 12 0 2 -7 1 -15 -2 -18z m118 18
c3 -4 3 -11 0 -14 -8 -7 -44 4 -44 14 0 12 37 12 44 0z m1371 -11 c3 -5 1 -10
-4 -10 -6 0 -11 5 -11 10 0 6 2 10 4 10 3 0 8 -4 11 -10z m-715 -15 c0 -8 -6
-12 -14 -9 -8 3 -17 1 -21 -5 -3 -6 -12 -11 -18 -11 -13 0 32 39 46 40 4 0 7
-7 7 -15z m-130 -5 c0 -5 -7 -10 -16 -10 -8 0 -12 5 -9 10 3 6 10 10 16 10 5
0 9 -4 9 -10z m4216 -24 c1 -9 -1 -16 -6 -16 -4 0 -6 -11 -5 -25 3 -27 -4 -32
-23 -13 -8 8 -12 9 -12 1 0 -6 6 -13 13 -16 9 -4 9 -7 0 -18 -11 -11 -16 -9
-29 7 -13 16 -15 16 -10 2 3 -10 1 -20 -5 -24 -15 -9 -79 5 -79 17 0 6 8 5 21
-2 19 -10 20 -9 14 13 -4 12 -10 29 -12 36 -6 15 13 16 22 2 4 -7 13 -4 23 8
10 10 25 18 35 16 12 -2 17 5 17 22 0 20 3 23 17 16 9 -6 18 -17 19 -26z
m-5426 14 c0 -5 -4 -10 -10 -10 -5 0 -10 5 -10 10 0 6 5 10 10 10 6 0 10 -4
10 -10z m531 -20 c-4 -3 -10 -13 -14 -22 -10 -27 -23 -21 -21 10 2 42 3 43 24
30 10 -7 16 -15 11 -18z m1026 -6 c3 -9 -57 -38 -64 -31 -1 2 7 13 18 26 20
22 40 24 46 5z m301 -21 c-14 -13 -16 -13 -22 2 -3 9 -2 14 4 10 6 -3 13 2 17
11 5 13 8 14 11 5 2 -7 -2 -20 -10 -28z m-502 7 c0 -11 -4 -20 -9 -20 -4 0 -5
-4 -2 -10 3 -5 2 -10 -4 -10 -5 0 -15 8 -21 18 -8 12 -13 13 -16 5 -3 -7 -10
-13 -16 -13 -6 0 -6 6 2 15 7 8 19 15 26 15 8 0 14 5 14 10 0 6 6 10 13 10 7
0 13 -9 13 -20z m-436 -11 c0 -5 -12 -9 -27 -9 -26 0 -26 1 -8 14 20 14 35 12
35 -5z m110 2 c0 -3 -9 -12 -20 -19 -17 -10 -20 -10 -20 6 0 10 3 21 6 25 7 7
34 -2 34 -12z m420 -6 c0 -8 -2 -15 -4 -15 -2 0 -6 7 -10 15 -3 8 -1 15 4 15
6 0 10 -7 10 -15z m-477 -2 c-7 -2 -19 -2 -25 0 -7 3 -2 5 12 5 14 0 19 -2 13
-5z m112 -3 c3 -5 -3 -10 -14 -10 -11 0 -23 5 -26 10 -3 6 3 10 14 10 11 0 23
-4 26 -10z m102 -12 c-3 -8 -6 -5 -6 6 -1 11 2 17 5 13 3 -3 4 -12 1 -19z
m608 -8 c3 -6 -1 -7 -9 -4 -18 7 -21 14 -7 14 6 0 13 -4 16 -10z m-1371 -51
c-7 -8 -14 -22 -14 -30 0 -8 -15 -24 -33 -35 l-33 -21 6 46 c4 38 9 47 27 49
12 2 27 10 34 18 10 12 14 12 20 2 5 -7 2 -19 -7 -29z m43 35 c-3 -3 -12 -4
-19 -1 -8 3 -5 6 6 6 11 1 17 -2 13 -5z m726 -57 c-3 -5 -8 -5 -12 1 -10 16
-42 -13 -35 -32 8 -21 -16 -30 -47 -16 -24 10 -24 10 4 7 15 -3 27 0 27 4 0 5
-4 9 -9 9 -5 0 -16 3 -25 6 -11 4 -19 -2 -26 -21 -10 -26 -38 -30 -32 -5 2 7
-2 16 -9 20 -7 5 0 14 20 26 17 10 31 22 31 25 0 4 21 6 46 4 40 -4 45 -2 40
13 -4 10 2 6 13 -8 11 -13 17 -28 14 -33z m-733 19 c0 -8 -7 -16 -15 -20 -15
-5 -21 14 -8 27 11 12 23 8 23 -7z m988 -7 c-10 -5 -15 -17 -12 -27 5 -14 4
-14 -5 -2 -11 16 -13 15 -29 -15 -11 -19 -11 -19 -12 4 0 27 25 50 55 50 18 0
18 -1 3 -10z m3226 -4 c-4 -8 -8 -15 -10 -15 -2 0 -4 7 -4 15 0 8 4 15 10 15
5 0 7 -7 4 -15z m-2950 -10 c-4 -8 -1 -15 6 -15 6 0 8 -5 5 -10 -4 -6 -12 -4
-22 6 -14 13 -14 17 -2 25 19 12 19 11 13 -6z m3546 -17 c0 -16 -3 -19 -11
-11 -6 6 -8 16 -5 22 11 17 16 13 16 -11z m78 5 c-2 -10 -8 -18 -13 -18 -6 -1
-21 -7 -33 -14 -13 -7 -26 -10 -30 -7 -3 3 0 6 7 6 7 0 11 6 8 13 -2 6 8 17
22 24 37 16 43 15 39 -4z m-4173 -3 c3 -5 1 -10 -4 -10 -6 0 -11 5 -11 10 0 6
2 10 4 10 3 0 8 -4 11 -10z m4062 -16 c7 -20 -14 -43 -37 -39 -13 3 -17 -1
-13 -11 3 -8 11 -14 19 -14 20 0 17 -24 -6 -45 -11 -10 -20 -13 -20 -7 0 7 -8
12 -17 12 -13 0 -14 3 -5 12 7 7 12 21 12 31 0 16 -3 17 -14 8 -9 -7 -17 -8
-20 -3 -3 6 1 13 10 16 10 4 14 12 10 22 -5 13 -3 14 6 7 16 -12 48 -13 48 -1
0 4 -7 8 -16 8 -23 0 -9 15 16 17 11 1 24 -5 27 -13z m-3390 -1 c-9 -2 -15 -9
-12 -14 4 -5 1 -9 -4 -9 -6 0 -11 7 -11 15 0 9 9 15 23 14 17 -1 18 -2 4 -6z
m3827 -42 c3 -4 -6 -6 -19 -3 -14 2 -25 6 -25 8 0 8 39 4 44 -5z m-5619 -21
c3 -5 -3 -10 -14 -10 -11 0 -23 5 -26 10 -3 6 3 10 14 10 11 0 23 -4 26 -10z
m572 -16 c-7 -7 -37 7 -37 17 0 6 9 5 21 -1 11 -7 19 -14 16 -16z m1110 -6
c-3 -8 -6 -5 -6 6 -1 11 2 17 5 13 3 -3 4 -12 1 -19z m86 5 c-7 -3 -13 -14
-13 -24 0 -11 -4 -18 -9 -15 -5 4 -8 13 -7 22 3 17 27 36 36 27 3 -3 -1 -8 -7
-10z m-790 -18 c-3 -8 -9 -15 -14 -15 -10 0 -12 24 -3 33 11 11 24 -3 17 -18z
m347 0 c-7 -8 -17 -15 -23 -15 -6 0 -2 7 9 15 25 19 30 19 14 0z m325 5 c3 -5
1 -10 -4 -10 -6 0 -11 5 -11 10 0 6 2 10 4 10 3 0 8 -4 11 -10z m-135 -32 c0
-6 -6 -5 -15 2 -8 7 -15 14 -15 16 0 2 7 1 15 -2 8 -4 15 -11 15 -16z m543 -2
c-10 -13 -19 -23 -21 -21 -7 6 19 45 29 45 5 0 2 -11 -8 -24z m-812 -15 c-6
-11 -20 -25 -31 -31 -17 -9 -20 -8 -17 12 1 13 13 28 27 35 31 14 35 11 21
-16z m-784 -33 c-3 -8 -6 -5 -6 6 -1 11 2 17 5 13 3 -3 4 -12 1 -19z m808 12
c3 -5 1 -10 -4 -10 -6 0 -11 5 -11 10 0 6 2 10 4 10 3 0 8 -4 11 -10z m-839
-21 c3 -6 16 -9 28 -7 19 4 21 1 18 -24 -2 -15 -8 -28 -13 -28 -4 0 -6 9 -4
20 5 24 -10 26 -31 5 -18 -17 -34 -20 -34 -4 0 5 -4 7 -10 4 -15 -10 -12 3 7
25 20 23 29 25 39 9z m216 -19 c-12 -11 -23 -20 -26 -20 -2 0 -2 9 1 20 3 12
14 20 26 20 21 0 21 0 -1 -20z m46 -21 c-18 -12 -23 8 -6 28 12 15 13 15 16
-2 2 -10 -2 -21 -10 -26z m423 31 c6 0 7 -5 3 -12 -5 -8 -2 -9 9 -5 9 3 19 2
22 -2 7 -12 -22 -34 -34 -27 -5 3 -7 -3 -4 -14 4 -14 0 -20 -11 -20 -10 0 -13
6 -10 15 4 8 2 15 -3 15 -6 0 -10 14 -9 30 1 21 5 29 14 25 8 -3 18 -5 23 -5z
m465 -14 c-10 -15 -12 -27 -6 -31 6 -3 10 -11 10 -16 0 -6 -4 -8 -9 -5 -5 3
-12 -1 -15 -9 -5 -13 -10 -14 -27 -4 -19 10 -20 13 -6 20 17 10 17 37 -2 48
-7 5 0 8 19 9 18 0 35 3 38 6 14 14 13 4 -2 -18z m153 -7 c-16 -10 -23 -4 -14
10 3 6 11 8 17 5 6 -4 5 -9 -3 -15z m-954 1 c4 -6 11 -8 16 -5 5 4 9 1 9 -4 0
-6 -7 -11 -16 -11 -14 0 -14 -3 -4 -15 10 -12 10 -15 -4 -15 -9 0 -16 5 -16
10 0 6 -9 10 -20 10 -11 0 -20 -4 -20 -10 0 -5 5 -10 10 -10 6 0 10 -4 10 -9
0 -5 -12 -8 -26 -5 -22 4 -25 2 -20 -13 6 -15 5 -16 -6 -5 -16 16 9 61 44 79
28 15 35 16 43 3z m396 -17 c-8 -15 -10 -15 -11 -2 0 17 10 32 18 25 2 -3 -1
-13 -7 -23z m79 17 c0 -5 -4 -10 -10 -10 -5 0 -10 5 -10 10 0 6 5 10 10 10 6
0 10 -4 10 -10z m255 -10 c3 -6 -1 -7 -9 -4 -18 7 -21 14 -7 14 6 0 13 -4 16
-10z m105 -9 c0 -6 -4 -13 -10 -16 -5 -3 -10 1 -10 9 0 9 5 16 10 16 6 0 10
-4 10 -9z m120 -11 c0 -5 -4 -10 -10 -10 -5 0 -10 5 -10 10 0 6 5 10 10 10 6
0 10 -4 10 -10z m-1330 -16 c0 -8 -4 -12 -10 -9 -5 3 -10 10 -10 16 0 5 5 9
10 9 6 0 10 -7 10 -16z m1107 -20 c-3 -3 -12 -4 -19 -1 -8 3 -5 6 6 6 11 1 17
-2 13 -5z m-1632 -14 c3 -5 1 -10 -4 -10 -6 0 -11 5 -11 10 0 6 2 10 4 10 3 0
8 -4 11 -10z m1155 -21 c0 -6 6 -9 13 -6 7 3 19 -4 26 -15 10 -17 10 -19 -6
-16 -10 1 -23 -1 -30 -5 -16 -10 -65 2 -57 14 3 5 13 5 24 -1 16 -8 18 -8 14
5 -4 8 -10 15 -16 15 -5 0 -6 5 -3 10 8 14 35 13 35 -1z m90 -19 c0 -11 -4
-20 -9 -20 -14 0 -23 18 -16 30 10 17 25 11 25 -10z m81 -2 c16 -20 20 -21 29
-8 6 9 10 10 10 3 0 -17 -18 -26 -32 -16 -7 4 -24 6 -38 5 -18 -2 -21 0 -11 6
7 6 10 15 7 21 -13 21 16 11 35 -11z m304 2 c-3 -5 -15 -10 -26 -10 -13 0 -18
-4 -13 -12 4 -7 3 -8 -4 -4 -18 11 -2 36 25 36 13 0 21 -4 18 -10z m-845 -17
c-1 -18 -18 -35 -24 -24 -4 6 -4 16 -1 21 7 12 25 13 25 3z m1536 -30 c-7 -7
-26 7 -26 19 0 6 6 6 15 -2 9 -7 13 -15 11 -17z m2534 12 c0 -8 -6 -15 -14
-15 -8 0 -16 7 -20 15 -4 10 1 15 14 15 11 0 20 -7 20 -15z m-3330 2 c0 -2
-12 -17 -26 -33 l-26 -29 16 33 c9 17 21 32 26 32 6 0 10 -2 10 -3z m660 -1
c0 -9 -40 -13 -46 -5 -3 5 6 9 20 9 14 0 26 -2 26 -4z m-1010 -31 c0 -8 -8
-11 -20 -8 -20 5 -25 15 -14 26 9 9 34 -4 34 -18z m63 0 c-3 -8 -11 -15 -19
-15 -12 0 -12 4 -2 19 13 22 30 18 21 -4z m1007 15 c0 -5 -4 -10 -9 -10 -6 0
-13 5 -16 10 -3 6 1 10 9 10 9 0 16 -4 16 -10z m-1147 -26 c9 -9 -12 -46 -23
-39 -4 3 -6 14 -3 25 5 20 15 25 26 14z m4487 -4 c0 -5 -4 -10 -10 -10 -5 0
-10 5 -10 10 0 6 5 10 10 10 6 0 10 -4 10 -10z m-4526 -15 c-4 -8 -8 -15 -10
-15 -2 0 -4 7 -4 15 0 8 4 15 10 15 5 0 7 -7 4 -15z m1181 6 c3 -5 2 -12 -3
-15 -5 -3 -9 1 -9 9 0 17 3 19 12 6z m-25 -22 c0 -11 -27 -12 -34 -1 -2 4 4 9
15 9 10 1 19 -2 19 -8z m-615 -19 c-10 -11 -23 -20 -29 -20 -6 1 0 10 13 20
30 26 39 26 16 0z m512 14 c-3 -3 -12 -4 -19 -1 -8 3 -5 6 6 6 11 1 17 -2 13
-5z m-1068 -20 c3 -2 -4 -11 -15 -20 -16 -13 -17 -15 -1 -10 13 4 17 0 17 -17
0 -15 -3 -18 -9 -9 -6 10 -13 11 -34 1 -27 -12 -45 -58 -31 -81 4 -7 -6 -1
-21 14 -25 24 -27 29 -14 44 11 13 11 18 2 21 -7 3 -13 11 -13 20 0 14 23 43
34 43 12 0 6 -38 -6 -43 -7 -3 -8 -6 -2 -6 17 -1 55 39 48 51 -6 9 34 2 45 -8z
m-161 -51 c-6 -7 -16 -13 -22 -12 -8 0 -8 2 0 5 7 3 9 15 6 26 -5 20 -4 20 10
7 11 -10 13 -18 6 -26z m1217 6 c11 -17 2 -18 -19 -3 -17 12 -17 14 -4 14 9 0
20 -5 23 -11z m-395 -23 c0 -3 -4 -8 -10 -11 -5 -3 -10 -1 -10 4 0 6 5 11 10
11 6 0 10 -2 10 -4z m367 -9 c4 -17 -11 -47 -23 -47 -8 0 -17 -7 -20 -15 -4
-8 -11 -15 -16 -15 -7 0 -6 5 1 14 6 7 8 22 4 32 -6 17 -5 18 11 5 16 -13 17
-12 11 11 -5 20 -3 24 12 23 10 0 19 -4 20 -8z m-447 -7 c0 -5 -2 -10 -4 -10
-3 0 -8 5 -11 10 -3 6 -1 10 4 10 6 0 11 -4 11 -10z m-600 -4 c0 -3 -4 -8 -10
-11 -5 -3 -10 -1 -10 4 0 6 5 11 10 11 6 0 10 -2 10 -4z m705 -26 c3 -5 -1
-10 -10 -10 -9 0 -13 5 -10 10 3 6 8 10 10 10 2 0 7 -4 10 -10z m-1365 -10 c0
-5 -5 -10 -11 -10 -5 0 -7 5 -4 10 3 6 8 10 11 10 2 0 4 -4 4 -10z m105 -8
c-8 -9 -45 -10 -45 -1 0 9 32 17 43 11 5 -2 6 -7 2 -10z m455 8 c0 -5 -5 -10
-11 -10 -5 0 -7 5 -4 10 3 6 8 10 11 10 2 0 4 -4 4 -10z m-206 -19 c3 -5 -1
-11 -9 -14 -9 -4 -12 -1 -8 9 6 16 10 17 17 5z m546 -78 c0 -19 -13 -9 -16 12
-1 8 2 13 7 9 5 -3 9 -12 9 -21z m790 9 c0 -12 -32 -40 -50 -44 -8 -2 -18 -7
-21 -12 -4 -4 -8 8 -11 28 l-4 36 43 0 c24 0 43 -4 43 -8z m73 -7 c41 -6 53
-16 32 -28 -12 -6 -20 -6 -25 3 -4 7 -19 13 -34 13 -14 0 -23 3 -21 7 3 5 2
10 -2 13 -5 2 -1 2 7 0 8 -3 27 -6 43 -8z m-1346 -18 c14 17 14 17 9 -1 -4
-10 -1 -25 5 -32 9 -11 5 -16 -16 -24 -15 -6 -29 -9 -30 -8 -1 2 0 21 3 43 3
22 8 32 10 22 4 -18 4 -18 19 0z m393 -21 c0 -9 -30 -14 -35 -6 -4 6 3 10 14
10 12 0 21 -2 21 -4z m150 -14 c0 -11 -7 -18 -20 -18 -25 0 -27 23 -2 29 9 3
18 5 20 6 1 0 2 -7 2 -17z m170 -14 c0 -5 -3 -7 -7 -7 -21 3 -33 -2 -33 -16 0
-8 -7 -15 -15 -15 -25 0 -17 29 10 36 14 3 25 13 25 23 0 14 2 14 10 1 5 -8
10 -18 10 -22z m3440 12 c8 -5 11 -12 8 -16 -4 -3 -14 1 -23 10 -18 17 -9 21
15 6z m-3340 -40 c11 -21 -3 -29 -15 -10 -4 6 -15 8 -26 5 -10 -4 -19 -2 -19
4 0 8 15 15 42 20 4 0 12 -8 18 -19z m-1180 -24 c0 -3 -4 -8 -10 -11 -5 -3
-10 -1 -10 4 0 6 5 11 10 11 6 0 10 -2 10 -4z m198 -14 c6 -18 -15 -14 -22 4
-4 10 -1 14 6 12 6 -2 14 -10 16 -16z m456 2 c9 -3 14 -10 11 -15 -7 -10 -35
0 -35 12 0 11 3 11 24 3z m3884 -5 c-2 -6 -8 -10 -13 -10 -5 0 -11 4 -13 10
-2 6 4 11 13 11 9 0 15 -5 13 -11z m-4221 -24 c0 -8 -4 -15 -9 -15 -10 0 -11
14 -1 23 9 10 10 9 10 -8z m-67 -10 c9 -10 9 -15 1 -15 -6 0 -11 5 -11 11 0 6
-7 8 -16 5 -8 -3 -12 -2 -9 4 9 14 21 12 35 -5z m1005 6 c3 -6 -3 -9 -14 -8
-11 0 -17 5 -15 9 7 11 22 10 29 -1z m-428 -7 c-3 -3 -12 -4 -19 -1 -8 3 -5 6
6 6 11 1 17 -2 13 -5z m-447 -8 c0 -3 -4 -8 -10 -11 -5 -3 -10 -1 -10 4 0 6 5
11 10 11 6 0 10 -2 10 -4z m4350 -17 c0 -5 -9 -9 -20 -9 -13 0 -18 5 -14 14 6
15 34 11 34 -5z m-4754 -11 c-1 -13 -6 -22 -9 -20 -7 2 -7 10 0 30 8 20 13 14
9 -10z m54 7 c-7 -9 -15 -13 -19 -10 -3 3 1 10 9 15 21 14 24 12 10 -5z m180
-36 c0 -18 -2 -19 -15 -5 -8 8 -15 17 -15 20 0 3 7 6 15 6 9 0 15 -9 15 -21z
m-100 1 c0 -5 -4 -10 -10 -10 -5 0 -10 5 -10 10 0 6 5 10 10 10 6 0 10 -4 10
-10z m1100 0 c0 -5 -4 -10 -10 -10 -5 0 -10 5 -10 10 0 6 5 10 10 10 6 0 10
-4 10 -10z m-63 -19 c7 -10 9 -22 6 -25 -9 -9 -44 25 -37 35 8 14 18 11 31
-10z m-1047 -13 c0 7 5 10 10 7 15 -9 12 -22 -7 -29 -17 -7 -33 9 -33 33 0 11
4 9 15 -5 9 -12 14 -14 15 -6z m140 -10 c0 -4 -7 -8 -15 -8 -8 0 -15 4 -15 8
0 5 7 9 15 9 8 0 15 -4 15 -9z m310 -2 c0 -2 -7 -6 -15 -10 -8 -3 -15 -1 -15
4 0 6 7 10 15 10 8 0 15 -2 15 -4z m272 -26 c-2 -17 -10 -30 -18 -30 -18 0
-18 5 2 35 21 32 21 31 16 -5z m255 5 c-13 -27 -22 -31 -32 -15 -8 13 13 40
30 40 10 0 11 -5 2 -25z m50 9 c14 -13 14 -17 2 -29 -19 -20 -48 -3 -31 18 7
7 9 17 5 20 -3 4 -3 7 1 7 4 0 15 -7 23 -16z m3563 0 c0 -8 -5 -12 -10 -9 -6
4 -8 11 -5 16 9 14 15 11 15 -7z m-80 -4 c0 -5 -5 -10 -11 -10 -5 0 -7 5 -4
10 3 6 8 10 11 10 2 0 4 -4 4 -10z m-3580 -30 c0 -5 8 -10 17 -10 12 0 14 -3
6 -11 -14 -14 -49 -3 -57 16 -4 10 1 15 14 15 11 0 20 -4 20 -10z m60 -20 c0
-5 -5 -10 -11 -10 -5 0 -7 5 -4 10 3 6 8 10 11 10 2 0 4 -4 4 -10z m-1087 -39
c3 -14 0 -17 -14 -14 -11 3 -19 0 -19 -6 0 -6 5 -11 12 -11 9 0 8 -3 -1 -12
-11 -10 -14 -10 -18 0 -3 6 -14 12 -25 12 -25 0 -21 32 5 36 11 1 21 5 25 8
11 12 30 5 35 -13z m53 -6 c-25 -19 -37 -19 -30 0 4 8 16 15 28 15 21 -1 21
-1 2 -15z m825 -25 c4 0 6 -7 3 -15 -9 -23 -40 -19 -40 5 0 13 5 19 14 15 7
-3 18 -5 23 -5z m284 0 c4 -6 -9 -10 -32 -10 -28 0 -34 3 -23 10 20 13 47 13
55 0z m-1272 -25 c-3 -9 -8 -14 -10 -11 -3 3 -2 9 2 15 9 16 15 13 8 -4z m892
5 c3 -6 -1 -7 -9 -4 -18 7 -21 14 -7 14 6 0 13 -4 16 -10z m-450 -28 c-3 -3
-11 0 -18 7 -9 10 -8 11 6 5 10 -3 15 -9 12 -12z m581 -137 c-1 -17 -7 -25
-20 -25 -15 0 -16 3 -6 15 7 8 9 15 4 15 -7 0 15 19 22 20 1 0 1 -11 0 -25z
m639 -22 c-9 -9 -23 -12 -33 -8 -15 6 -14 8 8 20 30 16 46 9 25 -12z m-1165
-13 c-8 -5 -22 -9 -30 -9 -10 0 -8 3 5 9 27 12 43 12 25 0z m590 -9 c0 -5 -7
-14 -15 -21 -13 -10 -15 -9 -15 9 0 12 6 21 15 21 8 0 15 -4 15 -9z m60 -44
c0 -6 -9 -2 -20 8 -11 10 -20 23 -20 28 0 6 9 2 20 -8 11 -10 20 -23 20 -28z
m-596 18 c-4 -8 -8 -15 -10 -15 -2 0 -4 7 -4 15 0 8 4 15 10 15 5 0 7 -7 4
-15z m-119 -25 c3 -5 1 -10 -4 -10 -6 0 -11 5 -11 10 0 6 2 10 4 10 3 0 8 -4
11 -10z m305 -55 c0 -8 -2 -15 -4 -15 -2 0 -6 7 -10 15 -3 8 -1 15 4 15 6 0
10 -7 10 -15z m-380 -17 c0 -16 -3 -19 -11 -11 -6 6 -8 16 -5 22 11 17 16 13
16 -11z m898 -26 c2 -7 -2 -10 -12 -6 -9 3 -16 11 -16 16 0 13 23 5 28 -10z
m-963 -42 c-3 -5 -12 -10 -18 -10 -7 0 -6 4 3 10 19 12 23 12 15 0z m-605 -60
c0 -5 -4 -10 -10 -10 -5 0 -10 5 -10 10 0 6 5 10 10 10 6 0 10 -4 10 -10z
m700 -15 c0 -27 -10 -36 -45 -40 -16 -1 -22 2 -17 9 3 6 7 16 8 21 0 6 2 15 2
20 1 6 13 11 27 11 20 2 25 -3 25 -21z m-77 -22 c-9 -3 -10 -10 -2 -24 12 -23
-10 -36 -36 -21 -15 8 -15 10 -1 24 8 9 12 18 9 22 -4 3 5 6 18 5 13 0 18 -3
12 -6z m264 -29 c-3 -3 -12 -4 -19 -1 -8 3 -5 6 6 6 11 1 17 -2 13 -5z m-342
-54 c3 -5 -1 -10 -10 -10 -9 0 -13 5 -10 10 3 6 8 10 10 10 2 0 7 -4 10 -10z
m45 0 c0 -5 -7 -7 -15 -4 -8 4 -15 8 -15 10 0 2 7 4 15 4 8 0 15 -4 15 -10z
m-157 -73 c15 -10 27 -14 26 -10 -1 4 -1 15 0 23 1 12 3 12 9 2 7 -9 13 -8 27
8 19 21 45 27 45 10 0 -15 -38 -50 -55 -50 -8 0 -15 -4 -15 -8 0 -5 -8 -17
-17 -28 -10 -11 -23 -28 -29 -39 -12 -21 -64 -28 -64 -7 0 7 5 10 10 7 12 -7
40 12 40 26 0 5 -11 9 -25 9 -14 0 -25 5 -25 10 0 7 13 8 35 4 24 -4 35 -2 35
5 0 7 -4 9 -10 6 -5 -3 -10 -1 -10 4 0 6 -9 11 -21 11 -11 0 -17 4 -14 10 4 6
16 8 28 4 22 -6 22 -6 2 9 -14 11 -22 12 -27 4 -4 -6 -10 -8 -14 -4 -4 3 -1
14 7 23 11 13 15 14 23 2 6 -7 23 -21 39 -31z m492 23 c-3 -5 -11 -10 -16 -10
-6 0 -7 5 -4 10 3 6 11 10 16 10 6 0 7 -4 4 -10z m-15 -30 c0 -19 -18 -19 -23
-1 -3 14 -1 18 9 14 8 -3 14 -9 14 -13z m330 -30 c0 -5 -2 -10 -4 -10 -3 0 -8
5 -11 10 -3 6 -1 10 4 10 6 0 11 -4 11 -10z m-597 -86 c4 -23 3 -24 -10 -11
-9 8 -12 20 -9 26 10 16 13 14 19 -15z m-37 -7 c4 -4 0 -7 -9 -7 -9 0 -18 4
-21 9 -7 10 20 9 30 -2z m234 -58 c0 -11 -4 -18 -10 -14 -5 3 -7 12 -3 20 7
21 13 19 13 -6z m-716 -75 c4 -12 1 -14 -14 -9 -12 4 -20 2 -20 -5 0 -6 -5 -8
-10 -5 -8 5 -7 11 1 21 15 19 35 18 43 -2z m49 9 c-7 -2 -19 -2 -25 0 -7 3 -2
5 12 5 14 0 19 -2 13 -5z m1374 -29 c-3 -3 -12 -4 -19 -1 -8 3 -5 6 6 6 11 1
17 -2 13 -5z m-583 -16 c-3 -4 -11 -5 -19 -1 -21 7 -19 12 4 10 11 0 18 -5 15
-9z m446 -88 c0 -5 -5 -10 -11 -10 -5 0 -7 5 -4 10 3 6 8 10 11 10 2 0 4 -4 4
-10z m-79 -23 c-10 -9 -11 -8 -5 6 3 10 9 15 12 12 3 -3 0 -11 -7 -18z m-1112
-11 c10 -11 8 -16 -9 -21 -26 -8 -35 -1 -27 20 8 19 21 19 36 1z m601 -6 c0
-5 -4 -10 -10 -10 -5 0 -10 5 -10 10 0 6 5 10 10 10 6 0 10 -4 10 -10z m-545
-130 c-3 -5 -12 -10 -18 -10 -7 0 -6 4 3 10 19 12 23 12 15 0z m1712 -46 c17
3 40 -2 50 -10 17 -12 16 -13 -9 -14 -16 0 -28 -4 -28 -10 0 -5 -11 -9 -24 -8
-14 1 -22 6 -20 10 3 4 -4 8 -14 8 -11 0 -22 -7 -26 -15 -3 -8 -12 -15 -21
-15 -8 0 -15 -4 -15 -10 0 -5 -5 -10 -10 -10 -16 0 -8 53 10 66 8 7 24 11 37
9 13 -1 23 3 23 9 0 7 3 7 8 -1 5 -7 21 -11 39 -9z m296 -1 c-7 -2 -13 -12
-13 -21 0 -15 -2 -15 -10 -2 -9 15 4 30 25 29 6 0 4 -3 -2 -6z m-43 -17 c0 -3
-4 -8 -10 -11 -5 -3 -10 -1 -10 4 0 6 5 11 10 11 6 0 10 -2 10 -4z m210 -6 c0
-13 -11 -13 -30 0 -12 8 -11 10 8 10 12 0 22 -4 22 -10z m-2190 -40 c0 -5 -7
-7 -15 -4 -8 4 -12 10 -9 15 6 11 24 2 24 -11z m740 -290 c0 -4 -12 -5 -26 -2
-17 3 -22 7 -13 12 13 9 39 2 39 -10z"/>
<path d="M7345 8250 c3 -5 8 -10 11 -10 2 0 4 5 4 10 0 6 -5 10 -11 10 -5 0
-7 -4 -4 -10z"/>
<path d="M9835 7850 c3 -5 8 -10 11 -10 2 0 4 5 4 10 0 6 -5 10 -11 10 -5 0
-7 -4 -4 -10z"/>
<path d="M9880 7782 c0 -5 7 -9 15 -9 8 0 15 4 15 9 0 4 -7 8 -15 8 -8 0 -15
-4 -15 -8z"/>
<path d="M6511 6864 c0 -11 3 -14 6 -6 3 7 2 16 -1 19 -3 4 -6 -2 -5 -13z"/>
<path d="M9570 7330 c0 -5 7 -10 15 -10 8 0 15 5 15 10 0 6 -7 10 -15 10 -8 0
-15 -4 -15 -10z"/>
<path d="M9588 7298 c5 -5 16 -8 23 -6 8 3 3 7 -10 11 -17 4 -21 3 -13 -5z"/>
<path d="M5815 5990 c-3 -5 -1 -10 4 -10 6 0 11 5 11 10 0 6 -2 10 -4 10 -3 0
-8 -4 -11 -10z"/>
<path d="M4555 4920 c-3 -5 -1 -10 4 -10 6 0 11 5 11 10 0 6 -2 10 -4 10 -3 0
-8 -4 -11 -10z"/>
<path d="M9332 8713 c4 -23 21 -35 29 -21 4 6 1 17 -6 25 -18 18 -26 16 -23
-4z"/>
<path d="M7700 8498 c8 -9 31 -18 50 -22 31 -6 33 -5 20 9 -9 8 -31 17 -50 21
-31 6 -33 5 -20 -8z"/>
<path d="M5235 8280 c-3 -5 -1 -10 4 -10 6 0 11 5 11 10 0 6 -2 10 -4 10 -3 0
-8 -4 -11 -10z"/>
<path d="M10545 7680 c4 -6 11 -8 16 -5 14 9 11 15 -7 15 -8 0 -12 -5 -9 -10z"/>
<path d="M8371 6681 c-15 -10 -6 -51 11 -51 5 0 8 6 5 14 -3 8 -1 17 6 20 9 3
8 5 -1 5 -7 1 -10 6 -7 11 8 12 4 12 -14 1z"/>
<path d="M6217 5953 c-4 -3 -7 -11 -7 -17 0 -6 5 -5 12 2 6 6 9 14 7 17 -3 3
-9 2 -12 -2z"/>
<path d="M5967 5619 c4 -13 8 -18 11 -10 2 7 -1 18 -6 23 -8 8 -9 4 -5 -13z"/>
<path d="M5898 5331 c-11 -4 -14 -11 -9 -19 6 -10 10 -10 21 3 15 19 11 25
-12 16z"/>
<path d="M5960 5255 c0 -8 5 -15 10 -15 6 0 10 7 10 15 0 8 -4 15 -10 15 -5 0
-10 -7 -10 -15z"/>
<path d="M5735 4860 c3 -5 8 -10 11 -10 2 0 4 5 4 10 0 6 -5 10 -11 10 -5 0
-7 -4 -4 -10z"/>
<path d="M5937 4835 c-13 -12 -15 -21 -8 -28 15 -15 34 5 29 29 -3 17 -4 17
-21 -1z"/>
<path d="M5895 3940 c3 -5 8 -10 11 -10 2 0 4 5 4 10 0 6 -5 10 -11 10 -5 0
-7 -4 -4 -10z"/>
<path d="M3726 3283 c-11 -11 -6 -23 9 -23 8 0 15 4 15 9 0 13 -16 22 -24 14z"/>
<path d="M4690 2679 c0 -5 5 -7 10 -4 6 3 10 8 10 11 0 2 -4 4 -10 4 -5 0 -10
-5 -10 -11z"/>
<path d="M8795 560 c3 -5 10 -10 16 -10 5 0 9 5 9 10 0 6 -7 10 -16 10 -8 0
-12 -4 -9 -10z"/>
</g>
</svg>
