<?xml version="1.0" encoding="UTF-8"?>
<!DOCTYPE svg PUBLIC "-//W3C//DTD SVG 1.1//EN" "http://www.w3.org/Graphics/SVG/1.1/DTD/svg11.dtd">
<!-- Creator: CorelDRAW -->
<svg xmlns="http://www.w3.org/2000/svg" xml:space="preserve" width="215.9mm" height="279.4mm" style="shape-rendering:geometricPrecision; text-rendering:geometricPrecision; image-rendering:optimizeQuality; fill-rule:evenodd; clip-rule:evenodd"
viewBox="0 0 215.9 279.4">
 <defs>
  <style type="text/css">
   <![CDATA[
    .fil11 {fill:#474F23}
    .fil7 {fill:#4D5826}
    .fil6 {fill:#56652D}
    .fil10 {fill:#5D682E}
    .fil24 {fill:#632509}
    .fil19 {fill:#66270B}
    .fil9 {fill:#6B7335}
    .fil21 {fill:#6C2A0F}
    .fil16 {fill:#730F1D}
    .fil20 {fill:#73381C}
    .fil17 {fill:#7E3419}
    .fil2 {fill:#881A2A}
    .fil15 {fill:#8D1B2A}
    .fil8 {fill:#91A053}
    .fil18 {fill:#935435}
    .fil22 {fill:#9EA583}
    .fil14 {fill:#A5222D}
    .fil1 {fill:#B9323F}
    .fil0 {fill:#BF2F39}
    .fil23 {fill:#C39C86}
    .fil12 {fill:#C63C49}
    .fil3 {fill:#C73845}
    .fil13 {fill:#CB4358}
    .fil4 {fill:#DD628E}
    .fil5 {fill:#DE6373}
   ]]>
  </style>
 </defs>
 <g id="Layer_x0020_1">
  <metadata id="CorelCorpID_0Corel-Layer"/>
  <g id="_147964424">
   <polygon id="_147964568" class="fil0" points="64.5354,63.1494 64.5354,63.1494 59.4457,66.2813 54.3561,70.1967 48.4829,75.2863 45.351,78.4187 42.2187,81.9422 39.4783,85.466 36.7375,89.381 34.3882,93.6876 32.431,98.3861 31.2563,103.084 30.4733,107.782 30.4733,107.782 30.0817,112.089 30.0817,116.396 30.4733,120.703 31.2563,124.618 32.431,128.924 33.6056,132.84 35.5629,136.755 37.9121,140.67 40.2614,144.585 43.3933,148.109 46.5257,151.633 50.4407,155.156 54.3561,158.288 58.6626,161.421 63.3607,164.553 68.8423,167.293 68.8423,167.293 80.9793,173.166 95.8571,179.822 112.301,186.869 120.523,190.002 129.136,193.134 137.358,195.483 145.189,197.832 153.019,199.398 160.066,200.181 166.33,200.572 169.463,200.181 172.203,199.789 174.552,199.398 176.901,198.615 178.859,197.44 180.816,195.874 180.816,195.874 182.774,193.525 184.732,190.784 186.298,188.435 187.472,186.086 187.864,183.346 188.255,180.605 188.647,177.864 188.255,175.124 187.081,168.86 185.123,162.204 180.034,146.151 180.034,146.151 176.901,136.755 173.378,125.792 169.071,114.438 164.764,102.693 159.674,91.7303 154.585,81.1591 149.104,71.7629 146.363,67.8475 143.622,64.324 143.622,64.324 138.141,58.4508 135.009,55.3189 131.485,52.9697 128.353,50.6209 124.438,48.6631 120.523,47.097 116.216,46.3139 111.126,45.9223 106.036,45.9223 100.555,46.7054 94.2909,48.2716 87.6351,50.6209 80.5878,53.7528 72.7573,58.0597 64.5354,63.1494 "/>
   <polygon id="_147964856" class="fil1" points="43.0018,135.189 43.0018,135.189 41.8271,134.797 39.4783,134.014 36.346,132.057 34.7798,130.491 32.8225,128.533 31.6479,126.576 30.4733,123.835 29.6902,120.703 28.9071,117.179 29.2986,113.264 29.6902,108.565 31.2563,103.084 33.6056,97.2115 33.6056,97.2115 36.7375,92.1218 40.6529,86.6402 45.351,80.7675 50.8322,74.8948 53.573,72.1544 56.7049,69.8052 59.4457,67.8475 62.5776,66.2813 65.71,65.1071 68.4508,65.1071 68.4508,65.1071 70.7996,65.4982 72.7573,65.8897 73.5404,67.0644 73.932,68.6305 73.932,70.5883 73.5404,72.5455 71.1912,78.0272 68.4508,84.683 65.71,92.9049 64.5354,97.2115 63.3607,101.91 62.9692,106.999 62.5776,112.481 62.5776,112.481 62.5776,119.528 61.795,125.009 61.4034,127.359 60.6204,128.924 59.8373,130.491 58.6626,132.057 57.488,132.84 56.3134,133.623 54.7476,134.406 52.7899,134.797 48.4829,135.189 43.0018,135.189 "/>
   <polygon id="_147964952" class="fil2" points="38.6952,90.9472 38.6952,90.9472 38.6952,93.296 37.9121,95.2538 36.346,99.1692 34.3882,103.476 33.2141,107.391 33.2141,107.391 32.431,112.089 32.8225,116.787 33.6056,121.485 35.1713,126.184 36.7375,130.491 38.6952,135.189 43.0018,143.411 43.0018,143.411 44.9595,147.718 47.7003,151.633 49.266,153.59 50.8322,155.156 52.7899,156.722 54.7476,157.897 54.7476,157.897 56.7049,158.68 58.2711,159.463 59.8373,159.463 61.4034,159.463 64.5354,158.288 68.4508,156.722 68.4508,156.722 73.5404,155.156 81.7624,152.807 86.0689,151.241 89.5928,149.283 92.3332,147.326 92.7247,146.543 93.1163,145.76 93.1163,145.76 93.1163,144.194 91.9417,142.236 90.3755,140.279 88.4182,138.713 84.5028,135.189 81.3709,132.84 81.3709,132.84 78.2385,130.882 74.7151,128.924 71.1912,126.967 67.2762,124.618 67.2762,124.618 64.9269,122.66 62.5776,120.703 61.0119,118.354 59.8373,116.004 58.6626,113.264 57.8796,110.523 57.488,104.259 57.488,104.259 57.488,99.5607 57.0965,94.4707 56.7049,92.1218 55.9218,89.7726 54.3561,88.2064 52.3984,87.0318 52.3984,87.0318 50.0491,86.6402 46.9172,87.0318 44.5679,87.8149 42.2187,88.9895 "/>
   <polygon id="_147965048" class="fil3" points="73.5404,60.017 73.5404,60.017 75.4981,60.017 79.4131,60.8001 81.3709,61.9747 83.3281,63.1494 84.1112,64.324 84.5028,65.4982 84.5028,66.2813 84.5028,66.2813 84.5028,68.6305 84.5028,70.5883 85.2859,72.5455 87.2436,74.1117 89.9839,75.2863 93.8994,76.461 99.7721,77.2441 107.211,77.2441 107.211,77.2441 124.438,77.6356 132.66,77.6356 136.184,77.2441 139.315,76.8525 142.056,76.0694 144.014,74.8948 145.58,73.7202 145.971,72.1544 145.971,70.1967 144.797,67.8475 142.448,64.7155 139.315,61.1917 139.315,61.1917 135.4,58.0597 131.485,54.9274 127.57,52.5781 123.655,50.6209 119.74,49.0547 115.825,47.88 111.909,47.4885 107.994,47.097 103.688,47.4885 99.3805,48.2716 95.4656,49.0547 91.1586,50.6209 86.852,52.1866 82.5455,54.5358 78.2385,56.8851 73.5404,60.017 "/>
   <polygon id="_148762056" class="fil4" points="99.7721,73.3286 99.7721,73.3286 99.3805,74.8948 98.989,76.461 97.8144,77.6356 96.2486,78.8102 94.6825,79.9844 92.7247,80.376 90.3755,81.1591 88.0267,81.1591 88.0267,81.1591 85.6774,81.1591 83.3281,80.376 81.3709,79.9844 79.8047,78.8102 78.2385,77.6356 77.0639,76.461 76.6723,74.8948 76.2808,73.3286 76.2808,73.3286 76.6723,71.7629 77.0639,70.1967 78.2385,69.0221 79.8047,67.8475 81.3709,66.6728 83.3281,66.2813 85.6774,65.4982 88.0267,65.4982 88.0267,65.4982 90.3755,65.4982 92.7247,66.2813 94.6825,66.6728 96.2486,67.8475 97.8144,69.0221 98.989,70.1967 99.3805,71.7629 99.7721,73.3286 "/>
   <polygon id="_148666328" class="fil5" points="108.777,46.3139 108.777,46.3139 107.603,46.7054 105.645,47.4885 104.862,47.88 104.47,48.6631 104.862,49.4462 105.645,50.2293 105.645,50.2293 107.994,52.1866 108.777,52.9697 109.169,53.7528 109.169,54.1443 108.386,54.9274 107.603,54.9274 105.645,55.3189 105.645,55.3189 101.73,55.3189 100.164,55.7105 98.5975,56.102 97.8144,56.8851 97.8144,57.6682 98.2059,58.4508 99.3805,59.6255 99.3805,59.6255 100.164,60.017 100.164,60.4086 99.3805,60.4086 94.6825,60.4086 91.9417,60.4086 89.9839,60.4086 89.2013,60.4086 88.8097,60.8001 88.4182,61.5832 88.8097,61.9747 88.8097,61.9747 89.2013,62.7578 89.5928,63.5409 89.2013,63.9325 88.8097,64.324 87.2436,65.1071 85.6774,65.8897 84.1112,66.6728 83.3281,67.4559 83.3281,67.8475 83.7197,68.239 85.6774,69.4136 85.6774,69.4136 88.4182,70.5883 90.767,71.3714 93.1163,71.7629 95.074,71.3714 96.2486,70.9798 97.0313,70.1967 97.4228,69.4136 97.4228,67.8475 97.4228,67.8475 97.0313,66.6728 97.4228,65.1071 98.2059,64.324 99.3805,63.5409 100.947,63.5409 102.121,63.5409 103.296,64.7155 103.688,66.2813 103.688,66.2813 104.47,67.0644 104.862,67.8475 106.819,69.4136 109.169,70.5883 111.518,71.3714 113.475,70.9798 114.258,70.5883 114.65,69.8052 114.65,69.0221 114.65,67.8475 114.258,66.2813 113.475,64.324 113.475,64.324 114.258,63.5409 115.825,63.5409 118.565,63.1494 118.565,63.1494 119.74,62.7578 120.131,62.3663 120.523,60.4086 120.914,60.017 121.306,59.6255 122.48,60.017 124.047,60.8001 124.047,60.8001 125.612,61.9747 126.004,61.9747 126.395,61.5832 126.395,60.8001 126.787,59.6255 126.787,58.4508 127.57,57.6682 128.353,57.2767 129.136,57.2767 131.485,58.0597 131.485,58.0597 134.617,59.6255 137.358,61.1917 141.273,64.7155 143.231,65.8897 142.839,65.4982 142.056,63.9325 142.056,63.9325 140.49,61.1917 138.141,58.4508 134.617,54.9274 130.702,52.1866 126.004,49.4462 123.263,48.2716 120.523,47.097 117.782,46.7054 115.041,46.3139 111.909,45.9223 108.777,46.3139 "/>
   <polygon id="_148666424" class="fil6" points="31.6479,82.3337 31.6479,82.3337 37.1291,79.5929 40.6529,78.0272 41.4356,77.6356 41.8271,77.6356 41.8271,77.6356 41.8271,77.6356 37.5206,85.8576 35.5629,90.1641 35.1713,91.3388 35.5629,91.7303 35.9544,91.3388 35.9544,91.3388 37.1291,90.5557 37.9121,89.7726 39.0868,87.8149 39.8699,86.2487 41.0445,85.0745 43.0018,83.5083 45.7426,81.5506 45.7426,81.5506 48.4829,79.5929 50.8322,77.6356 54.3561,73.7202 56.3134,71.7629 58.2711,70.1967 60.6204,68.6305 63.7523,67.4559 63.7523,67.4559 75.1066,64.324 79.0216,62.3663 80.5878,61.1917 82.1539,60.017 82.1539,60.017 88.4182,53.7528 90.3755,51.4035 90.767,50.6209 90.3755,50.2293 90.3755,50.2293 89.9839,50.2293 90.3755,49.8378 91.9417,49.0547 94.6825,47.4885 96.2486,46.7054 97.4228,45.1392 97.4228,45.1392 98.5975,43.5735 99.3805,41.6158 99.7721,39.2665 100.164,36.5262 100.164,34.5684 100.164,32.6107 99.7721,31.4361 99.3805,31.0445 98.989,31.0445 98.989,31.0445 98.5975,31.4361 98.2059,32.2192 97.4228,34.5684 97.0313,36.5262 96.6402,36.9177 95.8571,37.3092 95.8571,37.3092 95.4656,36.9177 94.2909,35.7431 91.9417,32.2192 89.9839,30.2619 88.0267,28.6957 85.2859,27.5211 83.7197,27.5211 82.1539,27.5211 82.1539,27.5211 80.5878,27.9126 79.0216,28.6957 77.847,29.8704 77.4554,31.4361 77.0639,32.6107 77.4554,33.7854 78.2385,34.5684 79.8047,34.96 79.8047,34.96 83.7197,35.7431 85.2859,36.1346 86.852,36.5262 88.4182,37.7003 89.2013,38.4834 89.2013,40.0496 88.8097,42.0073 88.8097,42.0073 87.6351,43.965 86.0689,45.9223 84.1112,47.4885 82.5455,49.0547 80.5878,49.8378 79.0216,50.6209 77.847,50.6209 77.0639,50.2293 77.0639,50.2293 76.2808,47.88 75.4981,44.7477 74.7151,43.182 73.932,42.0073 73.1489,40.8327 71.5827,40.0496 71.5827,40.0496 71.1912,39.6581 71.1912,38.875 70.7996,36.5262 70.0165,34.5684 69.2334,33.0023 68.0593,31.0445 66.1015,29.4788 66.1015,29.4788 64.1438,27.9126 61.4034,26.3465 59.0542,25.1718 56.7049,24.3887 54.3561,23.9972 52.7899,23.9972 52.3984,23.9972 52.0068,24.3887 52.0068,25.1718 52.0068,25.9549 52.0068,25.9549 53.573,29.8704 53.9646,31.4361 53.9646,33.0023 53.9646,33.0023 53.573,40.4412 53.573,46.3139 53.573,46.3139 53.573,47.097 53.1815,47.4885 52.3984,47.4885 50.4407,47.097 50.4407,47.097 45.351,45.5308 43.3933,44.7477 42.6102,43.965 42.6102,43.182 42.6102,43.182 41.8271,42.0073 41.4356,42.0073 41.0445,42.0073 40.6529,42.3989 40.2614,43.182 39.8699,45.1392 39.8699,45.1392 39.8699,48.2716 40.6529,51.0124 40.6529,52.9697 40.2614,53.7528 39.8699,53.7528 39.8699,53.7528 37.9121,53.3612 35.5629,52.5781 30.0817,50.2293 30.0817,50.2293 28.5155,49.8378 26.9498,48.6631 23.4259,45.9223 21.8597,44.7477 20.6851,43.965 19.5109,43.965 19.5109,44.3566 19.5109,44.7477 19.5109,44.7477 19.5109,46.7054 19.9025,49.0547 20.6851,51.795 22.2513,54.5358 23.8174,57.2767 25.7752,60.017 28.5155,61.9747 30.0817,62.7578 31.6479,63.1494 31.6479,63.1494 31.2563,63.9325 29.2986,64.324 26.5583,65.1071 26.5583,65.1071 24.209,65.4982 22.2513,66.6728 20.2936,68.239 18.7278,70.1967 17.5532,72.5455 17.1616,74.8948 17.5532,77.2441 17.9447,78.4187 18.7278,79.2013 18.7278,79.2013 21.4682,82.7252 22.6428,83.8999 23.8174,84.683 25.3836,84.683 26.9498,84.683 28.9071,83.8999 31.6479,82.3337 "/>
   <polygon id="_148666520" class="fil6" points="75.4981,50.6209 75.4981,50.6209 75.8892,44.7477 76.2808,34.1769 76.2808,34.1769 75.8892,30.2619 75.4981,27.1295 75.1066,25.9549 74.7151,25.1718 73.932,24.7803 73.5404,25.1718 73.5404,25.1718 71.1912,28.6957 70.4081,29.8704 70.0165,29.4788 70.0165,29.0873 70.0165,29.0873 70.4081,27.9126 71.1912,26.3465 73.1489,23.2146 74.3235,22.0399 75.8892,20.8653 77.0639,20.4737 77.847,20.4737 77.847,20.4737 79.0216,21.6484 80.1962,23.6057 81.3709,25.9549 82.5455,29.0873 83.7197,32.2192 84.1112,35.7431 84.5028,38.875 84.5028,41.6158 84.5028,41.6158 83.7197,47.097 83.3281,49.4462 82.5455,51.4035 81.3709,52.9697 80.5878,53.3612 79.8047,53.3612 79.0216,52.9697 78.2385,52.5781 75.4981,50.6209 "/>
   <polygon id="_148666592" class="fil7" points="41.8271,77.6356 41.8271,77.6356 43.0018,74.8948 43.7849,72.9371 43.7849,70.9798 43.7849,70.9798 43.7849,70.1967 43.3933,69.8052 42.6102,69.0221 41.0445,68.239 39.8699,67.4559 39.8699,67.4559 37.9121,65.8897 35.1713,64.7155 32.8225,63.5409 31.6479,63.1494 31.6479,63.1494 29.2986,64.324 25.3836,65.1071 25.3836,65.1071 23.0344,65.8897 20.2936,68.239 19.1194,69.4136 17.9447,70.9798 17.1616,72.1544 16.7701,73.7202 16.7701,73.7202 16.7701,75.6779 17.1616,77.6356 17.9447,79.5929 18.7278,81.5506 19.9025,83.1168 21.4682,84.2914 23.0344,85.0745 24.9921,85.0745 24.9921,85.0745 26.9498,84.683 29.2986,83.8999 34.3882,81.1591 38.6952,78.8102 41.8271,77.6356 "/>
   <polygon id="_148666688" class="fil7" points="67.2762,62.7578 67.2762,62.7578 65.71,62.7578 64.5354,62.3663 64.5354,61.9747 64.1438,61.5832 64.1438,61.5832 64.1438,59.2339 63.3607,58.4508 62.9692,58.4508 62.5776,58.8424 62.5776,58.8424 61.0119,59.6255 59.4457,60.017 57.488,60.4086 57.0965,60.4086 56.7049,61.1917 56.7049,61.1917 55.9218,61.9747 54.7476,61.9747 52.7899,60.8001 52.7899,60.8001 51.2237,60.4086 50.4407,59.6255 50.4407,58.4508 50.4407,58.4508 53.573,47.4885 53.573,47.4885 56.3134,42.0073 57.8796,38.0919 58.2711,36.5262 58.6626,35.3515 58.6626,35.3515 58.6626,34.1769 59.4457,33.7854 60.2288,33.7854 61.4034,33.7854 63.7523,34.96 66.1015,36.1346 66.1015,36.1346 68.4508,37.7003 69.625,38.875 70.7996,40.0496 71.5827,40.0496 71.5827,40.0496 72.7573,40.4412 73.932,41.6158 74.7151,42.7904 75.4981,43.965 75.8892,45.5308 76.2808,47.4885 76.2808,47.4885 75.8892,51.0124 75.1066,53.7528 74.3235,55.7105 74.3235,57.2767 74.3235,57.2767 74.3235,57.6682 73.932,58.4508 71.9742,60.017 67.2762,62.7578 "/>
   <polygon id="_148666760" class="fil7" points="75.8892,46.7054 75.8892,46.7054 75.8892,47.097 75.8892,48.2716 76.6723,49.8378 77.4554,50.2293 78.2385,50.2293 78.2385,50.2293 80.1962,50.2293 81.7624,49.4462 82.9366,48.6631 83.7197,47.4885 83.7197,47.4885 84.5028,45.1392 84.8943,41.6158 84.8943,38.0919 84.5028,36.5262 84.1112,35.7431 84.1112,35.7431 82.9366,35.3515 80.5878,34.96 79.0216,34.5684 78.2385,33.7854 77.847,33.0023 78.2385,31.8276 78.2385,31.8276 79.0216,30.653 79.8047,29.8704 80.9793,29.0873 81.3709,28.6957 81.7624,27.9126 81.7624,27.5211 81.3709,26.3465 81.3709,26.3465 80.5878,23.9972 79.4131,22.0399 78.2385,20.4737 77.4554,20.4737 76.6723,20.0822 76.6723,20.0822 75.8892,20.8653 74.7151,21.6484 71.9742,24.7803 70.0165,27.9126 69.625,29.0873 70.0165,29.8704 70.0165,29.8704 70.7996,29.8704 71.1912,29.0873 72.7573,27.5211 73.932,25.9549 74.3235,25.5634 74.7151,25.9549 74.7151,25.9549 75.1066,27.1295 75.4981,28.6957 75.4981,34.5684 75.8892,46.7054 "/>
   <polygon id="_148666832" class="fil8" points="50.4407,59.2339 50.4407,59.2339 45.7426,56.4936 42.2187,54.5358 40.2614,53.7528 40.2614,53.7528 40.2614,53.7528 40.2614,51.4035 40.2614,51.4035 39.8699,48.2716 39.4783,45.1392 39.4783,43.965 39.8699,42.7904 40.2614,42.0073 41.0445,41.6158 41.0445,41.6158 42.2187,42.0073 42.6102,42.7904 43.0018,43.965 43.3933,44.3566 44.5679,45.1392 44.5679,45.1392 48.8745,46.3139 53.573,47.4885 53.573,47.4885 52.0068,52.5781 50.8322,56.4936 50.4407,59.2339 "/>
   <polygon id="_148666928" class="fil9" points="53.573,47.4885 53.573,47.4885 53.573,44.3566 53.573,39.6581 53.573,39.6581 53.573,34.5684 53.9646,30.653 53.9646,30.653 53.1815,27.9126 53.1815,27.5211 53.1815,27.5211 54.7476,29.8704 54.7476,29.8704 55.5303,31.8276 55.9218,33.7854 56.3134,37.7003 56.3134,40.8327 55.9218,42.7904 55.9218,42.7904 54.7476,45.1392 53.573,47.4885 "/>
   <polygon id="_148667024" class="fil9" points="74.3235,57.2767 74.3235,57.2767 74.3235,56.4936 74.7151,54.9274 74.7151,54.9274 75.4981,52.5781 75.8892,49.4462 75.8892,49.4462 76.2808,49.8378 76.6723,50.2293 77.847,50.6209 78.6301,50.6209 79.8047,50.2293 79.8047,50.2293 81.7624,49.0547 84.1112,47.4885 86.0689,45.5308 88.0267,43.182 88.0267,43.182 86.0689,47.4885 84.5028,50.6209 83.3281,51.795 82.1539,52.9697 82.1539,52.9697 80.1962,54.5358 78.6301,56.102 77.4554,58.0597 76.2808,59.6255 76.2808,59.6255 75.8892,60.4086 74.7151,61.1917 73.5404,61.9747 72.7573,61.9747 71.9742,61.9747 71.9742,61.1917 72.7573,59.6255 74.3235,57.2767 "/>
   <polygon id="_148667096" class="fil10" points="36.7375,65.4982 36.7375,65.4982 34.7798,65.8897 32.0394,66.6728 28.124,66.6728 28.124,66.6728 24.6005,67.0644 21.8597,67.8475 19.9025,68.6305 18.3363,69.8052 18.3363,69.8052 19.9025,68.239 21.8597,66.6728 24.209,65.4982 24.209,65.4982 29.2986,63.9325 31.6479,63.1494 "/>
   <polygon id="_148667192" class="fil11" points="37.1291,65.4982 37.1291,65.4982 40.6529,67.0644 43.0018,69.0221 43.7849,69.8052 43.7849,70.1967 43.7849,70.1967 43.7849,72.1544 43.0018,74.1117 42.2187,76.8525 38.6952,78.8102 38.6952,78.8102 40.6529,76.8525 40.6529,76.8525 41.0445,76.0694 41.0445,76.0694 39.8699,75.6779 39.0868,75.6779 39.4783,75.2863 39.8699,74.8948 39.8699,74.8948 40.6529,74.1117 40.6529,73.7202 39.4783,73.3286 38.6952,73.3286 38.6952,72.9371 39.0868,72.9371 39.0868,72.9371 39.4783,72.5455 39.0868,72.5455 37.1291,72.5455 35.5629,72.5455 35.5629,72.1544 35.9544,71.7629 35.9544,71.7629 37.1291,71.3714 37.1291,70.5883 37.1291,70.1967 36.346,69.8052 35.5629,69.0221 35.1713,68.6305 35.5629,68.239 35.5629,68.239 35.9544,68.239 35.9544,67.8475 35.1713,67.4559 34.7798,67.0644 34.7798,66.6728 35.5629,65.8897 37.1291,65.4982 "/>
   <polygon id="_148675280" class="fil11" points="51.6153,54.9274 51.6153,54.9274 50.8322,56.8851 50.4407,58.8424 50.4407,59.6255 50.4407,60.017 50.4407,60.017 53.1815,61.5832 54.7476,62.3663 55.5303,62.3663 55.9218,61.9747 55.9218,61.9747 56.3134,61.1917 56.7049,60.8001 58.2711,60.4086 58.2711,60.4086 62.9692,59.2339 62.9692,59.2339 62.9692,60.017 63.3607,60.8001 64.1438,61.5832 64.1438,61.5832 64.9269,62.3663 65.71,62.7578 66.1015,63.1494 67.2762,62.7578 67.2762,62.7578 71.5827,60.8001 71.5827,60.8001 71.5827,60.017 71.9742,59.2339 72.7573,58.4508 72.7573,58.4508 73.1489,57.6682 73.5404,57.2767 73.1489,56.8851 71.9742,57.2767 71.9742,57.2767 70.0165,58.0597 68.4508,59.6255 66.8846,60.8001 66.4931,60.8001 66.4931,60.017 66.4931,60.017 66.8846,58.4508 66.4931,57.2767 66.1015,56.8851 65.3184,56.8851 65.3184,56.8851 64.9269,57.2767 64.5354,56.8851 64.1438,56.4936 63.3607,55.7105 62.5776,55.7105 61.795,56.102 61.795,56.102 57.8796,57.6682 56.7049,58.0597 56.3134,58.0597 56.3134,58.0597 56.3134,58.0597 56.3134,57.6682 55.9218,57.6682 54.7476,58.0597 53.573,58.4508 53.1815,58.0597 53.1815,57.6682 53.1815,57.6682 53.1815,56.8851 52.7899,56.102 52.0068,55.7105 51.6153,54.9274 "/>
   <polygon id="_148675352" class="fil11" points="75.8892,42.7904 75.8892,42.7904 75.8892,46.7054 76.2808,49.0547 76.6723,50.2293 77.4554,50.2293 77.4554,50.2293 79.4131,49.8378 81.3709,49.0547 83.7197,47.4885 83.7197,47.4885 84.1112,45.1392 84.1112,43.182 84.1112,40.8327 84.1112,40.8327 84.1112,42.7904 83.3281,44.3566 82.9366,45.5308 82.9366,45.5308 82.5455,45.9223 82.1539,45.9223 81.7624,45.1392 81.3709,44.7477 80.9793,45.5308 80.9793,45.5308 80.9793,46.3139 80.5878,46.3139 79.8047,46.3139 79.4131,45.9223 79.0216,45.9223 79.0216,45.9223 79.0216,45.9223 78.6301,46.3139 78.6301,45.9223 77.847,45.5308 77.0639,45.1392 76.6723,45.1392 76.6723,45.9223 76.6723,45.9223 76.6723,46.3139 76.6723,46.3139 76.2808,45.1392 75.8892,42.7904 "/>
   <polygon id="_148675424" class="fil12" points="106.819,87.0318 106.819,87.0318 108.386,88.2064 110.343,90.5557 111.518,91.7303 111.909,92.9049 111.518,93.296 111.126,93.6876 109.952,93.6876 109.952,93.6876 107.994,93.296 106.036,92.5134 104.862,90.9472 104.079,89.381 104.079,88.2064 104.47,87.0318 104.862,86.6402 105.253,86.6402 106.819,87.0318 "/>
   <polygon id="_148675520" class="fil12" points="104.079,98.3861 104.079,98.3861 104.47,99.9523 106.036,102.301 106.428,103.867 106.428,104.65 106.036,105.042 105.645,105.434 104.079,105.042 104.079,105.042 102.513,104.259 101.73,102.693 100.947,101.127 100.947,99.5607 101.338,97.9946 102.121,97.2115 102.513,97.2115 102.904,97.603 104.079,98.3861 "/>
   <polygon id="_148675592" class="fil13" points="88.0267,65.1071 88.0267,65.1071 89.5928,65.8897 92.7247,67.4559 93.8994,68.239 94.6825,69.0221 94.6825,69.4136 94.6825,69.8052 93.5078,70.5883 93.5078,70.5883 91.9417,70.5883 89.9839,70.1967 88.0267,69.4136 86.852,68.239 85.6774,67.4559 85.6774,66.2813 86.0689,65.8897 86.4605,65.4982 88.0267,65.1071 "/>
   <polygon id="_148675688" class="fil13" points="93.1163,60.017 93.1163,60.017 97.4228,61.5832 98.5975,62.3663 99.3805,62.7578 99.3805,63.1494 99.3805,63.1494 97.8144,63.5409 97.8144,63.5409 94.2909,62.7578 91.9417,61.9747 91.5501,61.1917 91.5501,60.8001 91.9417,60.4086 93.1163,60.017 "/>
   <polygon id="_148675760" class="fil13" points="100.947,55.3189 100.947,55.3189 102.904,55.3189 106.819,56.4936 108.777,56.8851 109.56,57.6682 109.56,58.0597 109.56,58.4508 107.994,58.8424 107.994,58.8424 105.645,59.2339 103.688,58.8424 102.121,58.4508 100.555,57.2767 99.7721,56.4936 99.7721,55.7105 99.7721,55.3189 100.947,55.3189 "/>
   <polygon id="_148675832" class="fil13" points="104.862,71.7629 104.862,71.7629 106.036,72.5455 108.777,74.8948 109.56,75.6779 109.952,76.8525 109.56,76.8525 109.169,77.2441 107.603,77.2441 107.603,77.2441 105.253,76.8525 103.688,76.0694 102.513,75.2863 102.121,74.1117 102.121,72.9371 102.513,72.1544 103.296,71.7629 104.862,71.7629 "/>
   <polygon id="_148675904" class="fil13" points="107.994,63.9325 107.994,63.9325 112.692,67.0644 114.258,68.239 115.041,69.0221 115.041,69.0221 114.65,69.4136 113.084,69.4136 113.084,69.4136 111.126,68.6305 109.56,67.8475 107.994,67.0644 107.211,66.2813 106.819,65.1071 106.428,64.7155 107.211,63.9325 107.994,63.9325 "/>
   <polygon id="_148675976" class="fil13" points="136.967,56.8851 136.967,56.8851 139.315,60.4086 140.49,62.3663 140.49,62.7578 139.707,62.7578 139.707,62.7578 137.358,60.8001 135.792,58.8424 135.4,58.0597 135.4,57.2767 135.792,56.8851 136.967,56.8851 "/>
   <polygon id="_148676048" class="fil12" points="142.839,70.5883 142.839,70.5883 145.189,74.8948 145.58,76.461 145.58,77.6356 145.58,78.0272 144.405,77.6356 144.405,77.6356 143.231,76.8525 142.448,75.2863 142.056,74.1117 141.665,72.5455 141.665,71.3714 141.665,70.5883 142.056,70.1967 142.839,70.5883 "/>
   <polygon id="_148676120" class="fil13" points="135.4,68.6305 135.4,68.6305 136.967,72.9371 137.358,75.2863 136.967,75.6779 136.184,74.8948 136.184,74.8948 134.617,72.5455 133.443,70.1967 133.443,69.0221 133.834,68.6305 134.226,68.239 135.4,68.6305 "/>
   <polygon id="_148676192" class="fil13" points="124.047,65.4982 124.047,65.4982 126.004,69.0221 126.395,71.3714 126.004,71.3714 125.221,70.9798 125.221,70.9798 123.263,69.0221 122.089,67.4559 122.089,66.6728 122.089,65.8897 122.872,65.4982 124.047,65.4982 "/>
   <polygon id="_148689592" class="fil12" points="116.608,79.9844 116.608,79.9844 118.173,81.1591 120.523,83.5083 121.697,84.683 122.48,85.466 122.48,86.2487 122.089,86.2487 120.914,86.6402 120.914,86.6402 119.348,86.2487 117.782,85.466 116.216,84.2914 115.433,83.1168 114.65,81.9422 114.65,80.7675 115.433,79.9844 116.608,79.9844 "/>
   <polygon id="_148689664" class="fil13" points="115.433,54.9274 115.433,54.9274 118.565,57.6682 119.348,58.4508 119.74,59.2339 119.74,59.6255 118.565,60.017 118.565,60.017 117.391,59.6255 116.216,59.2339 115.041,58.4508 114.258,57.6682 113.867,56.8851 113.867,56.102 114.258,55.3189 115.433,54.9274 "/>
   <polygon id="_148689736" class="fil13" points="123.655,52.5781 123.655,52.5781 124.829,53.3612 127.57,54.9274 128.353,56.102 129.136,56.8851 129.136,57.2767 129.136,57.6682 127.962,57.6682 127.962,57.6682 126.004,57.2767 124.438,56.4936 123.263,55.3189 122.089,54.1443 121.697,52.9697 121.697,52.1866 122.089,52.1866 123.655,52.5781 "/>
   <polygon id="_148689808" class="fil12" points="125.612,79.2013 125.612,79.2013 126.395,80.376 128.353,82.3337 129.136,83.5083 129.528,84.683 129.136,85.0745 127.962,85.466 127.962,85.466 126.395,85.0745 125.221,83.8999 124.438,82.7252 124.047,81.1591 123.655,79.9844 124.047,79.2013 124.438,78.8102 125.612,79.2013 "/>
   <polygon id="_148689880" class="fil12" points="87.6351,88.9895 87.6351,88.9895 90.767,92.1218 92.3332,94.0791 92.3332,94.8622 91.5501,95.2538 91.5501,95.2538 90.3755,94.8622 89.2013,94.0791 86.852,91.7303 86.0689,90.5557 85.6774,89.7726 86.0689,89.381 86.4605,88.9895 87.6351,88.9895 "/>
   <polygon id="_148689952" class="fil12" points="86.0689,99.5607 86.0689,99.5607 86.852,100.735 88.4182,102.693 89.2013,103.867 89.2013,104.65 88.8097,105.042 87.2436,104.65 87.2436,104.65 85.2859,103.867 84.1112,103.084 83.3281,101.91 82.9366,100.343 82.9366,99.5607 83.7197,98.7777 84.5028,98.7777 86.0689,99.5607 "/>
   <polygon id="_148690024" class="fil12" points="75.1066,81.9422 75.1066,81.9422 75.8892,83.1168 77.4554,86.2487 77.847,87.4233 77.847,88.598 77.847,88.598 77.4554,88.598 75.8892,87.8149 75.8892,87.8149 73.932,86.2487 72.7573,85.0745 72.3658,83.5083 71.9742,82.3337 72.3658,81.5506 73.1489,81.1591 73.932,81.1591 75.1066,81.9422 "/>
   <polygon id="_148690096" class="fil12" points="72.7573,100.735 72.7573,100.735 75.1066,104.259 75.4981,105.434 75.8892,106.217 75.8892,106.608 75.4981,106.608 74.3235,106.217 74.3235,106.217 73.1489,105.042 71.9742,104.259 70.7996,103.084 70.4081,101.91 70.4081,101.127 70.7996,100.735 71.1912,100.343 72.7573,100.735 "/>
   <polygon id="_148690168" class="fil12" points="59.4457,101.127 59.4457,101.127 60.2288,102.301 62.1861,105.434 62.5776,106.608 62.5776,107.782 62.5776,107.782 62.1861,107.782 60.6204,107.391 60.6204,107.391 58.6626,106.217 57.488,104.65 57.0965,103.476 56.7049,101.91 56.7049,101.127 57.488,100.343 58.2711,100.343 59.4457,101.127 "/>
   <polygon id="_148690240" class="fil12" points="72.3658,114.047 72.3658,114.047 73.1489,114.83 74.7151,116.396 75.1066,117.179 75.4981,117.962 75.1066,118.354 73.932,118.354 73.932,118.354 72.7573,118.354 71.5827,117.57 70.7996,116.787 70.4081,115.613 70.0165,114.83 70.4081,114.047 71.1912,114.047 72.3658,114.047 "/>
   <polygon id="_148690312" class="fil12" points="60.2288,83.1168 60.2288,83.1168 63.3607,85.8576 63.7523,86.6402 64.1438,87.4233 63.7523,87.8149 62.5776,87.4233 62.5776,87.4233 60.6204,87.0318 59.4457,85.8576 58.2711,85.0745 57.8796,84.2914 57.488,83.5083 57.8796,83.1168 58.6626,82.7252 60.2288,83.1168 "/>
   <polygon id="_148690384" class="fil12" points="64.9269,70.9798 64.9269,70.9798 65.71,71.7629 67.2762,72.9371 68.0593,73.7202 68.0593,74.5033 67.6677,74.8948 66.4931,74.8948 66.4931,74.8948 64.5354,74.5033 63.3607,74.1117 62.5776,73.3286 62.1861,72.9371 62.1861,72.1544 62.9692,71.7629 63.7523,71.3714 64.9269,70.9798 "/>
   <polygon id="_148690456" class="fil12" points="79.0216,73.3286 79.0216,73.3286 82.9366,74.1117 83.7197,74.5033 84.1112,74.8948 83.3281,75.2863 81.7624,75.2863 81.7624,75.2863 79.8047,75.6779 78.2385,75.2863 77.4554,74.8948 77.0639,74.5033 77.0639,73.7202 77.4554,73.3286 77.847,72.9371 79.0216,73.3286 "/>
   <polygon id="_148691592" class="fil12" points="93.5078,79.5929 93.5078,79.5929 96.6402,82.3337 98.2059,84.2914 98.2059,84.2914 98.2059,84.683 97.0313,84.2914 97.0313,84.2914 93.8994,82.7252 92.3332,81.1591 91.9417,80.376 91.9417,79.9844 92.3332,79.5929 93.5078,79.5929 "/>
   <polygon id="_148691664" class="fil12" points="90.767,117.57 90.767,117.57 89.5928,117.179 87.2436,116.396 86.4605,116.396 85.6774,116.787 85.2859,117.179 86.0689,118.745 86.0689,118.745 86.852,119.92 88.0267,120.703 88.8097,121.094 89.5928,120.703 89.9839,120.311 90.3755,119.528 90.767,117.57 "/>
   <polygon id="_148691736" class="fil14" points="105.645,87.0318 105.645,87.0318 106.819,88.2064 109.169,90.5557 109.952,91.7303 110.343,92.9049 110.343,93.296 109.952,93.6876 108.386,93.6876 108.386,93.6876 106.428,93.296 104.862,92.5134 103.688,90.9472 102.904,89.381 102.513,88.2064 102.904,87.0318 103.296,86.6402 103.688,86.6402 105.645,87.0318 "/>
   <polygon id="_148691832" class="fil14" points="102.513,98.3861 102.513,98.3861 103.296,99.9523 104.47,102.301 104.862,103.867 104.862,104.65 104.47,105.042 104.079,105.434 102.904,105.042 102.904,105.042 101.338,104.259 100.164,102.693 99.7721,101.127 99.7721,99.5607 99.7721,97.9946 100.555,97.2115 100.947,97.2115 101.338,97.603 102.513,98.3861 "/>
   <polygon id="_148691904" class="fil14" points="86.4605,65.1071 86.4605,65.1071 88.0267,65.8897 91.1586,67.4559 92.3332,68.239 93.1163,69.0221 93.5078,69.4136 93.1163,69.8052 91.9417,70.5883 91.9417,70.5883 90.3755,70.5883 88.4182,70.1967 86.852,69.4136 85.2859,68.239 84.5028,67.4559 84.1112,66.2813 84.5028,65.8897 84.8943,65.4982 86.4605,65.1071 "/>
   <polygon id="_148691976" class="fil14" points="91.9417,60.017 91.9417,60.017 96.2486,61.5832 97.4228,62.3663 97.8144,62.7578 97.8144,63.1494 97.8144,63.1494 96.6402,63.5409 96.6402,63.5409 93.1163,62.7578 90.767,61.9747 89.9839,61.1917 89.9839,60.8001 90.3755,60.4086 91.9417,60.017 "/>
   <polygon id="_148692048" class="fil14" points="99.3805,55.3189 99.3805,55.3189 101.73,55.3189 105.253,56.4936 107.211,56.8851 107.994,57.6682 108.386,58.0597 107.994,58.4508 106.428,58.8424 106.428,58.8424 104.47,59.2339 102.121,58.8424 100.555,58.4508 99.3805,57.2767 98.5975,56.4936 98.2059,55.7105 98.5975,55.3189 99.3805,55.3189 "/>
   <polygon id="_148692120" class="fil14" points="103.296,71.7629 103.296,71.7629 104.47,72.5455 107.211,74.8948 107.994,75.6779 108.386,76.8525 108.386,76.8525 107.994,77.2441 106.036,77.2441 106.036,77.2441 103.688,76.8525 102.121,76.0694 100.947,75.2863 100.555,74.1117 100.555,72.9371 100.947,72.1544 101.73,71.7629 103.296,71.7629 "/>
   <polygon id="_148692192" class="fil14" points="106.819,63.9325 106.819,63.9325 111.518,67.0644 112.692,68.239 113.475,69.0221 113.475,69.0221 113.084,69.4136 111.909,69.4136 111.909,69.4136 109.56,68.6305 107.994,67.8475 106.428,67.0644 105.645,66.2813 105.253,65.1071 105.253,64.7155 105.645,63.9325 106.819,63.9325 "/>
   <polygon id="_148692264" class="fil14" points="135.4,56.8851 135.4,56.8851 138.141,60.4086 138.924,62.3663 138.924,62.7578 138.141,62.7578 138.141,62.7578 135.792,60.8001 134.226,58.8424 133.834,58.0597 133.834,57.2767 134.226,56.8851 135.4,56.8851 "/>
   <polygon id="_148692336" class="fil14" points="141.665,70.5883 141.665,70.5883 143.622,74.8948 144.014,76.461 144.405,77.6356 144.014,78.0272 143.231,77.6356 143.231,77.6356 142.056,76.8525 140.882,75.2863 140.49,74.1117 140.099,72.5455 140.099,71.3714 140.099,70.5883 140.882,70.1967 141.665,70.5883 "/>
   <polygon id="_148692408" class="fil14" points="134.226,68.6305 134.226,68.6305 135.4,72.9371 135.792,75.2863 135.4,75.6779 135.009,74.8948 135.009,74.8948 133.051,72.5455 132.268,70.1967 131.876,69.0221 132.268,68.6305 133.051,68.239 134.226,68.6305 "/>
   <polygon id="_148692480" class="fil14" points="122.48,65.4982 122.48,65.4982 124.438,69.0221 124.829,71.3714 124.829,71.3714 123.655,70.9798 123.655,70.9798 121.697,69.0221 120.523,67.4559 120.523,66.6728 120.914,65.8897 121.306,65.4982 122.48,65.4982 "/>
   <polygon id="_148692552" class="fil14" points="115.433,79.9844 115.433,79.9844 116.608,81.1591 119.348,83.5083 120.131,84.683 120.914,85.466 120.914,86.2487 120.914,86.2487 119.74,86.6402 119.74,86.6402 117.782,86.2487 116.216,85.466 115.041,84.2914 113.867,83.1168 113.475,81.9422 113.475,80.7675 113.867,79.9844 115.433,79.9844 "/>
   <polygon id="_148722616" class="fil14" points="114.258,54.9274 114.258,54.9274 116.999,57.6682 117.782,58.4508 118.173,59.2339 118.173,59.6255 117.391,60.017 117.391,60.017 115.825,59.6255 114.65,59.2339 113.475,58.4508 112.692,57.6682 112.301,56.8851 112.301,56.102 112.692,55.3189 114.258,54.9274 "/>
   <polygon id="_148722688" class="fil14" points="122.089,52.5781 122.089,52.5781 123.263,53.3612 126.004,54.9274 127.178,56.102 127.57,56.8851 127.57,57.2767 127.57,57.6682 126.395,57.6682 126.395,57.6682 124.829,57.2767 122.872,56.4936 121.697,55.3189 120.523,54.1443 120.131,52.9697 120.131,52.1866 120.914,52.1866 122.089,52.5781 "/>
   <polygon id="_148722760" class="fil14" points="124.047,79.2013 124.047,79.2013 125.221,80.376 126.787,82.3337 127.57,83.5083 127.962,84.683 127.57,85.0745 126.787,85.466 126.787,85.466 125.221,85.0745 124.047,83.8999 122.872,82.7252 122.48,81.1591 122.089,79.9844 122.48,79.2013 122.872,78.8102 124.047,79.2013 "/>
   <polygon id="_148722832" class="fil14" points="86.4605,88.9895 86.4605,88.9895 89.2013,92.1218 90.767,94.0791 90.767,94.8622 90.3755,95.2538 90.3755,95.2538 89.2013,94.8622 87.6351,94.0791 85.2859,91.7303 84.5028,90.5557 84.5028,89.7726 84.5028,89.381 84.8943,88.9895 86.4605,88.9895 "/>
   <polygon id="_148722904" class="fil14" points="84.5028,99.5607 84.5028,99.5607 85.2859,100.735 87.2436,102.693 87.6351,103.867 87.6351,104.65 87.2436,105.042 85.6774,104.65 85.6774,104.65 83.7197,103.867 82.5455,103.084 81.7624,101.91 81.3709,100.343 81.3709,99.5607 82.1539,98.7777 82.9366,98.7777 84.5028,99.5607 "/>
   <polygon id="_148722976" class="fil14" points="73.5404,81.9422 73.5404,81.9422 74.3235,83.1168 75.8892,86.2487 76.2808,87.4233 76.6723,88.598 76.2808,88.598 75.8892,88.598 74.3235,87.8149 74.3235,87.8149 72.7573,86.2487 71.5827,85.0745 70.7996,83.5083 70.7996,82.3337 70.7996,81.5506 71.5827,81.1591 72.3658,81.1591 73.5404,81.9422 "/>
   <polygon id="_148723048" class="fil14" points="42.6102,124.618 42.6102,124.618 45.351,128.533 46.1341,129.707 46.1341,130.491 46.1341,130.491 45.7426,130.491 44.5679,130.099 44.5679,130.099 43.0018,128.924 41.8271,127.75 41.0445,126.576 40.6529,125.792 40.6529,125.009 41.0445,124.618 41.4356,124.226 42.6102,124.618 "/>
   <polygon id="_148723120" class="fil14" points="52.0068,125.792 52.0068,125.792 55.1387,130.099 55.5303,131.274 55.9218,132.057 55.5303,132.057 55.5303,132.057 53.9646,131.665 53.9646,131.665 52.3984,130.099 51.2237,128.924 50.4407,127.75 50.4407,126.967 50.4407,126.184 50.8322,125.792 51.2237,125.792 52.0068,125.792 "/>
   <polygon id="_148723192" class="fil14" points="68.0593,125.792 68.0593,125.792 68.8423,127.359 70.7996,130.099 71.1912,131.665 71.5827,132.448 71.1912,132.84 70.7996,132.84 69.625,132.057 69.625,132.057 67.6677,130.882 66.4931,129.316 65.71,128.141 65.3184,126.967 65.3184,125.792 65.71,125.401 66.4931,125.401 68.0593,125.792 "/>
   <polygon id="_148723264" class="fil14" points="71.1912,100.735 71.1912,100.735 73.5404,104.259 74.3235,105.434 74.3235,106.217 74.3235,106.608 73.932,106.608 72.7573,106.217 72.7573,106.217 71.5827,105.042 70.4081,104.259 69.625,103.084 68.8423,101.91 68.8423,101.127 69.2334,100.735 70.0165,100.343 71.1912,100.735 "/>
   <polygon id="_148723336" class="fil14" points="57.8796,101.127 57.8796,101.127 59.0542,102.301 60.6204,105.434 61.0119,106.608 61.4034,107.782 61.0119,107.782 60.6204,107.782 59.0542,107.391 59.0542,107.391 57.488,106.217 56.3134,104.65 55.5303,103.476 55.1387,101.91 55.5303,101.127 55.9218,100.343 56.7049,100.343 57.8796,101.127 "/>
   <polygon id="_148723408" class="fil14" points="71.1912,114.047 71.1912,114.047 71.9742,114.83 73.1489,116.396 73.932,117.179 73.932,117.962 73.5404,118.354 72.7573,118.354 72.7573,118.354 71.1912,118.354 70.0165,117.57 69.2334,116.787 68.8423,115.613 68.8423,114.83 69.2334,114.047 69.625,114.047 71.1912,114.047 "/>
   <polygon id="_148723480" class="fil14" points="58.6626,83.1168 58.6626,83.1168 61.795,85.8576 62.5776,86.6402 62.5776,87.4233 62.1861,87.8149 61.0119,87.4233 61.0119,87.4233 59.0542,87.0318 57.8796,85.8576 56.7049,85.0745 56.3134,84.2914 56.3134,83.5083 56.3134,83.1168 57.0965,82.7252 58.6626,83.1168 "/>
   <polygon id="_148724616" class="fil14" points="63.3607,70.9798 63.3607,70.9798 64.1438,71.7629 66.1015,72.9371 66.4931,73.7202 66.8846,74.5033 66.1015,74.8948 64.9269,74.8948 64.9269,74.8948 63.3607,74.5033 61.795,74.1117 61.0119,73.3286 61.0119,72.9371 61.0119,72.1544 61.4034,71.7629 62.1861,71.3714 63.3607,70.9798 "/>
   <polygon id="_148724688" class="fil14" points="77.4554,73.3286 77.4554,73.3286 81.3709,74.1117 82.1539,74.5033 82.5455,74.8948 82.1539,75.2863 80.1962,75.2863 80.1962,75.2863 78.2385,75.6779 76.6723,75.2863 75.8892,74.8948 75.4981,74.5033 75.4981,73.7202 75.8892,73.3286 76.6723,72.9371 77.4554,73.3286 "/>
   <polygon id="_148724760" class="fil14" points="91.9417,79.5929 91.9417,79.5929 95.4656,82.3337 96.6402,84.2914 96.6402,84.2914 96.6402,84.683 95.4656,84.2914 95.4656,84.2914 92.7247,82.7252 90.767,81.1591 90.3755,80.376 90.3755,79.9844 90.767,79.5929 91.9417,79.5929 "/>
   <polygon id="_148724832" class="fil14" points="55.5303,115.221 55.5303,115.221 57.8796,117.962 58.2711,119.137 58.6626,119.92 58.2711,120.311 57.0965,119.92 57.0965,119.92 55.9218,119.528 54.7476,118.354 53.9646,117.57 53.1815,116.396 53.1815,115.613 53.573,114.83 54.3561,114.83 55.5303,115.221 "/>
   <polygon id="_148724904" class="fil14" points="42.2187,109.349 42.2187,109.349 44.5679,114.047 44.9595,115.221 45.351,116.396 44.9595,116.396 44.5679,116.396 43.3933,116.004 43.3933,116.004 42.2187,114.438 41.0445,112.872 40.2614,111.698 39.8699,110.523 39.8699,109.349 40.2614,108.957 41.0445,108.957 42.2187,109.349 "/>
   <polygon id="_148724976" class="fil14" points="45.7426,93.296 45.7426,93.296 47.3088,98.3861 47.7003,99.9523 48.0914,101.127 47.7003,101.518 47.7003,101.518 46.5257,101.127 46.5257,101.127 45.351,99.5607 44.5679,97.9946 44.1764,96.0368 43.7849,94.4707 44.1764,92.9049 44.5679,92.1218 44.5679,92.1218 44.9595,92.1218 45.7426,93.296 "/>
   <polygon id="_148725048" class="fil14" points="89.2013,117.57 89.2013,117.57 88.0267,117.179 86.0689,116.396 84.8943,116.396 84.1112,116.787 84.1112,117.179 84.5028,118.745 84.5028,118.745 85.6774,119.92 86.4605,120.703 87.2436,121.094 88.0267,120.703 88.4182,120.311 88.8097,119.528 89.2013,117.57 "/>
   <polygon id="_148725120" class="fil14" points="42.2187,134.406 42.2187,134.406 44.9595,138.713 46.5257,141.062 46.1341,141.453 45.351,141.453 45.351,141.453 44.1764,140.279 42.6102,139.104 40.6529,136.755 40.2614,135.58 40.2614,134.797 41.0445,134.406 42.2187,134.406 "/>
   <polygon id="_148725192" class="fil15" points="108.777,65.4982 108.777,65.4982 111.518,67.0644 112.301,67.4559 112.692,68.239 112.301,68.6305 111.518,69.0221 111.518,69.0221 110.343,69.4136 109.169,69.0221 107.994,68.239 107.603,67.4559 107.211,66.6728 107.211,65.8897 107.603,65.4982 108.777,65.4982 "/>
   <polygon id="_148725288" class="fil15" points="103.688,73.3286 103.688,73.3286 106.036,74.8948 106.428,75.2863 106.819,76.0694 106.819,76.461 106.036,76.8525 106.036,76.8525 104.862,76.8525 103.688,76.461 102.904,76.0694 102.513,74.8948 102.121,74.1117 102.121,73.7202 102.513,73.3286 103.688,73.3286 "/>
   <polygon id="_148725360" class="fil15" points="88.0267,66.2813 88.0267,66.2813 90.767,67.8475 91.9417,69.0221 91.9417,69.4136 91.1586,69.8052 91.1586,69.8052 90.3755,69.8052 89.2013,69.8052 88.0267,69.0221 87.2436,68.6305 86.4605,67.8475 86.4605,67.0644 86.852,66.6728 88.0267,66.2813 "/>
   <polygon id="_148725432" class="fil15" points="92.7247,60.8001 92.7247,60.8001 95.4656,61.9747 96.6402,62.7578 96.6402,63.1494 95.8571,63.1494 95.8571,63.1494 93.5078,62.7578 91.9417,61.9747 91.5501,61.5832 91.5501,61.5832 91.9417,61.1917 92.7247,60.8001 "/>
   <polygon id="_148725504" class="fil15" points="101.73,56.102 101.73,56.102 105.253,56.8851 106.819,57.6682 106.819,58.0597 106.036,58.4508 106.036,58.4508 104.47,58.4508 103.296,58.4508 102.121,58.0597 101.338,57.6682 100.947,56.8851 100.555,56.4936 100.947,56.102 101.73,56.102 "/>
   <polygon id="_148725576" class="fil15" points="114.65,55.3189 114.65,55.3189 116.999,57.2767 117.391,58.0597 117.782,58.4508 117.391,58.8424 116.216,58.8424 116.216,58.8424 114.65,58.8424 113.867,58.0597 113.084,57.2767 112.692,56.8851 112.692,56.102 113.084,55.3189 113.475,55.3189 114.65,55.3189 "/>
   <polygon id="_148730528" class="fil15" points="123.263,53.7528 123.263,53.7528 126.004,55.7105 127.57,56.8851 127.178,56.8851 126.395,56.8851 126.395,56.8851 124.047,56.102 122.48,54.9274 122.48,54.5358 122.089,53.7528 122.48,53.7528 123.263,53.7528 "/>
   <polygon id="_148730600" class="fil15" points="136.184,58.8424 136.184,58.8424 138.141,61.1917 138.532,62.3663 138.532,62.7578 138.141,62.7578 138.141,62.7578 136.575,61.5832 135.792,60.017 135.4,59.2339 135.792,58.8424 136.184,58.8424 "/>
   <polygon id="_148730672" class="fil15" points="141.665,72.1544 141.665,72.1544 142.839,75.2863 143.622,76.8525 143.231,77.2441 142.839,76.8525 142.839,76.8525 142.056,76.0694 141.273,75.2863 140.882,73.7202 140.882,72.1544 141.273,72.1544 141.665,72.1544 "/>
   <polygon id="_148730744" class="fil15" points="133.834,69.8052 133.834,69.8052 134.617,72.5455 135.009,74.1117 134.617,74.5033 134.226,74.1117 134.226,74.1117 133.443,72.5455 132.66,70.9798 132.66,70.1967 132.66,69.8052 133.051,69.8052 133.834,69.8052 "/>
   <polygon id="_148730816" class="fil15" points="122.872,66.6728 122.872,66.6728 123.655,69.0221 124.047,70.5883 124.047,70.5883 123.655,70.1967 123.655,70.1967 122.089,69.0221 121.306,67.8475 121.306,67.4559 121.697,67.0644 122.872,66.6728 "/>
   <polygon id="_148730888" class="fil15" points="124.047,80.376 124.047,80.376 126.787,82.7252 127.57,84.2914 127.57,84.683 126.787,85.0745 126.787,85.0745 125.612,84.683 124.829,84.2914 123.263,82.7252 122.872,81.9422 122.872,81.1591 123.263,80.7675 124.047,80.376 "/>
   <polygon id="_148730960" class="fil15" points="116.608,82.7252 116.608,82.7252 118.565,84.2914 119.348,85.466 118.956,85.8576 118.565,85.8576 118.565,85.8576 116.999,85.466 115.825,84.2914 115.433,83.8999 115.433,83.5083 115.825,83.1168 116.608,82.7252 "/>
   <polygon id="_148731032" class="fil15" points="106.036,88.9895 106.036,88.9895 108.777,90.9472 109.56,92.1218 109.56,92.5134 108.777,92.5134 108.777,92.5134 107.603,92.1218 106.819,91.7303 105.253,90.1641 104.862,89.381 104.862,88.9895 105.253,88.9895 106.036,88.9895 "/>
   <polygon id="_148731104" class="fil15" points="102.121,99.5607 102.121,99.5607 104.079,101.91 104.47,103.084 104.079,103.476 103.688,103.867 103.688,103.867 102.513,103.476 101.73,102.693 101.338,100.735 100.947,99.9523 101.338,99.5607 101.73,99.1692 102.121,99.5607 "/>
   <polygon id="_148731176" class="fil15" points="86.852,90.1641 86.852,90.1641 88.8097,92.1218 89.5928,93.6876 89.9839,94.0791 89.5928,94.0791 89.5928,94.0791 88.8097,94.0791 88.0267,93.296 86.4605,92.1218 86.0689,91.3388 85.6774,90.5557 86.0689,90.1641 86.852,90.1641 "/>
   <polygon id="_148731248" class="fil15" points="84.8943,101.127 84.8943,101.127 86.4605,103.084 86.852,103.867 86.852,104.259 86.4605,104.65 85.6774,104.259 85.6774,104.259 84.5028,103.867 83.7197,103.084 82.9366,102.301 82.9366,101.518 82.9366,101.127 83.3281,100.735 83.7197,100.735 84.8943,101.127 "/>
   <polygon id="_148731320" class="fil15" points="72.3658,101.518 72.3658,101.518 73.932,104.259 74.3235,105.042 74.3235,105.825 73.932,105.825 72.7573,105.434 72.7573,105.434 71.9742,104.259 71.1912,103.476 70.7996,102.693 70.7996,101.91 70.7996,101.518 71.1912,101.127 71.5827,101.127 72.3658,101.518 "/>
   <polygon id="_148731392" class="fil16" points="42.6102,125.792 42.6102,125.792 44.5679,128.141 44.9595,129.316 44.5679,129.707 43.7849,129.316 43.7849,129.316 42.2187,127.75 41.4356,126.576 41.4356,125.792 41.8271,125.792 42.2187,125.401 42.6102,125.792 "/>
   <polygon id="_148745928" class="fil16" points="53.9646,128.141 53.9646,128.141 55.5303,130.882 56.3134,132.448 55.9218,132.448 55.1387,132.057 55.1387,132.057 53.1815,130.491 52.7899,128.924 52.7899,128.533 53.1815,128.141 53.573,128.141 53.9646,128.141 "/>
   <polygon id="_148746000" class="fil16" points="68.0593,127.359 68.0593,127.359 69.625,130.099 70.0165,131.665 70.0165,132.057 68.8423,131.274 68.8423,131.274 67.2762,129.707 66.1015,128.141 66.1015,127.359 66.4931,126.967 67.2762,126.967 68.0593,127.359 "/>
   <polygon id="_148746072" class="fil15" points="70.7996,115.221 70.7996,115.221 72.7573,117.179 73.932,117.962 73.5404,118.354 72.7573,118.354 72.7573,118.354 70.7996,117.57 69.625,116.787 69.2334,116.004 69.625,115.613 70.0165,115.613 70.7996,115.221 "/>
   <polygon id="_148746144" class="fil15" points="57.8796,102.693 57.8796,102.693 59.8373,105.434 59.8373,106.217 60.2288,106.999 59.8373,107.391 58.6626,106.999 58.6626,106.999 57.488,106.217 56.7049,105.042 56.3134,104.259 56.3134,103.476 56.3134,102.693 56.7049,102.301 57.0965,102.301 57.8796,102.693 "/>
   <polygon id="_148746216" class="fil15" points="73.932,84.2914 73.932,84.2914 75.1066,85.8576 75.4981,86.6402 75.4981,87.0318 74.7151,87.0318 74.7151,87.0318 73.932,87.0318 73.1489,86.6402 72.3658,85.466 72.3658,84.683 72.7573,84.2914 73.1489,84.2914 73.932,84.2914 "/>
   <polygon id="_148746288" class="fil15" points="59.4457,84.2914 59.4457,84.2914 61.4034,86.2487 62.1861,87.4233 61.795,87.4233 61.0119,87.4233 61.0119,87.4233 59.0542,86.2487 57.8796,85.466 57.8796,84.683 58.2711,84.2914 58.6626,84.2914 59.4457,84.2914 "/>
   <polygon id="_148746360" class="fil15" points="64.5354,71.7629 64.5354,71.7629 66.1015,72.9371 66.4931,73.7202 66.4931,74.1117 66.1015,74.1117 65.3184,74.1117 65.3184,74.1117 63.3607,73.7202 62.9692,73.3286 62.9692,72.9371 62.9692,72.5455 62.9692,72.1544 64.5354,71.7629 "/>
   <polygon id="_148746432" class="fil15" points="78.6301,74.1117 78.6301,74.1117 80.9793,74.5033 81.7624,74.8948 81.3709,75.2863 80.5878,75.2863 80.5878,75.2863 79.0216,75.6779 78.2385,75.2863 77.4554,74.8948 77.4554,74.8948 77.4554,74.5033 77.4554,74.1117 78.2385,74.1117 78.6301,74.1117 "/>
   <polygon id="_148746504" class="fil15" points="93.1163,81.1591 93.1163,81.1591 95.074,83.1168 95.8571,84.2914 95.8571,84.2914 95.074,84.2914 95.074,84.2914 93.5078,83.1168 92.3332,82.3337 91.9417,81.1591 92.3332,81.1591 93.1163,81.1591 "/>
   <polygon id="_148746576" class="fil16" points="55.5303,116.004 55.5303,116.004 57.0965,117.57 57.488,118.745 57.0965,119.137 56.7049,119.137 56.7049,119.137 55.5303,118.745 55.1387,117.962 54.3561,116.787 54.3561,116.004 54.3561,115.613 54.7476,115.613 55.5303,116.004 "/>
   <polygon id="_148746648" class="fil16" points="43.0018,111.306 43.0018,111.306 44.5679,114.438 44.9595,116.004 44.5679,116.004 43.7849,115.613 43.7849,115.613 42.2187,113.655 41.4356,112.089 41.4356,111.306 41.8271,110.915 42.2187,110.915 43.0018,111.306 "/>
   <polygon id="_148746720" class="fil16" points="45.7426,94.8622 45.7426,94.8622 46.5257,97.9946 46.9172,99.9523 46.5257,99.9523 46.1341,99.9523 46.1341,99.9523 45.351,98.7777 44.9595,97.603 44.5679,95.6453 44.9595,94.0791 44.9595,94.0791 45.7426,94.8622 "/>
   <polygon id="_148746792" class="fil15" points="88.8097,117.57 88.8097,117.57 86.4605,116.787 86.0689,116.787 85.6774,116.787 85.2859,117.57 85.6774,118.354 85.6774,118.354 86.852,119.528 87.2436,119.92 88.0267,119.528 88.4182,118.745 88.8097,117.57 "/>
   <polygon id="_148746864" class="fil16" points="43.3933,136.363 43.3933,136.363 45.351,139.104 46.1341,140.67 45.7426,140.67 45.351,140.67 45.351,140.67 43.7849,139.496 42.6102,137.929 42.2187,137.146 42.2187,136.363 42.6102,136.363 43.3933,136.363 "/>
   <polygon id="_149803416" class="fil17" points="44.9595,149.675 44.9595,149.675 46.1341,149.283 49.266,148.109 54.3561,145.76 57.488,144.194 60.6204,142.236 60.6204,142.236 78.6301,129.316 87.6351,122.66 94.6825,117.179 94.6825,117.179 99.3805,113.264 104.47,108.565 109.952,103.476 116.608,99.1692 116.608,99.1692 123.263,94.8622 129.919,91.3388 135.792,88.2064 138.532,86.6402 140.882,85.0745 140.882,85.0745 147.146,79.9844 149.887,77.6356 150.67,76.8525 151.453,76.0694 151.453,76.0694 152.236,76.8525 154.976,78.8102 157.717,81.9422 159.283,83.8999 160.066,85.8576 160.066,85.8576 169.071,107.391 174.944,121.094 176.901,126.967 178.468,131.274 178.468,131.274 183.557,148.892 187.081,160.246 189.821,171.6 189.821,171.6 190.213,174.341 190.605,178.647 190.605,184.129 190.213,190.002 189.43,192.742 188.647,195.874 187.472,198.615 186.298,200.964 184.732,203.313 182.382,205.271 180.034,206.837 177.293,208.011 177.293,208.011 176.118,208.403 174.944,209.186 174.161,210.361 173.378,211.535 172.986,214.667 172.595,218.191 173.378,222.106 173.769,226.804 176.118,236.201 177.685,245.597 178.468,249.904 178.468,253.427 177.685,256.951 177.293,258.126 176.51,259.301 175.727,260.475 174.552,261.258 172.986,261.649 171.42,262.041 171.42,262.041 169.463,261.649 167.896,260.866 166.722,259.692 165.939,258.126 165.548,256.168 165.156,253.427 164.764,247.946 165.156,233.851 165.156,226.804 164.373,219.757 164.373,219.757 163.981,221.323 163.198,222.889 161.632,224.455 160.066,225.238 160.066,225.238 158.109,226.021 156.542,226.413 155.368,226.413 154.193,226.021 153.41,225.63 153.019,225.238 152.236,223.672 152.236,223.672 151.061,220.931 150.278,218.191 149.104,211.535 147.929,208.011 145.971,205.271 144.797,203.705 143.231,202.139 141.665,200.964 139.315,199.789 139.315,199.789 127.57,195.874 113.084,190.393 95.074,182.954 73.5404,173.166 73.5404,173.166 71.1912,171.6 61.0119,165.336 61.0119,165.336 53.9646,161.029 50.8322,158.68 48.4829,156.722 46.5257,154.765 45.351,152.807 44.5679,151.241 44.9595,149.675 "/>
   <polygon id="_149803512" class="fil18" points="113.867,184.52 113.867,184.52 103.688,180.214 93.5078,175.515 81.7624,170.034 70.4081,164.161 65.3184,161.421 61.0119,158.68 57.488,155.939 54.7476,153.59 53.9646,152.416 53.573,151.241 53.1815,150.458 53.573,149.675 53.573,149.675 57.488,148.109 60.6204,146.543 64.1438,144.585 64.1438,144.585 67.6677,141.844 71.1912,138.713 72.3658,137.929 73.5404,137.538 74.3235,137.929 74.7151,138.321 75.1066,140.279 75.1066,140.279 75.4981,142.628 76.6723,144.585 78.2385,146.151 79.8047,147.326 81.7624,148.892 83.3281,150.458 84.8943,152.416 85.6774,154.765 85.6774,154.765 86.0689,156.331 86.852,157.505 89.2013,160.246 92.3332,162.595 95.8571,164.944 103.296,168.86 109.169,171.992 109.169,171.992 125.612,181.388 138.141,188.044 147.146,191.959 153.41,193.917 160.066,195.874 162.024,197.049 163.59,199.006 163.59,199.006 163.59,199.398 162.807,199.789 159.674,199.789 154.193,199.006 147.537,197.44 139.707,195.091 131.094,192.35 122.48,188.827 113.867,184.52 "/>
   <polygon id="_149803608" class="fil19" points="95.8571,120.311 95.8571,120.311 105.253,112.481 113.867,105.042 117.782,102.301 121.306,100.343 123.655,99.5607 124.438,99.5607 125.221,99.9523 125.221,99.9523 126.787,101.91 127.57,104.259 128.353,108.565 129.136,110.915 130.311,112.872 131.876,114.83 134.226,116.396 134.226,116.396 136.967,118.354 138.924,120.311 139.707,122.66 140.099,125.009 140.099,127.359 139.707,130.491 139.315,136.363 139.315,136.363 139.315,137.929 139.707,139.496 140.49,140.67 141.273,141.453 143.622,143.411 145.971,144.977 148.32,146.543 150.67,148.501 151.453,149.675 151.844,151.241 151.844,152.807 151.844,154.373 151.844,154.373 151.844,156.722 152.627,158.68 153.802,161.421 155.759,163.77 160.066,169.251 165.156,174.732 170.637,180.214 174.944,185.303 176.51,187.261 178.076,189.219 178.468,191.176 178.859,192.35 178.859,192.35 178.076,194.7 177.293,196.266 176.118,197.049 174.552,197.832 172.986,197.44 171.029,197.049 165.939,194.308 165.939,194.308 162.415,192.742 158.109,190.784 147.929,186.869 143.231,184.52 141.665,183.346 140.099,181.78 138.924,180.605 138.141,179.43 138.141,177.864 138.924,176.299 138.924,176.299 139.315,175.124 139.315,173.949 138.532,172.775 137.358,171.6 133.834,169.642 129.528,167.685 125.221,165.727 123.263,164.944 121.697,163.77 120.523,162.595 120.131,161.029 120.131,159.463 120.914,157.897 120.914,157.897 121.306,157.114 121.306,156.331 120.914,155.548 120.131,154.765 118.173,153.59 115.433,152.024 107.603,150.066 98.2059,147.718 89.2013,145.368 85.2859,143.802 81.7624,142.236 79.0216,140.67 77.0639,139.104 76.6723,137.929 76.2808,136.755 76.6723,135.58 77.0639,134.406 77.0639,134.406 78.2385,133.231 79.8047,132.057 84.1112,128.924 89.9839,125.009 92.7247,123.052 95.8571,120.311 "/>
   <polygon id="_149803704" class="fil20" points="115.041,122.269 115.041,122.269 115.433,124.226 116.216,125.792 117.391,126.967 118.565,127.75 120.523,129.316 121.306,130.491 121.306,131.274 121.306,131.274 121.697,132.057 122.089,132.84 123.263,134.014 127.178,137.538 129.528,139.496 131.094,141.062 132.268,143.019 132.66,144.194 132.66,144.977 132.66,144.977 132.66,146.543 133.051,147.718 133.834,148.501 134.617,148.892 135.009,149.283 135.4,149.675 135.009,150.066 133.834,150.849 133.834,150.849 132.268,151.633 131.094,152.024 129.528,152.024 128.353,151.633 127.57,150.849 126.787,149.675 126.004,148.501 126.004,146.543 126.004,146.543 125.612,144.977 125.221,143.802 124.438,142.628 123.263,141.844 120.523,140.67 117.782,139.887 117.782,139.887 113.084,137.929 109.56,136.363 107.211,134.406 105.645,132.448 104.862,130.491 104.47,128.924 105.253,126.967 106.036,125.792 107.211,124.226 108.777,123.052 110.343,122.269 111.518,121.485 113.084,121.094 114.258,121.094 115.041,121.485 115.041,122.269 "/>
   <polygon id="_149803800" class="fil20" points="144.797,160.246 144.797,160.246 145.971,161.029 149.104,162.986 150.278,164.553 151.453,165.727 151.844,167.685 151.844,168.468 151.453,169.251 151.453,169.251 150.67,170.425 149.495,171.6 148.712,171.992 147.537,171.992 146.754,171.6 146.363,171.208 145.58,170.425 145.58,169.251 145.58,169.251 145.189,167.685 144.405,166.51 141.665,164.161 141.273,162.986 140.882,162.595 141.273,162.204 142.056,161.029 144.797,160.246 "/>
   <polygon id="_149803872" class="fil21" points="180.816,177.864 180.816,177.864 181.6,178.647 183.166,180.214 183.949,180.605 184.732,180.605 185.515,179.822 185.515,178.256 185.515,178.256 185.515,174.341 184.732,168.86 183.166,161.029 180.425,149.675 180.425,149.675 175.727,135.58 171.029,121.877 168.679,116.787 167.113,113.264 166.33,112.481 165.939,112.089 165.548,112.089 165.548,113.264 165.548,113.264 165.939,116.787 167.505,121.485 171.029,133.231 174.944,145.76 176.51,151.633 177.293,155.939 177.293,155.939 178.468,164.553 179.642,172.775 180.425,177.864 180.816,178.647 180.816,177.864 "/>
   <polygon id="_149803968" class="fil9" points="75.4981,45.9223 75.4981,45.9223 75.1066,43.5735 74.3235,41.6158 73.5404,40.8327 72.7573,40.0496 72.7573,40.0496 69.625,38.0919 65.3184,34.96 62.9692,33.7854 61.0119,33.0023 60.2288,33.0023 59.4457,33.0023 59.0542,33.3938 58.6626,33.7854 58.6626,33.7854 55.5303,43.5735 55.5303,43.5735 57.488,41.6158 60.6204,38.0919 60.6204,38.0919 61.4034,37.3092 62.1861,37.3092 63.7523,37.3092 64.9269,38.0919 67.6677,39.6581 69.625,41.2242 69.625,41.2242 72.7573,43.182 74.3235,44.7477 75.4981,45.9223 "/>
   <polygon id="_149804040" class="fil22" points="80.1962,34.5684 80.1962,34.5684 79.4131,34.1769 78.6301,33.3938 78.2385,32.6107 77.847,32.2192 78.2385,31.4361 79.0216,30.653 79.0216,30.653 81.3709,29.0873 82.1539,28.3042 83.7197,27.9126 85.2859,27.9126 87.2436,28.6957 89.9839,30.653 93.1163,33.7854 93.1163,33.7854 92.3332,33.0023 89.9839,31.0445 88.8097,30.2619 87.2436,29.8704 85.2859,29.4788 83.3281,29.4788 83.3281,29.4788 82.5455,29.8704 81.7624,30.653 81.3709,32.6107 81.3709,34.1769 80.9793,34.5684 80.1962,34.5684 "/>
   <polygon id="_149804136" class="fil22" points="53.573,61.9747 53.573,61.9747 52.0068,60.8001 48.4829,58.0597 43.7849,54.9274 41.4356,53.7528 39.4783,52.9697 39.4783,52.9697 35.1713,51.795 31.2563,50.6209 27.3409,49.4462 27.3409,49.4462 31.6479,51.795 35.5629,53.7528 39.4783,55.3189 39.4783,55.3189 43.3933,57.2767 48.4829,60.017 52.3984,61.9747 53.573,62.3663 53.573,62.3663 53.573,61.9747 "/>
   <polygon id="_149804208" class="fil22" points="36.7375,65.1071 36.7375,65.1071 34.7798,64.324 32.8225,63.9325 31.2563,63.5409 31.2563,63.5409 28.9071,63.9325 24.9921,65.1071 23.0344,66.2813 21.0766,67.0644 19.5109,68.239 18.3363,69.8052 18.3363,69.8052 19.9025,68.6305 24.209,66.6728 26.9498,65.8897 30.0817,65.1071 33.2141,64.7155 36.7375,65.1071 "/>
   <polygon id="_149804280" class="fil9" points="40.6529,80.7675 40.6529,80.7675 40.6529,81.5506 40.6529,82.7252 41.0445,83.1168 41.8271,83.1168 43.3933,82.3337 44.9595,80.7675 44.9595,80.7675 49.266,76.461 53.573,72.5455 55.5303,70.5883 57.8796,69.0221 60.2288,67.8475 62.9692,66.6728 62.9692,66.6728 64.9269,66.2813 65.3184,65.8897 64.5354,65.8897 62.5776,65.8897 60.2288,66.2813 57.8796,67.0644 55.1387,68.239 53.1815,69.8052 53.1815,69.8052 50.0491,72.1544 46.9172,74.1117 44.1764,76.461 42.6102,78.4187 40.6529,80.7675 "/>
   <polygon id="_148915544" class="fil9" points="90.767,50.2293 90.767,50.2293 89.5928,52.1866 88.4182,54.5358 86.0689,56.102 86.0689,56.102 83.7197,58.4508 80.5878,61.1917 78.2385,62.3663 75.4981,63.5409 71.9742,65.1071 67.6677,65.8897 67.6677,65.8897 71.5827,64.7155 75.1066,63.1494 76.2808,62.3663 77.4554,61.1917 77.4554,61.1917 80.5878,58.0597 85.2859,53.7528 89.2013,50.2293 90.3755,49.4462 90.767,49.8378 90.767,50.2293 "/>
   <polygon id="_148915616" class="fil2" points="37.1291,90.9472 37.1291,90.9472 37.9121,88.9895 39.0868,87.4233 40.6529,85.8576 40.6529,85.8576 45.7426,81.9422 48.8745,79.5929 51.6153,77.2441 51.6153,77.2441 53.1815,75.2863 54.7476,72.5455 55.5303,71.3714 57.0965,70.1967 58.6626,69.0221 61.0119,68.239 61.0119,68.239 70.7996,65.4982 75.1066,64.324 77.0639,63.1494 79.0216,61.9747 79.0216,61.9747 84.5028,57.6682 88.0267,54.1443 88.0267,54.1443 89.5928,52.5781 90.767,50.6209 92.3332,49.0547 93.1163,48.6631 94.2909,48.2716 94.2909,48.2716 97.4228,47.88 98.5975,48.2716 99.7721,48.2716 100.555,49.0547 100.555,49.8378 99.7721,51.0124 98.2059,52.5781 98.2059,52.5781 93.8994,56.102 91.5501,57.6682 88.8097,59.6255 85.6774,61.5832 81.7624,63.1494 77.0639,65.1071 71.5827,66.6728 71.5827,66.6728 68.8423,67.4559 66.1015,68.6305 61.4034,70.9798 57.0965,74.1117 53.9646,76.461 53.9646,76.461 45.351,83.5083 40.2614,87.8149 38.3037,89.7726 37.1291,90.9472 "/>
   <polygon id="_148915688" class="fil13" points="122.872,48.2716 122.872,48.2716 125.612,49.8378 128.353,51.4035 132.268,53.7528 136.967,57.6682 141.665,62.3663 146.754,68.239 149.104,71.7629 151.844,75.6779 151.844,75.6779 147.146,79.9844 147.146,79.9844 147.146,79.5929 147.146,78.0272 146.754,75.6779 145.58,72.1544 142.839,67.8475 140.882,65.1071 138.532,62.3663 135.4,59.2339 131.876,55.7105 127.57,52.1866 122.872,48.2716 "/>
   <polygon id="_148915760" class="fil23" points="158.109,112.089 158.109,112.089 158.109,113.655 158.5,114.83 160.066,117.179 162.024,119.528 163.59,121.485 163.59,121.485 163.981,123.443 164.373,125.401 164.373,129.316 164.373,129.316 164.764,132.057 165.548,134.406 166.33,136.363 167.505,138.713 167.505,138.713 170.637,144.585 172.203,148.501 173.769,152.416 174.552,156.331 174.944,158.288 174.552,159.855 173.769,161.029 172.986,162.204 171.42,162.986 169.854,163.77 169.854,163.77 167.896,163.77 166.33,163.378 165.156,162.986 164.373,162.204 163.59,161.029 163.198,159.855 162.807,156.722 162.807,150.066 162.807,146.935 162.024,144.194 162.024,144.194 160.849,141.844 159.674,139.887 158.5,137.929 157.326,135.58 157.326,135.58 157.326,134.014 157.326,132.448 158.109,129.316 158.109,129.316 158.5,126.967 158.109,125.009 156.934,122.66 155.759,120.703 155.759,120.703 153.41,117.57 153.019,116.004 152.627,114.047 152.627,114.047 153.019,112.872 153.802,111.698 154.976,111.306 156.151,111.698 "/>
   <polygon id="_148915856" class="fil23" points="147.537,97.2115 147.537,97.2115 149.495,96.8199 150.67,96.8199 151.844,97.2115 152.627,97.9946 153.41,99.1692 153.41,99.9523 153.019,101.127 152.236,101.91 152.236,101.91 151.061,102.693 149.887,103.084 149.104,103.084 148.32,102.693 147.537,102.301 147.146,101.518 146.754,100.343 146.754,99.1692 146.754,99.1692 147.146,97.9946 147.537,97.2115 "/>
   <polygon id="_148915928" class="fil24" points="149.495,205.662 149.495,205.662 150.67,206.837 151.453,208.403 151.844,210.361 151.844,212.318 151.844,216.233 151.844,218.191 152.236,219.757 152.236,219.757 153.019,221.323 154.193,222.106 155.759,222.889 157.326,222.889 158.892,222.498 160.066,221.715 160.849,220.54 161.241,218.974 161.241,218.974 160.849,217.8 160.457,217.016 158.5,215.45 158.5,215.45 157.717,214.667 157.326,213.493 157.326,210.752 157.326,210.752 156.934,209.969 156.151,208.794 155.368,208.011 154.585,207.228 154.585,207.228 153.019,206.445 151.453,206.054 "/>
   <polygon id="_148916024" class="fil24" points="167.113,225.63 167.113,225.63 167.505,228.762 167.896,231.894 167.896,238.55 167.505,244.814 167.896,251.47 167.896,251.47 168.288,253.427 168.679,255.385 169.854,257.343 170.637,258.126 171.42,258.517 171.42,258.517 172.986,258.909 174.944,258.126 175.335,257.734 175.727,256.951 176.118,256.168 176.118,255.385 176.118,255.385 175.727,254.21 174.944,253.427 173.378,251.47 173.378,251.47 172.203,249.512 171.029,247.163 171.029,247.163 170.637,244.814 170.637,242.465 170.637,237.375 170.637,237.375 170.246,233.068 169.463,228.762 169.463,228.762 169.071,227.196 168.679,226.413 167.896,225.63 "/>
   <polygon id="_148916096" class="fil18" points="158.892,213.493 158.892,213.493 158.109,213.493 157.717,213.884 156.934,215.059 157.326,216.233 157.717,216.625 158.5,217.016 158.5,217.016 159.283,217.408 159.674,217.016 160.457,216.625 160.849,215.842 160.849,215.059 160.849,214.667 160.457,213.884 160.066,213.493 "/>
   <polygon id="_148916168" class="fil18" points="172.595,241.682 172.595,241.682 172.986,242.465 173.378,243.64 172.986,246.38 171.812,249.121 171.42,251.47 171.42,251.47 171.42,252.645 171.812,253.819 172.203,254.602 172.986,255.385 173.769,255.777 174.552,255.777 175.335,254.994 176.118,254.21 176.118,254.21 176.51,253.036 176.901,252.253 176.901,249.904 176.118,247.555 175.727,245.597 175.727,245.597 174.944,243.248 174.161,242.073 173.378,241.29 "/>
  </g>
 </g>
</svg>
