<?xml version="1.0" encoding="utf-8"?>

<!DOCTYPE svg PUBLIC "-//W3C//DTD SVG 1.1//EN" "http://www.w3.org/Graphics/SVG/1.1/DTD/svg11.dtd">
<svg version="1.1" id="Layer_1" xmlns="http://www.w3.org/2000/svg" xmlns:xlink="http://www.w3.org/1999/xlink" x="0px" y="0px"
	 viewBox="0 0 2609.291 589.211" enable-background="new 0 0 2609.291 589.211" xml:space="preserve">
<path fill="#202020" d="M2162.571,264.279c188.887,28.759,372.138-18.778,422.074-190.825V24.086
	c-18.701-1.501-71.495,76.028-64.96,110.479c-1.575-7.86-5.662-17.888-8.117-22.272c0-3.352-12.648-17.711-15.147-20.098
	c-0.101,0-0.101,0-0.101-0.139c-36.809-32.341-100.399-20.938-102.132,30.17c-2.12,58.177,66.964,58.597,69.531,15.833
	c1.345-26.837-35.75-23.054-33.789-11.661c1.666,9.003,15.877-2.088,15.59,13.027c-0.337,8.187-7.827,11.285-12.931,11.652
	c-19.266,1.287-26.27-39.381-5.902-50.268c16.606-10.498,53.396-6.065,63.489,17.245c0,0,0,0,0,0.093
	c34.255,72.301-187.852,188.566-268.257,69.865c-7.245-25.229,0.252-53.458,25.863-61.335c0,0,2.561-0.607,3.303-0.734
	c-96.062-47.416-142.389,47.818-57.446,114.02c-39.53-4.674-76.068-49.637-152.539-46.096
	c-55.321,2.537-71.203,47.276-71.203,47.276c-10.515,0.818-17.946,5.411-25.279,11.977c-6.788-6.439-15.097-11.206-25.178-11.977
	c0,0-15.882-44.74-71.304-47.276c-76.37-3.54-112.908,41.423-152.448,46.096c82.625-58.325,43.066-163.665-57.436-114.02
	c2.288,0.432,0.025,0.111,2.558,0.455c0.192,0.139,0.494,0.278,0.786,0.362c28.377,7.973,33.441,44.19,24.493,66.65
	c-34.249,84.478-255.416,38.452-269.636-52.443c-7.988-56.027,82.582-61.916,78.384-10.397
	c-2.307,25.293-30.584,25.369-31.029,8.855c-0.242-13.157,10.524-6.355,14.411-10.528c3.763-4.115,0.868-10.75-12.689-10.75
	c0,0,0,0-0.051,0c-34.043-2.765-21.768,57.833,19.276,49.265c38.343-7.181,40.395-68.279,6.687-85.977
	c-36.511-18.256-89.929-3.365-101.89,53.363c7.517-31.832-49.568-124.294-71.848-108.481c-12.797,7.26-38.455,35.444-55.613,83.57
	c-6.549,23.998-0.456,20.388-10.525,2.407c0-3.352-12.649-17.711-15.147-20.098c-0.101,0-0.101,0-0.101-0.139
	c-40.058-35.197-107.525-17.611-101.94,37.975c2.522,30.758,27.021,42.548,47.012,36.925c26.929-8.022,31.307-51.149,2.356-48.809
	c-4.864,0.362-15.237,0-13.818,8.251c1.807,9.733,21.218-2.559,14.855,16.558c-0.45,2.501-2.756,4.598-4.965,5.854
	c-19.856,12.016-35.347-24.998-18.34-43.82c13.99-15.048,57.402-13.031,68.696,13.064c0,0,0,0,0,0.093
	c36.243,76.498-184.349,169.54-256.211,91.775c-10.978-11.747-8.732-17.019-12.045-21.91c-7.245-25.229,0.252-53.458,25.863-61.335
	c0,0,2.564-0.607,3.304-0.734c-96.053-47.411-142.393,47.815-57.446,114.02c-39.53-4.674-76.068-49.637-152.539-46.096
	c-55.321,2.537-71.203,47.276-71.203,47.276c-10.515,0.818-17.946,5.411-25.279,11.977c-6.788-6.439-15.096-11.206-25.178-11.977
	c0,0-15.882-44.74-71.304-47.276c-76.37-3.54-112.909,41.423-152.448,46.096c82.608-58.313,42.735-163.503-57.436-114.02
	c2.28,0.431,0.033,0.112,2.558,0.455c4.89,3.568,7.095,0.23,16.567,9.57c7.759,4.769,20.725,32.783,6.294,61.939
	c-37.849,75.602-231.459,35.68-263.181-42.696c-17.978-47.144,22.538-66.391,54.284-57.572c33.262,14.33,19.592,54.615,1.974,53.437
	c-6.783-0.52-12.758-4.879-12.941-11.652c-0.276-15.03,13.959-4.058,15.54-13.027c1.041-6.884-6.856-8.251-13.818-8.251
	c4.891,0-21.114-3.703-19.911,19.912c2.043,36.379,54.21,43.078,67.366,2.453c21.053-72.471-90.627-96.785-120.18-17.153
	c-5.469,14.918-2.417,13.925-2.608,4.581C89.947,91.015,42.593,23.092,24.646,24.086v49.367
	c32.897,113.175,147.82,190.932,267.421,199.578c187.714,9.831,236.087-54.608,357.407,0.232c-0.493,0.818-0.836,1.635-1.229,2.453
	c-13.313,9.588-14.13,27.338,0,37.836c0.393,0.818,0.735,1.589,1.229,2.407c-110.501,49.95-166.616-0.325-313.647-1.134
	c-165.909-1.882-279.452,91.793-311.18,200.944v49.358c19.566,1.043,72.328-77.982,64.909-110.795
	c14.123,68.484,88.194,70.409,109.665,48.048c28.035-22.219,18.724-84.778-24.442-81.35c4.892,0-27.433-0.527-29.156,30.124
	c-1.485,28.835,43.21,21.446,32.601,9.125c-3.887-4.219-14.654,2.769-14.412-10.528c0.128-4.62,2.651-7.364,6.003-9.664
	c25.239-12.27,38.796,41.061,5.952,51.225c-0.292,0.047-0.685,0.177-0.987,0.362c-26.768,7.005-55.428-4.839-58.514-31.034
	c-9.586-73.973,170.069-148.175,250.994-88.792c41.924,32.238,18.924,91.199-8.219,91.199c-0.292,0.084-0.785,0.223-0.785,0.223
	c99.892,49.346,139.916-55.806,57.436-114.01c39.539,4.674,76.078,49.581,152.448,46.096c55.422-2.546,71.304-47.323,71.304-47.323
	c10.082-0.725,18.39-5.492,25.178-11.931c7.036,6.642,15.461,11.155,25.279,11.931c0,0,15.882,44.777,71.203,47.323
	c76.471,3.485,113.009-41.423,152.539-46.096c-89.818,75.689-30.841,157.588,57.446,114.01c0,0-0.544-0.139-0.796-0.223
	c-27.871,0-44.326-53.046-16.325-83.803c71.756-77.401,293.729,15.001,256.211,91.831c0,0.093,0,0.093,0,0.093
	c-13.616,30.375-80.135,34.099-75.635-12.479c2.055-25.316,28.163-23.568,30.244-12.386c6.653,17.623-13.333,7.726-14.855,16.511
	c-1.42,8.26,8.953,7.898,13.818,8.26c28.825,2.206,24.677-40.664-2.356-48.819c-51.2-14.169-68.91,73.288-13.274,89.693
	c13.12,4.157,29.6,3.722,32.55,2.314c12.401-1.8,24.948-7.126,35.652-17.236c0,0,0,0,0.101,0
	c12.469-11.957,20.466-28.514,23.265-42.463c-3.737,20.205,12.409,52.306,23.547,69.642c0,4.89,30.238,41.882,41.413,40.921
	c19.566,1.043,72.328-77.983,64.909-110.795c14.673,71.15,97.858,75.89,119.988,35.03c14.852-29.182-0.007-71.092-34.765-68.332
	c4.892,0-27.433-0.527-29.156,30.124c-1.489,28.881,43.153,21.381,32.6,9.125c-3.887-4.219-14.653,2.769-14.411-10.528
	c0.628-22.708,45.528-9.151,28.179,28.266c-5.083,10.88-12.321,10.653-17.211,13.659c-26.769,7.005-55.428-4.839-58.514-31.034
	c-8.427-65.067,131.136-132.04,220.257-103.538c81.505,24.213,54.419,105.945,22.519,105.945c-0.292,0.084-0.786,0.223-0.786,0.223
	c99.894,49.345,139.916-55.806,57.436-114.01c39.54,4.674,76.078,49.581,152.448,46.096c55.422-2.546,71.304-47.323,71.304-47.323
	c10.081-0.725,18.39-5.492,25.178-11.931c7.036,6.642,15.462,11.155,25.279,11.931c0,0,15.883,44.777,71.203,47.323
	c76.471,3.485,113.009-41.423,152.539-46.096c-89.818,75.689-30.841,157.588,57.446,114.01c0,0-0.544-0.139-0.796-0.223
	c-40.729,0-65.91-122.617,88.616-112.161c72.979,5.312,177.325,66.833,151.27,120.189c0,0.093,0,0.093,0,0.093
	c-13.38,29.834-80.189,34.573-75.635-12.479c2.059-25.364,28.169-23.537,30.244-12.386c6.653,17.622-13.333,7.726-14.855,16.511
	c-1.42,8.26,8.954,7.898,13.818,8.26c28.824,2.206,24.677-40.664-2.356-48.819c-27.558-7.626-52.77,16.346-46.277,52.898
	c0,32.374,51.004,46.042,65.553,39.109c12.401-1.8,24.948-7.126,35.652-17.236c0,0,0,0,0.101,0
	c12.395-11.886,20.445-28.4,23.264-42.463c-3.718,20.122,12.467,52.395,23.547,69.642c0,4.891,30.227,41.883,41.413,40.921V515.77
	c-32.514-112.029-150.983-213.229-348.262-199.364c-116.667,3.929-171.234,47.781-276.515-0.446c0.361-0.682,0.94-1.971,1.178-2.314
	c13.802-10.292,13.739-27.96,0-37.975c-0.302-0.546-0.904-1.955-1.178-2.407c8.601-3.996,18.531-7.712,29.055-11.16
	C2043.267,243.191,2076.343,250.644,2162.571,264.279z M1928.244,313.553c0.393,0.818,0.735,1.589,1.229,2.407
	c-120.095,54.287-181.303-10.164-351.707,0c-93.491,0-235.134,69.127-273.121,199.81
	c-30.445-104.904-132.336-180.808-244.801-197.134c-160.697-23.737-255.5,54.34-379.976-2.676c0.361-0.682,0.94-1.971,1.178-2.314
	c13.795-10.286,13.746-27.956,0-37.975c-0.302-0.546-0.904-1.955-1.178-2.407c73.69-34.231,116.721-22.58,202.703-8.985
	c188.886,28.761,372.138-18.778,422.074-190.825c6.093,20.962,15.097,40.791,26.406,59.161
	c114.565,186.793,344.302,140.322,458.069,122.001c38.702-4.992,76.462-10.232,140.352,18.649c-0.494,0.818-0.836,1.635-1.229,2.453
	C1914.893,285.331,1914.153,303.085,1928.244,313.553z"/>
</svg>
