<?xml version="1.0" encoding="UTF-8" standalone="no"?>
<!-- Created with Inkscape (http://www.inkscape.org/) -->

<svg
   xmlns:dc="http://purl.org/dc/elements/1.1/"
   xmlns:cc="http://creativecommons.org/ns#"
   xmlns:rdf="http://www.w3.org/1999/02/22-rdf-syntax-ns#"
   xmlns:svg="http://www.w3.org/2000/svg"
   xmlns="http://www.w3.org/2000/svg"
   xmlns:sodipodi="http://sodipodi.sourceforge.net/DTD/sodipodi-0.dtd"
   xmlns:inkscape="http://www.inkscape.org/namespaces/inkscape"
   id="svg4162"
   version="1.1"
   inkscape:version="0.91 r13725"
   width="474.62634"
   height="188.62"
   viewBox="0 0 474.62634 188.62"
   sodipodi:docname="Decorative divider 166.svg">
  <metadata
     id="metadata4168">
    <rdf:RDF>
      <cc:Work
         rdf:about="">
        <dc:format>image/svg+xml</dc:format>
        <dc:type
           rdf:resource="http://purl.org/dc/dcmitype/StillImage" />
        <dc:title></dc:title>
      </cc:Work>
    </rdf:RDF>
  </metadata>
  <defs
     id="defs4166" />
  <sodipodi:namedview
     pagecolor="#ffffff"
     bordercolor="#666666"
     borderopacity="1"
     objecttolerance="10"
     gridtolerance="10"
     guidetolerance="10"
     inkscape:pageopacity="0"
     inkscape:pageshadow="2"
     inkscape:window-width="1600"
     inkscape:window-height="837"
     id="namedview4164"
     showgrid="false"
     inkscape:zoom="2.1938189"
     inkscape:cx="237.31307"
     inkscape:cy="94.309742"
     inkscape:window-x="-8"
     inkscape:window-y="-8"
     inkscape:window-maximized="1"
     inkscape:current-layer="svg4162"
     fit-margin-top="0"
     fit-margin-left="0"
     fit-margin-right="0"
     fit-margin-bottom="0" />
  <path
     style="fill:#000000"
     d="M 82.939237,1.587744 C 77.700616,4.358652 72.532516,10.583784 70.01461,18.898832 68.991054,22.278974 62.870726,25.867003 57.444242,26.266065 48.475928,26.9256 31.152776,31.450929 27.759067,34.021768 -31.396731,78.834161 10.183546,143.38994 94.160825,137.1144 l 2.533416,-0.19035 -2.562982,3.08368 c -3.083817,3.7092 -4.413396,4.19872 -21.098659,7.77347 -16.001302,3.42825 -20.21266,5.43344 -25.481052,12.13053 -6.637266,8.43719 -8.76339,10.40421 -11.657865,10.78001 -3.756629,0.48775 -8.129491,-1.95782 -9.80023,-5.48015 -1.611358,-3.39712 -2.955884,-3.90272 -3.535472,-1.32876 -2.245644,9.97258 11.45961,13.55628 25.876062,6.76525 4.292222,-2.02194 9.241281,-4.35397 10.997215,-5.18028 l 3.191657,-1.50136 1.16551,3.6039 c 1.581866,4.89308 5.160864,7.90319 7.79851,6.5592 1.755162,-0.89435 1.791907,-1.3962 0.315055,-4.29468 -1.642358,-3.2233 -1.6041,-3.35511 2.155043,-7.45939 2.104705,-2.29788 4.453631,-5.65821 5.219185,-7.46861 1.675111,-3.96146 4.029428,-6.15095 7.734299,-7.19166 3.415221,-0.9593 9.740071,-6.01509 12.672536,-10.13084 2.319627,-3.25558 10.752947,-6.21633 23.387417,-8.20753 9.26271,-1.45999 30.652,-8.75248 56.72342,-19.34253 9.15488,-3.71866 12.81983,-4.78244 13.29228,-3.85518 0.26486,0.51936 -1.24922,1.42799 -3.99547,2.39745 -8.52977,3.0111 -35.04212,25.04697 -38.29582,31.82984 -1.36405,2.84342 -6.82891,6.15812 -10.30343,6.24941 -8.15059,0.21408 -6.35787,6.31134 2.05502,6.98889 l 5.46793,0.44069 -3.17813,8.69961 c -1.74715,4.78489 -3.23011,9.3278 -3.29501,10.09635 -0.49174,5.82212 -8.32766,12.35032 -13.20488,11.00052 -5.65881,-1.56608 -6.6979,-1.62105 -7.79026,-0.40817 -2.4825,2.75647 2.97508,5.30978 9.70751,4.54095 l 0.002,-9.6e-4 c 10.75007,-1.22761 22.80634,-11.97688 29.31154,-26.13633 2.81961,-6.13725 4.03443,-7.14026 6.54078,-5.39538 4.57689,3.18637 11.18088,-8.7063 11.18409,-20.142 0.004,-13.70032 3.52387,-21.02188 12.2478,-25.46696 3.3275,-1.69545 6.22624,-3.62289 6.44085,-4.28356 0.60568,-1.86395 24.13707,-9.274989 27.02322,-8.510259 2.12772,0.56364 -1.62177,5.145639 -5.03092,6.147349 -4.21044,1.23718 -7.75148,6.01737 -10.65828,14.38955 -3.14667,9.06315 -5.69874,11.85993 -10.44387,11.446 -2.75332,-0.24016 -3.33741,1.47607 -0.78524,2.30501 10.3363,3.35843 21.12351,-7.49095 28.40475,-28.5656 2.61065,-7.556229 2.77064,-7.659419 12.47768,-8.069699 1.31806,-0.056 2.21569,-0.0998 3.04125,-0.1488 0.0212,0.008 0.0368,-0.007 0.0575,-0.003 0.79232,-0.0474 1.47813,-0.10312 1.89936,-0.17425 3.82604,-0.36805 8.09026,-1.08927 11.63093,-2.12963 9.99739,-2.93767 18.05494,10.027869 15.43796,24.839269 -2.07461,11.74167 8.53869,21.49761 19.91124,18.30303 3.90551,-1.09709 2.75225,-3.11993 -1.68732,-2.95876 -5.0188,0.18222 -8.35042,-6.60925 -7.43135,-15.15281 0.9928,-9.22946 -5.66424,-20.224919 -15.29263,-25.259649 l -2.96506,-1.55152 3.55343,-1.14401 c 28.24467,-9.10966 53.87671,20.758469 42.78907,49.862319 -1.82987,4.80313 -0.27575,5.1802 6.19655,1.50077 l 5.91419,-3.36414 4.75652,9.14166 c 8.96361,17.22838 11.15973,19.95174 19.23983,23.86002 5.89368,2.85073 8.79043,3.36113 11.47291,2.02152 2.80681,-1.40172 2.94587,-1.12329 -2.57404,-5.15499 -5.51153,-4.02549 -9.27913,-10.27097 -11.91493,-19.74911 -1.01601,-3.65351 -2.80062,-8.51239 -3.96459,-10.7968 l -2.11565,-4.15228 3.10503,-0.60446 c 8.22842,-1.59904 11.66612,-5.73512 5.10694,-6.14446 -5.40505,-0.33732 -11.37983,-3.76752 -17.37341,-9.9709 -3.11499,-3.22403 -6.72322,-6.74313 -8.01861,-7.8215 -1.29541,-1.07838 -3.31226,-3.12833 -4.48063,-4.55615 -2.04302,-2.49662 -5.55531,-5.348329 -14.72697,-11.957219 -5.06556,-3.65013 -11.33747,-6.10631 -14.8498,-5.81387 -5.97835,0.49764 -0.72817,-1.84079 13.85468,-6.17178 1.61555,-0.47978 2.94766,-0.12566 3.98154,1.05989 1.02802,1.17892 3.07796,1.73305 6.06045,1.63808 5.96252,-0.18989 8.31615,0.85652 16.48769,7.32484 16.56249,13.110219 25.2396,14.736789 36.66887,6.87548 6.25873,-4.30488 11.91187,-11.63641 10.74468,-13.93598 -0.81208,-1.59949 -2.40036,-0.3481 -3.52613,2.7809 -3.34989,9.31073 -14.17201,9.84431 -25.66397,1.26578 -7.32702,-5.46958 -14.64565,-7.57469 -25.03033,-7.20061 -10.84835,0.39084 -17.49115,-2.22493 -10.05074,-3.95831 1.10755,-0.25763 6.1651,-2.08013 11.23903,-4.04746 9.80159,-3.80053 29.29675,-9.70739 38.73661,-11.73854 10.12112,-2.17777 20.94113,4.00899 22.45616,12.83926 0.76089,4.43528 5.1855,13.71545 6.88886,14.44939 0.95717,0.41238 3.48295,2.75905 5.61159,5.21406 5.27236,6.08081 8.08783,5.16214 5.54522,-1.80806 -2.82235,-7.73681 -1.97784,-8.85292 4.00923,-5.30457 6.86683,4.06979 23.17757,4.45472 28.75253,0.67882 3.30587,-2.23906 1.80774,-3.28068 -3.07868,-2.14029 -2.52609,0.58944 -5.55104,0.69276 -6.7224,0.22876 -5.69947,-2.25551 -14.77456,-8.12463 -15.89343,-10.28001 -1.44512,-2.78386 -9.51887,-7.75563 -16.66722,-10.2627 -13.2827,-4.65859 -15.60076,-5.59276 -16.04438,-6.46346 -0.77243,-1.51577 8.46539,-3.70427 17.36866,-4.11499 2.82705,-0.13046 7.72623,-0.38208 10.88818,-0.55871 19.01539,-1.06225 45.77007,10.45288 56.76395,24.42948 10.49422,13.34136 13.81323,23.028229 11.70644,34.169369 -0.44128,2.33357 -0.59834,4.64223 -0.34888,5.13177 1.09094,2.14121 -6.47056,17.59443 -10.48086,21.41895 -6.88383,6.56491 -14.75806,10.48365 -26.08255,12.98063 -11.39835,2.51327 -21.62568,-3.3326 -28.25685,-16.15294 l -4.17453,-8.07253 1.37722,-4.52465 c 4.42505,-14.52946 23.94263,-21.1556 29.60138,-10.04973 3.51583,6.90021 -1.66257,16.07227 -6.37637,11.2937 -1.55633,-1.57775 -3.99538,-0.67411 -3.07211,1.13795 3.11895,6.12129 14.3975,-0.0281 15.66236,-8.53932 0.56325,-3.78989 -4.35889,-12.03886 -7.90521,-13.24755 -0.64646,-0.22035 -1.48487,-1.00843 -1.86245,-1.74948 -3.18114,-6.243289 -23.89766,-2.721739 -29.3943,4.99676 -12.62275,17.7253 -5.82978,35.50557 17.95321,46.99288 4.22139,2.03895 16.85062,2.08719 20.79223,0.0788 5.49681,-2.80075 12.73409,-4.22778 10.82816,-2.13492 -3.91846,4.30283 -23.59508,8.53704 -33.42012,7.19272 -10.95752,-1.49931 -18.3474,2.81713 -22.30437,13.02619 -3.40444,8.78363 -7.3855,12.3862 -10.54396,9.54166 -1.93302,-1.74087 -3.69124,0.19844 -2.42803,2.67734 5.60552,11.00149 21.23891,2.73173 26.27472,-13.89839 1.02354,-3.38016 7.14475,-6.96642 12.57123,-7.36549 8.96833,-0.65951 26.29056,-5.18658 29.68431,-7.75744 59.15579,-44.81238 17.57639,-109.366439 -66.40088,-103.090889 l -2.5343,0.18869 2.56298,-3.08364 c 3.08382,-3.70924 4.4134,-4.19874 21.09865,-7.77344 16.0013,-3.42829 20.2127,-5.433509 25.48108,-12.13059 6.63726,-8.437184 8.76428,-10.402455 11.65873,-10.778283 3.75664,-0.487637 8.1269,1.956991 9.79761,5.479276 1.61137,3.39716 2.9585,3.90361 3.53811,1.329668 2.24566,-9.972596 -11.45964,-13.556261 -25.87608,-6.765255 -4.29224,2.021908 -9.24218,4.352173 -10.99807,5.178556 l -3.19079,1.503089 -1.16572,-3.603853 c -1.58144,-4.893195 -5.16085,-7.903189 -7.79851,-6.55922 -1.75517,0.894363 -1.79277,1.394475 -0.31594,4.292968 1.64233,3.223327 1.60411,3.35511 -2.15505,7.459337 -2.1047,2.297953 -4.45277,5.660047 -5.21827,7.470404 -1.67512,3.961493 -4.02948,6.150963 -7.73431,7.191653 -3.4152,0.9593 -9.74009,6.01508 -12.67257,10.13089 -2.3196,3.25555 -10.75381,6.21458 -23.38826,8.20574 -9.26273,1.45998 -30.65112,8.75423 -56.72253,19.34425 -9.15493,3.71868 -12.82072,4.78071 -13.29322,3.8534 -0.26478,-0.5194 1.24747,-1.42712 3.99376,-2.39658 8.52974,-3.01108 35.04386,-25.04784 38.29756,-31.83071 1.36401,-2.84346 6.82886,-6.15812 10.30339,-6.24941 8.15062,-0.21418 6.35788,-6.31136 -2.05503,-6.988916 l -5.46699,-0.438935 3.1781,-8.699588 c 1.74717,-4.784921 3.22922,-9.329573 3.29412,-10.098109 0.49176,-5.822119 8.32854,-12.348572 13.20576,-10.998787 5.65883,1.566111 6.69703,1.619326 7.78939,0.406422 2.48251,-2.756461 -2.97678,-5.30886706 -9.70922,-4.54003006 C 333.62047,1.833364 321.56512,12.584348 315.05989,26.743794 c -2.81963,6.137279 -4.03442,7.140325 -6.54078,5.395414 -4.57691,-3.186349 -11.18091,8.706333 -11.18411,20.141953 -0.004,13.70036 -3.5256,21.0228 -12.24949,25.46785 -3.32757,1.69551 -6.22453,3.62203 -6.43919,4.28273 -0.60564,1.86392 -24.13795,9.27317 -27.02406,8.50853 -2.12773,-0.56364 1.62177,-5.14565 5.03094,-6.14742 4.21043,-1.23716 7.75145,-6.01728 10.65825,-14.38948 3.1467,-9.06319 5.69876,-11.85992 10.44389,-11.44604 2.75331,0.2402 3.33841,-1.47399 0.78611,-2.30325 -10.33627,-3.35845 -21.12438,7.48917 -28.4056,28.56387 -2.61068,7.55623 -2.77067,7.6594 -12.4777,8.06969 -1.27067,0.0534 -2.11992,0.0982 -2.93124,0.14558 -0.0703,0.003 -0.13273,0.004 -0.20333,0.0105 -0.77166,0.0465 -1.43961,0.10174 -1.85484,0.17131 -3.82815,0.36764 -8.09554,1.09032 -11.6388,2.13145 -9.99738,2.93768 -18.05495,-10.02788 -15.43795,-24.83929 2.07463,-11.74168 -8.53872,-21.4976 -19.91127,-18.30306 -3.90548,1.09709 -2.75223,3.11996 1.68734,2.95882 5.01885,-0.18222 8.35043,6.6092 7.43135,15.1528 -0.99281,9.22943 5.66166,20.22409 15.29001,25.25879 l 2.96682,1.55063 -3.55256,1.14583 c -28.24466,9.109649 -53.87669,-20.75849 -42.78903,-49.86236 1.82984,-4.80312 0.27574,-5.18017 -6.19661,-1.50075 l -5.91507,3.36241 -4.75652,-9.14166 C 140.8829,23.900329 138.68772,21.178662 130.6076,17.270422 c -5.89365,-2.850714 -8.79043,-3.361091 -11.4729,-2.021507 -2.80682,1.401682 -2.94584,1.123514 2.57403,5.154999 5.51152,4.02546 9.27912,10.270953 11.91494,19.749107 1.016,3.6535 2.79976,8.51065 3.96364,10.79509 l 2.11664,4.15393 -3.10594,0.60273 c -8.22845,1.599 -11.66525,5.73684 -5.10606,6.14616 5.40506,0.33733 11.37894,3.76576 17.37253,9.96916 3.11499,3.22401 6.72412,6.74484 8.01949,7.82325 1.2954,1.07836 3.31222,3.12834 4.48065,4.55612 2.04302,2.49665 5.55532,5.34833 14.72695,11.95723 5.06555,3.65015 11.3375,6.106319 14.84979,5.813909 5.97839,-0.49774 0.72815,1.84077 -13.85464,6.17175 -1.61556,0.47977 -2.94769,0.12577 -3.98153,-1.0599 -1.02809,-1.17888 -3.07797,-1.73303 -6.06048,-1.63805 -5.96251,0.18989 -8.31614,-0.85652 -16.48772,-7.324839 -16.56245,-13.11025 -25.24044,-14.73853 -36.66973,-6.87724 -6.25872,4.30489 -11.911,11.638159 -10.7438,13.937739 0.8121,1.59946 2.39947,0.34637 3.52524,-2.78266 3.3499,-9.310709 14.17203,-9.844329 25.66399,-1.26578 7.32702,5.46956 14.6465,7.57644 25.03123,7.20235 10.84835,-0.39074 17.49113,2.22494 10.05071,3.95832 -1.10755,0.25774 -6.166,2.07843 -11.23992,4.04576 -9.80154,3.80052 -29.29584,9.70916 -38.73574,11.74023 -10.12112,2.17771 -20.941108,-4.00897 -22.456158,-12.83927 -0.760966,-4.43526 -5.186352,-13.71718 -6.889734,-14.45112 -0.957147,-0.41238 -3.482044,-2.757289 -5.610677,-5.212309 -5.272388,-6.08079 -8.088731,-5.16387 -5.546145,1.80625 2.822257,7.736819 1.978712,8.854649 -4.00834,5.306289 -6.866843,-4.069799 -23.177582,-4.454729 -28.752563,-0.67883 -3.305855,2.23908 -1.807719,3.28068 3.0787,2.14026 2.526068,-0.58942 5.551085,-0.69266 6.722395,-0.22875 5.699475,2.25548 14.774593,8.12466 15.893439,10.28001 1.445135,2.78391 9.518867,7.75564 16.667213,10.26273 13.282707,4.65858 15.59988,5.59102 16.04352,6.4617 0.77233,1.5158 -8.465411,3.70424 -17.368664,4.11497 -2.827087,0.13045 -7.726271,0.38209 -10.88819,0.55881 C 55.30837,136.66057 28.554589,125.14719 17.560695,111.17058 7.0664682,97.829231 3.7474439,88.142291 5.8542206,77.001201 c 0.4412787,-2.33356 0.5974373,-4.64393 0.3479866,-5.13353 -1.0910607,-2.14161 6.4714018,-17.59313 10.4816728,-21.41763 6.883835,-6.56493 14.758093,-10.48366 26.082548,-12.98064 11.398361,-2.51327 21.62477,3.33088 28.255953,16.1512 l 4.175432,8.07427 -1.378099,4.52292 c -4.4251,14.52944 -23.942665,21.15557 -29.601377,10.0497 -3.515856,-6.90024 1.662569,-16.07227 6.376339,-11.29369 1.556358,1.57775 3.99629,0.67584 3.073045,-1.13614 -3.118946,-6.12129 -14.397443,0.0281 -15.662348,8.53934 -0.563248,3.78989 4.35888,12.03885 7.905195,13.24758 0.646505,0.22034 1.484003,1.00667 1.861572,1.7477 3.181122,6.2433 23.897659,2.72175 29.394279,-4.99678 C 89.789227,64.649891 82.99624,46.869641 59.213263,35.382343 54.991866,33.343391 42.363494,33.296865 38.421888,35.305213 32.92507,38.105981 25.687812,39.532981 27.593723,37.440111 31.512205,33.137281 51.18796,28.901342 61.012965,30.245672 71.970452,31.744948 79.360361,27.428543 83.317336,17.219454 86.721788,8.435814 90.702807,4.833242 93.861264,7.677787 95.794292,9.418683 97.55346,7.481381 96.29023,5.002187 93.487445,-0.49854806 88.177838,-1.183152 82.939238,1.587746 Z m -3.238539,4.30468 c 0.2939,-0.168265 0.568,-0.210465 0.822728,-0.127681 0.343215,0.111528 -0.423469,2.160788 -1.70367,4.55508 -1.280197,2.39429 -2.907007,6.387736 -3.615269,8.874144 -0.708248,2.486408 -2.016467,5.32583 -2.90625,6.307687 -1.916155,2.114478 -3.421328,2.965957 -4.576636,2.590578 -1.778019,-0.577706 -1.368245,-1.597346 1.495967,-3.723687 2.141496,-1.5898 3.694387,-4.164502 5.560518,-9.220836 2.007459,-5.439237 3.649081,-8.526181 4.92261,-9.255306 z M 133.4205,24.558119 c 0.71544,-0.398549 4.0304,5.343686 8.48178,15.102012 3.6949,8.09993 8.94214,19.4688 11.66243,25.26362 5.56688,11.85871 5.7952,12.97091 1.74432,8.51728 -7.25731,-7.97911 -9.38172,-9.65321 -15.24175,-11.99962 -6.20748,-2.48547 -6.22273,-2.4986 -3.45427,-3.17423 1.52906,-0.37332 4.11,-0.16155 5.7345,0.4692 4.41301,1.71336 4.58597,0.0355 0.63949,-6.20486 -3.11254,-4.92169 -5.26024,-10.69901 -9.12574,-24.557023 -0.60364,-2.163998 -0.72085,-3.260399 -0.44071,-3.416383 z M 78.27738,67.858951 c 0.06306,-0.039 0.115104,-0.0539 0.151788,-0.0418 1.317471,0.42807 -0.95059,6.57429 -3.891693,10.54721 -4.88136,6.59392 -13.440551,10.49765 -19.342818,8.82321 -3.581318,-1.01599 -3.762094,-2.46438 -0.29946,-2.39455 7.760806,0.15643 16.286789,-5.31719 20.870777,-13.3962 1.02493,-1.80637 2.070016,-3.2646 2.511506,-3.53748 z M 61.313861,102.90546 c 0.165027,-0.10829 0.499872,-0.17312 0.975719,-0.22327 3.894336,-0.40978 17.630378,8.77096 23.925713,15.99013 4.385548,5.02915 -4.721715,1.69013 -11.356402,-4.16333 -2.735308,-2.41322 -5.201175,-4.83453 -5.480062,-5.38186 -0.278897,-0.54739 -2.205499,-2.0054 -4.28112,-3.23962 -3.256056,-1.93614 -4.278969,-2.65753 -3.783876,-2.98218 z M 120.8503,90.167901 c 4.49274,-2.41869 14.56126,0.72062 22.9852,7.16628 2.49699,1.91062 5.22807,3.944269 6.06927,4.520519 0.84123,0.57627 1.81904,1.61689 2.17333,2.31223 2.40865,4.72715 -14.45323,-1.90532 -19.03688,-7.488039 -1.77186,-2.15807 -8.24676,-4.92445 -12.17753,-5.20262 -2.04125,-0.14449 -2.04233,-0.21612 -0.0138,-1.30837 z M 331.44973,10.128909 c 0.80036,-0.536288 0.60266,0.980506 -0.79514,4.681837 -1.1501,3.04546 -3.03073,8.146658 -4.18002,11.336409 -2.38843,6.628498 -4.88783,12.324326 -5.84733,13.325786 -1.91882,2.00278 0.53986,2.10985 3.1945,0.1391 2.999,-2.22638 7.0133,-2.91068 7.81815,-1.33114 0.22609,0.44314 -0.65702,1.35188 -1.96228,2.01695 -2.85305,1.45372 -6.91025,5.40393 -13.24555,12.89541 -4.09635,4.84397 -12.53594,12.02984 -11.97932,10.20072 0.10818,-0.35556 1.91431,-3.78031 4.01357,-7.6106 3.54199,-6.46278 4.81684,-9.29948 11.20447,-24.937581 1.292,-3.162972 4.2524,-9.051113 6.57936,-13.085028 2.59965,-4.506681 4.39925,-7.095549 5.1996,-7.631843 z M 57.462659,154.57013 c 2.326164,-1.26744 5.078325,-2.13246 9.211127,-3.19617 9.979871,-2.56866 10.474556,-2.18556 2.51029,1.94103 -3.624508,1.87797 -9.244958,5.1733 -12.489459,7.3238 -3.244474,2.15056 -7.638961,5.14166 -9.765807,6.6463 -4.903991,3.46934 -4.673811,2.82734 1.640711,-4.56248 3.613977,-4.22938 5.902348,-6.52294 8.89313,-8.15251 z M 265.16935,61.557331 c 1.34314,-0.52524 1.56035,1.6763 -0.13985,6.54879 -3.08497,8.84092 -4.76398,11.76765 -7.57688,13.20089 l -2.56686,1.30791 1.78344,-5.67201 c 0.9812,-3.11909 2.64391,-7.25143 3.695,-9.18224 2.03447,-3.73693 3.76048,-5.79466 4.80515,-6.20332 z m 43.2028,-20.36231 c 0.41715,-0.14602 0.74732,0.38267 1.21617,1.30276 1.23865,2.43099 -1.13181,8.87722 -5.72627,15.57673 -5.15012,7.50979 -4.90036,4.02215 0.65925,-9.23342 2.21878,-5.28993 3.15537,-7.40325 3.85085,-7.64607 z M 169.62622,125.07259 c 0.44012,-0.2162 0.65147,-0.18982 0.54709,0.15307 -0.10817,0.35548 -1.9143,3.78027 -4.01353,7.61059 -3.542,6.46275 -4.8169,9.29947 -11.20451,24.93759 -1.29197,3.16295 -4.2524,9.05106 -6.57931,13.08501 -5.19939,9.01336 -7.19918,10.35443 -4.40362,2.95175 1.15012,-3.04546 3.03073,-8.14666 4.18007,-11.33643 2.38838,-6.62849 4.88781,-12.3243 5.84732,-13.32576 1.91879,-2.00281 -0.53985,-2.10987 -3.19456,-0.1391 -2.99895,2.22638 -7.01419,2.90885 -7.819,1.32942 -0.22619,-0.44311 0.65793,-1.35014 1.96317,-2.01518 2.85305,-1.45372 6.91025,-5.40395 13.24554,-12.89545 3.32828,-3.9357 9.52394,-9.41903 11.43134,-10.35549 z m 4.38585,1.61671 c 1.22688,-0.5204 -0.0851,3.97602 -3.90733,13.08921 -3.54996,8.46393 -3.81591,8.79869 -5.06611,6.34506 -1.23861,-2.43103 1.13092,-8.87897 5.72536,-15.57849 1.60943,-2.3468 2.69041,-3.61923 3.24808,-3.85578 z m 43.16226,-19.37494 2.56685,-1.3079 -1.78429,5.67026 c -0.98123,3.11906 -2.64394,7.25142 -3.69506,9.18221 -4.65015,8.5416 -7.68785,8.31665 -4.66529,-0.34542 3.08501,-8.84093 4.76488,-11.76596 7.57777,-13.19917 z M 430.39847,19.546029 c 1.70794,-0.936811 0.3939,0.808567 -4.34195,6.350921 -6.42482,7.51892 -8.65695,8.919069 -18.1034,11.350391 -9.97987,2.56866 -10.47452,2.18554 -2.51028,-1.941033 3.62451,-1.877943 9.24408,-5.174997 12.48858,-7.325567 3.24447,-2.150569 7.63896,-5.141637 9.76582,-6.646258 1.22598,-0.867351 2.1319,-1.476165 2.70123,-1.788454 z M 322.71092,83.021521 c 2.39904,-1.24884 15.00645,4.20877 18.87393,8.91919 1.77184,2.15804 8.24677,4.92444 12.17751,5.20266 2.04126,0.14446 2.04236,0.21614 0.0138,1.30837 -4.49275,2.418679 -14.56037,-0.7189 -22.98436,-7.16456 -2.49696,-1.9106 -5.22893,-3.94604 -6.07015,-4.52229 -0.84121,-0.57623 -1.81903,-1.61684 -2.17335,-2.31222 -0.37639,-0.73858 -0.28117,-1.1999 0.16299,-1.43115 z m 64.84578,-15.46035 c 1.39537,-0.56468 7.44174,2.3421 12.21044,6.54931 2.73531,2.41324 5.20205,4.83624 5.48093,5.38365 0.2789,0.5473 2.20551,2.00535 4.28112,3.23956 4.34141,2.58154 4.7116,3.00509 2.80813,3.20538 -3.89433,0.40967 -17.63037,-8.77096 -23.92568,-15.99018 -1.23346,-1.41443 -1.40097,-2.16684 -0.85491,-2.38773 z m -70.93597,45.229719 c 0.2598,-0.16839 1.17806,0.71932 2.69712,2.38944 7.25732,7.97909 9.38086,9.6515 15.24088,11.99789 6.20747,2.48547 6.2227,2.49859 3.45427,3.17421 -1.52915,0.37314 -4.10911,0.16333 -5.73361,-0.46744 -4.41299,-1.7134 -4.58598,-0.0355 -0.63946,6.20486 3.11252,4.92168 5.26017,10.69899 9.12567,24.557 2.14626,7.69425 -1.84771,1.89118 -8.04092,-11.68564 -3.69486,-8.09993 -8.94303,-19.47049 -11.66331,-25.26537 -3.47932,-7.41166 -4.87368,-10.62435 -4.44063,-10.90495 z m 91.45717,-9.40301 c 3.87393,-2.07433 8.03358,-2.89728 11.35362,-1.95546 3.5813,1.01602 3.76299,2.46615 0.30019,2.39639 -7.76081,-0.15647 -16.28771,5.31542 -20.87172,13.3944 -1.17136,2.06444 -2.36942,3.67656 -2.66229,3.58142 -1.31747,-0.42807 0.9506,-6.5743 3.89173,-10.54723 2.1356,-2.88482 4.97525,-5.25612 7.98831,-6.86949 z m -3.17623,57.50232 c 0.76037,-0.43051 1.42612,-0.54855 2.0036,-0.36135 1.77799,0.57769 1.36825,1.59732 -1.49595,3.72368 -2.14147,1.58979 -3.69436,4.1645 -5.56051,9.22082 -2.47071,6.69448 -4.38694,9.82432 -5.74531,9.38296 -0.34321,-0.11152 0.42258,-2.16252 1.70273,-4.55684 1.28022,-2.39426 2.90702,-6.38772 3.61528,-8.87407 0.70826,-2.4864 2.01561,-5.32325 2.90539,-6.30512 0.95809,-1.0572 1.81438,-1.79981 2.57472,-2.23033 z"
     id="path4172"
     inkscape:connector-curvature="0" />
</svg>
