<?xml version="1.0" standalone="no"?>
<!DOCTYPE svg PUBLIC "-//W3C//DTD SVG 20010904//EN"
 "http://www.w3.org/TR/2001/REC-SVG-20010904/DTD/svg10.dtd">
<svg version="1.0" xmlns="http://www.w3.org/2000/svg"
 width="245.000000pt" height="338.000000pt" viewBox="0 0 245.000000 338.000000"
 preserveAspectRatio="xMidYMid meet">

<g transform="translate(0.000000,338.000000) scale(0.100000,-0.100000)"
fill="#000000" stroke="none">
<path d="M182 3214 c-43 -30 -46 -52 -15 -96 24 -35 28 -52 30 -116 1 -40 4
-76 7 -80 3 -3 2 -10 -3 -16 -10 -12 11 -133 30 -168 9 -16 6 -29 -15 -68 -26
-47 -35 -100 -17 -100 5 0 11 7 15 15 7 20 39 19 58 -2 28 -33 48 -82 48 -120
0 -58 8 -65 55 -49 22 8 43 12 47 9 5 -2 8 -24 8 -48 0 -34 -9 -58 -35 -99
-32 -50 -35 -62 -35 -128 0 -40 9 -111 21 -158 15 -63 22 -129 25 -255 6 -221
6 -224 0 -332 -4 -67 -2 -93 6 -93 7 0 4 -6 -7 -13 -16 -13 -18 -25 -13 -139
4 -91 2 -135 -8 -164 -18 -50 -18 -115 0 -139 10 -14 11 -26 4 -47 -10 -28 -7
-74 9 -137 12 -48 -18 -345 -39 -384 -15 -28 -3 -31 59 -17 68 16 400 29 412
17 5 -5 51 -4 102 3 94 11 729 7 1113 -8 l178 -7 -5 45 c-3 25 -11 88 -17 140
-7 57 -9 145 -6 220 9 179 9 198 -4 244 -8 31 -8 62 1 126 13 89 13 105 3 373
-3 102 -1 221 7 305 7 75 11 189 9 252 -7 209 7 462 30 565 6 28 13 76 17 108
l5 57 -68 1 c-79 1 -104 4 -157 21 -32 10 -50 9 -112 -7 -52 -13 -88 -16 -126
-11 -30 4 -76 9 -104 11 -27 2 -76 15 -108 29 -32 14 -63 26 -69 26 -6 0 -31
-19 -56 -42 l-45 -41 -166 6 c-91 4 -192 12 -224 18 -54 11 -64 10 -114 -11
-48 -20 -66 -22 -136 -17 -67 6 -85 11 -98 28 -15 21 -17 21 -43 4 -35 -23
-69 -9 -142 59 -40 38 -54 59 -54 79 0 36 40 57 67 36 17 -13 17 -13 1 11 -15
23 -21 25 -92 24 -69 -1 -76 0 -71 16 15 47 -55 223 -104 261 -29 23 -31 23
-59 3z m72 -56 c9 -12 16 -34 16 -48 0 -14 11 -49 25 -78 29 -62 29 -62 13
-62 -15 0 -58 -40 -58 -54 0 -17 43 -56 63 -56 12 0 23 -11 30 -30 6 -16 15
-30 20 -30 5 0 6 7 3 16 -5 14 17 84 28 84 3 0 2 -15 -1 -34 -7 -45 13 -79 72
-124 46 -35 67 -71 57 -99 -2 -7 -8 -10 -13 -7 -5 3 2 -16 16 -42 14 -26 25
-61 25 -78 l0 -31 17 34 c20 40 99 105 148 121 57 19 155 18 194 -2 19 -10 35
-18 35 -18 1 0 2 12 1 26 0 37 30 55 49 29 20 -26 20 -49 1 -65 -20 -17 -19
-24 7 -35 14 -6 32 -34 50 -75 36 -88 54 -86 51 5 -1 38 -4 82 -7 99 l-6 29
61 -7 c34 -3 97 -6 140 -6 l78 0 -3 -44 c-2 -24 -7 -50 -12 -57 -12 -19 -14
-39 -4 -39 32 0 187 -33 198 -42 17 -14 52 -21 52 -10 0 4 -11 27 -25 51 -14
23 -26 57 -26 75 l-1 31 -7 -29 c-8 -40 -54 -54 -76 -23 -12 16 -15 18 -15 5
0 -26 -26 -41 -49 -28 -22 11 -29 40 -10 40 5 0 7 -5 3 -11 -4 -7 -1 -10 7 -7
7 2 16 18 20 35 8 43 17 53 45 53 21 0 24 5 24 35 0 19 5 46 12 60 10 21 17
25 37 20 37 -8 73 -52 65 -78 -6 -21 -5 -21 8 -3 15 19 21 19 88 1 18 -5 21
-4 11 3 -7 5 -10 15 -7 21 10 16 26 14 33 -4 7 -20 -24 -55 -51 -55 -14 0 -17
-3 -9 -11 14 -14 5 -47 -17 -59 -11 -6 -26 -4 -44 5 -26 14 -27 14 -20 -8 17
-57 54 -117 54 -88 0 6 24 22 53 37 28 14 62 36 75 48 l24 21 -24 5 c-32 8
-34 32 -5 66 24 28 25 28 52 10 18 -12 25 -24 22 -37 -3 -10 -1 -22 4 -25 5
-3 9 -14 9 -25 0 -13 -7 -19 -22 -20 -13 0 -17 -3 -10 -6 6 -2 12 -14 12 -25
0 -16 -5 -19 -25 -16 -14 3 -25 1 -25 -3 0 -5 22 -9 49 -9 27 0 67 -7 90 -14
22 -8 40 -12 38 -8 -1 4 13 28 31 55 l33 47 -35 0 c-40 0 -50 12 -49 55 1 16
-1 24 -3 18 -8 -18 -33 -16 -41 2 -8 23 26 55 58 55 32 0 69 -34 69 -64 1 -21
1 -21 12 -1 23 41 64 48 77 13 6 -17 9 -18 14 -6 7 21 75 44 89 30 11 -11 -16
-72 -33 -72 -5 0 -3 -10 5 -22 17 -24 6 -58 -21 -58 -14 0 -14 -2 1 -25 17
-25 21 -82 8 -101 -10 -16 -45 -25 -60 -15 -17 10 -11 47 7 43 28 -6 3 21 -29
32 -29 9 -35 16 -36 41 -1 17 2 37 6 45 8 17 3 40 -9 40 -5 0 -6 -10 -4 -22 2
-15 -8 -38 -30 -65 -19 -23 -36 -41 -39 -40 -2 1 19 -20 48 -48 33 -32 54 -62
59 -84 4 -19 20 -56 36 -83 16 -27 29 -55 29 -63 0 -22 -43 -18 -68 5 -12 12
-22 16 -22 11 0 -5 5 -13 11 -17 20 -12 5 -111 -21 -139 -21 -22 -22 -25 -5
-25 10 0 16 3 12 6 -9 10 45 54 67 54 13 0 36 -34 36 -55 0 -26 -22 -39 -39
-22 -8 8 -11 8 -11 -1 0 -7 11 -24 26 -38 19 -20 24 -34 22 -62 -2 -30 -7 -37
-23 -36 -21 0 -21 0 -3 -35 22 -43 24 -138 3 -187 -11 -27 -26 -40 -62 -55
-63 -26 -92 -41 -72 -35 26 7 79 -60 93 -116 9 -39 -7 -35 -30 8 -10 20 -33
47 -50 61 l-31 23 4 -22 c2 -13 -7 -50 -20 -83 l-25 -60 21 -14 c95 -67 174
-266 151 -381 -10 -46 -9 -49 12 -54 44 -11 42 -106 -2 -106 -22 0 -16 31 6
37 11 3 20 9 20 14 0 21 -35 -9 -100 -86 -64 -76 -147 -155 -164 -155 -4 0
-16 -9 -28 -20 -24 -22 -48 -26 -48 -9 0 5 -5 7 -11 3 -8 -5 -6 -10 5 -16 20
-11 21 -34 0 -46 -14 -8 -14 -10 0 -21 20 -17 21 -55 2 -70 -18 -15 -56 2 -56
24 0 19 17 28 23 13 3 -8 6 -8 6 -2 2 26 -41 48 -94 48 -53 0 -54 1 -58 31 -2
16 -5 1 -6 -35 -2 -66 -20 -108 -41 -95 -7 4 -8 24 -4 54 l6 48 -113 0 c-63 1
-124 4 -136 8 -30 10 -31 -16 -3 -80 11 -26 20 -51 20 -55 0 -5 -75 -9 -166
-8 -161 2 -165 3 -160 23 3 11 11 46 20 77 8 32 12 58 10 58 -31 0 -205 -48
-274 -76 -49 -20 -90 -37 -90 -38 0 -1 30 0 68 2 56 3 70 1 84 -15 16 -17 14
-18 -60 -19 -53 -1 -94 -8 -132 -22 -30 -12 -56 -22 -57 -22 -2 0 -3 11 -3 24
0 14 -4 28 -10 31 -6 4 -7 -6 -4 -25 6 -29 5 -30 -27 -30 -19 0 -50 -4 -70 -9
-61 -14 -65 -2 -25 77 36 71 46 122 25 122 -6 0 -8 -9 -4 -20 5 -15 3 -18 -9
-14 -36 14 -29 70 10 80 31 8 64 -19 64 -53 0 -14 6 -23 15 -23 8 0 15 -5 15
-12 0 -6 3 -8 7 -5 3 4 -1 15 -10 25 -16 17 -16 20 1 38 40 44 132 159 132
165 0 3 -13 6 -30 6 -25 0 -30 -4 -30 -24 0 -27 -24 -40 -44 -24 -10 8 -15 5
-24 -14 -6 -14 -18 -25 -26 -25 -20 0 -39 27 -30 42 6 11 5 11 -8 0 -17 -14
-47 -7 -49 12 -1 6 -1 20 0 31 1 12 -7 24 -21 30 -40 17 -34 43 13 64 52 23
61 20 75 -24 11 -36 7 -43 -14 -25 -7 5 -6 3 2 -6 12 -14 17 -14 37 -3 20 11
21 14 7 17 -11 2 -18 13 -19 30 -2 43 1 54 25 103 l24 47 -30 6 c-54 11 -88 7
-95 -11 -4 -9 -1 -19 5 -21 17 -5 -8 -42 -29 -42 -22 0 -51 35 -47 57 2 10 13
22 26 28 12 5 22 15 22 22 0 7 7 13 15 13 9 0 12 6 9 15 -4 8 -1 15 5 15 5 0
2 15 -9 33 -30 51 -42 128 -29 190 19 88 111 157 212 157 28 0 41 7 67 36 30
35 32 35 51 18 24 -22 24 -32 -3 -61 -19 -21 -20 -23 -4 -23 30 0 83 -62 95
-111 21 -83 42 -148 50 -153 4 -3 6 6 3 20 -3 16 2 32 16 47 17 18 62 153 62
185 0 4 -21 15 -47 23 -27 9 -57 20 -68 24 -16 7 -15 3 7 -21 43 -47 58 -83
46 -110 -6 -13 -14 -24 -18 -24 -13 0 -30 25 -29 44 0 12 3 15 6 9 9 -24 23
-14 14 10 -11 29 -43 67 -105 126 -58 55 -110 127 -101 141 4 6 -5 5 -19 -2
-35 -16 -46 -1 -16 22 21 16 23 21 12 42 -7 12 -18 41 -26 63 l-13 40 -11 -40
c-12 -43 -41 -68 -67 -59 -21 8 -19 37 5 65 15 19 21 21 28 11 7 -10 13 0 21
32 19 77 17 79 -38 46 -33 -20 -53 -41 -60 -62 -29 -83 4 -150 75 -152 24 -1
39 -7 38 -14 -3 -32 -5 -34 -31 -27 -23 5 -26 4 -15 -6 18 -19 15 -29 -8 -29
-17 0 -18 -3 -10 -26 10 -24 8 -26 -11 -21 -17 5 -20 2 -16 -13 6 -23 -8 -35
-50 -43 -36 -7 -47 3 -38 33 8 26 29 26 22 0 -3 -12 -1 -18 5 -14 13 8 3 96
-17 154 -18 52 -12 148 14 200 20 40 92 83 129 77 16 -3 22 1 22 13 0 13 -6
16 -24 13 -13 -3 -34 1 -47 8 -13 7 -32 12 -42 10 -12 -1 -20 5 -24 18 -3 14
-13 21 -29 21 -20 0 -24 5 -24 30 0 17 5 30 12 30 6 0 2 9 -10 20 -27 25 -27
35 -3 61 18 20 18 21 -5 44 -28 28 -30 52 -8 83 22 32 68 27 72 -7 3 -20 0
-23 -15 -17 -13 5 -11 0 9 -21 14 -15 28 -41 30 -58 l3 -30 32 46 32 47 -18
38 c-42 88 -53 137 -52 242 1 106 -9 142 -47 157 -11 4 -9 -2 8 -20 22 -23 23
-29 12 -58 -10 -29 -10 -30 3 -13 15 19 15 19 15 -2 0 -12 -6 -22 -12 -22 -7
0 -35 -11 -62 -25 -28 -14 -54 -21 -58 -17 -10 10 10 72 23 72 20 0 7 20 -17
26 -14 4 -36 23 -50 45 -18 28 -31 39 -49 39 -15 0 -25 6 -25 14 0 22 30 28
60 12 26 -13 29 -12 34 8 4 16 -5 30 -37 58 -63 54 -82 116 -70 228 11 93 4
134 -27 170 -11 13 -20 29 -20 37 0 22 47 15 64 -9z m376 -497 c0 -23 -45 -61
-71 -61 -45 0 -27 54 24 69 46 13 47 13 47 -8z m-60 -85 c0 -8 -4 -18 -10 -21
-5 -3 -10 3 -10 14 0 12 5 21 10 21 6 0 10 -6 10 -14z m10 -810 c0 -11 -19
-15 -25 -6 -3 5 1 10 9 10 9 0 16 -2 16 -4z m20 -136 c0 -5 -7 -10 -15 -10 -8
0 -15 5 -15 10 0 6 7 10 15 10 8 0 15 -4 15 -10z m1556 -197 c4 -14 -1 -58
-10 -97 -20 -87 -20 -106 -1 -106 16 0 30 -42 21 -65 -8 -21 -22 -19 -47 6
-18 18 -21 30 -16 73 4 49 3 53 -34 91 -42 43 -48 62 -23 72 11 4 23 -2 33
-16 15 -20 19 -21 30 -7 8 9 11 26 7 39 -3 13 -3 27 1 31 14 14 33 4 39 -21z
m-136 -47 c0 -3 -4 -8 -10 -11 -5 -3 -10 -1 -10 4 0 6 5 11 10 11 6 0 10 -2
10 -4z m90 -763 c0 -13 -4 -32 -10 -42 -6 -13 -2 -39 16 -91 25 -70 25 -75 9
-87 -13 -9 -15 -16 -7 -25 5 -7 12 -24 14 -38 3 -23 0 -25 -32 -22 -47 5 -90
29 -90 50 0 12 -3 13 -8 5 -8 -12 -73 -43 -92 -43 -6 0 -10 27 -10 64 0 61 -1
64 -30 76 -39 16 -38 35 1 49 24 8 35 7 55 -6 14 -9 23 -21 20 -28 -6 -16 13
-35 34 -35 9 0 11 3 4 8 -16 11 -74 133 -68 143 3 5 9 9 14 9 17 0 82 -107 80
-132 -1 -12 -2 -26 -1 -30 1 -5 1 -11 0 -14 -1 -12 56 -44 76 -43 l20 1 -20 5
c-38 9 -65 44 -65 84 0 21 -4 41 -10 44 -23 14 -9 56 33 98 45 46 67 46 67 0z
m-1072 -152 c3 -39 -22 -69 -52 -64 -21 4 -26 1 -26 -15 0 -50 -37 -72 -59
-34 -9 15 -10 15 -11 -5 0 -31 -42 -41 -75 -19 -14 9 -25 21 -25 26 0 14 41
23 53 11 25 -25 39 -12 32 28 -6 34 -4 40 14 46 11 3 36 3 55 0 19 -4 43 -2
53 4 17 10 17 10 0 11 -14 0 -16 4 -7 19 14 28 45 23 48 -8z m-98 -1 c0 -5 -4
-10 -10 -10 -5 0 -10 5 -10 10 0 6 5 10 10 10 6 0 10 -4 10 -10z m440 0 c0 -5
-2 -10 -4 -10 -3 0 -8 5 -11 10 -3 6 -1 10 4 10 6 0 11 -4 11 -10z m40 0 c0
-5 -4 -10 -10 -10 -5 0 -10 5 -10 10 0 6 5 10 10 10 6 0 10 -4 10 -10z m140
-20 c8 -5 11 -12 8 -16 -11 -10 10 -44 27 -44 7 0 23 12 34 26 23 30 48 28 91
-6 20 -16 23 -22 14 -37 -15 -24 -38 -28 -56 -9 -14 13 -17 12 -28 -10 -16
-29 -34 -31 -53 -4 -14 20 -14 20 -42 -2 -21 -16 -31 -19 -44 -11 -9 6 -15 19
-14 28 1 13 -2 14 -10 6 -15 -15 -60 -14 -75 1 -7 7 -12 25 -12 40 0 27 3 29
38 27 20 -1 48 3 62 9 32 14 41 14 60 2z"/>
<path d="M241 2880 c0 -14 28 -72 29 -59 0 4 -7 22 -15 40 -8 19 -14 27 -14
19z"/>
<path d="M361 2778 c-1 -9 6 -23 14 -32 8 -8 15 -21 15 -30 0 -8 9 -20 20 -26
28 -15 27 -44 -1 -37 -16 4 -19 3 -11 -5 13 -13 42 -3 42 15 0 8 -9 22 -20 32
-25 22 -25 32 -2 38 16 4 16 5 -1 6 -20 1 -41 18 -50 41 -4 12 -6 12 -6 -2z"/>
<path d="M370 2685 c7 -9 15 -13 17 -11 7 7 -7 26 -19 26 -6 0 -6 -6 2 -15z"/>
<path d="M960 2649 c0 -5 5 -7 10 -4 6 3 10 8 10 11 0 2 -4 4 -10 4 -5 0 -10
-5 -10 -11z"/>
<path d="M1577 2603 c9 -13 16 -23 17 -23 0 0 1 10 1 23 0 14 -6 23 -16 23
-15 0 -15 -3 -2 -23z"/>
<path d="M1507 2608 c2 -5 13 -8 24 -8 10 0 19 3 19 8 0 4 -11 7 -24 7 -13 0
-22 -3 -19 -7z"/>
<path d="M760 2600 c-33 -4 -40 -8 -27 -14 19 -9 24 -38 4 -30 -26 9 -94 -47
-115 -97 -32 -72 -34 -89 -21 -164 6 -39 12 -75 12 -82 0 -7 10 -4 25 8 14 10
29 19 33 19 17 0 9 -28 -13 -44 l-23 -16 27 -23 c15 -12 42 -31 60 -41 l33
-18 -25 21 c-24 20 -24 22 -9 49 15 27 15 29 -9 46 -36 27 -62 92 -62 158 0
55 1 58 43 92 25 21 63 39 91 46 26 6 66 20 89 31 l41 21 -23 19 c-13 11 -31
19 -41 19 -10 0 -24 2 -32 3 -7 2 -33 1 -58 -3z m80 -40 c0 -5 -4 -10 -10 -10
-5 0 -10 5 -10 10 0 6 5 10 10 10 6 0 10 -4 10 -10z m-210 -200 c0 -5 -5 -10
-11 -10 -5 0 -7 5 -4 10 3 6 8 10 11 10 2 0 4 -4 4 -10z"/>
<path d="M1802 2596 c7 -8 15 -12 17 -11 5 6 -10 25 -20 25 -5 0 -4 -6 3 -14z"/>
<path d="M2050 2593 c36 -7 50 -22 50 -52 1 -23 2 -24 11 -8 15 25 -24 68 -60
66 l-26 -2 25 -4z"/>
<path d="M947 2530 c-3 -11 0 -18 6 -17 17 3 59 -66 54 -90 -2 -13 -1 -23 4
-23 4 0 10 -17 12 -37 2 -21 3 -9 0 26 -4 67 -12 89 -48 133 -21 25 -23 25
-28 8z"/>
<path d="M890 2495 c0 -11 -11 -15 -36 -15 l-37 0 27 -21 c14 -11 26 -27 26
-34 0 -8 4 -16 9 -20 6 -3 6 6 1 24 -7 24 -4 32 22 55 27 24 28 26 9 26 -12 0
-21 -6 -21 -15z"/>
<path d="M1275 2460 c3 -5 12 -7 20 -3 21 7 19 13 -6 13 -11 0 -18 -4 -14 -10z"/>
<path d="M723 2432 c-26 -20 -38 -77 -24 -114 12 -32 60 -78 81 -78 8 1 3 7
-12 16 -16 8 -28 17 -28 20 0 3 18 26 40 51 41 47 51 88 28 111 -17 17 -59 14
-85 -6z"/>
<path d="M1712 2387 l58 -57 62 34 62 35 -28 10 c-33 13 -68 14 -119 2 -21 -5
-39 -5 -43 0 -3 5 -15 14 -27 21 -12 6 4 -14 35 -45z"/>
<path d="M871 2383 c-1 -6 -4 -20 -7 -30 -5 -17 -5 -17 6 0 6 10 9 23 6 30 -3
9 -5 9 -5 0z"/>
<path d="M1630 2379 c0 -5 5 -7 10 -4 6 3 10 8 10 11 0 2 -4 4 -10 4 -5 0 -10
-5 -10 -11z"/>
<path d="M1913 2375 c0 -8 4 -12 7 -10 14 9 60 -37 82 -78 13 -27 21 -62 22
-98 1 -32 5 -55 10 -52 11 7 0 102 -18 144 -12 28 -85 109 -99 109 -2 0 -4 -7
-4 -15z"/>
<path d="M1469 2359 c16 -6 28 -6 35 1 7 7 -1 10 -24 9 -33 0 -34 -1 -11 -10z"/>
<path d="M1182 2335 c-28 -19 -30 -24 -17 -35 10 -8 15 -9 15 -2 0 6 6 9 13 6
7 -2 27 2 43 11 16 8 23 15 17 15 -7 0 -13 6 -13 13 0 20 -22 17 -58 -8z"/>
<path d="M1087 2344 c-4 -4 -7 -16 -7 -26 0 -31 -41 -103 -50 -88 -5 9 -11 7
-21 -8 -24 -33 -95 -63 -146 -60 -41 2 -49 -1 -74 -32 l-28 -34 20 -14 c12 -8
50 -25 85 -37 56 -19 65 -20 76 -8 7 9 21 19 33 23 17 7 15 9 -12 9 -40 1 -66
26 -57 55 4 11 12 24 18 28 15 11 36 10 36 -1 0 -5 -6 -12 -12 -14 -9 -4 -8
-6 2 -6 8 -1 39 8 68 19 29 11 65 20 81 20 29 0 29 0 24 55 -5 63 -25 130 -36
119z m-62 -163 c3 -5 1 -12 -5 -16 -5 -3 -10 1 -10 9 0 18 6 21 15 7z"/>
<path d="M1850 2329 c-25 -14 -28 -18 -10 -13 26 7 72 35 55 33 -6 -1 -26 -10
-45 -20z"/>
<path d="M1541 2277 c-22 -29 -47 -70 -56 -90 -9 -21 -19 -35 -24 -33 -5 3 17
-21 48 -53 59 -61 82 -74 38 -21 -35 41 -44 90 -22 124 30 46 85 27 85 -29 0
-28 -4 -36 -24 -41 -28 -7 -27 -9 18 -107 38 -84 58 -148 63 -209 4 -40 10
-58 19 -58 9 0 14 12 14 34 0 41 25 69 55 64 17 -4 28 4 46 34 18 28 30 38 50
38 l25 0 -29 -61 c-24 -51 -29 -71 -25 -118 5 -71 29 -120 71 -148 29 -20 78
-34 52 -15 -5 4 -10 42 -11 85 -1 68 -4 81 -24 100 l-22 22 17 -27 c17 -28 17
-28 -7 -28 -36 0 -55 44 -33 76 17 26 53 32 73 12 8 -8 7 6 -4 42 -9 30 -18
62 -19 70 -1 8 -9 13 -16 11 -73 -19 -179 34 -230 115 -18 30 -21 45 -16 101
4 53 10 70 33 95 16 17 24 28 17 25 -6 -4 -34 4 -61 18 -27 14 -52 25 -56 25
-3 0 -23 -24 -45 -53z m63 -12 c3 -8 1 -15 -4 -15 -6 0 -10 7 -10 15 0 8 2 15
4 15 2 0 6 -7 10 -15z"/>
<path d="M955 2275 c-28 -18 -57 -40 -64 -49 -12 -14 -10 -16 11 -16 35 0 116
64 118 93 0 12 -13 7 -65 -28z"/>
<path d="M1380 2295 c0 -5 5 -17 10 -25 5 -8 10 -10 10 -5 0 6 -5 17 -10 25
-5 8 -10 11 -10 5z"/>
<path d="M1444 2285 c-3 -8 -4 -20 -2 -27 3 -7 7 -1 10 15 6 29 1 36 -8 12z"/>
<path d="M1940 2275 c13 -14 26 -25 28 -25 3 0 -5 11 -18 25 -13 14 -26 25
-28 25 -3 0 5 -11 18 -25z"/>
<path d="M1835 2270 c28 -12 37 -12 30 0 -3 6 -16 10 -28 9 -21 0 -21 -1 -2
-9z"/>
<path d="M1750 2241 c0 -10 19 -25 25 -20 1 2 -3 10 -11 17 -8 7 -14 8 -14 3z"/>
<path d="M1881 2235 c9 -11 32 -49 52 -85 20 -36 37 -60 37 -55 0 6 -11 28
-24 49 -13 22 -22 45 -20 50 1 6 -11 22 -29 36 -23 17 -28 19 -16 5z"/>
<path d="M1318 2193 c6 -2 18 -2 25 0 6 3 1 5 -13 5 -14 0 -19 -2 -12 -5z"/>
<path d="M1809 2176 c29 -31 35 -33 22 -7 -6 10 -18 22 -28 25 -13 5 -11 1 6
-18z"/>
<path d="M1713 2145 c4 -26 16 -62 26 -79 21 -34 86 -76 118 -76 10 0 24 -5
31 -12 21 -21 14 8 -14 65 -36 71 -62 99 -84 87 -20 -11 -60 13 -60 35 0 8 -5
17 -12 21 -8 5 -9 -6 -5 -41z"/>
<path d="M1982 2165 c0 -16 2 -22 5 -12 2 9 2 23 0 30 -3 6 -5 -1 -5 -18z"/>
<path d="M1405 2170 c3 -5 11 -10 16 -10 6 0 7 5 4 10 -3 6 -11 10 -16 10 -6
0 -7 -4 -4 -10z"/>
<path d="M590 2125 c-11 -13 -10 -14 1 -10 8 3 28 -7 45 -22 17 -16 38 -29 45
-31 32 -8 60 -34 54 -50 -21 -55 -33 -216 -16 -226 5 -4 7 12 4 35 l-6 41 30
-15 c27 -14 57 -45 98 -102 13 -18 14 -17 3 14 -10 32 -9 36 17 59 23 19 29
33 30 71 1 25 5 55 8 66 6 18 3 20 -43 17 -27 -2 -54 -10 -61 -18 -8 -10 -8
-14 0 -14 6 0 11 6 11 12 0 7 7 2 16 -10 21 -30 11 -52 -24 -52 -35 0 -52 16
-52 51 0 32 16 47 60 55 l33 7 -54 21 c-78 30 -138 64 -164 92 -20 21 -24 22
-35 9z m280 -239 c0 -3 -4 -8 -10 -11 -5 -3 -10 -1 -10 4 0 6 5 11 10 11 6 0
10 -2 10 -4z m-70 -26 c0 -5 -4 -10 -10 -10 -5 0 -10 5 -10 10 0 6 5 10 10 10
6 0 10 -4 10 -10z m40 0 c0 -5 -4 -10 -10 -10 -5 0 -10 5 -10 10 0 6 5 10 10
10 6 0 10 -4 10 -10z"/>
<path d="M1313 2123 c-9 -3 -13 -27 -13 -68 0 -61 1 -64 41 -100 42 -38 89
-123 89 -162 0 -13 5 -23 10 -23 6 0 16 -12 23 -27 20 -47 69 -124 75 -119 2
3 -9 27 -26 53 -64 99 -110 246 -117 372 -4 59 -7 67 -27 73 -28 7 -39 8 -55
1z"/>
<path d="M1077 2074 c-21 -14 -37 -27 -35 -29 2 -1 22 -5 46 -8 l42 -5 0 34
c0 19 -3 34 -8 34 -4 0 -25 -12 -45 -26z"/>
<path d="M1443 2074 c11 -13 17 -37 17 -66 0 -25 3 -61 7 -79 6 -32 7 -33 13
-9 8 34 42 33 54 -1 11 -33 0 -72 -14 -49 -14 21 -12 11 6 -51 24 -79 56 -137
113 -199 l49 -55 24 25 c18 19 19 21 2 7 -21 -17 -23 -17 -68 30 l-46 48 1 75
c2 89 -5 129 -37 191 -28 56 -65 102 -107 131 -29 20 -30 20 -14 2z"/>
<path d="M1985 2048 c7 -38 25 -82 30 -76 3 2 -5 26 -16 54 -11 27 -17 37 -14
22z"/>
<path d="M529 2033 c-13 -17 -13 -17 6 -3 11 8 22 16 24 17 2 2 0 3 -6 3 -6 0
-17 -8 -24 -17z"/>
<path d="M635 2003 l-18 -47 -21 27 -22 27 -2 -28 c-1 -16 5 -37 12 -48 15
-18 15 -18 9 4 -8 32 27 26 40 -8 3 -8 6 2 6 22 1 20 6 49 11 64 6 15 9 28 7
31 -2 2 -12 -18 -22 -44z"/>
<path d="M992 1977 c-10 -18 -22 -50 -26 -70 -7 -36 -6 -37 23 -37 23 0 29 4
25 15 -8 20 13 45 37 45 10 0 31 -20 49 -46 l31 -46 -26 -24 c-14 -12 -25 -27
-25 -32 0 -6 -7 -13 -16 -16 -17 -7 -46 48 -37 71 4 11 -1 12 -23 7 -16 -4
-30 -8 -32 -9 -6 -5 47 -109 66 -130 9 -11 34 -31 54 -43 20 -13 39 -33 41
-45 3 -12 4 66 3 173 l-1 195 -63 3 c-36 2 -60 7 -57 12 4 6 4 10 2 10 -3 0
-14 -15 -25 -33z"/>
<path d="M2025 1960 c-3 -5 -1 -10 4 -10 6 0 11 5 11 10 0 6 -2 10 -4 10 -3 0
-8 -4 -11 -10z"/>
<path d="M2056 1943 c-5 -11 -2 -13 10 -9 8 3 25 1 37 -6 19 -10 20 -9 9 4
-18 23 -50 29 -56 11z"/>
<path d="M1169 1945 c-9 -34 6 -43 66 -44 l40 0 -28 24 c-24 22 -75 34 -78 20z"/>
<path d="M2021 1925 c0 -27 16 -105 18 -83 0 9 5 18 10 20 6 2 2 21 -9 43 -12
26 -18 33 -19 20z"/>
<path d="M1161 1874 c0 -11 3 -14 6 -6 3 7 2 16 -1 19 -3 4 -6 -2 -5 -13z"/>
<path d="M1230 1881 c0 -6 9 -9 19 -8 11 0 17 5 15 9 -7 11 -34 10 -34 -1z"/>
<path d="M1297 1877 c-3 -7 -5 -61 -6 -120 -2 -104 -1 -108 18 -98 69 37 81
145 24 202 -22 20 -32 25 -36 16z m43 -71 c0 -3 -4 -8 -10 -11 -5 -3 -10 -1
-10 4 0 6 5 11 10 11 6 0 10 -2 10 -4z m0 -30 c0 -3 -4 -8 -10 -11 -5 -3 -10
-1 -10 4 0 6 5 11 10 11 6 0 10 -2 10 -4z"/>
<path d="M1750 1830 c-9 -6 -10 -10 -3 -10 6 0 15 5 18 10 8 12 4 12 -15 0z"/>
<path d="M893 1798 c-6 -9 -5 -21 3 -37 12 -23 12 -22 11 13 -1 41 -1 41 -14
24z"/>
<path d="M1940 1790 c0 -5 5 -10 11 -10 5 0 7 5 4 10 -3 6 -8 10 -11 10 -2 0
-4 -4 -4 -10z"/>
<path d="M2040 1775 c-1 -16 -1 -40 0 -52 1 -16 -4 -23 -17 -23 -14 0 -15 -2
-4 -9 9 -6 14 -27 14 -60 0 -28 3 -51 8 -51 4 0 26 17 49 38 41 40 46 55 41
132 -3 38 -15 58 -25 41 -10 -15 -53 -14 -59 2 -3 6 -6 -1 -7 -18z"/>
<path d="M740 1786 c0 -3 9 -10 20 -16 11 -6 20 -8 20 -6 0 3 -9 10 -20 16
-11 6 -20 8 -20 6z"/>
<path d="M1761 1776 c-7 -8 -8 -17 -3 -20 6 -3 13 1 16 10 9 23 2 28 -13 10z"/>
<path d="M1979 1758 c4 -28 6 -29 9 -9 2 13 0 27 -5 32 -6 6 -7 -3 -4 -23z"/>
<path d="M725 1745 c9 -41 19 -49 40 -29 13 14 18 15 25 4 4 -7 6 -19 3 -27
-3 -7 0 -13 6 -13 14 0 14 11 1 46 -10 26 -11 26 -30 9 -11 -10 -21 -16 -23
-14 -2 2 -9 15 -15 29 -12 25 -12 25 -7 -5z"/>
<path d="M1766 1707 c3 -26 2 -37 -5 -32 -7 3 -8 0 -5 -9 3 -9 10 -13 15 -10
5 3 9 1 9 -5 0 -22 57 -74 112 -102 33 -17 62 -28 65 -25 3 3 -2 8 -11 12 -9
3 -16 12 -16 19 0 8 -8 11 -20 8 -28 -7 -93 39 -113 80 -8 18 -20 48 -26 67
l-11 35 6 -38z"/>
<path d="M907 1724 c-3 -5 1 -15 9 -22 16 -14 18 -5 5 17 -5 7 -11 9 -14 5z"/>
<path d="M866 1660 c4 -36 8 -67 10 -69 9 -10 3 105 -6 119 -7 10 -8 -6 -4
-50z"/>
<path d="M932 1675 c0 -5 6 -26 13 -45 7 -19 14 -28 14 -20 0 8 -6 29 -14 45
-7 17 -13 26 -13 20z"/>
<path d="M760 1655 c-7 -9 -8 -15 -2 -15 5 0 12 7 16 15 3 8 4 15 2 15 -2 0
-9 -7 -16 -15z"/>
<path d="M1660 1655 c0 -8 4 -15 10 -15 5 0 7 7 4 15 -4 8 -8 15 -10 15 -2 0
-4 -7 -4 -15z"/>
<path d="M1004 1632 c21 -40 46 -146 46 -197 0 -27 3 -35 9 -26 6 9 18 11 35
7 30 -7 32 -2 40 106 4 54 3 66 -9 62 -16 -7 -62 16 -105 53 l-33 27 17 -32z"/>
<path d="M1477 1648 c6 -7 13 -20 16 -28 4 -10 6 -8 6 6 1 12 -6 25 -15 28
-13 5 -14 3 -7 -6z"/>
<path d="M1695 1650 c-3 -5 0 -10 9 -10 8 0 17 -6 19 -12 4 -8 6 -9 6 -2 1 18
-26 37 -34 24z"/>
<path d="M800 1600 c-11 -7 -12 -12 -4 -20 8 -8 13 -6 17 9 3 12 4 21 4 21 -1
0 -9 -5 -17 -10z"/>
<path d="M1348 1603 c7 -3 16 -2 19 1 4 3 -2 6 -13 5 -11 0 -14 -3 -6 -6z"/>
<path d="M1540 1603 c0 -5 18 -21 40 -36 45 -32 44 -44 -7 -82 -33 -26 -33
-28 -17 -46 9 -10 14 -25 10 -35 -5 -14 -2 -16 26 -10 68 15 134 17 176 8 23
-5 42 -8 42 -6 0 2 -39 33 -87 70 -49 36 -87 70 -85 75 1 5 -4 9 -11 9 -7 0
-26 14 -42 30 -28 29 -45 38 -45 23z"/>
<path d="M821 1554 c-1 -7 10 -19 24 -28 21 -14 24 -14 19 -1 -4 8 -12 15 -19
15 -7 0 -16 6 -18 13 -4 7 -6 8 -6 1z"/>
<path d="M1400 1549 c0 -5 5 -7 10 -4 6 3 10 8 10 11 0 2 -4 4 -10 4 -5 0 -10
-5 -10 -11z"/>
<path d="M972 1515 c0 -16 2 -22 5 -12 2 9 2 23 0 30 -3 6 -5 -1 -5 -18z"/>
<path d="M900 1491 c14 -11 37 -26 52 -33 15 -7 29 -19 32 -28 2 -8 4 -3 5 12
1 20 -3 26 -14 22 -8 -3 -27 3 -42 13 -42 30 -61 37 -33 14z"/>
<path d="M1828 1450 c23 -17 42 -36 42 -43 0 -8 4 -7 10 3 11 17 14 37 4 27
-3 -3 -24 5 -45 19 -54 34 -60 30 -11 -6z"/>
<path d="M1173 1453 c-23 -9 4 -41 34 -40 15 0 22 2 15 4 -6 3 -9 9 -6 15 4 6
0 14 -7 19 -15 10 -18 10 -36 2z"/>
<path d="M1347 1435 c-10 -14 -14 -25 -10 -25 4 0 16 12 26 25 10 14 14 25 10
25 -4 0 -16 -12 -26 -25z"/>
<path d="M1464 1406 c-25 -17 -142 -56 -168 -56 -20 0 -20 -1 2 -16 12 -8 22
-24 22 -35 0 -22 -18 -26 -26 -4 -4 8 -11 15 -16 15 -6 0 -4 -7 3 -17 11 -13
11 -17 2 -20 -16 -6 -17 -39 -3 -48 6 -4 18 -1 26 6 12 9 18 8 35 -7 21 -19
21 -18 88 54 36 40 71 72 78 72 23 0 23 19 0 44 -21 22 -26 24 -43 12z"/>
<path d="M692 1340 c-21 -18 -31 -37 -13 -25 6 3 14 -3 20 -12 6 -10 11 -13
11 -8 0 6 5 3 10 -5 6 -9 10 -10 10 -3 0 7 -9 17 -21 24 -14 7 -18 14 -11 21
12 12 48 -5 75 -36 l18 -21 -11 22 c-6 13 -20 28 -33 34 -12 7 -24 15 -27 20
-3 4 -15 -1 -28 -11z"/>
<path d="M563 1321 c-103 -75 -94 -198 20 -274 45 -30 65 -37 104 -37 62 0
112 14 157 45 l36 24 15 -22 c20 -29 20 -29 -24 -57 l-39 -24 19 -24 c10 -14
19 -31 19 -38 0 -9 11 -14 30 -14 30 0 50 -22 50 -57 0 -16 -9 -18 -68 -18
-53 0 -67 3 -67 15 -1 23 -64 80 -88 79 -22 0 -22 0 -2 -9 35 -14 51 -39 37
-60 -8 -13 -8 -21 -1 -26 6 -3 13 3 16 15 9 34 23 13 23 -33 0 -48 -50 -135
-78 -137 -10 -1 -6 -4 8 -8 16 -5 28 -3 33 5 22 36 302 203 343 204 13 0 24
162 24 348 l0 122 -30 0 c-16 0 -33 1 -37 3 -14 4 -2 -157 13 -183 13 -23 14
-23 9 -2 -8 27 11 30 20 2 6 -20 -9 -60 -24 -60 -14 0 -51 46 -52 66 0 10 -4
28 -8 39 -7 16 -11 11 -25 -31 -23 -70 -44 -98 -62 -83 -8 6 -14 9 -14 5 0
-12 50 -86 58 -86 5 0 18 -9 30 -20 11 -11 23 -16 26 -11 3 5 -1 14 -9 21 -20
17 -19 46 2 54 19 8 45 -15 48 -41 1 -10 6 -30 10 -46 10 -36 -5 -52 -62 -66
-52 -14 -80 0 -67 33 5 13 14 16 38 11 l31 -6 -30 19 c-16 11 -40 30 -51 43
-21 23 -64 97 -64 110 0 4 -7 24 -16 45 l-16 38 -13 -38 c-7 -21 -24 -49 -36
-62 -28 -30 -102 -74 -123 -74 -23 0 -20 16 6 34 l22 16 -22 0 c-40 0 -90 28
-106 59 -19 35 -21 123 -5 154 6 12 21 32 32 45 29 31 8 28 -40 -7z m540 -66
c4 -8 2 -17 -3 -20 -6 -4 -10 3 -10 14 0 25 6 27 13 6z m-233 -165 c0 -5 -10
-10 -22 -10 -19 0 -20 2 -8 10 19 13 30 13 30 0z m-260 -30 c0 -5 -5 -10 -11
-10 -5 0 -7 5 -4 10 3 6 8 10 11 10 2 0 4 -4 4 -10z"/>
<path d="M1150 1301 c0 -28 2 -30 40 -28 22 1 41 6 44 13 8 20 -10 35 -37 30
-15 -3 -27 0 -27 5 0 5 -4 9 -10 9 -5 0 -10 -13 -10 -29z"/>
<path d="M1640 1321 c-17 -5 -21 -9 -12 -15 6 -4 12 -16 12 -26 0 -18 7 -20
88 -18 100 3 121 -6 168 -67 33 -44 53 -98 54 -150 2 -37 2 -38 10 -13 10 34
-16 125 -50 170 -21 28 -21 32 -7 43 9 7 14 15 10 18 -3 4 -11 -1 -18 -9 -10
-15 -14 -15 -46 1 -19 10 -35 19 -37 20 -2 2 3 14 12 27 l15 23 -87 2 c-48 1
-98 -2 -112 -6z"/>
<path d="M1580 1300 c0 -5 7 -7 15 -4 8 4 15 8 15 10 0 2 -7 4 -15 4 -8 0 -15
-4 -15 -10z"/>
<path d="M791 1244 c0 -11 3 -14 6 -6 3 7 2 16 -1 19 -3 4 -6 -2 -5 -13z"/>
<path d="M1560 1252 c0 -6 5 -14 10 -17 6 -4 8 -11 5 -16 -4 -5 2 -9 11 -9 16
0 15 2 -2 23 -10 12 -20 24 -21 26 -2 2 -3 -1 -3 -7z"/>
<path d="M615 1239 c-12 -18 5 -78 27 -99 15 -13 36 -20 63 -20 40 0 85 22 85
41 0 5 -9 0 -20 -11 -22 -22 -70 -26 -101 -10 -25 14 -52 67 -46 91 6 21 2 25
-8 8z"/>
<path d="M690 1230 c6 -11 15 -20 20 -20 6 0 2 9 -7 20 -10 11 -19 20 -21 20
-1 0 2 -9 8 -20z"/>
<path d="M1654 1180 c-22 -16 -46 -41 -52 -55 -11 -23 -4 -20 63 25 41 27 81
50 89 50 25 0 66 -22 66 -36 0 -16 -61 -69 -113 -96 l-42 -23 50 -3 c27 -2 55
-8 62 -14 9 -7 12 -3 10 18 -1 19 3 30 14 32 12 2 18 -7 22 -35 2 -21 6 -44 8
-52 3 -9 -8 -17 -31 -23 -45 -10 -80 -2 -80 18 0 13 7 15 30 11 19 -4 30 -2
30 5 0 12 -120 5 -144 -9 -17 -9 -4 -32 27 -49 32 -18 129 -118 180 -187 l50
-68 44 42 c55 55 78 120 70 199 -4 37 -2 61 5 68 9 9 9 15 1 23 -7 7 -17 2
-33 -20 -12 -17 -26 -29 -31 -26 -5 4 -9 -3 -9 -14 0 -11 -13 -39 -29 -63
l-29 -43 29 -12 c36 -15 47 -40 26 -60 -17 -17 -39 -10 -31 11 4 9 -7 12 -40
10 -35 -2 -48 2 -66 21 l-23 24 36 40 c52 57 70 105 64 167 -7 66 -29 110 -70
134 -48 30 -105 26 -153 -10z m326 -354 c0 -3 -4 -8 -10 -11 -5 -3 -10 -1 -10
4 0 6 5 11 10 11 6 0 10 -2 10 -4z"/>
<path d="M1970 1205 c0 -3 13 -29 29 -58 16 -28 32 -65 36 -82 6 -20 10 -24
12 -13 5 18 -49 142 -66 152 -6 4 -11 5 -11 1z"/>
<path d="M1310 1190 c-8 -5 -10 -10 -5 -10 6 0 17 5 25 10 8 5 11 10 5 10 -5
0 -17 -5 -25 -10z"/>
<path d="M1366 1165 c-10 -8 -22 -12 -26 -10 -3 2 -5 -9 -2 -24 5 -34 -10 -46
-38 -31 -19 10 -20 8 -20 -75 l0 -85 46 22 c39 20 46 20 55 8 8 -12 9 -9 5 10
-13 66 -17 147 -7 173 12 31 12 31 -13 12z m-26 -149 c0 -3 -4 -8 -10 -11 -5
-3 -10 -1 -10 4 0 6 5 11 10 11 6 0 10 -2 10 -4z"/>
<path d="M1300 1160 c0 -5 5 -10 11 -10 5 0 7 5 4 10 -3 6 -8 10 -11 10 -2 0
-4 -4 -4 -10z"/>
<path d="M1510 1064 c0 -8 5 -12 10 -9 6 4 8 11 5 16 -9 14 -15 11 -15 -7z"/>
<path d="M1451 1024 c0 -11 3 -14 6 -6 3 7 2 16 -1 19 -3 4 -6 -2 -5 -13z"/>
<path d="M2057 988 c12 -13 23 -32 26 -43 5 -20 5 -20 6 0 1 24 -25 65 -41 65
-6 0 -2 -10 9 -22z"/>
<path d="M1461 990 c-1 -20 29 -69 67 -106 39 -40 94 -66 152 -72 42 -4 80
-25 80 -43 0 -5 -15 -13 -32 -18 -29 -9 -27 -10 15 -4 26 3 47 1 47 -3 1 -14
40 -61 40 -48 0 6 -8 21 -17 33 -10 11 -31 39 -48 61 -16 21 -35 39 -40 40 -9
0 -31 17 -126 95 -9 7 -21 21 -27 30 -8 15 -14 16 -42 7 -37 -13 -48 -9 -60
22 -5 12 -9 15 -9 6z"/>
<path d="M720 950 l-35 -7 35 -2 c19 0 42 4 50 9 13 9 13 10 0 9 -8 -1 -31 -5
-50 -9z"/>
<path d="M1390 948 c0 -4 4 -18 10 -32 7 -19 6 -26 -3 -27 -6 0 -3 -4 8 -8 28
-12 29 -8 6 36 -11 21 -20 35 -21 31z"/>
<path d="M1220 930 c0 -5 5 -10 10 -10 6 0 10 5 10 10 0 6 -4 10 -10 10 -5 0
-10 -4 -10 -10z"/>
<path d="M1160 911 c0 -11 26 -22 34 -14 12 12 5 23 -14 23 -11 0 -20 -4 -20
-9z"/>
<path d="M2061 884 c-16 -37 -9 -39 11 -3 9 16 14 29 9 29 -4 0 -13 -12 -20
-26z"/>
<path d="M596 848 c-9 -35 -7 -45 9 -52 9 -3 15 0 15 10 0 8 -4 13 -8 10 -5
-3 -6 8 -4 25 5 34 -3 39 -12 7z"/>
<path d="M646 861 c-12 -18 27 -51 58 -50 15 1 12 3 -11 10 -22 6 -33 16 -35
32 -2 17 -5 19 -12 8z"/>
<path d="M1430 858 c0 -2 11 -19 25 -38 28 -38 30 -47 13 -53 -7 -2 -4 -3 8
-1 18 3 20 -1 18 -39 -2 -68 -4 -69 -47 -34 -25 20 -27 25 -18 50 6 15 8 27 6
27 -3 0 -10 -11 -15 -24 -7 -19 -14 -23 -37 -20 -27 4 -26 3 3 -6 32 -10 51
-35 34 -45 -5 -3 -34 -2 -64 3 l-56 9 0 -38 c0 -38 13 -58 25 -39 3 5 13 10
22 10 11 0 14 -8 11 -29 -2 -17 -2 -28 1 -26 4 2 57 5 119 6 127 4 129 5 93
86 -31 67 -141 224 -141 201z m40 -207 c13 -24 13 -71 1 -71 -19 0 -66 21 -73
33 -13 21 -9 37 11 37 11 0 23 5 26 10 10 16 23 12 35 -9z"/>
<path d="M1203 816 c-13 -6 -23 -17 -23 -24 0 -7 -4 -11 -9 -8 -4 3 -16 -1
-26 -8 -16 -12 -15 -13 14 -14 17 0 31 4 31 9 0 6 5 7 10 4 6 -3 10 -1 10 5 0
7 6 10 13 7 8 -3 20 -1 27 3 11 7 11 11 1 24 -15 18 -17 18 -48 2z"/>
<path d="M1562 761 c6 -10 18 -17 25 -14 11 4 10 8 -4 19 -26 19 -35 17 -21
-5z"/>
<path d="M1035 741 c-115 -60 -165 -102 -74 -62 24 11 66 21 92 23 36 2 47 7
47 20 0 9 3 23 6 32 8 22 -11 18 -71 -13z"/>
<path d="M1340 766 c0 -2 8 -10 18 -17 15 -13 16 -12 3 4 -13 16 -21 21 -21
13z"/>
<path d="M1633 743 c9 -2 25 -2 35 0 9 3 1 5 -18 5 -19 0 -27 -2 -17 -5z"/>
<path d="M1606 665 c8 -37 14 -45 14 -19 0 10 -5 26 -10 34 -8 11 -9 7 -4 -15z"/>
<path d="M1718 652 c-10 -2 -18 -8 -18 -13 0 -11 11 -11 30 1 18 11 11 18 -12
12z"/>
<path d="M1819 643 c-13 -15 -12 -15 9 -4 23 12 28 21 13 21 -5 0 -15 -7 -22
-17z"/>
<path d="M1778 623 c7 -3 16 -2 19 1 4 3 -2 6 -13 5 -11 0 -14 -3 -6 -6z"/>
<path d="M1621 604 c0 -11 3 -14 6 -6 3 7 2 16 -1 19 -3 4 -6 -2 -5 -13z"/>
<path d="M1660 610 c-9 -6 -10 -10 -3 -10 6 0 15 5 18 10 8 12 4 12 -15 0z"/>
<path d="M1816 605 c4 -8 8 -15 10 -15 2 0 4 7 4 15 0 8 -4 15 -10 15 -5 0 -7
-7 -4 -15z"/>
<path d="M1028 593 c7 -3 16 -2 19 1 4 3 -2 6 -13 5 -11 0 -14 -3 -6 -6z"/>
<path d="M781 536 c-7 -8 -8 -17 -3 -19 4 -3 13 3 20 14 14 22 0 26 -17 5z"/>
<path d="M1095 510 c-3 -5 -1 -10 4 -10 19 0 12 -20 -6 -21 -15 0 -15 -2 2 -8
12 -5 23 -4 27 3 6 8 8 7 8 -1 0 -7 12 -11 30 -10 16 1 30 6 30 12 0 5 5 4 12
-3 15 -15 62 -16 52 -1 -4 7 0 9 14 5 12 -4 23 -2 28 6 4 7 4 10 -1 6 -4 -4
-13 0 -20 8 -11 15 -14 15 -36 0 -24 -15 -28 -14 -64 4 -43 22 -70 25 -80 10z"/>
<path d="M570 444 c0 -3 7 -12 15 -20 13 -13 15 -13 15 -1 0 8 -7 17 -15 21
-8 3 -15 3 -15 0z"/>
<path d="M2117 1353 c-4 -3 -7 -11 -7 -17 0 -6 5 -5 12 2 6 6 9 14 7 17 -3 3
-9 2 -12 -2z"/>
<path d="M2131 1194 c0 -11 3 -14 6 -6 3 7 2 16 -1 19 -3 4 -6 -2 -5 -13z"/>
</g>
</svg>
